G75*
G70*
%OFA0B0*%
%FSLAX24Y24*%
%IPPOS*%
%LPD*%
%AMOC8*
5,1,8,0,0,1.08239X$1,22.5*
%
%ADD10C,0.0040*%
%ADD11C,0.0000*%
%ADD12C,0.0050*%
%ADD13C,0.0098*%
%ADD14R,0.0003X0.0003*%
%ADD15R,0.0008X0.0003*%
%ADD16R,0.0005X0.0003*%
%ADD17R,0.0015X0.0003*%
%ADD18R,0.0020X0.0003*%
%ADD19R,0.0010X0.0003*%
%ADD20R,0.0018X0.0003*%
%ADD21R,0.0067X0.0003*%
%ADD22R,0.0013X0.0003*%
%ADD23R,0.0045X0.0003*%
%ADD24R,0.0077X0.0003*%
%ADD25R,0.0030X0.0003*%
%ADD26R,0.0032X0.0003*%
%ADD27R,0.0022X0.0003*%
%ADD28R,0.0127X0.0003*%
%ADD29R,0.0140X0.0003*%
%ADD30R,0.0025X0.0003*%
%ADD31R,0.0043X0.0003*%
%ADD32R,0.0053X0.0003*%
%ADD33R,0.0088X0.0003*%
%ADD34R,0.0035X0.0003*%
%ADD35R,0.0055X0.0003*%
%ADD36R,0.0040X0.0003*%
%ADD37R,0.0080X0.0003*%
%ADD38R,0.0065X0.0003*%
%ADD39R,0.0090X0.0003*%
%ADD40R,0.0143X0.0003*%
%ADD41R,0.0248X0.0003*%
%ADD42R,0.0293X0.0003*%
%ADD43R,0.0257X0.0003*%
%ADD44R,0.0037X0.0003*%
%ADD45R,0.0262X0.0003*%
%ADD46R,0.0027X0.0003*%
%ADD47R,0.0280X0.0003*%
%ADD48R,0.0070X0.0003*%
%ADD49R,0.0440X0.0003*%
%ADD50R,0.0315X0.0003*%
%ADD51R,0.0085X0.0003*%
%ADD52R,0.0330X0.0003*%
%ADD53R,0.0323X0.0003*%
%ADD54R,0.0107X0.0003*%
%ADD55R,0.0057X0.0003*%
%ADD56R,0.0490X0.0003*%
%ADD57R,0.0360X0.0003*%
%ADD58R,0.0512X0.0003*%
%ADD59R,0.0390X0.0003*%
%ADD60R,0.0565X0.0003*%
%ADD61R,0.0325X0.0003*%
%ADD62R,0.0168X0.0003*%
%ADD63R,0.0307X0.0003*%
%ADD64R,0.0152X0.0003*%
%ADD65R,0.0272X0.0003*%
%ADD66R,0.0132X0.0003*%
%ADD67R,0.0147X0.0003*%
%ADD68R,0.0243X0.0003*%
%ADD69R,0.0125X0.0003*%
%ADD70R,0.0240X0.0003*%
%ADD71R,0.0130X0.0003*%
%ADD72R,0.0225X0.0003*%
%ADD73R,0.0083X0.0003*%
%ADD74R,0.0222X0.0003*%
%ADD75R,0.0217X0.0003*%
%ADD76R,0.0120X0.0003*%
%ADD77R,0.0215X0.0003*%
%ADD78R,0.0118X0.0003*%
%ADD79R,0.0205X0.0003*%
%ADD80R,0.0103X0.0003*%
%ADD81R,0.0210X0.0003*%
%ADD82R,0.0097X0.0003*%
%ADD83R,0.0198X0.0003*%
%ADD84R,0.0100X0.0003*%
%ADD85R,0.0190X0.0003*%
%ADD86R,0.0187X0.0003*%
%ADD87R,0.0192X0.0003*%
%ADD88R,0.0170X0.0003*%
%ADD89R,0.0173X0.0003*%
%ADD90R,0.0182X0.0003*%
%ADD91R,0.0180X0.0003*%
%ADD92R,0.0047X0.0003*%
%ADD93R,0.0165X0.0003*%
%ADD94R,0.0163X0.0003*%
%ADD95R,0.0160X0.0003*%
%ADD96R,0.0158X0.0003*%
%ADD97R,0.0155X0.0003*%
%ADD98R,0.0092X0.0003*%
%ADD99R,0.0150X0.0003*%
%ADD100R,0.0105X0.0003*%
%ADD101R,0.0115X0.0003*%
%ADD102R,0.0145X0.0003*%
%ADD103R,0.0138X0.0003*%
%ADD104R,0.0135X0.0003*%
%ADD105R,0.0075X0.0003*%
%ADD106R,0.0063X0.0003*%
%ADD107R,0.0060X0.0003*%
%ADD108R,0.0050X0.0003*%
%ADD109R,0.0123X0.0003*%
%ADD110R,0.0112X0.0003*%
%ADD111R,0.0110X0.0003*%
%ADD112R,0.0073X0.0003*%
%ADD113R,0.0095X0.0003*%
%ADD114R,0.0185X0.0003*%
%ADD115R,0.0208X0.0003*%
%ADD116R,0.0235X0.0003*%
%ADD117R,0.0260X0.0003*%
%ADD118R,0.0267X0.0003*%
%ADD119R,0.0283X0.0003*%
%ADD120R,0.0295X0.0003*%
%ADD121R,0.0302X0.0003*%
%ADD122R,0.0320X0.0003*%
%ADD123R,0.0333X0.0003*%
%ADD124R,0.0338X0.0003*%
%ADD125R,0.0343X0.0003*%
%ADD126R,0.0350X0.0003*%
%ADD127R,0.0355X0.0003*%
%ADD128R,0.0365X0.0003*%
%ADD129R,0.0370X0.0003*%
%ADD130R,0.0375X0.0003*%
%ADD131R,0.0380X0.0003*%
%ADD132R,0.0382X0.0003*%
%ADD133R,0.0393X0.0003*%
%ADD134R,0.0398X0.0003*%
%ADD135R,0.0403X0.0003*%
%ADD136R,0.0405X0.0003*%
%ADD137R,0.0415X0.0003*%
%ADD138R,0.0177X0.0003*%
%ADD139R,0.0175X0.0003*%
%ADD140R,0.0195X0.0003*%
%ADD141R,0.0200X0.0003*%
%ADD142R,0.0203X0.0003*%
%ADD143R,0.0213X0.0003*%
%ADD144R,0.0220X0.0003*%
%ADD145R,0.0227X0.0003*%
%ADD146R,0.0230X0.0003*%
%ADD147R,0.0232X0.0003*%
%ADD148R,0.0238X0.0003*%
%ADD149R,0.0245X0.0003*%
%ADD150R,0.0250X0.0003*%
%ADD151R,0.0253X0.0003*%
%ADD152R,0.0255X0.0003*%
%ADD153R,0.0305X0.0003*%
%ADD154R,0.0318X0.0003*%
%ADD155R,0.0328X0.0003*%
%ADD156R,0.0335X0.0003*%
%ADD157R,0.0340X0.0003*%
%ADD158R,0.0352X0.0003*%
%ADD159R,0.0387X0.0003*%
%ADD160R,0.0410X0.0003*%
%ADD161R,0.0413X0.0003*%
%ADD162R,0.0430X0.0003*%
%ADD163R,0.0432X0.0003*%
%ADD164R,0.0428X0.0003*%
%ADD165R,0.0420X0.0003*%
%ADD166R,0.0435X0.0003*%
%ADD167R,0.0425X0.0003*%
%ADD168R,0.0423X0.0003*%
%ADD169R,0.0418X0.0003*%
%ADD170R,0.0372X0.0003*%
%ADD171R,0.0362X0.0003*%
%ADD172R,0.0348X0.0003*%
%ADD173R,0.0345X0.0003*%
%ADD174R,0.0310X0.0003*%
%ADD175R,0.0300X0.0003*%
%ADD176R,0.0297X0.0003*%
%ADD177R,0.0285X0.0003*%
%ADD178R,0.0278X0.0003*%
%ADD179R,0.0265X0.0003*%
%ADD180R,0.0010X0.0050*%
%ADD181R,0.0010X0.0040*%
%ADD182R,0.0010X0.0130*%
%ADD183R,0.0010X0.0070*%
%ADD184R,0.0010X0.0180*%
%ADD185R,0.0010X0.0080*%
%ADD186R,0.0010X0.0210*%
%ADD187R,0.0010X0.0090*%
%ADD188R,0.0010X0.0060*%
%ADD189R,0.0010X0.0010*%
%ADD190R,0.0010X0.0030*%
%ADD191R,0.0010X0.0020*%
%ADD192R,0.0010X0.0220*%
%ADD193R,0.0010X0.0100*%
%ADD194R,0.0010X0.0110*%
%ADD195R,0.0010X0.0120*%
%ADD196R,0.0010X0.0140*%
%ADD197R,0.0010X0.0150*%
%ADD198R,0.0010X0.0200*%
%ADD199R,0.0010X0.0170*%
%ADD200R,0.0010X0.0190*%
%ADD201R,0.0010X0.0160*%
%ADD202C,0.0060*%
D10*
X002678Y009175D02*
X002645Y009209D01*
X002645Y009275D01*
X002678Y009309D01*
X002845Y009309D01*
X002812Y009396D02*
X002778Y009396D01*
X002745Y009430D01*
X002745Y009496D01*
X002712Y009530D01*
X002678Y009530D01*
X002645Y009496D01*
X002645Y009430D01*
X002678Y009396D01*
X002812Y009396D02*
X002845Y009430D01*
X002845Y009496D01*
X002812Y009530D01*
X002845Y009617D02*
X002845Y009717D01*
X002812Y009751D01*
X002778Y009751D01*
X002745Y009717D01*
X002745Y009617D01*
X002645Y009617D02*
X002645Y009717D01*
X002678Y009751D01*
X002712Y009751D01*
X002745Y009717D01*
X002645Y009617D02*
X002845Y009617D01*
X002845Y009175D02*
X002678Y009175D01*
X002745Y010059D02*
X002645Y010193D01*
X002745Y010280D02*
X002745Y010414D01*
X002645Y010501D02*
X002745Y010635D01*
X002845Y010501D01*
X002845Y010193D02*
X002745Y010059D01*
X002745Y010943D02*
X002745Y011043D01*
X002712Y011077D01*
X002678Y011077D01*
X002645Y011043D01*
X002645Y010943D01*
X002845Y010943D01*
X002845Y011043D01*
X002812Y011077D01*
X002778Y011077D01*
X002745Y011043D01*
X002745Y011164D02*
X002745Y011298D01*
X002778Y011298D02*
X002645Y011298D01*
X002778Y011298D02*
X002845Y011231D01*
X002778Y011164D01*
X002645Y011164D01*
X002645Y011452D02*
X002845Y011452D01*
X002845Y011385D02*
X002845Y011519D01*
X005732Y012262D02*
X005732Y012492D01*
X005808Y012569D01*
X005885Y012569D01*
X005962Y012492D01*
X005962Y012262D01*
X005962Y012492D02*
X006038Y012569D01*
X006115Y012569D01*
X006192Y012492D01*
X006192Y012262D01*
X005732Y012262D01*
X005732Y012876D02*
X006192Y012876D01*
X006192Y013029D02*
X006192Y012722D01*
X006038Y013183D02*
X006192Y013336D01*
X005732Y013336D01*
X005732Y013183D02*
X005732Y013490D01*
X007417Y009415D02*
X007417Y009109D01*
X007493Y009109D02*
X007340Y009109D01*
X007263Y009185D01*
X007263Y009339D01*
X007417Y009415D02*
X007493Y009415D01*
X007570Y009339D01*
X007570Y009185D01*
X007493Y009109D01*
X007570Y008955D02*
X007263Y008802D01*
X007570Y008648D01*
X007570Y008418D02*
X007263Y008418D01*
X007263Y008341D02*
X007263Y008495D01*
X007340Y008188D02*
X007417Y008111D01*
X007417Y007958D01*
X007493Y007881D01*
X007570Y007958D01*
X007570Y008188D01*
X007570Y008341D02*
X007570Y008418D01*
X007340Y008188D02*
X007263Y008111D01*
X007263Y007881D01*
X007417Y007727D02*
X007417Y007420D01*
X007493Y007420D02*
X007340Y007420D01*
X007263Y007497D01*
X007263Y007651D01*
X007417Y007727D02*
X007493Y007727D01*
X007570Y007651D01*
X007570Y007497D01*
X007493Y007420D01*
X007493Y007267D02*
X007263Y007267D01*
X007493Y007267D02*
X007570Y007190D01*
X007570Y007037D01*
X007493Y006960D01*
X007570Y006807D02*
X007570Y006576D01*
X007493Y006500D01*
X007340Y006500D01*
X007263Y006576D01*
X007263Y006807D01*
X007723Y006807D01*
X007723Y006960D02*
X007263Y006960D01*
X007263Y006346D02*
X007263Y006116D01*
X007340Y006039D01*
X007417Y006116D01*
X007417Y006346D01*
X007493Y006346D02*
X007570Y006269D01*
X007570Y006116D01*
X007493Y006346D02*
X007263Y006346D01*
X008444Y006576D02*
X008828Y006576D01*
X008905Y006653D01*
X008751Y006807D02*
X008751Y006883D01*
X008444Y006883D01*
X008444Y006807D02*
X008444Y006960D01*
X008444Y007114D02*
X008751Y007420D01*
X008751Y007651D02*
X008751Y007804D01*
X008674Y007881D01*
X008444Y007881D01*
X008444Y007651D01*
X008521Y007574D01*
X008598Y007651D01*
X008598Y007881D01*
X008751Y008034D02*
X008751Y008188D01*
X008828Y008111D02*
X008521Y008111D01*
X008444Y008188D01*
X008444Y008341D02*
X008444Y008495D01*
X008444Y008418D02*
X008751Y008418D01*
X008751Y008341D01*
X008905Y008418D02*
X008981Y008418D01*
X008751Y008725D02*
X008674Y008648D01*
X008521Y008648D01*
X008444Y008725D01*
X008444Y008878D01*
X008521Y008955D01*
X008674Y008955D01*
X008751Y008878D01*
X008751Y008725D01*
X008751Y009109D02*
X008444Y009109D01*
X008444Y009415D02*
X008674Y009415D01*
X008751Y009339D01*
X008751Y009109D01*
X007800Y008418D02*
X007723Y008418D01*
X008444Y007420D02*
X008751Y007114D01*
X008905Y006883D02*
X008981Y006883D01*
X008674Y006653D02*
X008674Y006500D01*
D11*
X003708Y003348D02*
X002428Y003348D01*
X002428Y005120D01*
X003511Y005120D01*
X003554Y005122D01*
X003596Y005127D01*
X003638Y005137D01*
X003679Y005150D01*
X003719Y005166D01*
X003757Y005186D01*
X003793Y005209D01*
X003827Y005235D01*
X003859Y005264D01*
X003888Y005296D01*
X003914Y005330D01*
X003937Y005366D01*
X003957Y005404D01*
X003973Y005444D01*
X003986Y005485D01*
X003996Y005527D01*
X004001Y005569D01*
X004003Y005612D01*
X004001Y005655D01*
X003996Y005697D01*
X003986Y005739D01*
X003973Y005780D01*
X003957Y005820D01*
X003937Y005858D01*
X003914Y005894D01*
X003888Y005928D01*
X003859Y005960D01*
X003827Y005989D01*
X003793Y006015D01*
X003757Y006038D01*
X003719Y006058D01*
X003679Y006074D01*
X003638Y006087D01*
X003596Y006097D01*
X003554Y006102D01*
X003511Y006104D01*
X002428Y006104D01*
X002428Y012994D01*
X003511Y012994D01*
X003554Y012996D01*
X003596Y013001D01*
X003638Y013011D01*
X003679Y013024D01*
X003719Y013040D01*
X003757Y013060D01*
X003793Y013083D01*
X003827Y013109D01*
X003859Y013138D01*
X003888Y013170D01*
X003914Y013204D01*
X003937Y013240D01*
X003957Y013278D01*
X003973Y013318D01*
X003986Y013359D01*
X003996Y013401D01*
X004001Y013443D01*
X004003Y013486D01*
X004001Y013529D01*
X003996Y013571D01*
X003986Y013613D01*
X003973Y013654D01*
X003957Y013694D01*
X003937Y013732D01*
X003914Y013768D01*
X003888Y013802D01*
X003859Y013834D01*
X003827Y013863D01*
X003793Y013889D01*
X003757Y013912D01*
X003719Y013932D01*
X003679Y013948D01*
X003638Y013961D01*
X003596Y013971D01*
X003554Y013976D01*
X003511Y013978D01*
X002428Y013978D01*
X002428Y017817D01*
X002430Y017856D01*
X002436Y017894D01*
X002445Y017931D01*
X002458Y017968D01*
X002475Y018003D01*
X002494Y018036D01*
X002517Y018067D01*
X002543Y018096D01*
X002572Y018122D01*
X002603Y018145D01*
X002636Y018164D01*
X002671Y018181D01*
X002708Y018194D01*
X002745Y018203D01*
X002783Y018209D01*
X002822Y018211D01*
X002822Y018210D02*
X011385Y018210D01*
X011385Y016931D01*
X011387Y016865D01*
X011392Y016799D01*
X011402Y016733D01*
X011415Y016668D01*
X011431Y016604D01*
X011451Y016541D01*
X011475Y016479D01*
X011502Y016419D01*
X011532Y016360D01*
X011566Y016303D01*
X011603Y016248D01*
X011643Y016195D01*
X011685Y016144D01*
X011731Y016096D01*
X011779Y016050D01*
X011830Y016008D01*
X011883Y015968D01*
X011938Y015931D01*
X011995Y015897D01*
X012054Y015867D01*
X012114Y015840D01*
X012176Y015816D01*
X012239Y015796D01*
X012303Y015780D01*
X012368Y015767D01*
X012434Y015757D01*
X012500Y015752D01*
X012566Y015750D01*
X013845Y015750D01*
X013845Y013978D01*
X012763Y013978D01*
X012720Y013976D01*
X012678Y013971D01*
X012636Y013961D01*
X012595Y013948D01*
X012555Y013932D01*
X012517Y013912D01*
X012481Y013889D01*
X012447Y013863D01*
X012415Y013834D01*
X012386Y013802D01*
X012360Y013768D01*
X012337Y013732D01*
X012317Y013694D01*
X012301Y013654D01*
X012288Y013613D01*
X012278Y013571D01*
X012273Y013529D01*
X012271Y013486D01*
X012273Y013443D01*
X012278Y013401D01*
X012288Y013359D01*
X012301Y013318D01*
X012317Y013278D01*
X012337Y013240D01*
X012360Y013204D01*
X012386Y013170D01*
X012415Y013138D01*
X012447Y013109D01*
X012481Y013083D01*
X012517Y013060D01*
X012555Y013040D01*
X012595Y013024D01*
X012636Y013011D01*
X012678Y013001D01*
X012720Y012996D01*
X012763Y012994D01*
X013845Y012994D01*
X013845Y006104D01*
X012763Y006104D01*
X012720Y006102D01*
X012678Y006097D01*
X012636Y006087D01*
X012595Y006074D01*
X012555Y006058D01*
X012517Y006038D01*
X012481Y006015D01*
X012447Y005989D01*
X012415Y005960D01*
X012386Y005928D01*
X012360Y005894D01*
X012337Y005858D01*
X012317Y005820D01*
X012301Y005780D01*
X012288Y005739D01*
X012278Y005697D01*
X012273Y005655D01*
X012271Y005612D01*
X012273Y005569D01*
X012278Y005527D01*
X012288Y005485D01*
X012301Y005444D01*
X012317Y005404D01*
X012337Y005366D01*
X012360Y005330D01*
X012386Y005296D01*
X012415Y005264D01*
X012447Y005235D01*
X012481Y005209D01*
X012517Y005186D01*
X012555Y005166D01*
X012595Y005150D01*
X012636Y005137D01*
X012678Y005127D01*
X012720Y005122D01*
X012763Y005120D01*
X013845Y005120D01*
X013845Y001281D01*
X013846Y001281D02*
X013844Y001242D01*
X013838Y001204D01*
X013829Y001167D01*
X013816Y001130D01*
X013799Y001095D01*
X013780Y001062D01*
X013757Y001031D01*
X013731Y001002D01*
X013702Y000976D01*
X013671Y000953D01*
X013638Y000934D01*
X013603Y000917D01*
X013566Y000904D01*
X013529Y000895D01*
X013491Y000889D01*
X013452Y000887D01*
X013452Y000888D02*
X004889Y000888D01*
X004889Y002167D01*
X004887Y002233D01*
X004882Y002299D01*
X004872Y002365D01*
X004859Y002430D01*
X004843Y002494D01*
X004823Y002557D01*
X004799Y002619D01*
X004772Y002679D01*
X004742Y002738D01*
X004708Y002795D01*
X004671Y002850D01*
X004631Y002903D01*
X004589Y002954D01*
X004543Y003002D01*
X004495Y003048D01*
X004444Y003090D01*
X004391Y003130D01*
X004336Y003167D01*
X004279Y003201D01*
X004220Y003231D01*
X004160Y003258D01*
X004098Y003282D01*
X004035Y003302D01*
X003971Y003318D01*
X003906Y003331D01*
X003840Y003341D01*
X003774Y003346D01*
X003708Y003348D01*
X007094Y002659D02*
X007096Y002685D01*
X007102Y002711D01*
X007112Y002736D01*
X007125Y002759D01*
X007141Y002779D01*
X007161Y002797D01*
X007183Y002812D01*
X007206Y002824D01*
X007232Y002832D01*
X007258Y002836D01*
X007284Y002836D01*
X007310Y002832D01*
X007336Y002824D01*
X007360Y002812D01*
X007381Y002797D01*
X007401Y002779D01*
X007417Y002759D01*
X007430Y002736D01*
X007440Y002711D01*
X007446Y002685D01*
X007448Y002659D01*
X007446Y002633D01*
X007440Y002607D01*
X007430Y002582D01*
X007417Y002559D01*
X007401Y002539D01*
X007381Y002521D01*
X007359Y002506D01*
X007336Y002494D01*
X007310Y002486D01*
X007284Y002482D01*
X007258Y002482D01*
X007232Y002486D01*
X007206Y002494D01*
X007182Y002506D01*
X007161Y002521D01*
X007141Y002539D01*
X007125Y002559D01*
X007112Y002582D01*
X007102Y002607D01*
X007096Y002633D01*
X007094Y002659D01*
X008826Y002659D02*
X008828Y002685D01*
X008834Y002711D01*
X008844Y002736D01*
X008857Y002759D01*
X008873Y002779D01*
X008893Y002797D01*
X008915Y002812D01*
X008938Y002824D01*
X008964Y002832D01*
X008990Y002836D01*
X009016Y002836D01*
X009042Y002832D01*
X009068Y002824D01*
X009092Y002812D01*
X009113Y002797D01*
X009133Y002779D01*
X009149Y002759D01*
X009162Y002736D01*
X009172Y002711D01*
X009178Y002685D01*
X009180Y002659D01*
X009178Y002633D01*
X009172Y002607D01*
X009162Y002582D01*
X009149Y002559D01*
X009133Y002539D01*
X009113Y002521D01*
X009091Y002506D01*
X009068Y002494D01*
X009042Y002486D01*
X009016Y002482D01*
X008990Y002482D01*
X008964Y002486D01*
X008938Y002494D01*
X008914Y002506D01*
X008893Y002521D01*
X008873Y002539D01*
X008857Y002559D01*
X008844Y002582D01*
X008834Y002607D01*
X008828Y002633D01*
X008826Y002659D01*
D12*
X009318Y002659D02*
X009318Y002069D01*
X009712Y002069D01*
X009712Y003250D01*
X011286Y003250D01*
X011286Y005218D01*
X011286Y009943D01*
X011286Y011911D01*
X009712Y011911D01*
X009712Y013092D01*
X009318Y013092D01*
X009318Y012502D01*
X006956Y012502D01*
X006956Y013092D01*
X006562Y013092D01*
X006562Y011911D01*
X004987Y011911D01*
X004987Y009943D01*
X004987Y005218D01*
X004987Y003840D01*
X005578Y003250D01*
X006562Y003250D01*
X006562Y002069D01*
X006956Y002069D01*
X006956Y002659D01*
X009318Y002659D01*
X009318Y003643D01*
X006956Y003643D01*
X006956Y002659D01*
X006956Y003643D02*
X006956Y003840D01*
X006956Y005218D02*
X006956Y009943D01*
X009318Y009943D01*
X009318Y005218D01*
X006956Y005218D01*
X006956Y003840D02*
X006777Y003899D01*
X006602Y003967D01*
X006430Y004043D01*
X006262Y004127D01*
X006098Y004220D01*
X005939Y004320D01*
X005785Y004428D01*
X005637Y004543D01*
X005494Y004665D01*
X005357Y004794D01*
X005227Y004929D01*
X005103Y005071D01*
X004987Y005218D01*
X004987Y009942D02*
X005104Y010089D01*
X005228Y010230D01*
X005359Y010365D01*
X005496Y010494D01*
X005638Y010616D01*
X005787Y010731D01*
X005941Y010839D01*
X006100Y010939D01*
X006263Y011031D01*
X006431Y011116D01*
X006602Y011192D01*
X006777Y011261D01*
X006956Y011320D01*
X006956Y011321D02*
X006956Y011517D01*
X009318Y011517D01*
X009318Y011321D01*
X009318Y011517D02*
X009318Y012502D01*
X006956Y012502D02*
X006956Y011517D01*
X005184Y011321D02*
X005186Y011360D01*
X005192Y011399D01*
X005202Y011437D01*
X005215Y011474D01*
X005232Y011509D01*
X005252Y011543D01*
X005276Y011574D01*
X005303Y011603D01*
X005332Y011629D01*
X005364Y011652D01*
X005398Y011672D01*
X005434Y011688D01*
X005471Y011700D01*
X005510Y011709D01*
X005549Y011714D01*
X005588Y011715D01*
X005627Y011712D01*
X005666Y011705D01*
X005703Y011694D01*
X005740Y011680D01*
X005775Y011662D01*
X005808Y011641D01*
X005839Y011616D01*
X005867Y011589D01*
X005892Y011559D01*
X005914Y011526D01*
X005933Y011492D01*
X005948Y011456D01*
X005960Y011418D01*
X005968Y011380D01*
X005972Y011341D01*
X005972Y011301D01*
X005968Y011262D01*
X005960Y011224D01*
X005948Y011186D01*
X005933Y011150D01*
X005914Y011116D01*
X005892Y011083D01*
X005867Y011053D01*
X005839Y011026D01*
X005808Y011001D01*
X005775Y010980D01*
X005740Y010962D01*
X005703Y010948D01*
X005666Y010937D01*
X005627Y010930D01*
X005588Y010927D01*
X005549Y010928D01*
X005510Y010933D01*
X005471Y010942D01*
X005434Y010954D01*
X005398Y010970D01*
X005364Y010990D01*
X005332Y011013D01*
X005303Y011039D01*
X005276Y011068D01*
X005252Y011099D01*
X005232Y011133D01*
X005215Y011168D01*
X005202Y011205D01*
X005192Y011243D01*
X005186Y011282D01*
X005184Y011321D01*
X009318Y003840D02*
X009496Y003901D01*
X009671Y003970D01*
X009842Y004047D01*
X010009Y004132D01*
X010173Y004224D01*
X010331Y004325D01*
X010485Y004432D01*
X010634Y004547D01*
X010777Y004669D01*
X010914Y004797D01*
X011045Y004932D01*
X011169Y005072D01*
X011287Y005218D01*
X010302Y003840D02*
X010304Y003879D01*
X010310Y003918D01*
X010320Y003956D01*
X010333Y003993D01*
X010350Y004028D01*
X010370Y004062D01*
X010394Y004093D01*
X010421Y004122D01*
X010450Y004148D01*
X010482Y004171D01*
X010516Y004191D01*
X010552Y004207D01*
X010589Y004219D01*
X010628Y004228D01*
X010667Y004233D01*
X010706Y004234D01*
X010745Y004231D01*
X010784Y004224D01*
X010821Y004213D01*
X010858Y004199D01*
X010893Y004181D01*
X010926Y004160D01*
X010957Y004135D01*
X010985Y004108D01*
X011010Y004078D01*
X011032Y004045D01*
X011051Y004011D01*
X011066Y003975D01*
X011078Y003937D01*
X011086Y003899D01*
X011090Y003860D01*
X011090Y003820D01*
X011086Y003781D01*
X011078Y003743D01*
X011066Y003705D01*
X011051Y003669D01*
X011032Y003635D01*
X011010Y003602D01*
X010985Y003572D01*
X010957Y003545D01*
X010926Y003520D01*
X010893Y003499D01*
X010858Y003481D01*
X010821Y003467D01*
X010784Y003456D01*
X010745Y003449D01*
X010706Y003446D01*
X010667Y003447D01*
X010628Y003452D01*
X010589Y003461D01*
X010552Y003473D01*
X010516Y003489D01*
X010482Y003509D01*
X010450Y003532D01*
X010421Y003558D01*
X010394Y003587D01*
X010370Y003618D01*
X010350Y003652D01*
X010333Y003687D01*
X010320Y003724D01*
X010310Y003762D01*
X010304Y003801D01*
X010302Y003840D01*
X009318Y003840D02*
X009318Y003643D01*
X011286Y009942D02*
X011169Y010089D01*
X011045Y010230D01*
X010914Y010365D01*
X010777Y010494D01*
X010635Y010616D01*
X010486Y010731D01*
X010332Y010839D01*
X010173Y010939D01*
X010010Y011031D01*
X009842Y011116D01*
X009671Y011192D01*
X009496Y011261D01*
X009317Y011320D01*
D13*
X005775Y011321D02*
X005381Y011321D01*
X010696Y004037D02*
X010696Y003643D01*
X010499Y003840D02*
X010893Y003840D01*
D14*
X011284Y014371D03*
X011284Y014373D03*
X011284Y014376D03*
X011284Y014381D03*
X011284Y014386D03*
X011277Y014381D03*
X011277Y014378D03*
X011277Y014376D03*
X011269Y014381D03*
X011272Y014391D03*
X011267Y014393D03*
X011264Y014396D03*
X011257Y014403D03*
X011252Y014401D03*
X011247Y014401D03*
X011244Y014403D03*
X011239Y014401D03*
X011232Y014393D03*
X011234Y014391D03*
X011234Y014388D03*
X011237Y014381D03*
X011227Y014393D03*
X011227Y014396D03*
X011222Y014403D03*
X011222Y014406D03*
X011217Y014401D03*
X011212Y014403D03*
X011209Y014398D03*
X011204Y014391D03*
X011197Y014391D03*
X011194Y014396D03*
X011194Y014403D03*
X011189Y014403D03*
X011182Y014403D03*
X011179Y014406D03*
X011184Y014411D03*
X011177Y014413D03*
X011177Y014416D03*
X011169Y014416D03*
X011164Y014411D03*
X011157Y014411D03*
X011162Y014418D03*
X011177Y014426D03*
X011177Y014428D03*
X011197Y014413D03*
X011202Y014413D03*
X011207Y014411D03*
X011199Y014403D03*
X011184Y014388D03*
X011174Y014393D03*
X011172Y014391D03*
X011169Y014393D03*
X011164Y014393D03*
X011164Y014396D03*
X011169Y014398D03*
X011149Y014406D03*
X011144Y014406D03*
X011139Y014403D03*
X011137Y014401D03*
X011134Y014411D03*
X011142Y014416D03*
X011127Y014423D03*
X011124Y014418D03*
X011119Y014418D03*
X011117Y014416D03*
X011112Y014413D03*
X011114Y014408D03*
X011114Y014406D03*
X011119Y014401D03*
X011112Y014396D03*
X011107Y014411D03*
X011099Y014411D03*
X011089Y014411D03*
X011089Y014416D03*
X011087Y014418D03*
X011079Y014421D03*
X011074Y014418D03*
X011074Y014411D03*
X011067Y014411D03*
X011059Y014406D03*
X011057Y014408D03*
X011054Y014413D03*
X011057Y014416D03*
X011052Y014418D03*
X011049Y014423D03*
X011044Y014423D03*
X011044Y014418D03*
X011044Y014416D03*
X011047Y014413D03*
X011049Y014411D03*
X011037Y014413D03*
X011034Y014416D03*
X011024Y014418D03*
X011022Y014421D03*
X011017Y014418D03*
X011004Y014421D03*
X011002Y014426D03*
X011004Y014433D03*
X011004Y014436D03*
X011002Y014438D03*
X010997Y014438D03*
X010999Y014433D03*
X010989Y014436D03*
X010989Y014438D03*
X010984Y014441D03*
X010982Y014443D03*
X010979Y014446D03*
X010977Y014448D03*
X010977Y014451D03*
X010974Y014453D03*
X010972Y014451D03*
X010967Y014451D03*
X010974Y014446D03*
X010987Y014451D03*
X011002Y014446D03*
X011012Y014441D03*
X011012Y014431D03*
X011032Y014428D03*
X011037Y014426D03*
X011057Y014426D03*
X011062Y014421D03*
X011082Y014408D03*
X011084Y014406D03*
X011099Y014421D03*
X011097Y014428D03*
X011132Y014391D03*
X011144Y014393D03*
X011149Y014463D03*
X011164Y014461D03*
X011172Y014458D03*
X011207Y014461D03*
X011219Y014461D03*
X011249Y014396D03*
X011254Y014391D03*
X011257Y014386D03*
X011282Y014396D03*
X011282Y014401D03*
X011287Y014401D03*
X011287Y014398D03*
X011292Y014398D03*
X011292Y014401D03*
X011289Y014393D03*
X011294Y014391D03*
X011299Y014386D03*
X011294Y014383D03*
X011307Y014381D03*
X011312Y014383D03*
X011317Y014391D03*
X011322Y014386D03*
X011322Y014383D03*
X011324Y014388D03*
X011329Y014381D03*
X011337Y014383D03*
X011342Y014383D03*
X011344Y014381D03*
X011337Y014376D03*
X011324Y014371D03*
X011354Y014381D03*
X011359Y014383D03*
X011362Y014381D03*
X011364Y014386D03*
X011369Y014383D03*
X011372Y014386D03*
X011374Y014383D03*
X011374Y014376D03*
X011367Y014378D03*
X011384Y014391D03*
X011389Y014391D03*
X011397Y014388D03*
X011404Y014391D03*
X011409Y014391D03*
X011417Y014396D03*
X011417Y014401D03*
X011422Y014396D03*
X011429Y014396D03*
X011434Y014398D03*
X011439Y014401D03*
X011437Y014408D03*
X011452Y014411D03*
X011474Y014413D03*
X011474Y014416D03*
X011482Y014421D03*
X011487Y014428D03*
X011494Y014428D03*
X011494Y014426D03*
X011507Y014441D03*
X011504Y014443D03*
X011507Y014446D03*
X011532Y014443D03*
X011382Y014416D03*
X011389Y014381D03*
X010999Y014461D03*
X010979Y014468D03*
X010977Y014471D03*
X010957Y014463D03*
X010957Y014461D03*
X010954Y014466D03*
X010952Y014468D03*
X010949Y014466D03*
X010944Y014466D03*
X010937Y014473D03*
X010934Y014476D03*
X010942Y014478D03*
X010949Y014481D03*
X010944Y014486D03*
X010942Y014488D03*
X010937Y014488D03*
X010932Y014491D03*
X010929Y014493D03*
X010927Y014496D03*
X010927Y014498D03*
X010922Y014498D03*
X010922Y014493D03*
X010924Y014491D03*
X010924Y014488D03*
X010922Y014486D03*
X010919Y014488D03*
X010914Y014488D03*
X010909Y014491D03*
X010909Y014476D03*
X010919Y014471D03*
X010929Y014486D03*
X010932Y014501D03*
X010937Y014501D03*
X010942Y014501D03*
X010937Y014508D03*
X010944Y014511D03*
X010939Y014516D03*
X010927Y014518D03*
X010919Y014508D03*
X010919Y014506D03*
X010919Y014503D03*
X010909Y014511D03*
X010907Y014508D03*
X010902Y014508D03*
X010902Y014513D03*
X010897Y014513D03*
X010892Y014513D03*
X010887Y014506D03*
X010882Y014503D03*
X010884Y014501D03*
X010877Y014503D03*
X010877Y014506D03*
X010877Y014508D03*
X010872Y014501D03*
X010867Y014501D03*
X010867Y014498D03*
X010862Y014496D03*
X010862Y014503D03*
X010862Y014506D03*
X010869Y014513D03*
X010869Y014516D03*
X010859Y014523D03*
X010854Y014521D03*
X010857Y014516D03*
X010852Y014513D03*
X010844Y014516D03*
X010844Y014518D03*
X010839Y014521D03*
X010837Y014523D03*
X010837Y014528D03*
X010832Y014528D03*
X010827Y014528D03*
X010842Y014531D03*
X010844Y014528D03*
X010849Y014531D03*
X010857Y014531D03*
X010864Y014536D03*
X010872Y014538D03*
X010892Y014546D03*
X010899Y014546D03*
X010907Y014536D03*
X010912Y014548D03*
X010922Y014546D03*
X010932Y014536D03*
X010937Y014536D03*
X010947Y014531D03*
X010947Y014528D03*
X010952Y014528D03*
X010964Y014523D03*
X010967Y014521D03*
X010979Y014516D03*
X010957Y014453D03*
X010887Y014486D03*
X010882Y014516D03*
X010842Y014511D03*
X010812Y014543D03*
X010804Y014551D03*
X010792Y014551D03*
X010787Y014551D03*
X010789Y014546D03*
X010792Y014543D03*
X010802Y014538D03*
X010777Y014551D03*
X010772Y014563D03*
X010767Y014563D03*
X010757Y014581D03*
X010752Y014578D03*
X010747Y014578D03*
X010744Y014583D03*
X010742Y014588D03*
X010737Y014588D03*
X010737Y014593D03*
X010732Y014598D03*
X010734Y014601D03*
X010734Y014606D03*
X010739Y014606D03*
X010732Y014621D03*
X010719Y014616D03*
X010717Y014608D03*
X010717Y014606D03*
X010719Y014603D03*
X010707Y014613D03*
X010709Y014623D03*
X010714Y014626D03*
X010714Y014628D03*
X010712Y014631D03*
X010707Y014641D03*
X010702Y014641D03*
X010702Y014638D03*
X010699Y014633D03*
X010699Y014643D03*
X010694Y014643D03*
X010694Y014646D03*
X010689Y014646D03*
X010694Y014653D03*
X010697Y014656D03*
X010699Y014653D03*
X010699Y014651D03*
X010704Y014653D03*
X010707Y014663D03*
X010699Y014666D03*
X010694Y014668D03*
X010694Y014663D03*
X010692Y014661D03*
X010687Y014671D03*
X010682Y014673D03*
X010679Y014681D03*
X010687Y014688D03*
X010684Y014691D03*
X010684Y014693D03*
X010689Y014693D03*
X010694Y014698D03*
X010699Y014698D03*
X010702Y014701D03*
X010702Y014703D03*
X010704Y014698D03*
X010704Y014711D03*
X010699Y014711D03*
X010692Y014718D03*
X010684Y014711D03*
X010679Y014718D03*
X010672Y014721D03*
X010667Y014721D03*
X010664Y014718D03*
X010664Y014716D03*
X010664Y014713D03*
X010664Y014711D03*
X010669Y014713D03*
X010674Y014703D03*
X010674Y014696D03*
X010669Y014691D03*
X010662Y014691D03*
X010662Y014693D03*
X010662Y014696D03*
X010664Y014701D03*
X010654Y014691D03*
X010659Y014683D03*
X010664Y014683D03*
X010667Y014676D03*
X010664Y014671D03*
X010654Y014666D03*
X010644Y014698D03*
X010647Y014703D03*
X010652Y014708D03*
X010657Y014713D03*
X010644Y014713D03*
X010639Y014713D03*
X010637Y014711D03*
X010637Y014708D03*
X010629Y014711D03*
X010627Y014708D03*
X010627Y014721D03*
X010627Y014723D03*
X010622Y014723D03*
X010617Y014726D03*
X010609Y014721D03*
X010607Y014723D03*
X010602Y014733D03*
X010607Y014736D03*
X010609Y014738D03*
X010604Y014741D03*
X010604Y014743D03*
X010604Y014746D03*
X010602Y014753D03*
X010607Y014761D03*
X010607Y014768D03*
X010604Y014778D03*
X010587Y014776D03*
X010577Y014776D03*
X010577Y014778D03*
X010572Y014778D03*
X010574Y014773D03*
X010577Y014771D03*
X010577Y014766D03*
X010574Y014763D03*
X010567Y014763D03*
X010564Y014771D03*
X010564Y014773D03*
X010567Y014776D03*
X010572Y014786D03*
X010577Y014786D03*
X010577Y014796D03*
X010569Y014793D03*
X010564Y014793D03*
X010564Y014791D03*
X010567Y014798D03*
X010567Y014808D03*
X010567Y014811D03*
X010567Y014816D03*
X010562Y014813D03*
X010562Y014811D03*
X010554Y014811D03*
X010554Y014806D03*
X010554Y014801D03*
X010547Y014808D03*
X010544Y014811D03*
X010539Y014806D03*
X010547Y014818D03*
X010549Y014821D03*
X010549Y014823D03*
X010547Y014826D03*
X010544Y014823D03*
X010537Y014823D03*
X010532Y014826D03*
X010537Y014833D03*
X010544Y014836D03*
X010547Y014831D03*
X010554Y014836D03*
X010557Y014831D03*
X010557Y014826D03*
X010569Y014846D03*
X010574Y014846D03*
X010557Y014858D03*
X010552Y014868D03*
X010552Y014871D03*
X010547Y014871D03*
X010542Y014873D03*
X010539Y014876D03*
X010534Y014883D03*
X010532Y014886D03*
X010524Y014883D03*
X010519Y014883D03*
X010517Y014888D03*
X010512Y014883D03*
X010512Y014878D03*
X010507Y014886D03*
X010499Y014883D03*
X010492Y014893D03*
X010487Y014891D03*
X010497Y014896D03*
X010502Y014898D03*
X010504Y014903D03*
X010494Y014903D03*
X010499Y014913D03*
X010494Y014918D03*
X010502Y014923D03*
X010507Y014921D03*
X010512Y014921D03*
X010517Y014921D03*
X010509Y014916D03*
X010514Y014901D03*
X010519Y014903D03*
X010524Y014903D03*
X010524Y014898D03*
X010532Y014908D03*
X010539Y014916D03*
X010532Y014921D03*
X010524Y014931D03*
X010522Y014938D03*
X010514Y014943D03*
X010514Y014946D03*
X010509Y014946D03*
X010509Y014936D03*
X010497Y014938D03*
X010492Y014938D03*
X010492Y014936D03*
X010494Y014931D03*
X010484Y014926D03*
X010482Y014921D03*
X010479Y014918D03*
X010482Y014916D03*
X010479Y014913D03*
X010472Y014906D03*
X010464Y014928D03*
X010462Y014931D03*
X010457Y014928D03*
X010469Y014933D03*
X010474Y014933D03*
X010479Y014933D03*
X010479Y014931D03*
X010474Y014941D03*
X010472Y014946D03*
X010467Y014946D03*
X010477Y014948D03*
X010474Y014961D03*
X010482Y014963D03*
X010499Y014961D03*
X010504Y014961D03*
X010509Y014958D03*
X010499Y014971D03*
X010489Y014981D03*
X010487Y014988D03*
X010459Y014971D03*
X010459Y014968D03*
X010454Y014968D03*
X010449Y014968D03*
X010449Y014963D03*
X010442Y014966D03*
X010439Y014963D03*
X010434Y014963D03*
X010432Y014968D03*
X010429Y014973D03*
X010432Y014976D03*
X010434Y014981D03*
X010432Y014983D03*
X010432Y014986D03*
X010437Y014986D03*
X010439Y014983D03*
X010444Y014983D03*
X010439Y014991D03*
X010427Y014983D03*
X010417Y014983D03*
X010417Y014986D03*
X010414Y014988D03*
X010412Y014986D03*
X010407Y014986D03*
X010402Y014988D03*
X010409Y014998D03*
X010414Y014998D03*
X010414Y015001D03*
X010412Y015003D03*
X010417Y015003D03*
X010414Y014993D03*
X010417Y014991D03*
X010407Y015006D03*
X010399Y015003D03*
X010392Y015013D03*
X010394Y015021D03*
X010392Y015023D03*
X010389Y015028D03*
X010392Y015031D03*
X010389Y015033D03*
X010382Y015033D03*
X010382Y015031D03*
X010382Y015038D03*
X010387Y015046D03*
X010387Y015051D03*
X010382Y015051D03*
X010377Y015051D03*
X010374Y015058D03*
X010379Y015066D03*
X010374Y015068D03*
X010372Y015071D03*
X010369Y015076D03*
X010364Y015081D03*
X010367Y015083D03*
X010367Y015091D03*
X010364Y015093D03*
X010372Y015093D03*
X010372Y015091D03*
X010384Y015093D03*
X010387Y015086D03*
X010379Y015073D03*
X010389Y015061D03*
X010362Y015068D03*
X010359Y015073D03*
X010352Y015078D03*
X010354Y015081D03*
X010352Y015083D03*
X010349Y015086D03*
X010354Y015088D03*
X010357Y015086D03*
X010354Y015096D03*
X010349Y015101D03*
X010347Y015098D03*
X010347Y015096D03*
X010334Y015116D03*
X010334Y015118D03*
X010332Y015123D03*
X010334Y015131D03*
X010332Y015133D03*
X010327Y015133D03*
X010327Y015141D03*
X010332Y015143D03*
X010322Y015146D03*
X010317Y015148D03*
X010317Y015151D03*
X010317Y015158D03*
X010309Y015161D03*
X010309Y015166D03*
X010304Y015166D03*
X010312Y015173D03*
X010294Y015181D03*
X010294Y015183D03*
X010297Y015186D03*
X010297Y015188D03*
X010289Y015211D03*
X010282Y015211D03*
X010282Y015213D03*
X010279Y015216D03*
X010277Y015221D03*
X010272Y015231D03*
X010369Y015206D03*
X010389Y015156D03*
X010372Y015148D03*
X010354Y015121D03*
X010364Y015113D03*
X010369Y015113D03*
X010394Y015118D03*
X010339Y015128D03*
X010319Y015138D03*
X010397Y015031D03*
X010399Y015023D03*
X010404Y015021D03*
X010409Y015021D03*
X010402Y015016D03*
X010427Y014958D03*
X010442Y014958D03*
X010442Y014956D03*
X010447Y014946D03*
X010454Y014951D03*
X010439Y014941D03*
X010439Y014938D03*
X010437Y014933D03*
X010449Y014973D03*
X010439Y015071D03*
X010527Y014878D03*
X010527Y014873D03*
X010522Y014873D03*
X010522Y014863D03*
X010517Y014856D03*
X010524Y014846D03*
X010519Y014841D03*
X010534Y014856D03*
X010532Y014861D03*
X010532Y014866D03*
X010542Y014851D03*
X010567Y014873D03*
X010557Y014883D03*
X010504Y014861D03*
X010609Y014818D03*
X010582Y014763D03*
X010584Y014756D03*
X010589Y014758D03*
X010577Y014753D03*
X010599Y014738D03*
X010614Y014748D03*
X010617Y014743D03*
X010622Y014743D03*
X010622Y014741D03*
X010627Y014743D03*
X010627Y014738D03*
X010637Y014736D03*
X010639Y014726D03*
X010639Y014721D03*
X010634Y014721D03*
X010644Y014721D03*
X010644Y014718D03*
X010657Y014736D03*
X010654Y014753D03*
X010679Y014728D03*
X010684Y014728D03*
X010684Y014726D03*
X010684Y014733D03*
X010699Y014681D03*
X010694Y014676D03*
X010707Y014681D03*
X010729Y014686D03*
X010727Y014643D03*
X010722Y014643D03*
X010717Y014643D03*
X010724Y014638D03*
X010762Y014588D03*
X010879Y014561D03*
X009844Y016058D03*
X009754Y016048D03*
X009274Y016096D03*
X009364Y016683D03*
X009114Y016701D03*
X009089Y016711D03*
X008507Y016856D03*
X008304Y016611D03*
X008167Y016308D03*
X007937Y017003D03*
X007867Y017021D03*
X007724Y017133D03*
X007552Y017168D03*
X007492Y017176D03*
X007424Y017176D03*
X007589Y016768D03*
X009704Y016778D03*
D15*
X009364Y016681D03*
X009737Y016131D03*
X010324Y015153D03*
X010324Y015151D03*
X010332Y015148D03*
X010339Y015126D03*
X010339Y015123D03*
X010347Y015121D03*
X010347Y015118D03*
X010352Y015111D03*
X010357Y015118D03*
X010364Y015121D03*
X010374Y015108D03*
X010357Y015101D03*
X010357Y015093D03*
X010357Y015091D03*
X010374Y015088D03*
X010379Y015086D03*
X010382Y015058D03*
X010379Y015053D03*
X010387Y015041D03*
X010389Y015038D03*
X010399Y015033D03*
X010424Y015003D03*
X010422Y014988D03*
X010452Y014971D03*
X010459Y014966D03*
X010464Y014963D03*
X010462Y014958D03*
X010462Y014956D03*
X010467Y014951D03*
X010467Y014941D03*
X010477Y014943D03*
X010474Y014963D03*
X010464Y014981D03*
X010494Y014923D03*
X010502Y014918D03*
X010509Y014923D03*
X010514Y014918D03*
X010527Y014918D03*
X010529Y014913D03*
X010532Y014916D03*
X010524Y014908D03*
X010527Y014888D03*
X010519Y014878D03*
X010522Y014876D03*
X010539Y014886D03*
X010544Y014883D03*
X010547Y014878D03*
X010547Y014876D03*
X010549Y014873D03*
X010557Y014876D03*
X010559Y014873D03*
X010559Y014871D03*
X010564Y014856D03*
X010572Y014861D03*
X010574Y014858D03*
X010547Y014848D03*
X010544Y014846D03*
X010572Y014813D03*
X010569Y014803D03*
X010589Y014773D03*
X010589Y014771D03*
X010589Y014763D03*
X010597Y014778D03*
X010614Y014768D03*
X010647Y014753D03*
X010649Y014746D03*
X010662Y014751D03*
X010672Y014728D03*
X010672Y014718D03*
X010672Y014716D03*
X010677Y014706D03*
X010692Y014711D03*
X010694Y014716D03*
X010657Y014718D03*
X010654Y014711D03*
X010642Y014723D03*
X010639Y014731D03*
X010629Y014731D03*
X010627Y014726D03*
X010634Y014718D03*
X010707Y014678D03*
X010714Y014676D03*
X010714Y014671D03*
X010717Y014663D03*
X010722Y014668D03*
X010727Y014676D03*
X010709Y014651D03*
X010699Y014661D03*
X010717Y014636D03*
X010714Y014633D03*
X010739Y014611D03*
X010752Y014583D03*
X010757Y014571D03*
X010799Y014541D03*
X010812Y014538D03*
X010817Y014531D03*
X010844Y014526D03*
X010844Y014523D03*
X010852Y014518D03*
X010854Y014533D03*
X010887Y014521D03*
X010909Y014518D03*
X010909Y014513D03*
X010919Y014513D03*
X010919Y014518D03*
X010924Y014526D03*
X010934Y014518D03*
X010937Y014531D03*
X010919Y014543D03*
X010884Y014566D03*
X010914Y014496D03*
X010944Y014493D03*
X010949Y014501D03*
X010942Y014483D03*
X010952Y014473D03*
X010972Y014456D03*
X010984Y014453D03*
X010999Y014451D03*
X010999Y014443D03*
X011012Y014438D03*
X011024Y014428D03*
X011022Y014423D03*
X011032Y014423D03*
X011029Y014433D03*
X011044Y014438D03*
X011067Y014418D03*
X011072Y014421D03*
X011087Y014431D03*
X011109Y014431D03*
X011132Y014418D03*
X011144Y014413D03*
X011144Y014411D03*
X011144Y014408D03*
X011154Y014418D03*
X011169Y014426D03*
X011177Y014421D03*
X011177Y014433D03*
X011189Y014421D03*
X011192Y014406D03*
X011174Y014408D03*
X011214Y014416D03*
X011237Y014403D03*
X011244Y014391D03*
X011257Y014396D03*
X011259Y014398D03*
X011262Y014406D03*
X011252Y014406D03*
X011289Y014396D03*
X011297Y014393D03*
X011294Y014388D03*
X011304Y014383D03*
X011307Y014396D03*
X011292Y014416D03*
X011329Y014383D03*
X011337Y014373D03*
X011349Y014383D03*
X011397Y014383D03*
X011399Y014386D03*
X011397Y014391D03*
X011402Y014396D03*
X011462Y014408D03*
X011462Y014411D03*
X011474Y014411D03*
X011172Y014461D03*
X010539Y014893D03*
X010414Y015113D03*
X011237Y016068D03*
X011237Y016071D03*
X011237Y016073D03*
X011232Y016081D03*
X011229Y016088D03*
X008152Y016308D03*
D16*
X008136Y016308D03*
X008263Y016613D03*
X008423Y016878D03*
X008518Y016966D03*
X008311Y017006D03*
X008776Y016578D03*
X008846Y016163D03*
X008883Y016148D03*
X009241Y016088D03*
X009276Y016098D03*
X009736Y016781D03*
X010266Y015248D03*
X010291Y015196D03*
X010301Y015183D03*
X010306Y015173D03*
X010311Y015163D03*
X010313Y015156D03*
X010316Y015153D03*
X010321Y015156D03*
X010323Y015148D03*
X010323Y015136D03*
X010336Y015138D03*
X010338Y015133D03*
X010338Y015121D03*
X010353Y015108D03*
X010358Y015098D03*
X010378Y015091D03*
X010373Y015073D03*
X010383Y015063D03*
X010381Y015061D03*
X010393Y015053D03*
X010398Y015046D03*
X010396Y015043D03*
X010401Y015026D03*
X010391Y015026D03*
X010403Y015011D03*
X010408Y015008D03*
X010421Y014998D03*
X010428Y014991D03*
X010423Y014986D03*
X010428Y014981D03*
X010431Y014978D03*
X010438Y014976D03*
X010438Y014973D03*
X010441Y014971D03*
X010448Y014976D03*
X010458Y014976D03*
X010466Y014968D03*
X010471Y014958D03*
X010473Y014953D03*
X010476Y014951D03*
X010481Y014946D03*
X010483Y014948D03*
X010483Y014936D03*
X010473Y014936D03*
X010486Y014923D03*
X010496Y014933D03*
X010501Y014921D03*
X010513Y014903D03*
X010518Y014898D03*
X010521Y014901D03*
X010526Y014893D03*
X010526Y014886D03*
X010533Y014878D03*
X010541Y014881D03*
X010548Y014893D03*
X010541Y014896D03*
X010541Y014903D03*
X010536Y014906D03*
X010531Y014911D03*
X010526Y014921D03*
X010528Y014928D03*
X010513Y014941D03*
X010508Y014943D03*
X010511Y014951D03*
X010501Y014963D03*
X010456Y014963D03*
X010453Y014956D03*
X010453Y014953D03*
X010438Y014988D03*
X010433Y015081D03*
X010403Y015121D03*
X010403Y015136D03*
X010386Y015116D03*
X010366Y015056D03*
X010321Y015178D03*
X010518Y014848D03*
X010538Y014843D03*
X010538Y014836D03*
X010533Y014831D03*
X010546Y014833D03*
X010553Y014846D03*
X010561Y014846D03*
X010563Y014853D03*
X010566Y014858D03*
X010566Y014866D03*
X010556Y014856D03*
X010541Y014863D03*
X010533Y014868D03*
X010546Y014816D03*
X010568Y014818D03*
X010571Y014796D03*
X010576Y014791D03*
X010578Y014783D03*
X010588Y014778D03*
X010598Y014771D03*
X010601Y014766D03*
X010601Y014763D03*
X010598Y014761D03*
X010598Y014758D03*
X010598Y014756D03*
X010591Y014756D03*
X010596Y014748D03*
X010606Y014748D03*
X010611Y014746D03*
X010621Y014748D03*
X010621Y014738D03*
X010621Y014733D03*
X010618Y014731D03*
X010618Y014718D03*
X010626Y014716D03*
X010636Y014716D03*
X010646Y014708D03*
X010661Y014698D03*
X010671Y014698D03*
X010668Y014706D03*
X010671Y014711D03*
X010676Y014708D03*
X010686Y014708D03*
X010686Y014716D03*
X010686Y014718D03*
X010691Y014721D03*
X010691Y014726D03*
X010696Y014713D03*
X010708Y014703D03*
X010708Y014701D03*
X010711Y014698D03*
X010723Y014688D03*
X010723Y014671D03*
X010713Y014668D03*
X010706Y014668D03*
X010706Y014666D03*
X010706Y014671D03*
X010703Y014673D03*
X010706Y014676D03*
X010696Y014678D03*
X010691Y014681D03*
X010696Y014686D03*
X010686Y014686D03*
X010681Y014696D03*
X010671Y014688D03*
X010671Y014686D03*
X010663Y014688D03*
X010686Y014666D03*
X010696Y014671D03*
X010701Y014663D03*
X010698Y014658D03*
X010708Y014643D03*
X010713Y014646D03*
X010708Y014636D03*
X010723Y014633D03*
X010718Y014623D03*
X010723Y014621D03*
X010731Y014611D03*
X010741Y014601D03*
X010743Y014603D03*
X010748Y014598D03*
X010746Y014593D03*
X010758Y014573D03*
X010766Y014573D03*
X010778Y014563D03*
X010783Y014556D03*
X010798Y014551D03*
X010798Y014543D03*
X010806Y014543D03*
X010821Y014523D03*
X010846Y014533D03*
X010853Y014528D03*
X010858Y014536D03*
X010863Y014531D03*
X010866Y014533D03*
X010873Y014536D03*
X010876Y014526D03*
X010873Y014523D03*
X010873Y014521D03*
X010876Y014516D03*
X010876Y014513D03*
X010873Y014511D03*
X010883Y014513D03*
X010888Y014531D03*
X010908Y014521D03*
X010918Y014511D03*
X010913Y014503D03*
X010903Y014498D03*
X010901Y014503D03*
X010916Y014491D03*
X010926Y014503D03*
X010928Y014513D03*
X010933Y014526D03*
X010956Y014523D03*
X010951Y014511D03*
X010936Y014493D03*
X010951Y014476D03*
X010951Y014471D03*
X010963Y014466D03*
X010973Y014466D03*
X010986Y014468D03*
X010983Y014456D03*
X010983Y014448D03*
X010993Y014441D03*
X010996Y014428D03*
X011011Y014428D03*
X011016Y014426D03*
X011023Y014426D03*
X011031Y014426D03*
X011031Y014421D03*
X011021Y014433D03*
X011018Y014441D03*
X011026Y014441D03*
X011011Y014436D03*
X011008Y014446D03*
X010968Y014448D03*
X010963Y014446D03*
X010963Y014453D03*
X010961Y014456D03*
X011051Y014421D03*
X011056Y014423D03*
X011058Y014418D03*
X011066Y014413D03*
X011073Y014413D03*
X011076Y014416D03*
X011081Y014418D03*
X011081Y014411D03*
X011076Y014408D03*
X011093Y014413D03*
X011093Y014418D03*
X011098Y014416D03*
X011103Y014418D03*
X011106Y014421D03*
X011111Y014418D03*
X011111Y014416D03*
X011116Y014411D03*
X011121Y014413D03*
X011123Y014406D03*
X011108Y014408D03*
X011103Y014413D03*
X011096Y014431D03*
X011078Y014438D03*
X011123Y014426D03*
X011146Y014418D03*
X011163Y014406D03*
X011181Y014398D03*
X011196Y014398D03*
X011196Y014401D03*
X011201Y014406D03*
X011201Y014411D03*
X011206Y014416D03*
X011213Y014411D03*
X011211Y014406D03*
X011221Y014411D03*
X011216Y014418D03*
X011233Y014401D03*
X011231Y014398D03*
X011238Y014398D03*
X011251Y014403D03*
X011263Y014401D03*
X011276Y014396D03*
X011278Y014393D03*
X011278Y014391D03*
X011276Y014383D03*
X011283Y014403D03*
X011298Y014398D03*
X011298Y014396D03*
X011303Y014391D03*
X011303Y014388D03*
X011311Y014386D03*
X011311Y014391D03*
X011348Y014386D03*
X011356Y014386D03*
X011366Y014396D03*
X011373Y014388D03*
X011378Y014386D03*
X011386Y014383D03*
X011388Y014388D03*
X011391Y014396D03*
X011411Y014396D03*
X011411Y014393D03*
X011423Y014401D03*
X011426Y014406D03*
X011433Y014403D03*
X011441Y014403D03*
X011446Y014406D03*
X011443Y014408D03*
X011451Y014408D03*
X011463Y014413D03*
X011468Y014416D03*
X011486Y014431D03*
X011501Y014428D03*
X011566Y014468D03*
X011418Y014406D03*
X011371Y014381D03*
X011251Y014386D03*
X010866Y014523D03*
X010856Y014543D03*
X010741Y014673D03*
X010736Y014676D03*
X010673Y014743D03*
X010656Y014723D03*
X010648Y014726D03*
X010641Y014746D03*
X010613Y014761D03*
X010608Y014763D03*
X010608Y014766D03*
X010616Y014766D03*
X010611Y014776D03*
X010566Y014786D03*
X010558Y014793D03*
X010558Y014796D03*
X011236Y016076D03*
X011233Y016078D03*
X007671Y017146D03*
X007466Y017178D03*
X007543Y016768D03*
X007561Y016771D03*
X007571Y016678D03*
D17*
X008778Y016576D03*
X010308Y015178D03*
X010338Y015151D03*
X010348Y015138D03*
X010348Y015113D03*
X010368Y015111D03*
X010378Y015103D03*
X010371Y015098D03*
X010428Y015001D03*
X010478Y014981D03*
X010486Y014961D03*
X010498Y014958D03*
X010553Y014881D03*
X010581Y014793D03*
X010633Y014753D03*
X010633Y014733D03*
X010683Y014698D03*
X010691Y014706D03*
X010716Y014673D03*
X010718Y014658D03*
X010718Y014653D03*
X010803Y014546D03*
X010816Y014548D03*
X010861Y014538D03*
X010883Y014538D03*
X010896Y014516D03*
X010938Y014521D03*
X010946Y014526D03*
X010956Y014521D03*
X010966Y014516D03*
X010966Y014471D03*
X011091Y014426D03*
X011111Y014426D03*
X011193Y014423D03*
X011193Y014416D03*
X011243Y014393D03*
X011246Y014388D03*
X011276Y014398D03*
X011331Y014391D03*
X011333Y014386D03*
X011378Y014396D03*
X011403Y014398D03*
X011496Y014438D03*
X011596Y014501D03*
X011223Y016016D03*
X011218Y016018D03*
X011218Y016021D03*
X011216Y016026D03*
X011213Y016028D03*
X011198Y016048D03*
D18*
X011203Y016041D03*
X011236Y016006D03*
X011241Y015998D03*
X011243Y015996D03*
X010386Y015148D03*
X010396Y015133D03*
X010381Y015118D03*
X010356Y015126D03*
X010418Y015011D03*
X010473Y014991D03*
X010496Y014951D03*
X010496Y014946D03*
X010493Y014943D03*
X010511Y014931D03*
X010556Y014861D03*
X010593Y014783D03*
X010628Y014761D03*
X010643Y014766D03*
X010651Y014761D03*
X010656Y014728D03*
X010688Y014703D03*
X010726Y014681D03*
X010738Y014671D03*
X010738Y014668D03*
X010843Y014536D03*
X010933Y014528D03*
X010951Y014518D03*
X011003Y014453D03*
X011028Y014438D03*
X011071Y014426D03*
X011193Y014433D03*
X011206Y014421D03*
X011198Y014408D03*
X011351Y014391D03*
X011351Y014388D03*
X011401Y014401D03*
X011518Y014443D03*
X011521Y014441D03*
D19*
X011503Y014431D03*
X011443Y014411D03*
X011436Y014406D03*
X011398Y014393D03*
X011333Y014388D03*
X011308Y014398D03*
X011273Y014401D03*
X011238Y014396D03*
X011211Y014413D03*
X011206Y014418D03*
X011193Y014418D03*
X011198Y014428D03*
X011186Y014428D03*
X011178Y014423D03*
X011168Y014413D03*
X011158Y014416D03*
X011156Y014413D03*
X011186Y014401D03*
X011211Y014431D03*
X011091Y014421D03*
X011066Y014416D03*
X011048Y014426D03*
X011046Y014428D03*
X011041Y014421D03*
X011036Y014418D03*
X011036Y014441D03*
X011008Y014448D03*
X011003Y014441D03*
X010988Y014466D03*
X010968Y014518D03*
X010928Y014508D03*
X010898Y014521D03*
X010873Y014531D03*
X010868Y014528D03*
X010833Y014526D03*
X010833Y014518D03*
X010833Y014546D03*
X010801Y014548D03*
X010733Y014603D03*
X010716Y014638D03*
X010716Y014641D03*
X010716Y014666D03*
X010731Y014673D03*
X010706Y014706D03*
X010691Y014696D03*
X010681Y014721D03*
X010658Y014721D03*
X010663Y014753D03*
X010626Y014766D03*
X010626Y014768D03*
X010618Y014753D03*
X010611Y014751D03*
X010596Y014768D03*
X010583Y014768D03*
X010583Y014846D03*
X010576Y014851D03*
X010576Y014856D03*
X010563Y014863D03*
X010566Y014868D03*
X010551Y014863D03*
X010548Y014858D03*
X010546Y014856D03*
X010543Y014868D03*
X010551Y014886D03*
X010541Y014898D03*
X010528Y014896D03*
X010518Y014911D03*
X010521Y014916D03*
X010506Y014926D03*
X010501Y014936D03*
X010493Y014926D03*
X010491Y014921D03*
X010501Y014916D03*
X010518Y014936D03*
X010491Y014963D03*
X010481Y014958D03*
X010473Y014956D03*
X010463Y014953D03*
X010456Y014983D03*
X010448Y014981D03*
X010466Y015018D03*
X010411Y015036D03*
X010398Y015036D03*
X010398Y015041D03*
X010381Y015096D03*
X010393Y015098D03*
X010406Y015118D03*
X010411Y015116D03*
X010376Y015116D03*
X010363Y015108D03*
X010366Y015096D03*
X010336Y015153D03*
X010326Y015158D03*
X010906Y014551D03*
X011598Y014503D03*
X009393Y016686D03*
X008901Y016148D03*
D20*
X009667Y016646D03*
X010307Y015181D03*
X010347Y015116D03*
X010452Y014991D03*
X010444Y014978D03*
X010509Y014938D03*
X010522Y014926D03*
X010524Y014923D03*
X010514Y014913D03*
X010544Y014888D03*
X010559Y014851D03*
X010567Y014836D03*
X010569Y014831D03*
X010589Y014831D03*
X010584Y014781D03*
X010604Y014781D03*
X010627Y014746D03*
X010624Y014728D03*
X010664Y014746D03*
X010667Y014741D03*
X010682Y014713D03*
X010687Y014683D03*
X010727Y014628D03*
X010879Y014533D03*
X010892Y014523D03*
X010894Y014518D03*
X010919Y014536D03*
X010932Y014511D03*
X010967Y014468D03*
X011054Y014436D03*
X011112Y014428D03*
X011112Y014423D03*
X011164Y014428D03*
X011269Y014403D03*
X011372Y014391D03*
X011372Y014421D03*
X011449Y014413D03*
X011504Y014433D03*
X011514Y014438D03*
X011229Y016008D03*
X011217Y016023D03*
X011212Y016031D03*
X011212Y016033D03*
X011212Y016036D03*
X011202Y016043D03*
X011202Y016046D03*
X007564Y016768D03*
X007522Y017171D03*
X007429Y017178D03*
D21*
X009247Y016101D03*
X009394Y016676D03*
X009669Y016663D03*
X010372Y015131D03*
X010822Y014556D03*
X011254Y014418D03*
X011357Y014393D03*
X010819Y017923D03*
D22*
X009664Y016643D03*
X009244Y016091D03*
X010307Y015168D03*
X010374Y015126D03*
X010397Y015116D03*
X010384Y015083D03*
X010389Y015056D03*
X010407Y015028D03*
X010427Y014993D03*
X010452Y015018D03*
X010472Y014966D03*
X010459Y014961D03*
X010467Y014948D03*
X010479Y014938D03*
X010509Y014908D03*
X010534Y014901D03*
X010522Y014881D03*
X010559Y014878D03*
X010552Y014853D03*
X010574Y014853D03*
X010584Y014836D03*
X010582Y014816D03*
X010597Y014776D03*
X010602Y014773D03*
X010609Y014771D03*
X010624Y014763D03*
X010632Y014748D03*
X010627Y014736D03*
X010647Y014736D03*
X010677Y014701D03*
X010692Y014701D03*
X010697Y014708D03*
X010754Y014661D03*
X010724Y014626D03*
X010752Y014588D03*
X010767Y014566D03*
X010819Y014546D03*
X010824Y014538D03*
X010832Y014531D03*
X010839Y014538D03*
X010857Y014526D03*
X010884Y014553D03*
X010889Y014561D03*
X010899Y014553D03*
X010909Y014546D03*
X010912Y014523D03*
X010912Y014516D03*
X010909Y014506D03*
X010922Y014521D03*
X010929Y014516D03*
X010932Y014506D03*
X010949Y014516D03*
X011072Y014436D03*
X011119Y014421D03*
X011127Y014416D03*
X011179Y014418D03*
X011217Y014428D03*
X011234Y014406D03*
X011277Y014406D03*
X011309Y014393D03*
X011182Y014458D03*
X011517Y014446D03*
X011532Y014446D03*
X010587Y014766D03*
X010357Y015103D03*
X011209Y016038D03*
X011224Y016013D03*
X011224Y016011D03*
X011229Y016083D03*
X011229Y016086D03*
D23*
X011253Y016058D03*
X011256Y016056D03*
X011256Y016053D03*
X011283Y016016D03*
X010381Y015138D03*
X010406Y015091D03*
X010441Y015028D03*
X010458Y014993D03*
X010463Y014986D03*
X010573Y014833D03*
X010581Y014821D03*
X010596Y014808D03*
X011003Y014496D03*
X011338Y014396D03*
X009738Y016778D03*
X009241Y016096D03*
X010823Y017928D03*
D24*
X009397Y016668D03*
X008899Y016158D03*
X008782Y016566D03*
X008284Y016601D03*
X008162Y016316D03*
X007562Y016761D03*
X010327Y015213D03*
X010327Y015208D03*
X011332Y014413D03*
X011354Y014398D03*
X011424Y014416D03*
D25*
X011371Y014401D03*
X011146Y014426D03*
X011138Y014428D03*
X011066Y014431D03*
X010946Y014498D03*
X010826Y014533D03*
X010821Y014541D03*
X010746Y014658D03*
X010741Y014663D03*
X010738Y014666D03*
X010666Y014733D03*
X010656Y014748D03*
X010641Y014741D03*
X010623Y014783D03*
X010493Y014941D03*
X010441Y015038D03*
X010353Y015148D03*
D26*
X010342Y015146D03*
X010329Y015161D03*
X010472Y014978D03*
X010487Y014968D03*
X010569Y014848D03*
X010589Y014818D03*
X010632Y014776D03*
X010667Y014731D03*
X010729Y014661D03*
X010972Y014511D03*
X010979Y014461D03*
X011144Y014421D03*
X011147Y014423D03*
X011337Y014401D03*
X011527Y014448D03*
X009237Y016093D03*
X008779Y016573D03*
D27*
X008267Y016611D03*
X009667Y016648D03*
X010342Y015141D03*
X010357Y015123D03*
X010409Y015053D03*
X010407Y015038D03*
X010417Y015026D03*
X010492Y014966D03*
X010514Y014933D03*
X010517Y014906D03*
X010549Y014866D03*
X010602Y014816D03*
X010644Y014768D03*
X010672Y014736D03*
X010709Y014696D03*
X010712Y014686D03*
X010782Y014631D03*
X010752Y014586D03*
X010902Y014543D03*
X011019Y014451D03*
X011062Y014438D03*
X011087Y014433D03*
X011214Y014423D03*
X011307Y014401D03*
X011239Y016001D03*
X011237Y016003D03*
X010817Y017931D03*
D28*
X010817Y017913D03*
X010627Y017751D03*
X010624Y017748D03*
X010619Y017743D03*
X010617Y017741D03*
X010614Y017738D03*
X010609Y017733D03*
X010604Y017728D03*
X010602Y017723D03*
X009822Y016678D03*
X009512Y016216D03*
X009514Y016211D03*
X009517Y016208D03*
X009289Y016153D03*
X009287Y016151D03*
X009284Y016148D03*
X009277Y016138D03*
X008997Y016286D03*
X008999Y016291D03*
X008999Y016293D03*
X009007Y016308D03*
X009007Y016311D03*
X009007Y016313D03*
X008784Y016533D03*
X009082Y016643D03*
X009082Y016646D03*
X009087Y016666D03*
X009087Y016668D03*
X009087Y016671D03*
X009087Y016673D03*
X009087Y016676D03*
X009397Y016471D03*
X009397Y016468D03*
X009397Y016466D03*
X009397Y016463D03*
X009397Y016461D03*
X008297Y016461D03*
X008289Y016446D03*
X008287Y016441D03*
X008287Y016438D03*
X008167Y016323D03*
X007584Y016741D03*
X007359Y016271D03*
X007359Y016268D03*
X007357Y016266D03*
X007357Y016263D03*
X007352Y016213D03*
X011082Y014448D03*
X011107Y014441D03*
X011349Y014406D03*
X011352Y014403D03*
X011624Y014633D03*
X011624Y014636D03*
X011627Y014638D03*
X011627Y014641D03*
X011629Y014646D03*
X011632Y014651D03*
X011634Y014656D03*
X011642Y014671D03*
X011642Y014673D03*
D29*
X011601Y014593D03*
X011601Y014591D03*
X011598Y014586D03*
X011363Y014408D03*
X011028Y014473D03*
X009891Y016151D03*
X009576Y016156D03*
X009568Y016158D03*
X009556Y016171D03*
X009398Y016416D03*
X009398Y016418D03*
X009398Y016421D03*
X009398Y016423D03*
X009398Y016426D03*
X009398Y016428D03*
X009398Y016431D03*
X008978Y016261D03*
X008783Y016508D03*
X008693Y016286D03*
X008691Y016281D03*
X008681Y016266D03*
X008678Y016263D03*
X008676Y016261D03*
X008268Y016413D03*
X008173Y016328D03*
X008503Y016878D03*
X007373Y016291D03*
X007368Y016198D03*
X007381Y016178D03*
X010661Y017786D03*
X010663Y017788D03*
X010813Y017908D03*
D30*
X009398Y016683D03*
X010321Y015171D03*
X010393Y015128D03*
X010396Y015126D03*
X010413Y015098D03*
X010436Y015053D03*
X010416Y015023D03*
X010461Y015016D03*
X010476Y014983D03*
X010533Y014891D03*
X010628Y014781D03*
X010646Y014763D03*
X010668Y014726D03*
X010706Y014688D03*
X010711Y014693D03*
X010876Y014543D03*
X010891Y014536D03*
X010938Y014523D03*
X011031Y014436D03*
X011238Y014411D03*
X011273Y014413D03*
X011278Y014408D03*
D31*
X011242Y014408D03*
X010987Y014463D03*
X010977Y014476D03*
X010899Y014528D03*
X010887Y014548D03*
X010639Y014758D03*
X010594Y014811D03*
X010582Y014826D03*
X010582Y014828D03*
X010452Y015011D03*
X010422Y015018D03*
X010414Y015083D03*
X010412Y015086D03*
X010369Y015161D03*
X011284Y016013D03*
X011272Y016028D03*
X011272Y016031D03*
X011272Y016033D03*
X011252Y016061D03*
X007374Y016153D03*
D32*
X008899Y016153D03*
X010409Y015071D03*
X010417Y015063D03*
X010602Y014798D03*
X010607Y014791D03*
X010637Y014756D03*
X010989Y014498D03*
X011407Y014411D03*
X011259Y016048D03*
D33*
X010239Y015421D03*
X010237Y015426D03*
X010234Y015433D03*
X010234Y015436D03*
X010229Y015451D03*
X010229Y015453D03*
X010222Y015466D03*
X010222Y015468D03*
X010222Y015471D03*
X010222Y015473D03*
X010214Y015493D03*
X010214Y015496D03*
X010214Y015498D03*
X010214Y015501D03*
X010214Y015503D03*
X010212Y015508D03*
X010212Y015511D03*
X010207Y015518D03*
X010207Y015521D03*
X010207Y015523D03*
X010207Y015526D03*
X010207Y015528D03*
X010204Y015531D03*
X010202Y015536D03*
X010202Y015538D03*
X010202Y015541D03*
X010202Y015543D03*
X010202Y015546D03*
X010199Y015551D03*
X010199Y015553D03*
X010197Y015556D03*
X010197Y015558D03*
X010197Y015561D03*
X010197Y015563D03*
X010194Y015566D03*
X010189Y015588D03*
X010187Y015593D03*
X010187Y015596D03*
X010187Y015606D03*
X010182Y015618D03*
X010174Y015648D03*
X010174Y015651D03*
X010174Y015653D03*
X010174Y015656D03*
X010174Y015658D03*
X010169Y015676D03*
X010169Y015678D03*
X010169Y015681D03*
X010167Y015683D03*
X010162Y015708D03*
X010164Y015716D03*
X010162Y015718D03*
X010162Y015721D03*
X010162Y015723D03*
X010159Y015731D03*
X010159Y015733D03*
X010159Y015736D03*
X010149Y015781D03*
X010149Y015783D03*
X010149Y015786D03*
X010149Y015788D03*
X010149Y015791D03*
X010149Y015793D03*
X010149Y015796D03*
X010149Y015806D03*
X010147Y015808D03*
X010147Y015811D03*
X010147Y015813D03*
X010144Y015836D03*
X010144Y015838D03*
X010144Y015841D03*
X010144Y015843D03*
X010144Y015846D03*
X010144Y015848D03*
X010144Y015851D03*
X010137Y015891D03*
X010137Y015893D03*
X010137Y015896D03*
X010137Y015898D03*
X010134Y015933D03*
X010134Y015936D03*
X010132Y015953D03*
X010132Y015966D03*
X010132Y015968D03*
X010129Y015988D03*
X010127Y015993D03*
X010127Y015996D03*
X010127Y015998D03*
X010127Y016001D03*
X010127Y016003D03*
X010127Y016006D03*
X010127Y016008D03*
X010127Y016013D03*
X010127Y016016D03*
X010127Y016021D03*
X010127Y016023D03*
X010127Y016026D03*
X010127Y016043D03*
X010127Y016046D03*
X010127Y016048D03*
X010127Y016051D03*
X010124Y016066D03*
X010124Y016068D03*
X010124Y016078D03*
X010124Y016081D03*
X010124Y016083D03*
X010124Y016086D03*
X010124Y016096D03*
X010124Y016098D03*
X010124Y016101D03*
X010124Y016116D03*
X010122Y016141D03*
X010122Y016143D03*
X010122Y016146D03*
X010124Y016151D03*
X010124Y016153D03*
X010124Y016156D03*
X010122Y016161D03*
X010122Y016163D03*
X010122Y016166D03*
X010122Y016168D03*
X010122Y016171D03*
X010122Y016173D03*
X010122Y016176D03*
X010122Y016178D03*
X010122Y016181D03*
X010122Y016183D03*
X010122Y016186D03*
X010122Y016198D03*
X010122Y016201D03*
X010122Y016203D03*
X010122Y016206D03*
X010122Y016208D03*
X010122Y016211D03*
X010122Y016213D03*
X010122Y016231D03*
X010122Y016233D03*
X010122Y016243D03*
X010122Y016246D03*
X010122Y016248D03*
X010127Y016261D03*
X010127Y016263D03*
X010124Y016266D03*
X010124Y016271D03*
X010124Y016273D03*
X010124Y016276D03*
X010124Y016278D03*
X010124Y016281D03*
X010124Y016283D03*
X010124Y016286D03*
X010124Y016288D03*
X010124Y016293D03*
X010124Y016296D03*
X010124Y016298D03*
X010124Y016301D03*
X010124Y016303D03*
X010124Y016306D03*
X010124Y016308D03*
X010124Y016311D03*
X010127Y016323D03*
X010127Y016326D03*
X010127Y016328D03*
X010127Y016343D03*
X010129Y016351D03*
X010127Y016373D03*
X010127Y016376D03*
X010127Y016378D03*
X010127Y016381D03*
X010127Y016383D03*
X010129Y016408D03*
X010132Y016416D03*
X010132Y016426D03*
X010132Y016438D03*
X010132Y016441D03*
X010132Y016443D03*
X010134Y016456D03*
X010134Y016458D03*
X010134Y016461D03*
X010134Y016463D03*
X010134Y016466D03*
X010137Y016471D03*
X010137Y016473D03*
X010137Y016488D03*
X010137Y016491D03*
X010137Y016493D03*
X010137Y016496D03*
X010137Y016498D03*
X010142Y016541D03*
X010142Y016543D03*
X010144Y016548D03*
X010144Y016551D03*
X010144Y016553D03*
X010144Y016566D03*
X010144Y016568D03*
X010152Y016611D03*
X010152Y016613D03*
X010152Y016616D03*
X010154Y016633D03*
X010154Y016636D03*
X010157Y016651D03*
X010157Y016653D03*
X010157Y016656D03*
X010157Y016658D03*
X010157Y016661D03*
X010159Y016666D03*
X010159Y016668D03*
X010159Y016671D03*
X010159Y016673D03*
X010159Y016676D03*
X010162Y016681D03*
X010162Y016683D03*
X010164Y016698D03*
X010164Y016701D03*
X010164Y016703D03*
X010167Y016716D03*
X010169Y016731D03*
X010172Y016738D03*
X010174Y016751D03*
X010174Y016753D03*
X010177Y016768D03*
X010179Y016791D03*
X010182Y016798D03*
X010182Y016801D03*
X010182Y016803D03*
X010184Y016813D03*
X010187Y016821D03*
X010187Y016823D03*
X010187Y016826D03*
X010192Y016843D03*
X010209Y016918D03*
X010217Y016948D03*
X010219Y016956D03*
X010244Y017038D03*
X010247Y017048D03*
X010247Y017051D03*
X010247Y017053D03*
X010254Y017073D03*
X009732Y016771D03*
X009082Y016696D03*
X008287Y016596D03*
X008287Y016593D03*
X010242Y015416D03*
X010242Y015413D03*
X010242Y015411D03*
X010242Y015408D03*
X010249Y015396D03*
X010252Y015386D03*
X010252Y015383D03*
X010257Y015368D03*
X010262Y015361D03*
X010264Y015356D03*
X010267Y015348D03*
X010267Y015346D03*
X010267Y015343D03*
X010267Y015341D03*
X010279Y015313D03*
X010282Y015311D03*
X010284Y015303D03*
X010284Y015301D03*
X010294Y015276D03*
X010304Y015253D03*
X010307Y015251D03*
X010309Y015246D03*
X010309Y015243D03*
X010312Y015241D03*
X010314Y015236D03*
X010319Y015226D03*
X010324Y015218D03*
X010789Y014601D03*
X010809Y014588D03*
X010812Y014586D03*
X011159Y014431D03*
X011334Y014418D03*
X011334Y014411D03*
D34*
X011271Y014411D03*
X011208Y014458D03*
X011083Y014423D03*
X010901Y014526D03*
X010833Y014543D03*
X010716Y014683D03*
X010638Y014751D03*
X010636Y014771D03*
X010496Y014953D03*
X010458Y015001D03*
X010448Y015026D03*
X010391Y015113D03*
X010361Y015128D03*
X009396Y016681D03*
X009073Y016708D03*
X007451Y017176D03*
D35*
X007478Y017171D03*
X009073Y016706D03*
X009388Y016678D03*
X009663Y016656D03*
X010416Y015066D03*
X010428Y015043D03*
X010433Y015033D03*
X010443Y015021D03*
X010453Y014998D03*
X010563Y014841D03*
X010561Y014838D03*
X010611Y014786D03*
X010746Y014651D03*
X010753Y014641D03*
X010756Y014638D03*
X010983Y014501D03*
X011403Y014413D03*
X011293Y016001D03*
D36*
X011273Y016026D03*
X011271Y016036D03*
X011268Y016038D03*
X011266Y016043D03*
X011266Y016046D03*
X010391Y015123D03*
X010398Y015111D03*
X010401Y015108D03*
X010408Y015096D03*
X010363Y015133D03*
X010426Y015016D03*
X010463Y014988D03*
X010631Y014773D03*
X010858Y014541D03*
X010878Y014556D03*
X010958Y014496D03*
X011238Y014413D03*
X008898Y016151D03*
D37*
X008541Y016131D03*
X008518Y016866D03*
X009676Y016666D03*
X010126Y016228D03*
X010128Y016226D03*
X010128Y016223D03*
X010128Y016221D03*
X010156Y015748D03*
X010196Y015576D03*
X010196Y015573D03*
X010298Y015268D03*
X010301Y015266D03*
X010311Y015248D03*
X010331Y015198D03*
X010336Y015191D03*
X010341Y015186D03*
X011338Y014416D03*
D38*
X011253Y014416D03*
X010973Y014503D03*
X010771Y014626D03*
X010761Y014633D03*
X010743Y014648D03*
X010366Y015136D03*
X010368Y015143D03*
X010351Y015173D03*
X009733Y016776D03*
X009073Y016701D03*
X008523Y016861D03*
X007558Y016766D03*
D39*
X007568Y016758D03*
X008783Y016561D03*
X009083Y016693D03*
X009393Y016666D03*
X010143Y016558D03*
X010143Y016556D03*
X010146Y016561D03*
X010146Y016563D03*
X010148Y016583D03*
X010148Y016586D03*
X010151Y016593D03*
X010151Y016596D03*
X010151Y016598D03*
X010151Y016601D03*
X010151Y016603D03*
X010151Y016606D03*
X010151Y016608D03*
X010153Y016618D03*
X010153Y016621D03*
X010153Y016623D03*
X010153Y016626D03*
X010153Y016628D03*
X010153Y016631D03*
X010156Y016638D03*
X010156Y016641D03*
X010156Y016643D03*
X010156Y016646D03*
X010156Y016648D03*
X010158Y016663D03*
X010161Y016678D03*
X010163Y016686D03*
X010163Y016688D03*
X010163Y016691D03*
X010163Y016693D03*
X010163Y016696D03*
X010166Y016706D03*
X010166Y016708D03*
X010166Y016711D03*
X010166Y016713D03*
X010168Y016718D03*
X010168Y016721D03*
X010168Y016723D03*
X010168Y016726D03*
X010168Y016728D03*
X010171Y016733D03*
X010171Y016736D03*
X010173Y016741D03*
X010173Y016743D03*
X010173Y016746D03*
X010173Y016748D03*
X010176Y016756D03*
X010176Y016758D03*
X010176Y016761D03*
X010176Y016763D03*
X010176Y016766D03*
X010178Y016771D03*
X010178Y016773D03*
X010178Y016776D03*
X010181Y016781D03*
X010181Y016783D03*
X010181Y016786D03*
X010181Y016788D03*
X010183Y016806D03*
X010183Y016808D03*
X010183Y016811D03*
X010186Y016816D03*
X010186Y016818D03*
X010188Y016828D03*
X010188Y016831D03*
X010188Y016833D03*
X010191Y016838D03*
X010191Y016841D03*
X010193Y016846D03*
X010193Y016848D03*
X010196Y016856D03*
X010196Y016858D03*
X010196Y016861D03*
X010196Y016863D03*
X010196Y016866D03*
X010198Y016868D03*
X010198Y016871D03*
X010201Y016873D03*
X010201Y016876D03*
X010201Y016878D03*
X010203Y016893D03*
X010203Y016896D03*
X010203Y016898D03*
X010206Y016901D03*
X010206Y016903D03*
X010208Y016906D03*
X010208Y016908D03*
X010208Y016911D03*
X010208Y016913D03*
X010208Y016916D03*
X010211Y016921D03*
X010213Y016928D03*
X010216Y016941D03*
X010216Y016943D03*
X010216Y016946D03*
X010218Y016951D03*
X010218Y016953D03*
X010221Y016958D03*
X010223Y016966D03*
X010223Y016968D03*
X010226Y016973D03*
X010231Y016991D03*
X010231Y016993D03*
X010231Y016996D03*
X010231Y016998D03*
X010236Y017008D03*
X010236Y017011D03*
X010236Y017013D03*
X010238Y017018D03*
X010241Y017021D03*
X010241Y017023D03*
X010241Y017026D03*
X010243Y017033D03*
X010243Y017036D03*
X010246Y017041D03*
X010246Y017043D03*
X010246Y017046D03*
X010248Y017056D03*
X010253Y017068D03*
X010253Y017071D03*
X010256Y017076D03*
X010256Y017078D03*
X010256Y017081D03*
X010258Y017086D03*
X010276Y017133D03*
X010276Y017136D03*
X010276Y017138D03*
X010278Y017141D03*
X010278Y017143D03*
X010143Y016538D03*
X010143Y016533D03*
X010143Y016531D03*
X010143Y016528D03*
X010141Y016523D03*
X010141Y016521D03*
X010141Y016518D03*
X010138Y016503D03*
X010138Y016501D03*
X010138Y016486D03*
X010133Y016448D03*
X010133Y016446D03*
X010133Y016436D03*
X010133Y016433D03*
X010133Y016431D03*
X010133Y016428D03*
X010131Y016421D03*
X010131Y016418D03*
X010128Y016386D03*
X010128Y016348D03*
X010128Y016346D03*
X010126Y016321D03*
X010126Y016318D03*
X010126Y016316D03*
X010126Y016313D03*
X010123Y016291D03*
X010123Y016268D03*
X010123Y016241D03*
X010123Y016238D03*
X010123Y016236D03*
X010123Y016196D03*
X010123Y016193D03*
X010123Y016191D03*
X010123Y016188D03*
X010123Y016158D03*
X010126Y016111D03*
X010126Y016108D03*
X010126Y016106D03*
X010123Y016103D03*
X010126Y016088D03*
X010126Y016063D03*
X010126Y016061D03*
X010126Y016058D03*
X010126Y016056D03*
X010126Y016053D03*
X010128Y016028D03*
X010128Y016018D03*
X010126Y016011D03*
X010131Y015986D03*
X010131Y015983D03*
X010131Y015981D03*
X010131Y015978D03*
X010131Y015976D03*
X010131Y015973D03*
X010131Y015971D03*
X010136Y015931D03*
X010136Y015928D03*
X010136Y015926D03*
X010138Y015918D03*
X010138Y015916D03*
X010138Y015913D03*
X010138Y015888D03*
X010141Y015883D03*
X010141Y015881D03*
X010141Y015878D03*
X010141Y015876D03*
X010141Y015871D03*
X010141Y015868D03*
X010141Y015866D03*
X010143Y015858D03*
X010143Y015856D03*
X010143Y015853D03*
X010188Y015591D03*
X010211Y015513D03*
X010213Y015506D03*
X010231Y015448D03*
X010233Y015441D03*
X010233Y015438D03*
X010236Y015431D03*
X010236Y015428D03*
X010238Y015423D03*
X010241Y015418D03*
X010251Y015393D03*
X010251Y015391D03*
X010251Y015388D03*
X010263Y015358D03*
X010266Y015353D03*
X010266Y015351D03*
X010313Y015238D03*
X010316Y015233D03*
X010853Y014551D03*
X011426Y014418D03*
X011428Y014421D03*
X010823Y017921D03*
D40*
X010667Y017793D03*
X010664Y017791D03*
X009584Y016148D03*
X008784Y016503D03*
X008784Y016506D03*
X008674Y016258D03*
X008672Y016256D03*
X008669Y016253D03*
X008269Y016416D03*
X011087Y014453D03*
X011289Y014421D03*
X011594Y014583D03*
D41*
X011352Y014423D03*
X009757Y016073D03*
X009754Y016688D03*
X008914Y016241D03*
D42*
X007837Y017073D03*
X007782Y017086D03*
X007742Y017096D03*
X011329Y014426D03*
D43*
X011354Y014428D03*
D44*
X011074Y014428D03*
X011054Y014433D03*
X010912Y014531D03*
X010912Y014538D03*
X010844Y014548D03*
X010749Y014653D03*
X010649Y014743D03*
X010627Y014778D03*
X010609Y014793D03*
X010597Y014813D03*
X010474Y014973D03*
X010449Y015023D03*
X010437Y015036D03*
X010409Y015093D03*
X010407Y015103D03*
X010379Y015146D03*
X011267Y016041D03*
D45*
X011434Y014466D03*
X011349Y014431D03*
X008917Y016258D03*
D46*
X008532Y016126D03*
X009667Y016651D03*
X010384Y015121D03*
X010479Y014976D03*
X010479Y014971D03*
X010497Y014956D03*
X010502Y014948D03*
X010507Y014928D03*
X010674Y014723D03*
X010709Y014691D03*
X010727Y014678D03*
X010817Y014536D03*
X010982Y014458D03*
X011034Y014431D03*
X011242Y016063D03*
X011239Y016066D03*
D47*
X011346Y014433D03*
X008456Y016911D03*
X007713Y017103D03*
D48*
X008281Y016606D03*
X008521Y016863D03*
X008163Y016313D03*
X007378Y016158D03*
X009396Y016673D03*
X009733Y016773D03*
X010438Y015013D03*
X010771Y014621D03*
X011136Y014433D03*
D49*
X011301Y014436D03*
D50*
X011328Y014438D03*
X007948Y017043D03*
D51*
X007498Y017168D03*
X008288Y016598D03*
X008783Y016563D03*
X009676Y016671D03*
X010146Y016573D03*
X010146Y016571D03*
X010148Y016576D03*
X010148Y016578D03*
X010148Y016581D03*
X010143Y016546D03*
X010136Y016483D03*
X010136Y016481D03*
X010136Y016478D03*
X010136Y016476D03*
X010136Y016468D03*
X010131Y016413D03*
X010131Y016411D03*
X010131Y016406D03*
X010131Y016403D03*
X010131Y016401D03*
X010131Y016398D03*
X010131Y016396D03*
X010131Y016393D03*
X010131Y016391D03*
X010131Y016388D03*
X010128Y016371D03*
X010128Y016368D03*
X010128Y016366D03*
X010128Y016363D03*
X010128Y016361D03*
X010128Y016358D03*
X010128Y016356D03*
X010128Y016353D03*
X010128Y016341D03*
X010128Y016338D03*
X010126Y016333D03*
X010126Y016331D03*
X010126Y016258D03*
X010126Y016256D03*
X010126Y016253D03*
X010126Y016218D03*
X010123Y016216D03*
X010123Y016148D03*
X010121Y016138D03*
X010121Y016136D03*
X010123Y016131D03*
X010121Y016126D03*
X010123Y016118D03*
X010123Y016076D03*
X010123Y016073D03*
X010123Y016071D03*
X010126Y016041D03*
X010126Y016038D03*
X010126Y016036D03*
X010128Y015991D03*
X010133Y015963D03*
X010133Y015961D03*
X010133Y015958D03*
X010133Y015956D03*
X010133Y015951D03*
X010133Y015948D03*
X010136Y015938D03*
X010138Y015908D03*
X010138Y015906D03*
X010138Y015903D03*
X010138Y015901D03*
X010143Y015833D03*
X010146Y015823D03*
X010146Y015821D03*
X010146Y015818D03*
X010146Y015816D03*
X010151Y015803D03*
X010151Y015801D03*
X010151Y015798D03*
X010151Y015778D03*
X010153Y015771D03*
X010153Y015768D03*
X010153Y015766D03*
X010153Y015763D03*
X010153Y015761D03*
X010158Y015738D03*
X010161Y015728D03*
X010161Y015726D03*
X010163Y015713D03*
X010163Y015711D03*
X010163Y015706D03*
X010163Y015703D03*
X010166Y015691D03*
X010166Y015688D03*
X010166Y015686D03*
X010171Y015673D03*
X010171Y015671D03*
X010171Y015668D03*
X010173Y015666D03*
X010173Y015663D03*
X010173Y015661D03*
X010176Y015646D03*
X010176Y015643D03*
X010176Y015641D03*
X010176Y015638D03*
X010178Y015636D03*
X010178Y015633D03*
X010178Y015631D03*
X010181Y015623D03*
X010181Y015621D03*
X010183Y015616D03*
X010183Y015613D03*
X010183Y015611D03*
X010183Y015608D03*
X010186Y015603D03*
X010186Y015601D03*
X010186Y015598D03*
X010191Y015586D03*
X010191Y015583D03*
X010191Y015581D03*
X010196Y015568D03*
X010201Y015548D03*
X010203Y015533D03*
X010216Y015491D03*
X010216Y015488D03*
X010218Y015481D03*
X010221Y015476D03*
X010223Y015463D03*
X010226Y015461D03*
X010226Y015458D03*
X010228Y015456D03*
X010243Y015406D03*
X010246Y015403D03*
X010248Y015401D03*
X010248Y015398D03*
X010253Y015381D03*
X010256Y015378D03*
X010256Y015376D03*
X010256Y015373D03*
X010256Y015371D03*
X010261Y015363D03*
X010268Y015338D03*
X010271Y015336D03*
X010273Y015333D03*
X010273Y015331D03*
X010273Y015328D03*
X010273Y015326D03*
X010283Y015308D03*
X010283Y015306D03*
X010286Y015298D03*
X010286Y015296D03*
X010288Y015293D03*
X010288Y015291D03*
X010288Y015288D03*
X010291Y015286D03*
X010291Y015283D03*
X010291Y015281D03*
X010293Y015278D03*
X010296Y015273D03*
X010296Y015271D03*
X010298Y015263D03*
X010301Y015258D03*
X010318Y015231D03*
X010321Y015228D03*
X010323Y015221D03*
X010331Y015203D03*
X010331Y015201D03*
X010771Y014616D03*
X010773Y014613D03*
X010796Y014598D03*
X011126Y014438D03*
X010181Y016793D03*
X010181Y016796D03*
D52*
X011338Y014441D03*
D53*
X011339Y014443D03*
D54*
X011122Y014443D03*
X010817Y014576D03*
X010812Y014578D03*
X011632Y015358D03*
X011632Y015366D03*
X011632Y015368D03*
X011632Y015371D03*
X011629Y015373D03*
X011622Y015398D03*
X011619Y015406D03*
X011619Y015408D03*
X011594Y015466D03*
X011562Y015543D03*
X011562Y015546D03*
X011559Y015548D03*
X011552Y015568D03*
X011544Y015588D03*
X011542Y015593D03*
X011527Y015618D03*
X011527Y015621D03*
X011519Y015631D03*
X011519Y015633D03*
X011502Y015668D03*
X011499Y015671D03*
X011454Y015758D03*
X011452Y015761D03*
X011417Y015813D03*
X011414Y015818D03*
X011409Y015826D03*
X011399Y015841D03*
X011397Y015843D03*
X011392Y015848D03*
X011642Y015331D03*
X011642Y015328D03*
X011642Y015326D03*
X011652Y015298D03*
X011657Y015283D03*
X011672Y015211D03*
X011672Y015208D03*
X011672Y015206D03*
X011679Y015171D03*
X011684Y015116D03*
X011684Y015113D03*
X011684Y015111D03*
X011689Y015078D03*
X010419Y017451D03*
X010422Y017456D03*
X010424Y017458D03*
X010424Y017461D03*
X010427Y017463D03*
X010429Y017468D03*
X010432Y017473D03*
X010434Y017476D03*
X010434Y017478D03*
X010437Y017481D03*
X010437Y017483D03*
X010447Y017496D03*
X010447Y017498D03*
X010457Y017511D03*
X010459Y017516D03*
X010462Y017523D03*
X010464Y017526D03*
X010467Y017531D03*
X010469Y017533D03*
X010472Y017538D03*
X010474Y017543D03*
X010477Y017546D03*
X010482Y017553D03*
X010484Y017561D03*
X009874Y016576D03*
X009877Y016571D03*
X009877Y016568D03*
X009879Y016566D03*
X009882Y016561D03*
X009882Y016558D03*
X009882Y016556D03*
X009882Y016553D03*
X009887Y016543D03*
X009902Y016496D03*
X009902Y016493D03*
X009932Y016303D03*
X009932Y016301D03*
X009932Y016258D03*
X009929Y016233D03*
X009929Y016231D03*
X009929Y016228D03*
X009929Y016226D03*
X009927Y016223D03*
X009927Y016221D03*
X009927Y016218D03*
X009927Y016216D03*
X009924Y016201D03*
X009684Y016683D03*
X009354Y016263D03*
X009354Y016261D03*
X009352Y016256D03*
X009352Y016253D03*
X009347Y016238D03*
X009342Y016228D03*
X009342Y016226D03*
X009342Y016223D03*
X009334Y016211D03*
X009334Y016208D03*
X009332Y016206D03*
X009327Y016198D03*
X009324Y016196D03*
X008837Y016271D03*
X008837Y016273D03*
X008834Y016278D03*
X007577Y016748D03*
X007382Y016168D03*
X007382Y016166D03*
D55*
X007377Y016156D03*
X008277Y016608D03*
X008777Y016571D03*
X009664Y016658D03*
X010354Y015178D03*
X010362Y015158D03*
X010357Y015156D03*
X010397Y015101D03*
X010404Y015078D03*
X010409Y015076D03*
X010422Y015051D03*
X010422Y015048D03*
X010607Y014788D03*
X010747Y014646D03*
X010972Y014506D03*
X011037Y014443D03*
X011294Y015996D03*
X011294Y015998D03*
X010817Y017926D03*
D56*
X011258Y014446D03*
D57*
X011328Y014448D03*
X008078Y017013D03*
X008061Y017018D03*
D58*
X011289Y014451D03*
D59*
X011356Y014453D03*
X008386Y016938D03*
D60*
X011271Y014456D03*
D61*
X011391Y014458D03*
X007976Y017036D03*
D62*
X007764Y016578D03*
X007497Y016401D03*
X007482Y016386D03*
X007477Y016383D03*
X007474Y016381D03*
X007442Y016356D03*
X007437Y016353D03*
X007427Y016346D03*
X008242Y016396D03*
X008634Y016221D03*
X008779Y016421D03*
X008779Y016423D03*
X008779Y016426D03*
X008779Y016428D03*
X008777Y016438D03*
X008777Y016441D03*
X008902Y016183D03*
X009404Y016356D03*
X010809Y017901D03*
X011084Y014458D03*
X011542Y014526D03*
D63*
X011407Y014461D03*
X009749Y016088D03*
X007912Y017053D03*
X007862Y017066D03*
D64*
X007592Y016733D03*
X007779Y016593D03*
X007787Y016598D03*
X008174Y016333D03*
X008252Y016401D03*
X008254Y016403D03*
X008652Y016233D03*
X008782Y016478D03*
X008782Y016481D03*
X008782Y016483D03*
X008904Y016176D03*
X009402Y016386D03*
X009594Y016141D03*
X009884Y016146D03*
X011079Y014461D03*
X011569Y014553D03*
X011569Y014556D03*
X011577Y014561D03*
X011584Y014568D03*
X010687Y017808D03*
X010689Y017811D03*
X010709Y017826D03*
X007384Y016308D03*
D65*
X008459Y016908D03*
X011427Y014463D03*
D66*
X011612Y014608D03*
X011612Y014611D03*
X011614Y014613D03*
X011614Y014616D03*
X011619Y014623D03*
X011077Y014463D03*
X011017Y014478D03*
X009897Y016156D03*
X009552Y016173D03*
X009544Y016181D03*
X009542Y016183D03*
X009529Y016193D03*
X009527Y016196D03*
X009524Y016201D03*
X009394Y016441D03*
X009394Y016443D03*
X009394Y016446D03*
X009397Y016451D03*
X009397Y016453D03*
X009817Y016683D03*
X009084Y016658D03*
X009084Y016656D03*
X009084Y016653D03*
X009084Y016651D03*
X008787Y016528D03*
X008989Y016276D03*
X008989Y016273D03*
X008987Y016271D03*
X008279Y016428D03*
X007362Y016273D03*
X007354Y016211D03*
X007359Y016206D03*
X007382Y016176D03*
X010634Y017756D03*
X010637Y017761D03*
X010639Y017763D03*
X010644Y017768D03*
X010647Y017771D03*
D67*
X010677Y017801D03*
X010679Y017803D03*
X009399Y016406D03*
X009399Y016403D03*
X009399Y016401D03*
X008259Y016406D03*
X007792Y016606D03*
X007792Y016608D03*
X007792Y016611D03*
X007789Y016603D03*
X007789Y016601D03*
X007589Y016736D03*
X007377Y016298D03*
X007377Y016296D03*
X007377Y016293D03*
X007374Y016191D03*
X007379Y016186D03*
X007379Y016183D03*
X011069Y014466D03*
X011579Y014563D03*
X011584Y014571D03*
X011587Y014573D03*
X011587Y014576D03*
X011589Y014578D03*
D68*
X011439Y014468D03*
X009754Y016696D03*
X009754Y016698D03*
X008914Y016236D03*
X008759Y016306D03*
D69*
X008786Y016536D03*
X009068Y016586D03*
X009068Y016588D03*
X009073Y016608D03*
X009073Y016611D03*
X009073Y016613D03*
X009073Y016616D03*
X009076Y016621D03*
X009076Y016623D03*
X009078Y016626D03*
X009078Y016628D03*
X009078Y016631D03*
X009078Y016633D03*
X009078Y016636D03*
X009078Y016638D03*
X009018Y016338D03*
X009008Y016316D03*
X009006Y016306D03*
X009003Y016296D03*
X008993Y016281D03*
X009281Y016143D03*
X009281Y016141D03*
X009278Y016136D03*
X009291Y016156D03*
X009491Y016243D03*
X009503Y016226D03*
X009506Y016223D03*
X009508Y016221D03*
X009511Y016218D03*
X009513Y016213D03*
X009396Y016473D03*
X009396Y016476D03*
X009396Y016478D03*
X009396Y016493D03*
X009396Y016496D03*
X009396Y016498D03*
X009396Y016501D03*
X009826Y016676D03*
X009903Y016163D03*
X009901Y016161D03*
X010588Y017706D03*
X010593Y017711D03*
X010598Y017718D03*
X010601Y017721D03*
X010603Y017726D03*
X010608Y017731D03*
X010621Y017746D03*
X008551Y016141D03*
X008291Y016448D03*
X008293Y016451D03*
X008293Y016453D03*
X008296Y016456D03*
X008296Y016458D03*
X008298Y016463D03*
X007381Y016173D03*
X007351Y016216D03*
X007351Y016218D03*
X007348Y016233D03*
X007348Y016236D03*
X007348Y016238D03*
X007351Y016253D03*
X007351Y016256D03*
X007356Y016261D03*
X010821Y014568D03*
X011056Y014468D03*
X011633Y014653D03*
X011636Y014658D03*
X011638Y014663D03*
X011638Y014666D03*
X011641Y014668D03*
X011646Y014678D03*
X011646Y014681D03*
X011646Y014683D03*
X011656Y014706D03*
X011663Y014728D03*
D70*
X011451Y014471D03*
X009756Y016701D03*
X008913Y016233D03*
X008761Y016308D03*
X008761Y016311D03*
D71*
X008901Y016168D03*
X008986Y016268D03*
X008991Y016278D03*
X008996Y016283D03*
X008998Y016288D03*
X009283Y016146D03*
X009521Y016206D03*
X009523Y016203D03*
X009526Y016198D03*
X009533Y016191D03*
X009538Y016188D03*
X009538Y016186D03*
X009756Y016056D03*
X009898Y016158D03*
X009821Y016681D03*
X009398Y016458D03*
X009398Y016456D03*
X009396Y016448D03*
X009081Y016641D03*
X009083Y016648D03*
X009086Y016661D03*
X009086Y016663D03*
X008786Y016531D03*
X008288Y016443D03*
X008286Y016436D03*
X008283Y016433D03*
X008281Y016431D03*
X007521Y017163D03*
X007358Y016208D03*
X010611Y017736D03*
X010631Y017753D03*
X011631Y014648D03*
X011628Y014643D03*
X011623Y014631D03*
X011623Y014628D03*
X011621Y014626D03*
X011046Y014471D03*
D72*
X011458Y014473D03*
X011463Y014476D03*
X009748Y016718D03*
X009416Y016276D03*
X009416Y016273D03*
X008763Y016328D03*
X008476Y016896D03*
D73*
X009079Y016698D03*
X009674Y016668D03*
X009757Y016051D03*
X010122Y016121D03*
X010122Y016123D03*
X010122Y016128D03*
X010122Y016133D03*
X010124Y016251D03*
X010127Y016336D03*
X010134Y015946D03*
X010134Y015943D03*
X010134Y015941D03*
X010144Y015831D03*
X010144Y015828D03*
X010144Y015826D03*
X010152Y015776D03*
X010152Y015773D03*
X010154Y015758D03*
X010154Y015756D03*
X010154Y015753D03*
X010154Y015751D03*
X010157Y015746D03*
X010157Y015743D03*
X010157Y015741D03*
X010164Y015701D03*
X010164Y015698D03*
X010164Y015696D03*
X010164Y015693D03*
X010179Y015628D03*
X010179Y015626D03*
X010192Y015578D03*
X010197Y015571D03*
X010217Y015486D03*
X010217Y015483D03*
X010219Y015478D03*
X010259Y015366D03*
X010274Y015323D03*
X010277Y015321D03*
X010277Y015318D03*
X010279Y015316D03*
X010302Y015261D03*
X010304Y015256D03*
X010322Y015223D03*
X010327Y015216D03*
X010342Y015176D03*
X010764Y014623D03*
X010779Y014608D03*
X010784Y014606D03*
X010789Y014603D03*
X010992Y014493D03*
X011042Y014476D03*
X007384Y016161D03*
D74*
X007642Y017126D03*
X008764Y016338D03*
X008764Y016336D03*
X008764Y016333D03*
X008764Y016331D03*
X008912Y016218D03*
X009754Y016068D03*
X009747Y016721D03*
X011467Y014478D03*
D75*
X011472Y014481D03*
X009747Y016723D03*
X009414Y016281D03*
X008909Y016213D03*
X008587Y016196D03*
X008584Y016191D03*
X010767Y017853D03*
D76*
X010573Y017686D03*
X010566Y017676D03*
X010563Y017671D03*
X010536Y017636D03*
X010533Y017633D03*
X009831Y016666D03*
X009836Y016658D03*
X009836Y016656D03*
X009841Y016648D03*
X009401Y016626D03*
X009401Y016623D03*
X009401Y016621D03*
X009401Y016618D03*
X009398Y016631D03*
X009398Y016633D03*
X009398Y016636D03*
X009398Y016638D03*
X009401Y016601D03*
X009401Y016583D03*
X009398Y016581D03*
X009398Y016578D03*
X009398Y016576D03*
X009398Y016573D03*
X009398Y016571D03*
X009398Y016568D03*
X009398Y016553D03*
X009398Y016551D03*
X009398Y016548D03*
X009398Y016546D03*
X009396Y016533D03*
X009396Y016531D03*
X009396Y016528D03*
X009396Y016516D03*
X009396Y016513D03*
X009396Y016488D03*
X009396Y016486D03*
X009306Y016168D03*
X009276Y016131D03*
X009013Y016321D03*
X009013Y016323D03*
X009013Y016326D03*
X009013Y016328D03*
X009016Y016331D03*
X009016Y016333D03*
X009016Y016336D03*
X009018Y016343D03*
X009018Y016346D03*
X009023Y016353D03*
X009028Y016373D03*
X009028Y016376D03*
X009028Y016378D03*
X009028Y016381D03*
X009051Y016496D03*
X009053Y016508D03*
X009053Y016511D03*
X009053Y016513D03*
X009053Y016516D03*
X009056Y016518D03*
X009056Y016521D03*
X009058Y016526D03*
X009058Y016528D03*
X009058Y016531D03*
X009058Y016533D03*
X009058Y016536D03*
X009058Y016538D03*
X009058Y016541D03*
X009061Y016546D03*
X009063Y016556D03*
X009066Y016568D03*
X009066Y016571D03*
X009071Y016598D03*
X009071Y016601D03*
X009086Y016678D03*
X008786Y016541D03*
X008901Y016166D03*
X008301Y016468D03*
X008303Y016476D03*
X008303Y016478D03*
X008303Y016481D03*
X008303Y016493D03*
X008303Y016496D03*
X008303Y016498D03*
X008303Y016501D03*
X008298Y016543D03*
X008298Y016546D03*
X008293Y016558D03*
X008293Y016561D03*
X008293Y016563D03*
X008166Y016321D03*
X007583Y016743D03*
X007348Y016246D03*
X007348Y016243D03*
X007351Y016226D03*
X010838Y014558D03*
X011018Y014481D03*
X011648Y014691D03*
X011651Y014696D03*
X011661Y014718D03*
X011661Y014721D03*
X011661Y014723D03*
X011661Y014726D03*
X011663Y014733D03*
X011663Y014736D03*
X011666Y014743D03*
X011668Y014746D03*
X011668Y014748D03*
X011668Y014751D03*
X011668Y014753D03*
X011671Y014758D03*
X011676Y014783D03*
X011678Y014786D03*
X011678Y014788D03*
X011681Y014798D03*
X011683Y014833D03*
X011683Y014836D03*
X011686Y014838D03*
X011686Y014841D03*
X011688Y014843D03*
X011688Y014856D03*
D77*
X011478Y014483D03*
X009748Y016726D03*
X009416Y016283D03*
X008766Y016343D03*
X008766Y016346D03*
X008766Y016348D03*
X008591Y016198D03*
X008586Y016193D03*
X010761Y017848D03*
X010766Y017851D03*
X010773Y017858D03*
X010778Y017861D03*
D78*
X010569Y017681D03*
X010557Y017663D03*
X010549Y017656D03*
X010544Y017648D03*
X010542Y017646D03*
X010539Y017643D03*
X010539Y017641D03*
X010537Y017638D03*
X010532Y017631D03*
X009832Y016663D03*
X009837Y016653D03*
X009839Y016651D03*
X009842Y016646D03*
X009844Y016643D03*
X009844Y016641D03*
X009852Y016631D03*
X009742Y016766D03*
X009399Y016646D03*
X009399Y016643D03*
X009399Y016641D03*
X009399Y016628D03*
X009399Y016616D03*
X009399Y016613D03*
X009399Y016611D03*
X009399Y016608D03*
X009399Y016598D03*
X009399Y016596D03*
X009399Y016593D03*
X009399Y016591D03*
X009399Y016588D03*
X009399Y016586D03*
X009399Y016566D03*
X009399Y016563D03*
X009399Y016561D03*
X009399Y016558D03*
X009399Y016556D03*
X009397Y016543D03*
X009397Y016541D03*
X009397Y016538D03*
X009397Y016536D03*
X009397Y016526D03*
X009397Y016523D03*
X009397Y016521D03*
X009397Y016518D03*
X009479Y016258D03*
X009317Y016183D03*
X009314Y016178D03*
X009272Y016128D03*
X009272Y016126D03*
X009269Y016123D03*
X009264Y016121D03*
X009022Y016356D03*
X009022Y016358D03*
X009027Y016368D03*
X009027Y016371D03*
X009029Y016383D03*
X009029Y016386D03*
X009032Y016393D03*
X009032Y016396D03*
X009032Y016398D03*
X009032Y016401D03*
X009032Y016403D03*
X009037Y016421D03*
X009037Y016423D03*
X009039Y016431D03*
X009039Y016433D03*
X009042Y016438D03*
X009042Y016441D03*
X009042Y016443D03*
X009044Y016456D03*
X009047Y016463D03*
X009047Y016466D03*
X009047Y016468D03*
X009047Y016471D03*
X009047Y016473D03*
X009047Y016476D03*
X009047Y016478D03*
X009047Y016481D03*
X009049Y016483D03*
X009049Y016486D03*
X009049Y016488D03*
X009049Y016491D03*
X009049Y016493D03*
X009052Y016498D03*
X009052Y016501D03*
X009052Y016503D03*
X009052Y016506D03*
X008784Y016543D03*
X008547Y016138D03*
X008302Y016471D03*
X008302Y016473D03*
X008304Y016483D03*
X008304Y016486D03*
X008304Y016488D03*
X008304Y016491D03*
X008304Y016503D03*
X008304Y016506D03*
X008304Y016508D03*
X008304Y016511D03*
X008304Y016513D03*
X008302Y016518D03*
X008302Y016521D03*
X008302Y016523D03*
X008302Y016526D03*
X008302Y016528D03*
X008302Y016531D03*
X008299Y016533D03*
X008299Y016536D03*
X008299Y016538D03*
X008299Y016541D03*
X008297Y016548D03*
X008297Y016551D03*
X008294Y016556D03*
X008292Y016566D03*
X008292Y016568D03*
X008292Y016571D03*
X008292Y016573D03*
X011009Y014483D03*
X011649Y014693D03*
X011669Y014756D03*
X011672Y014761D03*
X011672Y014763D03*
X011672Y014766D03*
X011672Y014768D03*
X011672Y014771D03*
X011674Y014778D03*
X011674Y014781D03*
X011679Y014791D03*
X011679Y014793D03*
X011679Y014796D03*
X011679Y014801D03*
X011679Y014803D03*
X011679Y014806D03*
X011682Y014811D03*
X011682Y014813D03*
X011682Y014816D03*
X011682Y014818D03*
X011684Y014823D03*
X011684Y014826D03*
X011684Y014828D03*
X011684Y014831D03*
X011687Y014846D03*
X011687Y014848D03*
X011687Y014851D03*
X011687Y014853D03*
X011687Y014858D03*
X011687Y014861D03*
X011687Y014863D03*
X011692Y014906D03*
X011694Y014943D03*
X011694Y014946D03*
X011694Y014948D03*
X011672Y015221D03*
X011672Y015223D03*
X011672Y015226D03*
X011672Y015228D03*
D79*
X011481Y014486D03*
X009748Y016731D03*
X009413Y016293D03*
X008768Y016358D03*
X008768Y016361D03*
X008576Y016178D03*
X008211Y016381D03*
X008208Y016378D03*
X007668Y016681D03*
X007663Y016686D03*
X007653Y016691D03*
X010793Y017876D03*
D80*
X010417Y017446D03*
X010414Y017441D03*
X010412Y017433D03*
X010409Y017431D03*
X010407Y017428D03*
X010407Y017426D03*
X010404Y017421D03*
X010402Y017418D03*
X010399Y017413D03*
X010399Y017411D03*
X010397Y017408D03*
X010394Y017403D03*
X010392Y017398D03*
X010379Y017373D03*
X010377Y017371D03*
X010374Y017366D03*
X010339Y017291D03*
X009892Y016533D03*
X009892Y016531D03*
X009894Y016523D03*
X009894Y016521D03*
X009894Y016518D03*
X009897Y016511D03*
X009897Y016508D03*
X009899Y016503D03*
X009899Y016501D03*
X009904Y016488D03*
X009904Y016486D03*
X009904Y016483D03*
X009904Y016481D03*
X009907Y016476D03*
X009907Y016473D03*
X009909Y016468D03*
X009909Y016466D03*
X009914Y016443D03*
X009914Y016441D03*
X009914Y016438D03*
X009914Y016436D03*
X009917Y016431D03*
X009917Y016428D03*
X009917Y016426D03*
X009917Y016423D03*
X009917Y016421D03*
X009919Y016413D03*
X009919Y016411D03*
X009922Y016401D03*
X009924Y016376D03*
X009924Y016358D03*
X009924Y016356D03*
X009929Y016353D03*
X009929Y016351D03*
X009929Y016348D03*
X009929Y016346D03*
X009929Y016343D03*
X009929Y016331D03*
X009929Y016328D03*
X009932Y016316D03*
X009932Y016313D03*
X009929Y016296D03*
X009929Y016273D03*
X009929Y016271D03*
X009929Y016268D03*
X009929Y016266D03*
X009929Y016263D03*
X009929Y016261D03*
X009929Y016251D03*
X009929Y016248D03*
X009929Y016246D03*
X009929Y016243D03*
X009929Y016241D03*
X009682Y016678D03*
X009257Y016111D03*
X008832Y016281D03*
X008832Y016283D03*
X008829Y016293D03*
X008829Y016296D03*
X008829Y016298D03*
X008829Y016301D03*
X008289Y016583D03*
X010812Y014581D03*
X010827Y014566D03*
X011007Y014486D03*
X011634Y015348D03*
X011634Y015351D03*
X011634Y015353D03*
X011622Y015391D03*
X011597Y015458D03*
X011574Y015511D03*
X011557Y015553D03*
X011557Y015556D03*
X011554Y015561D03*
X011554Y015563D03*
X011537Y015596D03*
X011537Y015598D03*
X011534Y015603D03*
X011532Y015606D03*
X011532Y015608D03*
X011529Y015611D03*
X011529Y015613D03*
X011522Y015626D03*
X011517Y015638D03*
X011514Y015643D03*
X011502Y015663D03*
X011497Y015676D03*
X011492Y015681D03*
X011492Y015683D03*
X011489Y015688D03*
X011477Y015713D03*
X011474Y015716D03*
X011474Y015718D03*
X011472Y015721D03*
X011454Y015753D03*
X011444Y015768D03*
X011427Y015796D03*
X011422Y015806D03*
X011419Y015808D03*
X011412Y015821D03*
X011389Y015851D03*
X011387Y015856D03*
X011384Y015858D03*
X011382Y015861D03*
X011377Y015868D03*
X011374Y015871D03*
X011372Y015873D03*
X011359Y015888D03*
X011359Y015891D03*
X011354Y015896D03*
X011352Y015901D03*
X011337Y015921D03*
X011317Y015948D03*
X011302Y015968D03*
X011657Y015266D03*
X011659Y015263D03*
D81*
X011486Y014488D03*
X009748Y016728D03*
X009413Y016291D03*
X009413Y016288D03*
X008766Y016351D03*
X008766Y016353D03*
X008581Y016186D03*
X008483Y016893D03*
X007656Y016688D03*
X007638Y016698D03*
X007636Y016701D03*
X007611Y017133D03*
X010756Y017846D03*
X010783Y017868D03*
X010788Y017871D03*
D82*
X010389Y017393D03*
X010387Y017388D03*
X010384Y017383D03*
X010369Y017351D03*
X010367Y017348D03*
X010359Y017333D03*
X010357Y017328D03*
X010354Y017326D03*
X010354Y017323D03*
X010352Y017318D03*
X010352Y017316D03*
X010349Y017313D03*
X010347Y017308D03*
X010347Y017306D03*
X010347Y017303D03*
X010344Y017301D03*
X010342Y017296D03*
X010342Y017293D03*
X010337Y017281D03*
X010332Y017273D03*
X010332Y017271D03*
X010329Y017266D03*
X010324Y017253D03*
X010322Y017248D03*
X010317Y017236D03*
X010314Y017231D03*
X010312Y017228D03*
X010312Y017226D03*
X010309Y017221D03*
X010302Y017208D03*
X010302Y017206D03*
X010297Y017193D03*
X010297Y017191D03*
X010297Y017188D03*
X009922Y016391D03*
X009922Y016388D03*
X009922Y016386D03*
X009924Y016371D03*
X009924Y016368D03*
X009929Y016291D03*
X009929Y016288D03*
X009394Y016663D03*
X009252Y016108D03*
X008544Y016133D03*
X008162Y016318D03*
X008289Y016588D03*
X010792Y014596D03*
X011002Y014488D03*
X011504Y015658D03*
X011469Y015723D03*
X011462Y015736D03*
X011454Y015748D03*
X011437Y015776D03*
X011437Y015778D03*
X011347Y015906D03*
X011347Y015908D03*
X011342Y015913D03*
X011334Y015923D03*
X011329Y015931D03*
X011314Y015953D03*
X011312Y015956D03*
X011292Y015976D03*
X011292Y015978D03*
D83*
X011489Y014491D03*
X009412Y016301D03*
X009412Y016303D03*
X009412Y016306D03*
X008772Y016371D03*
X008772Y016373D03*
X008772Y016376D03*
X007682Y016676D03*
D84*
X008291Y016586D03*
X008778Y016553D03*
X008906Y016163D03*
X009396Y016658D03*
X009396Y016661D03*
X009898Y016506D03*
X009908Y016463D03*
X009908Y016461D03*
X009908Y016458D03*
X009908Y016456D03*
X009911Y016453D03*
X009911Y016451D03*
X009913Y016448D03*
X009913Y016446D03*
X009918Y016418D03*
X009918Y016416D03*
X009921Y016398D03*
X009921Y016396D03*
X009921Y016393D03*
X009923Y016383D03*
X009923Y016381D03*
X009923Y016378D03*
X009923Y016373D03*
X009926Y016366D03*
X009926Y016363D03*
X009926Y016361D03*
X009928Y016293D03*
X009931Y016286D03*
X009931Y016283D03*
X009931Y016281D03*
X009931Y016278D03*
X009931Y016276D03*
X010333Y017276D03*
X010336Y017278D03*
X010338Y017283D03*
X010338Y017286D03*
X010338Y017288D03*
X010343Y017298D03*
X010348Y017311D03*
X010353Y017321D03*
X010358Y017331D03*
X010361Y017336D03*
X010363Y017338D03*
X010363Y017341D03*
X010363Y017343D03*
X010366Y017346D03*
X010371Y017353D03*
X010371Y017356D03*
X010373Y017358D03*
X010373Y017361D03*
X010373Y017363D03*
X010376Y017368D03*
X010381Y017376D03*
X010381Y017378D03*
X010383Y017381D03*
X010386Y017386D03*
X010388Y017391D03*
X010391Y017396D03*
X010393Y017401D03*
X010396Y017406D03*
X010401Y017416D03*
X010406Y017423D03*
X011283Y015991D03*
X011286Y015988D03*
X011286Y015986D03*
X011288Y015983D03*
X011291Y015981D03*
X011303Y015966D03*
X011306Y015963D03*
X011306Y015961D03*
X011308Y015958D03*
X011316Y015951D03*
X011323Y015938D03*
X011326Y015936D03*
X011328Y015933D03*
X011331Y015928D03*
X011333Y015926D03*
X011341Y015918D03*
X011341Y015916D03*
X011346Y015911D03*
X011348Y015903D03*
X011353Y015898D03*
X011378Y015866D03*
X011428Y015793D03*
X011448Y015763D03*
X011453Y015751D03*
X011493Y015678D03*
X011503Y015661D03*
X011506Y015656D03*
X011508Y015653D03*
X011508Y015651D03*
X011508Y015648D03*
X011511Y015646D03*
X011516Y015641D03*
X011576Y015508D03*
X010988Y014491D03*
X010811Y014583D03*
D85*
X011496Y014493D03*
X009753Y016063D03*
X009411Y016313D03*
X009748Y016738D03*
X008773Y016391D03*
X008563Y016163D03*
X008203Y016366D03*
X008198Y016361D03*
X008488Y016886D03*
X007731Y016656D03*
X007726Y016658D03*
X007721Y016661D03*
D86*
X007709Y016666D03*
X007697Y016671D03*
X007612Y016716D03*
X007699Y016531D03*
X007697Y016528D03*
X007692Y016526D03*
X008192Y016356D03*
X008224Y016388D03*
X008774Y016393D03*
X008904Y016193D03*
X009409Y016316D03*
X009409Y016318D03*
X009409Y016321D03*
X009627Y016131D03*
X009747Y016741D03*
X010802Y017888D03*
X011497Y014496D03*
D87*
X011502Y014498D03*
X009852Y016131D03*
X009412Y016311D03*
X009749Y016736D03*
X008904Y016196D03*
X008772Y016386D03*
X008772Y016388D03*
X008612Y016206D03*
X008609Y016203D03*
X008222Y016386D03*
X008197Y016358D03*
X007714Y016663D03*
X007689Y016673D03*
X010797Y017886D03*
D88*
X010726Y017836D03*
X009748Y016748D03*
X009406Y016353D03*
X009406Y016351D03*
X009608Y016136D03*
X008778Y016431D03*
X008778Y016433D03*
X008778Y016436D03*
X008638Y016223D03*
X008633Y016218D03*
X008238Y016393D03*
X008181Y016341D03*
X007761Y016576D03*
X007756Y016571D03*
X007778Y016626D03*
X007776Y016628D03*
X007766Y016633D03*
X007603Y016726D03*
X007511Y016408D03*
X007506Y016406D03*
X007503Y016403D03*
X007491Y016393D03*
X007488Y016391D03*
X007466Y016376D03*
X007463Y016373D03*
X007458Y016371D03*
X007458Y016368D03*
X007453Y016366D03*
X011501Y014501D03*
X011538Y014523D03*
X011543Y014528D03*
D89*
X011534Y014521D03*
X011534Y014518D03*
X011504Y014503D03*
X009407Y016346D03*
X009407Y016348D03*
X008629Y016216D03*
X008557Y016153D03*
X007757Y016573D03*
X007752Y016568D03*
X007769Y016631D03*
X007492Y016396D03*
X007469Y016378D03*
X007572Y017146D03*
X010729Y017838D03*
X010807Y017898D03*
D90*
X009747Y016743D03*
X009409Y016326D03*
X008774Y016401D03*
X008562Y016161D03*
X008189Y016348D03*
X008189Y016351D03*
X007734Y016556D03*
X007724Y016546D03*
X007717Y016541D03*
X007712Y016538D03*
X007709Y016536D03*
X007687Y016523D03*
X007672Y016513D03*
X007662Y016508D03*
X007657Y016506D03*
X007634Y016491D03*
X007619Y016481D03*
X007602Y016471D03*
X007599Y016468D03*
X007597Y016466D03*
X007594Y016463D03*
X007574Y016451D03*
X007557Y016441D03*
X007607Y016721D03*
X011514Y014506D03*
X011522Y014513D03*
D91*
X011521Y014511D03*
X011518Y014508D03*
X011528Y014516D03*
X009408Y016328D03*
X009408Y016331D03*
X008906Y016188D03*
X008776Y016403D03*
X008776Y016406D03*
X008776Y016408D03*
X008776Y016411D03*
X008776Y016413D03*
X008621Y016208D03*
X008188Y016346D03*
X007746Y016563D03*
X007743Y016561D03*
X007733Y016553D03*
X007728Y016551D03*
X007726Y016548D03*
X007676Y016516D03*
X007651Y016501D03*
X007646Y016498D03*
X007641Y016496D03*
X007638Y016493D03*
X007591Y016461D03*
X007581Y016456D03*
X007578Y016453D03*
X007566Y016446D03*
X007563Y016443D03*
X007553Y016438D03*
X007551Y016436D03*
X007743Y016648D03*
X007748Y016646D03*
X010738Y017843D03*
X010806Y017893D03*
D92*
X009664Y016653D03*
X008517Y016858D03*
X008154Y016311D03*
X010372Y015151D03*
X010379Y015141D03*
X010454Y015003D03*
X010567Y014843D03*
X010579Y014823D03*
X010597Y014806D03*
X010599Y014803D03*
X010654Y014738D03*
X010754Y014643D03*
X010744Y014631D03*
X010864Y014546D03*
X010904Y014541D03*
X010914Y014533D03*
X010957Y014513D03*
X010969Y014508D03*
X011287Y016008D03*
X011287Y016011D03*
X011282Y016018D03*
X011282Y016021D03*
X011279Y016023D03*
D93*
X011556Y014538D03*
X011548Y014533D03*
X011546Y014531D03*
X009868Y016136D03*
X009601Y016138D03*
X009748Y016751D03*
X008778Y016446D03*
X008778Y016443D03*
X008553Y016151D03*
X008178Y016338D03*
X007781Y016623D03*
X007601Y016728D03*
X007496Y016398D03*
X007483Y016388D03*
X007451Y016363D03*
X007446Y016361D03*
X007443Y016358D03*
X007421Y016341D03*
X007418Y016338D03*
X007401Y016323D03*
X007398Y016321D03*
X007566Y017148D03*
X007563Y017151D03*
X007543Y017156D03*
D94*
X007782Y016621D03*
X007767Y016581D03*
X007432Y016351D03*
X007429Y016348D03*
X007422Y016343D03*
X007417Y016336D03*
X008247Y016398D03*
X008779Y016448D03*
X008779Y016451D03*
X008779Y016453D03*
X008902Y016181D03*
X009404Y016358D03*
X009404Y016361D03*
X009404Y016363D03*
X009404Y016366D03*
X009404Y016368D03*
X009404Y016371D03*
X009749Y016753D03*
X009872Y016138D03*
X010719Y017831D03*
X010722Y017833D03*
X011552Y014536D03*
D95*
X011558Y014541D03*
X009756Y016058D03*
X008903Y016178D03*
X008781Y016456D03*
X008643Y016226D03*
X008551Y016148D03*
X008176Y016336D03*
X007771Y016583D03*
X007786Y016618D03*
X007413Y016333D03*
X007411Y016331D03*
X007408Y016328D03*
X007406Y016326D03*
D96*
X007394Y016318D03*
X007389Y016313D03*
X007774Y016588D03*
X007787Y016616D03*
X007547Y017153D03*
X008494Y016881D03*
X008782Y016458D03*
X008649Y016231D03*
X008647Y016228D03*
X009749Y016756D03*
X009877Y016141D03*
X010702Y017821D03*
X010704Y017823D03*
X010714Y017828D03*
X010812Y017903D03*
X011564Y014548D03*
X011562Y014546D03*
X011559Y014543D03*
D97*
X011566Y014551D03*
X009881Y016143D03*
X009403Y016373D03*
X009403Y016376D03*
X009403Y016378D03*
X009403Y016381D03*
X009401Y016383D03*
X008783Y016473D03*
X008783Y016476D03*
X008781Y016471D03*
X008781Y016468D03*
X008781Y016466D03*
X008781Y016463D03*
X008781Y016461D03*
X007788Y016613D03*
X007776Y016591D03*
X007773Y016586D03*
X007596Y016731D03*
X007393Y016316D03*
X007388Y016311D03*
X010693Y017813D03*
X010696Y017816D03*
X010698Y017818D03*
D98*
X010299Y017196D03*
X010294Y017186D03*
X010294Y017183D03*
X010292Y017181D03*
X010292Y017178D03*
X010287Y017163D03*
X010284Y017156D03*
X010282Y017151D03*
X010279Y017146D03*
X010274Y017131D03*
X010274Y017128D03*
X010272Y017126D03*
X010272Y017123D03*
X010269Y017121D03*
X010269Y017118D03*
X010269Y017116D03*
X010269Y017113D03*
X010269Y017111D03*
X010267Y017108D03*
X010267Y017106D03*
X010267Y017103D03*
X010264Y017101D03*
X010264Y017098D03*
X010259Y017088D03*
X010257Y017083D03*
X010252Y017066D03*
X010252Y017063D03*
X010249Y017058D03*
X010242Y017031D03*
X010242Y017028D03*
X010237Y017016D03*
X010234Y017006D03*
X010234Y017003D03*
X010232Y017001D03*
X010229Y016988D03*
X010229Y016986D03*
X010227Y016983D03*
X010227Y016981D03*
X010227Y016978D03*
X010227Y016976D03*
X010224Y016971D03*
X010222Y016963D03*
X010222Y016961D03*
X010214Y016938D03*
X010214Y016936D03*
X010214Y016933D03*
X010214Y016931D03*
X010212Y016926D03*
X010212Y016923D03*
X010202Y016891D03*
X010202Y016888D03*
X010202Y016886D03*
X010202Y016883D03*
X010202Y016881D03*
X010194Y016853D03*
X010194Y016851D03*
X010189Y016836D03*
X010179Y016778D03*
X010149Y016591D03*
X010149Y016588D03*
X010142Y016536D03*
X010142Y016526D03*
X010139Y016516D03*
X010139Y016513D03*
X010139Y016511D03*
X010139Y016508D03*
X010139Y016506D03*
X010134Y016453D03*
X010134Y016451D03*
X010124Y016113D03*
X010124Y016093D03*
X010124Y016091D03*
X010127Y016033D03*
X010127Y016031D03*
X010137Y015923D03*
X010137Y015921D03*
X010137Y015911D03*
X010139Y015886D03*
X010142Y015873D03*
X010142Y015863D03*
X010142Y015861D03*
X010209Y015516D03*
X010232Y015446D03*
X010232Y015443D03*
X010797Y014593D03*
X010829Y014553D03*
X011464Y015726D03*
X011464Y015728D03*
X011464Y015731D03*
X011457Y015743D03*
X011429Y015786D03*
X011294Y015971D03*
X011279Y015993D03*
X009677Y016673D03*
X009082Y016691D03*
X008782Y016558D03*
X007569Y016756D03*
X007382Y016163D03*
D99*
X007378Y016188D03*
X007373Y016193D03*
X007381Y016301D03*
X007383Y016303D03*
X007383Y016306D03*
X007783Y016596D03*
X008551Y016146D03*
X008653Y016236D03*
X008783Y016486D03*
X008783Y016488D03*
X008783Y016491D03*
X009401Y016398D03*
X009401Y016396D03*
X009401Y016393D03*
X009401Y016391D03*
X009401Y016388D03*
X010683Y017806D03*
X010813Y017906D03*
X011581Y014566D03*
X011573Y014558D03*
D100*
X011656Y015268D03*
X011656Y015271D03*
X011656Y015276D03*
X011656Y015278D03*
X011656Y015281D03*
X011633Y015356D03*
X011621Y015393D03*
X011621Y015396D03*
X011598Y015456D03*
X011596Y015461D03*
X011596Y015463D03*
X011573Y015513D03*
X011573Y015516D03*
X011573Y015518D03*
X011573Y015521D03*
X011573Y015523D03*
X011571Y015526D03*
X011571Y015528D03*
X011568Y015531D03*
X011566Y015533D03*
X011566Y015536D03*
X011566Y015538D03*
X011563Y015541D03*
X011558Y015551D03*
X011556Y015558D03*
X011553Y015566D03*
X011546Y015583D03*
X011546Y015586D03*
X011536Y015601D03*
X011528Y015616D03*
X011523Y015623D03*
X011521Y015628D03*
X011518Y015636D03*
X011503Y015666D03*
X011498Y015673D03*
X011491Y015686D03*
X011486Y015691D03*
X011486Y015693D03*
X011486Y015696D03*
X011478Y015711D03*
X011456Y015756D03*
X011446Y015766D03*
X011443Y015771D03*
X011426Y015798D03*
X011426Y015801D03*
X011426Y015803D03*
X011418Y015811D03*
X011411Y015823D03*
X011388Y015853D03*
X011381Y015863D03*
X011371Y015876D03*
X011371Y015878D03*
X011356Y015893D03*
X011321Y015941D03*
X011321Y015943D03*
X011321Y015946D03*
X010793Y014591D03*
X010823Y014573D03*
X010823Y014561D03*
X010836Y014563D03*
X009931Y016253D03*
X009931Y016256D03*
X009931Y016298D03*
X009933Y016306D03*
X009933Y016308D03*
X009933Y016311D03*
X009931Y016318D03*
X009931Y016321D03*
X009931Y016323D03*
X009931Y016326D03*
X009928Y016333D03*
X009928Y016336D03*
X009928Y016338D03*
X009928Y016341D03*
X009921Y016403D03*
X009921Y016406D03*
X009921Y016408D03*
X009916Y016433D03*
X009908Y016471D03*
X009906Y016478D03*
X009903Y016491D03*
X009901Y016498D03*
X009898Y016513D03*
X009896Y016516D03*
X009893Y016526D03*
X009893Y016528D03*
X009891Y016536D03*
X009888Y016538D03*
X009888Y016541D03*
X009886Y016546D03*
X009886Y016548D03*
X009886Y016551D03*
X009881Y016563D03*
X009683Y016681D03*
X009398Y016656D03*
X009346Y016236D03*
X009341Y016221D03*
X009338Y016218D03*
X009338Y016216D03*
X009336Y016213D03*
X009258Y016113D03*
X009086Y016688D03*
X008778Y016551D03*
X008831Y016291D03*
X008831Y016288D03*
X008831Y016286D03*
X008836Y016276D03*
X007576Y016751D03*
X007508Y017166D03*
X010413Y017436D03*
X010413Y017438D03*
X010416Y017443D03*
X010418Y017448D03*
X010421Y017453D03*
X010431Y017471D03*
X010438Y017486D03*
X010441Y017488D03*
X010441Y017491D03*
X010446Y017493D03*
X010458Y017513D03*
X010461Y017518D03*
X010461Y017521D03*
X010466Y017528D03*
X010471Y017536D03*
X010473Y017541D03*
X010478Y017548D03*
X010481Y017551D03*
X010821Y017918D03*
D101*
X010558Y017666D03*
X010556Y017661D03*
X010556Y017658D03*
X010548Y017653D03*
X010548Y017651D03*
X010531Y017628D03*
X010528Y017626D03*
X010528Y017623D03*
X010526Y017621D03*
X010523Y017618D03*
X010523Y017616D03*
X010521Y017613D03*
X010518Y017611D03*
X010516Y017606D03*
X010513Y017603D03*
X010511Y017598D03*
X010508Y017596D03*
X010503Y017588D03*
X009833Y016661D03*
X009848Y016638D03*
X009851Y016636D03*
X009851Y016633D03*
X009853Y016628D03*
X009856Y016626D03*
X009856Y016623D03*
X009861Y016611D03*
X009918Y016186D03*
X009918Y016183D03*
X009916Y016178D03*
X009483Y016253D03*
X009481Y016256D03*
X009478Y016261D03*
X009478Y016263D03*
X009476Y016266D03*
X009321Y016188D03*
X009318Y016186D03*
X009316Y016181D03*
X009311Y016176D03*
X009308Y016171D03*
X009023Y016361D03*
X009023Y016363D03*
X009026Y016366D03*
X009031Y016388D03*
X009031Y016391D03*
X009033Y016406D03*
X009033Y016408D03*
X009036Y016418D03*
X009038Y016426D03*
X009038Y016428D03*
X009041Y016436D03*
X009043Y016446D03*
X009043Y016448D03*
X009043Y016451D03*
X009043Y016453D03*
X009046Y016458D03*
X009046Y016461D03*
X009086Y016681D03*
X009401Y016651D03*
X009401Y016648D03*
X008303Y016516D03*
X008296Y016553D03*
X007383Y016171D03*
X010821Y014571D03*
X011616Y015416D03*
X011603Y015453D03*
X011588Y015491D03*
X011588Y015493D03*
X011586Y015501D03*
X011586Y015503D03*
X011668Y015241D03*
X011671Y015233D03*
X011671Y015231D03*
X011673Y015218D03*
X011681Y015163D03*
X011681Y015161D03*
X011681Y015158D03*
X011683Y015148D03*
X011686Y015128D03*
X011691Y015091D03*
X011691Y015088D03*
X011693Y015063D03*
X011693Y015043D03*
X011693Y015041D03*
X011693Y015038D03*
X011696Y015016D03*
X011696Y015006D03*
X011696Y014993D03*
X011696Y014991D03*
X011696Y014988D03*
X011696Y014986D03*
X011696Y014983D03*
X011696Y014981D03*
X011696Y014978D03*
X011696Y014976D03*
X011696Y014973D03*
X011696Y014971D03*
X011693Y014956D03*
X011693Y014953D03*
X011693Y014951D03*
X011693Y014941D03*
X011693Y014938D03*
X011693Y014913D03*
X011693Y014911D03*
X011693Y014908D03*
X011691Y014903D03*
X011691Y014901D03*
X011691Y014898D03*
X011691Y014896D03*
X011691Y014886D03*
X011691Y014883D03*
X011691Y014881D03*
X011691Y014878D03*
X011683Y014821D03*
X011681Y014808D03*
X011673Y014776D03*
X011673Y014773D03*
X011406Y015836D03*
D102*
X011591Y014581D03*
X009888Y016148D03*
X009591Y016143D03*
X009586Y016146D03*
X009581Y016151D03*
X009578Y016153D03*
X009398Y016408D03*
X009398Y016411D03*
X009398Y016413D03*
X009746Y016758D03*
X008783Y016501D03*
X008783Y016498D03*
X008783Y016496D03*
X008783Y016493D03*
X008666Y016251D03*
X008666Y016248D03*
X008666Y016246D03*
X008661Y016243D03*
X008658Y016241D03*
X008658Y016238D03*
X008263Y016411D03*
X008261Y016408D03*
X008173Y016331D03*
X007588Y016738D03*
X007371Y016196D03*
X007378Y016181D03*
X010671Y017796D03*
X010673Y017798D03*
D103*
X010659Y017783D03*
X010657Y017781D03*
X009559Y016168D03*
X009562Y016166D03*
X009567Y016161D03*
X009397Y016433D03*
X009397Y016436D03*
X009397Y016438D03*
X008982Y016266D03*
X008982Y016263D03*
X008902Y016173D03*
X008784Y016511D03*
X008784Y016513D03*
X008692Y016283D03*
X008687Y016276D03*
X008682Y016268D03*
X008549Y016143D03*
X008272Y016418D03*
X008277Y016426D03*
X008172Y016326D03*
X008504Y016876D03*
X007527Y017158D03*
X007524Y017161D03*
X007369Y016288D03*
X007367Y016286D03*
X007364Y016283D03*
X007364Y016281D03*
X007362Y016203D03*
X007362Y016201D03*
X011602Y014596D03*
X011607Y014598D03*
X011607Y014601D03*
X011607Y014603D03*
X011599Y014588D03*
D104*
X011608Y014606D03*
X011618Y014618D03*
X011618Y014621D03*
X009893Y016153D03*
X009566Y016163D03*
X009551Y016176D03*
X009548Y016178D03*
X009743Y016761D03*
X008903Y016171D03*
X008701Y016293D03*
X008701Y016296D03*
X008701Y016298D03*
X008703Y016301D03*
X008698Y016291D03*
X008696Y016288D03*
X008688Y016278D03*
X008686Y016273D03*
X008683Y016271D03*
X008786Y016516D03*
X008786Y016518D03*
X008786Y016521D03*
X008786Y016523D03*
X008786Y016526D03*
X008276Y016423D03*
X008273Y016421D03*
X007363Y016278D03*
X007363Y016276D03*
X010636Y017758D03*
X010641Y017766D03*
X010651Y017773D03*
X010653Y017776D03*
X010653Y017778D03*
X010816Y017911D03*
D105*
X009396Y016671D03*
X009251Y016103D03*
X008283Y016603D03*
X007563Y016763D03*
X010328Y015206D03*
X010333Y015196D03*
X010333Y015193D03*
X010338Y015188D03*
X010343Y015183D03*
X010351Y015166D03*
X010353Y015163D03*
X010771Y014618D03*
X010783Y014611D03*
D106*
X010769Y014628D03*
X010449Y014996D03*
X010444Y015006D03*
X010349Y015181D03*
X008534Y016128D03*
X007469Y017173D03*
D107*
X008776Y016568D03*
X009073Y016703D03*
X008898Y016156D03*
X009666Y016661D03*
X010411Y015068D03*
X010418Y015058D03*
X010431Y015031D03*
X010443Y015008D03*
X010758Y014636D03*
D108*
X010738Y014656D03*
X010606Y014796D03*
X010598Y014801D03*
X010431Y015041D03*
X010428Y015046D03*
X010423Y015056D03*
X010421Y015061D03*
X010413Y015073D03*
X010403Y015081D03*
X010406Y015088D03*
X010368Y015153D03*
X010361Y015171D03*
X011288Y016006D03*
X011291Y016003D03*
X011258Y016051D03*
X009241Y016098D03*
D109*
X009277Y016133D03*
X009294Y016158D03*
X009299Y016161D03*
X009299Y016163D03*
X009302Y016166D03*
X009487Y016251D03*
X009489Y016248D03*
X009489Y016246D03*
X009492Y016241D03*
X009494Y016238D03*
X009497Y016236D03*
X009497Y016233D03*
X009499Y016231D03*
X009502Y016228D03*
X009397Y016481D03*
X009397Y016483D03*
X009394Y016491D03*
X009397Y016503D03*
X009397Y016506D03*
X009397Y016508D03*
X009397Y016511D03*
X009399Y016603D03*
X009399Y016606D03*
X009742Y016763D03*
X009827Y016673D03*
X009829Y016671D03*
X009829Y016668D03*
X009912Y016176D03*
X009912Y016173D03*
X009909Y016171D03*
X009907Y016168D03*
X009904Y016166D03*
X009019Y016348D03*
X009019Y016351D03*
X009017Y016341D03*
X009009Y016318D03*
X009004Y016303D03*
X009004Y016301D03*
X009004Y016298D03*
X009057Y016523D03*
X009059Y016543D03*
X009062Y016548D03*
X009062Y016551D03*
X009062Y016553D03*
X009064Y016558D03*
X009064Y016561D03*
X009064Y016563D03*
X009064Y016566D03*
X009067Y016573D03*
X009067Y016576D03*
X009067Y016578D03*
X009067Y016581D03*
X009067Y016583D03*
X009069Y016591D03*
X009069Y016593D03*
X009069Y016596D03*
X009072Y016603D03*
X009072Y016606D03*
X009074Y016618D03*
X008784Y016538D03*
X008509Y016873D03*
X008299Y016466D03*
X007354Y016258D03*
X007349Y016251D03*
X007349Y016248D03*
X007347Y016241D03*
X007349Y016231D03*
X007349Y016228D03*
X007352Y016223D03*
X007352Y016221D03*
X010562Y017668D03*
X010564Y017673D03*
X010567Y017678D03*
X010572Y017683D03*
X010574Y017688D03*
X010577Y017691D03*
X010577Y017693D03*
X010579Y017696D03*
X010582Y017698D03*
X010584Y017701D03*
X010587Y017703D03*
X010589Y017708D03*
X010594Y017713D03*
X010597Y017716D03*
X011664Y014741D03*
X011664Y014738D03*
X011664Y014731D03*
X011659Y014716D03*
X011659Y014713D03*
X011659Y014711D03*
X011657Y014708D03*
X011654Y014703D03*
X011654Y014701D03*
X011654Y014698D03*
X011647Y014688D03*
X011647Y014686D03*
X011644Y014676D03*
X011637Y014661D03*
D110*
X011687Y014866D03*
X011687Y014868D03*
X011689Y014876D03*
X011689Y014888D03*
X011689Y014891D03*
X011689Y014893D03*
X011692Y014916D03*
X011692Y014936D03*
X011692Y014958D03*
X011694Y014966D03*
X011694Y014968D03*
X011694Y014996D03*
X011694Y014998D03*
X011694Y015001D03*
X011694Y015003D03*
X011694Y015008D03*
X011694Y015011D03*
X011694Y015013D03*
X011692Y015031D03*
X011692Y015033D03*
X011692Y015036D03*
X011694Y015046D03*
X011694Y015048D03*
X011694Y015051D03*
X011694Y015053D03*
X011692Y015056D03*
X011692Y015058D03*
X011692Y015061D03*
X011692Y015066D03*
X011692Y015068D03*
X011692Y015071D03*
X011692Y015073D03*
X011689Y015093D03*
X011689Y015096D03*
X011689Y015098D03*
X011689Y015101D03*
X011684Y015131D03*
X011684Y015133D03*
X011684Y015136D03*
X011682Y015146D03*
X011682Y015151D03*
X011682Y015153D03*
X011682Y015156D03*
X011682Y015166D03*
X011679Y015173D03*
X011679Y015176D03*
X011679Y015178D03*
X011679Y015181D03*
X011679Y015183D03*
X011677Y015188D03*
X011674Y015191D03*
X011674Y015193D03*
X011674Y015196D03*
X011674Y015198D03*
X011674Y015201D03*
X011672Y015213D03*
X011672Y015216D03*
X011669Y015236D03*
X011669Y015238D03*
X011667Y015243D03*
X011667Y015246D03*
X011664Y015256D03*
X011649Y015308D03*
X011644Y015323D03*
X011642Y015338D03*
X011642Y015341D03*
X011642Y015343D03*
X011642Y015346D03*
X011634Y015363D03*
X011627Y015388D03*
X011617Y015413D03*
X011614Y015418D03*
X011614Y015421D03*
X011614Y015423D03*
X011614Y015426D03*
X011614Y015428D03*
X011609Y015433D03*
X011609Y015436D03*
X011607Y015438D03*
X011604Y015451D03*
X011594Y015471D03*
X011594Y015473D03*
X011592Y015478D03*
X011592Y015481D03*
X011592Y015483D03*
X011592Y015486D03*
X011592Y015488D03*
X011587Y015496D03*
X011587Y015498D03*
X011582Y015506D03*
X011552Y015573D03*
X011552Y015576D03*
X011549Y015578D03*
X011484Y015703D03*
X011484Y015706D03*
X011409Y015828D03*
X011407Y015833D03*
X011367Y015883D03*
X010494Y017576D03*
X010497Y017578D03*
X010499Y017581D03*
X010502Y017586D03*
X010504Y017591D03*
X010507Y017593D03*
X010512Y017601D03*
X010517Y017608D03*
X010819Y017916D03*
X009857Y016621D03*
X009857Y016618D03*
X009857Y016616D03*
X009859Y016613D03*
X009862Y016608D03*
X009862Y016606D03*
X009864Y016603D03*
X009872Y016581D03*
X009922Y016196D03*
X009919Y016191D03*
X009919Y016188D03*
X009917Y016181D03*
X009752Y016053D03*
X009349Y016243D03*
X009349Y016246D03*
X009349Y016248D03*
X009342Y016231D03*
X009322Y016193D03*
X009322Y016191D03*
X009309Y016173D03*
X009262Y016118D03*
X009034Y016411D03*
X009034Y016413D03*
X009034Y016416D03*
X008839Y016268D03*
X008782Y016546D03*
X008292Y016576D03*
X008292Y016578D03*
X009399Y016653D03*
D111*
X009741Y016768D03*
X009866Y016601D03*
X009866Y016598D03*
X009868Y016596D03*
X009871Y016593D03*
X009871Y016591D03*
X009871Y016588D03*
X009871Y016586D03*
X009871Y016583D03*
X009873Y016578D03*
X009876Y016573D03*
X009931Y016238D03*
X009931Y016236D03*
X009926Y016213D03*
X009926Y016211D03*
X009926Y016208D03*
X009926Y016206D03*
X009926Y016203D03*
X009923Y016198D03*
X009921Y016193D03*
X009356Y016266D03*
X009353Y016258D03*
X009351Y016251D03*
X009348Y016241D03*
X009343Y016233D03*
X009331Y016203D03*
X009328Y016201D03*
X009261Y016116D03*
X008841Y016261D03*
X008841Y016263D03*
X008841Y016266D03*
X008781Y016548D03*
X009086Y016683D03*
X009086Y016686D03*
X008513Y016871D03*
X008291Y016581D03*
X008546Y016136D03*
X007578Y016746D03*
X010428Y017466D03*
X010448Y017501D03*
X010448Y017503D03*
X010451Y017506D03*
X010453Y017508D03*
X010483Y017556D03*
X010483Y017558D03*
X010486Y017563D03*
X010488Y017566D03*
X010488Y017568D03*
X010491Y017571D03*
X010493Y017573D03*
X010501Y017583D03*
X011366Y015886D03*
X011368Y015881D03*
X011396Y015846D03*
X011403Y015838D03*
X011408Y015831D03*
X011416Y015816D03*
X011483Y015708D03*
X011486Y015701D03*
X011486Y015698D03*
X011543Y015591D03*
X011548Y015581D03*
X011553Y015571D03*
X011593Y015476D03*
X011596Y015468D03*
X011606Y015448D03*
X011606Y015446D03*
X011606Y015443D03*
X011606Y015441D03*
X011611Y015431D03*
X011618Y015411D03*
X011621Y015403D03*
X011621Y015401D03*
X011628Y015386D03*
X011628Y015383D03*
X011628Y015381D03*
X011628Y015378D03*
X011628Y015376D03*
X011633Y015361D03*
X011643Y015336D03*
X011643Y015333D03*
X011646Y015321D03*
X011646Y015318D03*
X011648Y015316D03*
X011648Y015313D03*
X011648Y015311D03*
X011651Y015306D03*
X011651Y015303D03*
X011651Y015301D03*
X011653Y015296D03*
X011656Y015293D03*
X011656Y015291D03*
X011656Y015288D03*
X011656Y015286D03*
X011658Y015273D03*
X011663Y015261D03*
X011663Y015258D03*
X011666Y015253D03*
X011666Y015251D03*
X011666Y015248D03*
X011673Y015203D03*
X011678Y015186D03*
X011681Y015168D03*
X011683Y015143D03*
X011683Y015141D03*
X011683Y015138D03*
X011686Y015126D03*
X011686Y015123D03*
X011686Y015121D03*
X011686Y015118D03*
X011686Y015108D03*
X011688Y015106D03*
X011688Y015103D03*
X011688Y015086D03*
X011688Y015083D03*
X011688Y015081D03*
X011691Y015076D03*
X011691Y015028D03*
X011691Y015026D03*
X011691Y015023D03*
X011693Y015021D03*
X011693Y015018D03*
X011693Y014963D03*
X011693Y014961D03*
X011691Y014933D03*
X011691Y014931D03*
X011691Y014928D03*
X011691Y014926D03*
X011691Y014923D03*
X011691Y014921D03*
X011691Y014918D03*
X011688Y014873D03*
X011688Y014871D03*
D112*
X010387Y015106D03*
X010352Y015168D03*
X010329Y015211D03*
D113*
X010128Y016423D03*
X009678Y016676D03*
X010251Y017061D03*
X010263Y017091D03*
X010263Y017093D03*
X010263Y017096D03*
X010281Y017148D03*
X010283Y017153D03*
X010286Y017158D03*
X010286Y017161D03*
X010288Y017166D03*
X010288Y017168D03*
X010288Y017171D03*
X010291Y017173D03*
X010291Y017176D03*
X010301Y017198D03*
X010301Y017201D03*
X010301Y017203D03*
X010303Y017211D03*
X010306Y017213D03*
X010308Y017216D03*
X010308Y017218D03*
X010311Y017223D03*
X010316Y017233D03*
X010318Y017238D03*
X010318Y017241D03*
X010318Y017243D03*
X010318Y017246D03*
X010323Y017251D03*
X010326Y017256D03*
X010326Y017258D03*
X010328Y017261D03*
X010328Y017263D03*
X010331Y017268D03*
X011293Y015973D03*
X011428Y015791D03*
X011428Y015788D03*
X011431Y015783D03*
X011433Y015781D03*
X011438Y015773D03*
X011456Y015746D03*
X011458Y015741D03*
X011461Y015738D03*
X011463Y015733D03*
X009251Y016106D03*
X008903Y016161D03*
X008781Y016556D03*
X008516Y016868D03*
X008288Y016591D03*
X007571Y016753D03*
D114*
X007611Y016718D03*
X007703Y016668D03*
X007733Y016653D03*
X007738Y016651D03*
X007718Y016543D03*
X007706Y016533D03*
X007683Y016521D03*
X007681Y016518D03*
X007668Y016511D03*
X007656Y016503D03*
X008191Y016353D03*
X008773Y016396D03*
X008773Y016398D03*
X008906Y016191D03*
X009408Y016323D03*
X009756Y016061D03*
X010803Y017891D03*
D115*
X010789Y017873D03*
X009754Y016066D03*
X008909Y016206D03*
X008909Y016208D03*
X008767Y016356D03*
X008579Y016183D03*
X008579Y016181D03*
X007664Y016683D03*
X007624Y016708D03*
X007602Y017138D03*
D116*
X008913Y016228D03*
X009756Y016071D03*
X009753Y016706D03*
D117*
X009753Y016076D03*
X008916Y016256D03*
D118*
X009752Y016078D03*
D119*
X009752Y016081D03*
X007727Y017101D03*
X007707Y017106D03*
X007684Y017111D03*
D120*
X007788Y017083D03*
X009751Y016083D03*
D121*
X009749Y016086D03*
X007924Y017051D03*
X007884Y017061D03*
D122*
X007953Y017041D03*
X009751Y016091D03*
D123*
X009747Y016093D03*
X007997Y017031D03*
D124*
X007992Y017033D03*
X009747Y016096D03*
D125*
X009747Y016098D03*
X008049Y017021D03*
D126*
X009746Y016101D03*
D127*
X009746Y016103D03*
D128*
X009743Y016106D03*
D129*
X009743Y016108D03*
X008403Y016931D03*
X008086Y017011D03*
D130*
X008113Y017006D03*
X009743Y016111D03*
D131*
X009743Y016113D03*
X008396Y016933D03*
D132*
X009742Y016116D03*
D133*
X009744Y016118D03*
D134*
X009744Y016121D03*
D135*
X009742Y016123D03*
X008157Y016998D03*
D136*
X009741Y016126D03*
D137*
X009741Y016128D03*
X008356Y016948D03*
D138*
X008232Y016391D03*
X008187Y016343D03*
X008559Y016158D03*
X008777Y016416D03*
X008777Y016418D03*
X009407Y016341D03*
X009407Y016338D03*
X009407Y016336D03*
X009407Y016333D03*
X009859Y016133D03*
X009744Y016746D03*
X010807Y017896D03*
X007762Y016636D03*
X007752Y016643D03*
X007739Y016558D03*
X007622Y016483D03*
X007614Y016478D03*
X007609Y016476D03*
X007607Y016473D03*
X007584Y016458D03*
X007572Y016448D03*
X007549Y016433D03*
D139*
X007546Y016431D03*
X007541Y016428D03*
X007538Y016426D03*
X007536Y016423D03*
X007528Y016421D03*
X007526Y016418D03*
X007523Y016416D03*
X007518Y016413D03*
X007516Y016411D03*
X007626Y016486D03*
X007631Y016488D03*
X007748Y016566D03*
X007756Y016638D03*
X007753Y016641D03*
X007606Y016723D03*
X008493Y016883D03*
X008626Y016213D03*
X008623Y016211D03*
X008558Y016156D03*
X008906Y016186D03*
X009408Y016343D03*
X009616Y016133D03*
X010733Y017841D03*
D140*
X010796Y017881D03*
X010796Y017883D03*
X009413Y016308D03*
X008906Y016198D03*
X008771Y016378D03*
X008771Y016381D03*
X008771Y016383D03*
X008571Y016171D03*
X008568Y016168D03*
X008566Y016166D03*
X008206Y016368D03*
X008206Y016371D03*
X008201Y016363D03*
X008486Y016888D03*
X007681Y016678D03*
D141*
X007646Y016696D03*
X007618Y016711D03*
X007618Y016713D03*
X007593Y017141D03*
X007586Y017143D03*
X008216Y016383D03*
X008208Y016373D03*
X008486Y016891D03*
X008771Y016368D03*
X008908Y016201D03*
X008601Y016201D03*
X008573Y016173D03*
X009748Y016733D03*
D142*
X009412Y016298D03*
X009412Y016296D03*
X008909Y016203D03*
X008769Y016363D03*
X008769Y016366D03*
X008574Y016176D03*
X008207Y016376D03*
X007649Y016693D03*
X007629Y016703D03*
X007627Y016706D03*
X010794Y017878D03*
D143*
X010782Y017866D03*
X010779Y017863D03*
X009414Y016286D03*
X008909Y016211D03*
X008582Y016188D03*
X007622Y017131D03*
X007604Y017136D03*
D144*
X007631Y017128D03*
X007646Y017123D03*
X008766Y016341D03*
X008911Y016216D03*
X009416Y016278D03*
X010771Y017856D03*
D145*
X009749Y016716D03*
X009417Y016271D03*
X009417Y016268D03*
X008912Y016221D03*
X008762Y016321D03*
X008762Y016323D03*
X008762Y016326D03*
D146*
X008763Y016318D03*
X008763Y016316D03*
X008913Y016223D03*
X008473Y016898D03*
X009751Y016713D03*
X009751Y016711D03*
D147*
X009752Y016708D03*
X008912Y016226D03*
X008472Y016901D03*
X007652Y017121D03*
D148*
X008762Y016313D03*
X008912Y016231D03*
X009754Y016703D03*
D149*
X009756Y016693D03*
X009756Y016691D03*
X008913Y016238D03*
X008758Y016303D03*
X008471Y016903D03*
X007658Y017118D03*
D150*
X008916Y016243D03*
D151*
X008914Y016246D03*
X008467Y016906D03*
X009757Y016686D03*
D152*
X008916Y016253D03*
X008916Y016251D03*
X008916Y016248D03*
D153*
X008443Y016913D03*
X008441Y016916D03*
X007933Y017048D03*
X007891Y017058D03*
X007851Y017068D03*
D154*
X008434Y016918D03*
D155*
X008429Y016921D03*
D156*
X008426Y016923D03*
D157*
X008421Y016926D03*
X008006Y017028D03*
D158*
X008414Y016928D03*
D159*
X008392Y016936D03*
X008142Y017001D03*
D160*
X008376Y016941D03*
D161*
X008372Y016943D03*
X008362Y016946D03*
X008197Y016991D03*
D162*
X008251Y016978D03*
X008271Y016973D03*
X008293Y016968D03*
X008311Y016963D03*
X008323Y016958D03*
X008346Y016951D03*
D163*
X008342Y016953D03*
D164*
X008327Y016956D03*
X008322Y016961D03*
X008232Y016983D03*
D165*
X008183Y016993D03*
X008298Y016966D03*
D166*
X008278Y016971D03*
X008243Y016981D03*
D167*
X008263Y016976D03*
D168*
X008222Y016986D03*
D169*
X008217Y016988D03*
X008172Y016996D03*
D170*
X008132Y017003D03*
X008097Y017008D03*
D171*
X008064Y017016D03*
D172*
X008029Y017023D03*
D173*
X008018Y017026D03*
D174*
X007966Y017038D03*
X007941Y017046D03*
D175*
X007906Y017056D03*
X007878Y017063D03*
X007793Y017081D03*
D176*
X007824Y017076D03*
X007839Y017071D03*
D177*
X007813Y017078D03*
X007768Y017088D03*
X007761Y017091D03*
X007756Y017093D03*
X007736Y017098D03*
D178*
X007697Y017108D03*
X007674Y017113D03*
D179*
X007668Y017116D03*
D180*
X013040Y012671D03*
X013050Y012681D03*
X013090Y012691D03*
X013100Y012691D03*
X013110Y012681D03*
X013190Y012551D03*
X013210Y012541D03*
X013220Y012541D03*
X013260Y012561D03*
X013260Y012341D03*
X013270Y012341D03*
X013280Y012341D03*
X013290Y012341D03*
X013300Y012341D03*
X013310Y012341D03*
X013320Y012341D03*
X013330Y012341D03*
X013340Y012341D03*
X013350Y012341D03*
X013410Y012341D03*
X013330Y012251D03*
X013320Y012241D03*
X013310Y012231D03*
X013250Y012341D03*
X013240Y012341D03*
X013230Y012341D03*
X013220Y012341D03*
X013210Y012341D03*
X013200Y012341D03*
X013190Y012341D03*
X013180Y012341D03*
X013170Y012341D03*
X013160Y012341D03*
X013150Y012341D03*
X013140Y012341D03*
X013130Y012341D03*
X013120Y012341D03*
X013110Y012341D03*
X013100Y012341D03*
X013090Y012341D03*
X013080Y012341D03*
X013070Y012341D03*
X013060Y012341D03*
X013050Y012341D03*
X013040Y012341D03*
X013040Y012071D03*
X013050Y012071D03*
X013060Y012071D03*
X013070Y012071D03*
X013080Y012071D03*
X013090Y012071D03*
X013100Y012071D03*
X013110Y012071D03*
X013120Y012071D03*
X013130Y012071D03*
X013140Y012071D03*
X013150Y012071D03*
X013160Y012071D03*
X013170Y012071D03*
X013180Y012071D03*
X013190Y012071D03*
X013200Y012071D03*
X013210Y012071D03*
X013220Y012071D03*
X013240Y012061D03*
X013250Y012061D03*
X013230Y011881D03*
X013220Y011881D03*
X013210Y011881D03*
X013200Y011881D03*
X013190Y011881D03*
X013180Y011881D03*
X013170Y011881D03*
X013160Y011881D03*
X013150Y011881D03*
X013140Y011881D03*
X013130Y011881D03*
X013120Y011881D03*
X013110Y011881D03*
X013100Y011881D03*
X013090Y011881D03*
X013080Y011881D03*
X013070Y011881D03*
X013060Y011881D03*
X013050Y011881D03*
X013040Y011881D03*
X013030Y011881D03*
X013020Y011881D03*
X013010Y011881D03*
X013000Y011881D03*
X013070Y011741D03*
X013080Y011741D03*
X013090Y011741D03*
X013100Y011741D03*
X013110Y011741D03*
X013120Y011741D03*
X013130Y011741D03*
X013170Y011741D03*
X013180Y011741D03*
X013190Y011741D03*
X013200Y011741D03*
X013240Y011731D03*
X013250Y011721D03*
X013250Y011571D03*
X013120Y011581D03*
X013080Y011551D03*
X013070Y011551D03*
X013060Y011551D03*
X013040Y011561D03*
X013030Y011671D03*
X013030Y011421D03*
X013040Y011421D03*
X013050Y011421D03*
X013060Y011421D03*
X013070Y011421D03*
X013080Y011421D03*
X013090Y011421D03*
X013100Y011421D03*
X013110Y011421D03*
X013120Y011421D03*
X013130Y011421D03*
X013140Y011421D03*
X013150Y011421D03*
X013160Y011421D03*
X013170Y011421D03*
X013180Y011421D03*
X013190Y011421D03*
X013200Y011421D03*
X013210Y011421D03*
X013220Y011421D03*
X013230Y011421D03*
X013240Y011421D03*
X013250Y011421D03*
X013260Y011421D03*
X013270Y011421D03*
X013280Y011421D03*
X013290Y011421D03*
X013370Y011421D03*
X013410Y011421D03*
X013250Y011051D03*
X013240Y011051D03*
X013220Y011061D03*
X013210Y011061D03*
X013200Y011061D03*
X013190Y011061D03*
X013180Y011061D03*
X013170Y011061D03*
X013160Y011061D03*
X013150Y011061D03*
X013140Y011061D03*
X013130Y011061D03*
X013120Y011061D03*
X013110Y011061D03*
X013100Y011061D03*
X013090Y011061D03*
X013080Y011061D03*
X013070Y011061D03*
X013060Y011061D03*
X013050Y011061D03*
X013040Y011061D03*
X013030Y011061D03*
X013020Y011061D03*
X013010Y011061D03*
X013000Y011061D03*
X013000Y010881D03*
X013010Y010881D03*
X013020Y010881D03*
X013030Y010881D03*
X013040Y010881D03*
X013050Y010881D03*
X013060Y010881D03*
X013070Y010881D03*
X013080Y010881D03*
X013090Y010881D03*
X013100Y010881D03*
X013110Y010881D03*
X013120Y010881D03*
X013130Y010881D03*
X013140Y010881D03*
X013150Y010881D03*
X013160Y010881D03*
X013170Y010881D03*
X013180Y010881D03*
X013190Y010881D03*
X013200Y010881D03*
X013210Y010881D03*
X013220Y010881D03*
X013220Y010711D03*
X013230Y010711D03*
X013210Y010711D03*
X013200Y010711D03*
X013190Y010711D03*
X013180Y010711D03*
X013170Y010711D03*
X013160Y010711D03*
X013150Y010711D03*
X013140Y010711D03*
X013130Y010711D03*
X013120Y010711D03*
X013110Y010711D03*
X013100Y010711D03*
X013090Y010711D03*
X013080Y010711D03*
X013070Y010711D03*
X013060Y010711D03*
X013050Y010711D03*
X013040Y010711D03*
X013030Y010711D03*
X013020Y010711D03*
X013010Y010711D03*
X013000Y010711D03*
X013070Y010561D03*
X013060Y010551D03*
X013050Y010541D03*
X013090Y010571D03*
X013100Y010571D03*
X013140Y010581D03*
X013150Y010581D03*
X013160Y010581D03*
X013200Y010571D03*
X013210Y010571D03*
X013230Y010561D03*
X013240Y010551D03*
X013250Y010541D03*
X013250Y010381D03*
X013240Y010371D03*
X013230Y010361D03*
X013210Y010351D03*
X013200Y010351D03*
X013160Y010341D03*
X013150Y010341D03*
X013140Y010341D03*
X013100Y010351D03*
X013090Y010351D03*
X013070Y010361D03*
X013060Y010371D03*
X013050Y010381D03*
X013040Y010241D03*
X013070Y010081D03*
X013090Y010071D03*
X013140Y010061D03*
X013150Y010061D03*
X013160Y010061D03*
X013210Y010071D03*
X013230Y010081D03*
X013240Y010091D03*
X013260Y010241D03*
X013050Y009951D03*
X013010Y009951D03*
X013080Y009831D03*
X013060Y009821D03*
X013050Y009811D03*
X013110Y009841D03*
X013120Y009841D03*
X013130Y009841D03*
X013140Y009841D03*
X013150Y009841D03*
X013160Y009841D03*
X013170Y009841D03*
X013180Y009841D03*
X013190Y009841D03*
X013200Y009841D03*
X013220Y009831D03*
X013230Y009831D03*
X013240Y009821D03*
X013230Y009631D03*
X013220Y009631D03*
X013210Y009631D03*
X013200Y009631D03*
X013190Y009631D03*
X013180Y009631D03*
X013170Y009631D03*
X013160Y009631D03*
X013150Y009631D03*
X013140Y009631D03*
X013130Y009631D03*
X013120Y009631D03*
X013110Y009631D03*
X013100Y009631D03*
X013090Y009631D03*
X013080Y009631D03*
X013070Y009631D03*
X013060Y009631D03*
X013070Y009491D03*
X013080Y009491D03*
X013090Y009491D03*
X013100Y009491D03*
X013110Y009491D03*
X013120Y009491D03*
X013130Y009491D03*
X013140Y009491D03*
X013150Y009491D03*
X013160Y009491D03*
X013170Y009491D03*
X013180Y009491D03*
X013190Y009491D03*
X013200Y009491D03*
X013210Y009491D03*
X013220Y009491D03*
X013230Y009491D03*
X013240Y009491D03*
X013250Y009491D03*
X013260Y009491D03*
X013270Y009491D03*
X013280Y009491D03*
X013290Y009491D03*
X013290Y009631D03*
X013300Y009631D03*
X013310Y009631D03*
X013320Y009631D03*
X013330Y009631D03*
X013340Y009631D03*
X013350Y009631D03*
X013360Y009631D03*
X013370Y009631D03*
X013380Y009631D03*
X013390Y009631D03*
X013400Y009631D03*
X013410Y009631D03*
X013420Y009631D03*
X013430Y009631D03*
X013280Y009631D03*
X013270Y009631D03*
X013260Y009631D03*
X013260Y009291D03*
X013270Y009291D03*
X013280Y009291D03*
X013290Y009291D03*
X013250Y009291D03*
X013240Y009291D03*
X013230Y009291D03*
X013220Y009291D03*
X013210Y009291D03*
X013200Y009291D03*
X013190Y009291D03*
X013180Y009291D03*
X013170Y009291D03*
X013160Y009291D03*
X013150Y009291D03*
X013140Y009291D03*
X013130Y009291D03*
X013120Y009291D03*
X013110Y009291D03*
X013100Y009291D03*
X013090Y009291D03*
X013080Y009291D03*
X013060Y009301D03*
X013050Y009301D03*
X013050Y009151D03*
X013060Y009151D03*
X013070Y009151D03*
X013080Y009151D03*
X013090Y009151D03*
X013100Y009151D03*
X013110Y009151D03*
X013120Y009151D03*
X013130Y009151D03*
X013140Y009151D03*
X013150Y009151D03*
X013160Y009151D03*
X013170Y009151D03*
X013180Y009151D03*
X013190Y009151D03*
X013200Y009151D03*
X013210Y009151D03*
X013220Y009151D03*
X013240Y009141D03*
X013250Y009141D03*
X013260Y008961D03*
X013270Y008961D03*
X013280Y008961D03*
X013290Y008961D03*
X013300Y008961D03*
X013310Y008961D03*
X013320Y008961D03*
X013330Y008961D03*
X013340Y008961D03*
X013350Y008961D03*
X013360Y008961D03*
X013370Y008961D03*
X013380Y008961D03*
X013390Y008961D03*
X013400Y008961D03*
X013410Y008961D03*
X013420Y008961D03*
X013430Y008961D03*
X013230Y008961D03*
X013220Y008961D03*
X013210Y008961D03*
X013200Y008961D03*
X013190Y008961D03*
X013180Y008961D03*
X013170Y008961D03*
X013160Y008961D03*
X013150Y008961D03*
X013140Y008961D03*
X013130Y008961D03*
X013120Y008961D03*
X013110Y008961D03*
X013100Y008961D03*
X013090Y008961D03*
X013080Y008961D03*
X013070Y008961D03*
X013060Y008961D03*
X013050Y008961D03*
X013040Y008961D03*
X013030Y008961D03*
X013020Y008961D03*
X013010Y008961D03*
X013000Y008961D03*
X013000Y009151D03*
X013010Y009151D03*
X013020Y009151D03*
X013030Y009151D03*
X013040Y009151D03*
X013040Y008761D03*
X013070Y008751D03*
X013080Y008751D03*
X013090Y008751D03*
X013100Y008751D03*
X013110Y008751D03*
X013120Y008751D03*
X013130Y008751D03*
X013140Y008751D03*
X013150Y008751D03*
X013160Y008751D03*
X013170Y008751D03*
X013180Y008751D03*
X013190Y008751D03*
X013200Y008751D03*
X013210Y008751D03*
X013220Y008751D03*
X013230Y008751D03*
X013240Y008751D03*
X013250Y008751D03*
X013250Y008581D03*
X013260Y008581D03*
X013270Y008581D03*
X013280Y008581D03*
X013290Y008581D03*
X013240Y008581D03*
X013230Y008581D03*
X013220Y008581D03*
X013210Y008581D03*
X013200Y008581D03*
X013190Y008581D03*
X013180Y008581D03*
X013170Y008581D03*
X013160Y008581D03*
X013150Y008581D03*
X013140Y008581D03*
X013130Y008581D03*
X013120Y008581D03*
X013110Y008581D03*
X013100Y008581D03*
X013090Y008581D03*
X013080Y008581D03*
X013070Y008581D03*
X013060Y008581D03*
X013050Y008581D03*
X013040Y008581D03*
X013030Y008581D03*
X013020Y008581D03*
X013010Y008581D03*
X013000Y008581D03*
X013000Y008471D03*
X012990Y008471D03*
X013010Y008461D03*
X012940Y008441D03*
X012900Y008351D03*
X012950Y008251D03*
X013070Y008271D03*
X013200Y008261D03*
X013210Y008261D03*
X013260Y008281D03*
X013250Y008431D03*
X013370Y008581D03*
X013410Y008581D03*
X013270Y007761D03*
X013230Y007761D03*
X013050Y007761D03*
X013010Y007761D03*
X013050Y007621D03*
X013040Y007611D03*
X013090Y007631D03*
X013100Y007631D03*
X013110Y007621D03*
X013190Y007491D03*
X013210Y007481D03*
X013220Y007481D03*
X013260Y007501D03*
X013220Y007371D03*
X013210Y007371D03*
X013240Y007361D03*
X013250Y007351D03*
X013170Y007381D03*
X013160Y007381D03*
X013150Y007381D03*
X013140Y007381D03*
X013100Y007371D03*
X013090Y007371D03*
X013070Y007361D03*
X013060Y007351D03*
X013060Y007171D03*
X013070Y007171D03*
X013080Y007171D03*
X013090Y007171D03*
X013100Y007171D03*
X013110Y007171D03*
X013120Y007171D03*
X013130Y007171D03*
X013140Y007171D03*
X013150Y007171D03*
X013160Y007171D03*
X013170Y007171D03*
X013180Y007171D03*
X013190Y007171D03*
X013200Y007171D03*
X013210Y007171D03*
X013220Y007171D03*
X013230Y007171D03*
X013230Y006961D03*
X013240Y006961D03*
X013250Y006961D03*
X013220Y006961D03*
X013210Y006961D03*
X013200Y006961D03*
X013190Y006961D03*
X013180Y006961D03*
X013170Y006961D03*
X013160Y006961D03*
X013150Y006961D03*
X013140Y006961D03*
X013130Y006961D03*
X013120Y006961D03*
X013110Y006961D03*
X013100Y006961D03*
X013090Y006961D03*
X013080Y006961D03*
X013070Y006961D03*
X013040Y006971D03*
X013030Y007171D03*
X013020Y007171D03*
X013010Y007171D03*
X013000Y007171D03*
X012990Y007171D03*
X012980Y007171D03*
X012970Y007171D03*
X012960Y007171D03*
X012950Y007171D03*
X012940Y007171D03*
X012930Y007171D03*
X012920Y007171D03*
X012910Y007171D03*
X012900Y007171D03*
X013040Y006741D03*
X013070Y006731D03*
X013080Y006731D03*
X013090Y006731D03*
X013100Y006731D03*
X013110Y006731D03*
X013120Y006731D03*
X013130Y006731D03*
X013140Y006731D03*
X013150Y006731D03*
X013160Y006731D03*
X013170Y006731D03*
X013180Y006731D03*
X013190Y006731D03*
X013200Y006731D03*
X013210Y006731D03*
X013220Y006731D03*
X013230Y006731D03*
X013240Y006731D03*
X013250Y006731D03*
X013220Y006581D03*
X013210Y006581D03*
X013200Y006581D03*
X013190Y006581D03*
X013180Y006581D03*
X013170Y006581D03*
X013160Y006581D03*
X013150Y006581D03*
X013140Y006581D03*
X013130Y006581D03*
X013120Y006581D03*
X013110Y006581D03*
X013100Y006581D03*
X013090Y006581D03*
X013080Y006581D03*
X013070Y006581D03*
X013060Y006581D03*
X013050Y006581D03*
X013040Y006581D03*
X013030Y006581D03*
X013020Y006581D03*
X013010Y006581D03*
X013000Y006581D03*
X013000Y006391D03*
X013010Y006391D03*
X013020Y006391D03*
X013030Y006391D03*
X013040Y006391D03*
X013050Y006391D03*
X013060Y006391D03*
X013070Y006391D03*
X013080Y006391D03*
X013090Y006391D03*
X013100Y006391D03*
X013110Y006391D03*
X013120Y006391D03*
X013130Y006391D03*
X013140Y006391D03*
X013150Y006391D03*
X013160Y006391D03*
X013170Y006391D03*
X013180Y006391D03*
X013190Y006391D03*
X013200Y006391D03*
X013210Y006391D03*
X013220Y006391D03*
X013230Y006391D03*
X013260Y006391D03*
X013270Y006391D03*
X013280Y006391D03*
X013290Y006391D03*
X013300Y006391D03*
X013310Y006391D03*
X013320Y006391D03*
X013330Y006391D03*
X013340Y006391D03*
X013350Y006391D03*
X013360Y006391D03*
X013370Y006391D03*
X013380Y006391D03*
X013390Y006391D03*
X013400Y006391D03*
X013410Y006391D03*
X013420Y006391D03*
X013430Y006391D03*
X013250Y006571D03*
X013240Y006571D03*
X012940Y011411D03*
X012960Y011421D03*
X012970Y011421D03*
X012980Y011421D03*
X012990Y011421D03*
X013000Y011421D03*
X013010Y011421D03*
X013020Y011421D03*
X013020Y012071D03*
X013030Y012071D03*
X013010Y012071D03*
X013000Y012071D03*
D181*
X013230Y012066D03*
X013260Y011876D03*
X013270Y011876D03*
X013280Y011876D03*
X013290Y011876D03*
X013230Y011736D03*
X013220Y011736D03*
X013210Y011736D03*
X013110Y011566D03*
X013100Y011556D03*
X013090Y011556D03*
X013050Y011556D03*
X012950Y011416D03*
X012900Y011356D03*
X013010Y011166D03*
X013060Y011186D03*
X013110Y011206D03*
X013160Y011226D03*
X013210Y011246D03*
X013240Y011256D03*
X013260Y011266D03*
X013290Y011276D03*
X013310Y011286D03*
X013340Y011296D03*
X013390Y011316D03*
X013230Y011056D03*
X013260Y010926D03*
X013250Y010866D03*
X013240Y010866D03*
X013260Y010856D03*
X013260Y010706D03*
X013270Y010706D03*
X013280Y010706D03*
X013290Y010706D03*
X013220Y010566D03*
X013190Y010576D03*
X013180Y010576D03*
X013170Y010576D03*
X013130Y010576D03*
X013120Y010576D03*
X013110Y010576D03*
X013080Y010566D03*
X013080Y010356D03*
X013110Y010346D03*
X013120Y010346D03*
X013130Y010346D03*
X013170Y010346D03*
X013180Y010346D03*
X013190Y010346D03*
X013220Y010356D03*
X013300Y010176D03*
X013220Y010076D03*
X013200Y010066D03*
X013190Y010066D03*
X013180Y010066D03*
X013170Y010066D03*
X013130Y010066D03*
X013120Y010066D03*
X013110Y010066D03*
X013100Y010066D03*
X013080Y010076D03*
X013060Y010086D03*
X013060Y009946D03*
X013090Y009836D03*
X013100Y009836D03*
X013070Y009826D03*
X013210Y009836D03*
X013030Y009626D03*
X013020Y009626D03*
X013010Y009626D03*
X013010Y009496D03*
X013020Y009496D03*
X013030Y009496D03*
X013040Y009496D03*
X013040Y009436D03*
X013070Y009296D03*
X013230Y009146D03*
X013290Y008756D03*
X013300Y008756D03*
X013310Y008756D03*
X013320Y008756D03*
X013330Y008756D03*
X013340Y008756D03*
X013350Y008756D03*
X013360Y008756D03*
X013060Y008756D03*
X013050Y008756D03*
X012980Y008466D03*
X012970Y008466D03*
X012960Y008466D03*
X012950Y008456D03*
X013150Y008416D03*
X013160Y008426D03*
X013170Y008436D03*
X013180Y008436D03*
X013200Y008446D03*
X013210Y008446D03*
X013230Y008436D03*
X013240Y008436D03*
X013250Y008276D03*
X013240Y008266D03*
X013230Y008266D03*
X013220Y008266D03*
X013190Y008266D03*
X013180Y008266D03*
X013170Y008266D03*
X013160Y008276D03*
X013150Y008286D03*
X013080Y008266D03*
X013010Y008256D03*
X012990Y008246D03*
X012980Y008246D03*
X012970Y008246D03*
X012960Y008246D03*
X013010Y008056D03*
X013060Y008076D03*
X013110Y008096D03*
X013160Y008116D03*
X013210Y008136D03*
X013240Y008146D03*
X013260Y008156D03*
X013290Y008166D03*
X013310Y008176D03*
X013340Y008186D03*
X013390Y008206D03*
X013390Y008026D03*
X013340Y008006D03*
X013310Y007996D03*
X013290Y007986D03*
X013260Y007976D03*
X013240Y007966D03*
X013210Y007956D03*
X013160Y007936D03*
X013110Y007916D03*
X013060Y007896D03*
X013010Y007876D03*
X013060Y007626D03*
X013070Y007626D03*
X013080Y007626D03*
X013040Y007476D03*
X013080Y007366D03*
X013110Y007376D03*
X013120Y007376D03*
X013130Y007376D03*
X013180Y007376D03*
X013190Y007376D03*
X013200Y007376D03*
X013230Y007366D03*
X013230Y007486D03*
X013240Y007486D03*
X013250Y007486D03*
X013200Y007486D03*
X013260Y007166D03*
X013270Y007166D03*
X013280Y007166D03*
X013290Y007166D03*
X013290Y006966D03*
X013300Y006966D03*
X013310Y006966D03*
X013320Y006966D03*
X013330Y006966D03*
X013340Y006966D03*
X013350Y006966D03*
X013360Y006966D03*
X013360Y006736D03*
X013350Y006736D03*
X013340Y006736D03*
X013330Y006736D03*
X013320Y006736D03*
X013310Y006736D03*
X013300Y006736D03*
X013290Y006736D03*
X013230Y006576D03*
X013060Y006736D03*
X013050Y006736D03*
X013050Y006966D03*
X013060Y006966D03*
X013040Y011746D03*
X013030Y011746D03*
X013020Y011746D03*
X013010Y011746D03*
X013420Y012346D03*
X013250Y012546D03*
X013240Y012546D03*
X013230Y012546D03*
X013200Y012546D03*
X013080Y012686D03*
X013070Y012686D03*
X013060Y012686D03*
X013040Y012536D03*
D182*
X013280Y012621D03*
X013020Y011621D03*
X013270Y010811D03*
X013280Y009751D03*
X013020Y009741D03*
X013020Y009371D03*
X013030Y008801D03*
X013270Y008431D03*
X013130Y008351D03*
X012910Y008351D03*
X013280Y007561D03*
X013280Y007291D03*
X013020Y007281D03*
X013030Y007011D03*
X013030Y006781D03*
D183*
X013250Y006401D03*
X013250Y007181D03*
X013130Y007601D03*
X013030Y007761D03*
X013250Y007761D03*
X013270Y008301D03*
X013020Y008451D03*
X013390Y008581D03*
X013250Y008971D03*
X013030Y009951D03*
X013250Y010721D03*
X012910Y011371D03*
X013050Y011731D03*
X013160Y011731D03*
X013260Y011581D03*
X013390Y011421D03*
X013250Y011891D03*
X013390Y012331D03*
X013130Y012661D03*
D184*
X013140Y011676D03*
X013270Y010176D03*
X013270Y008776D03*
X013280Y008776D03*
X013260Y008776D03*
X012920Y008346D03*
X013260Y006986D03*
X013270Y006986D03*
X013280Y006986D03*
X013280Y006756D03*
X013270Y006756D03*
X013260Y006756D03*
D185*
X013040Y007186D03*
X013030Y007496D03*
X013050Y009476D03*
X013040Y009646D03*
X013250Y009646D03*
X013290Y010816D03*
X012920Y011376D03*
X013380Y012326D03*
X013030Y012556D03*
D186*
X012930Y008351D03*
D187*
X013060Y008301D03*
X013010Y008801D03*
X013290Y009081D03*
X013010Y009741D03*
X012930Y011381D03*
X013130Y011611D03*
X013290Y012001D03*
X013170Y012581D03*
X013140Y012641D03*
X013290Y012621D03*
X013140Y007581D03*
X013170Y007521D03*
X013290Y007561D03*
X013290Y007291D03*
X013010Y007011D03*
X013010Y006781D03*
X013290Y006511D03*
D188*
X013260Y006556D03*
X013240Y006396D03*
X013240Y007176D03*
X013260Y007346D03*
X013180Y007506D03*
X013120Y007616D03*
X013030Y007596D03*
X013040Y007766D03*
X013020Y007766D03*
X013240Y007766D03*
X013260Y007766D03*
X013050Y007346D03*
X013040Y007336D03*
X013050Y007176D03*
X012940Y008266D03*
X013380Y008586D03*
X013400Y008586D03*
X013240Y008966D03*
X013260Y009126D03*
X013060Y009486D03*
X013050Y009636D03*
X013040Y009796D03*
X013040Y009946D03*
X013020Y009946D03*
X013050Y010096D03*
X013040Y010106D03*
X013040Y010386D03*
X013040Y010536D03*
X013260Y010536D03*
X013260Y010386D03*
X013260Y010106D03*
X013250Y010096D03*
X013250Y009816D03*
X013260Y009806D03*
X013240Y009636D03*
X013040Y009316D03*
X013240Y010716D03*
X013230Y010886D03*
X013260Y011036D03*
X013380Y011426D03*
X013400Y011426D03*
X013260Y011716D03*
X013240Y011886D03*
X013260Y012046D03*
X013340Y012266D03*
X013350Y012276D03*
X013400Y012336D03*
X013180Y012566D03*
X013120Y012676D03*
X013030Y012656D03*
X013060Y011736D03*
X013030Y011576D03*
D189*
X012970Y011141D03*
X013360Y011421D03*
X013430Y011341D03*
X013290Y012231D03*
X013250Y012691D03*
X013060Y010251D03*
X013000Y009951D03*
X013360Y008581D03*
X013300Y008351D03*
X013430Y008231D03*
X013430Y008051D03*
X013220Y007761D03*
X013250Y007631D03*
X013000Y007761D03*
X012970Y007851D03*
X012970Y008031D03*
D190*
X012980Y008041D03*
X012990Y008051D03*
X013000Y008051D03*
X013020Y008061D03*
X013030Y008061D03*
X013040Y008071D03*
X013050Y008071D03*
X013070Y008081D03*
X013080Y008081D03*
X013090Y008091D03*
X013100Y008091D03*
X013120Y008101D03*
X013130Y008101D03*
X013140Y008111D03*
X013150Y008111D03*
X013170Y008121D03*
X013180Y008121D03*
X013190Y008131D03*
X013200Y008131D03*
X013220Y008141D03*
X013230Y008141D03*
X013250Y008151D03*
X013270Y008161D03*
X013280Y008161D03*
X013300Y008171D03*
X013320Y008181D03*
X013330Y008181D03*
X013350Y008191D03*
X013360Y008191D03*
X013370Y008201D03*
X013380Y008201D03*
X013400Y008211D03*
X013410Y008211D03*
X013420Y008221D03*
X013420Y008041D03*
X013410Y008031D03*
X013400Y008031D03*
X013380Y008021D03*
X013370Y008021D03*
X013360Y008011D03*
X013350Y008011D03*
X013330Y008001D03*
X013320Y008001D03*
X013300Y007991D03*
X013280Y007981D03*
X013270Y007981D03*
X013250Y007971D03*
X013230Y007961D03*
X013220Y007961D03*
X013200Y007951D03*
X013190Y007951D03*
X013180Y007941D03*
X013170Y007941D03*
X013150Y007931D03*
X013140Y007931D03*
X013130Y007921D03*
X013120Y007921D03*
X013100Y007911D03*
X013090Y007911D03*
X013080Y007901D03*
X013070Y007901D03*
X013050Y007891D03*
X013040Y007891D03*
X013030Y007881D03*
X013020Y007881D03*
X013000Y007871D03*
X012990Y007871D03*
X012980Y007861D03*
X013060Y007761D03*
X013280Y007761D03*
X013260Y007621D03*
X013300Y007561D03*
X013300Y007291D03*
X013260Y007221D03*
X013370Y006971D03*
X013380Y006971D03*
X013390Y006971D03*
X013390Y006741D03*
X013380Y006741D03*
X013370Y006741D03*
X013300Y006511D03*
X013260Y006441D03*
X013000Y006781D03*
X013000Y007011D03*
X013000Y008251D03*
X013020Y008271D03*
X013090Y008271D03*
X013100Y008271D03*
X013110Y008281D03*
X013190Y008441D03*
X013220Y008441D03*
X013420Y008581D03*
X013390Y008761D03*
X013380Y008761D03*
X013370Y008761D03*
X013260Y009011D03*
X013300Y009081D03*
X013000Y009361D03*
X013000Y009501D03*
X013000Y009621D03*
X013000Y009741D03*
X013260Y009681D03*
X013000Y010171D03*
X013050Y010251D03*
X013000Y010461D03*
X013300Y010461D03*
X013260Y010751D03*
X013250Y010911D03*
X013300Y010991D03*
X013100Y011201D03*
X013090Y011201D03*
X013080Y011191D03*
X013070Y011191D03*
X013050Y011181D03*
X013040Y011181D03*
X013030Y011171D03*
X013020Y011171D03*
X013000Y011161D03*
X012990Y011161D03*
X012980Y011151D03*
X013120Y011211D03*
X013130Y011211D03*
X013140Y011221D03*
X013150Y011221D03*
X013170Y011231D03*
X013180Y011231D03*
X013190Y011241D03*
X013200Y011241D03*
X013220Y011251D03*
X013230Y011251D03*
X013250Y011261D03*
X013270Y011271D03*
X013280Y011271D03*
X013300Y011281D03*
X013320Y011291D03*
X013330Y011291D03*
X013350Y011301D03*
X013360Y011301D03*
X013370Y011311D03*
X013380Y011311D03*
X013400Y011321D03*
X013410Y011321D03*
X013420Y011331D03*
X013420Y011421D03*
X013300Y011661D03*
X013260Y011931D03*
X013300Y012001D03*
X013300Y012231D03*
X013300Y012621D03*
X013260Y012681D03*
X013000Y011751D03*
X013040Y011691D03*
X013000Y011611D03*
X013000Y008801D03*
D191*
X013040Y008846D03*
X013300Y009756D03*
X013250Y010246D03*
X013300Y010816D03*
X013240Y010906D03*
X013300Y011406D03*
X013240Y011566D03*
X013050Y012536D03*
X013000Y012606D03*
X013000Y007546D03*
X013050Y007476D03*
X013000Y007276D03*
X013040Y007056D03*
X013040Y006826D03*
D192*
X013280Y008386D03*
X013030Y012336D03*
X013020Y012336D03*
X013010Y012336D03*
X013000Y012336D03*
D193*
X013010Y012606D03*
X013160Y012606D03*
X013370Y012316D03*
X013010Y011616D03*
X013290Y010986D03*
X013280Y010816D03*
X013290Y009756D03*
X013010Y009366D03*
X013260Y008446D03*
X013120Y008336D03*
X013160Y007546D03*
X013010Y007546D03*
X013010Y007276D03*
D194*
X013150Y007561D03*
X013290Y008351D03*
X013290Y010171D03*
X013010Y010171D03*
X013010Y010461D03*
X013290Y010461D03*
X013290Y011651D03*
X013360Y012311D03*
X013150Y012621D03*
D195*
X013280Y011996D03*
X013280Y010986D03*
X013280Y009076D03*
X013020Y008806D03*
X013020Y007016D03*
X013020Y006786D03*
X013280Y006506D03*
D196*
X013270Y006506D03*
X013020Y007546D03*
X013270Y009076D03*
X013280Y010176D03*
X013270Y010986D03*
X013150Y011696D03*
X013270Y011996D03*
X013020Y012606D03*
D197*
X013280Y011651D03*
X013280Y010461D03*
X013020Y010461D03*
X013020Y010171D03*
X013030Y009741D03*
X013270Y009751D03*
X013030Y009371D03*
X013140Y008351D03*
X013270Y007291D03*
X013030Y007281D03*
D198*
X013030Y008376D03*
D199*
X013030Y010171D03*
X013270Y011651D03*
D200*
X013270Y010461D03*
X013030Y010461D03*
X013040Y008371D03*
X013050Y008351D03*
D201*
X013270Y007566D03*
X013270Y012626D03*
D202*
X013174Y004950D02*
X013044Y004950D01*
X013014Y004810D01*
X012884Y004750D01*
X012754Y004840D01*
X012664Y004750D01*
X012744Y004630D01*
X012714Y004570D01*
X012944Y004480D01*
X012914Y004540D02*
X013114Y004640D01*
X013264Y004540D01*
X013314Y004390D01*
X013264Y004240D01*
X013114Y004190D01*
X012964Y004240D01*
X012914Y004290D01*
X012764Y004190D01*
X012714Y004040D01*
X012764Y003990D01*
X012914Y004090D01*
X013064Y003990D01*
X013064Y003890D01*
X013164Y003890D01*
X013164Y004040D01*
X013314Y004090D01*
X013464Y003990D01*
X013514Y004040D01*
X013414Y004190D01*
X013514Y004340D01*
X013614Y004340D01*
X013614Y004440D01*
X013464Y004490D01*
X013414Y004640D01*
X013514Y004740D01*
X013464Y004790D01*
X013314Y004740D01*
X013164Y004790D01*
X013164Y004940D01*
X013064Y004890D01*
X013014Y004740D01*
X012864Y004740D01*
X012764Y004790D01*
X012714Y004740D01*
X012764Y004640D01*
X012764Y004590D01*
X012914Y004540D01*
X012911Y004541D02*
X012917Y004541D01*
X013034Y004600D02*
X012764Y004600D01*
X012755Y004658D02*
X013432Y004658D01*
X013454Y004610D02*
X013544Y004750D01*
X013454Y004840D01*
X013324Y004750D01*
X013204Y004800D01*
X013174Y004950D01*
X013164Y004892D02*
X013069Y004892D01*
X013046Y004834D02*
X013164Y004834D01*
X013209Y004775D02*
X013026Y004775D01*
X013175Y004600D02*
X013428Y004600D01*
X013454Y004610D02*
X013504Y004490D01*
X013664Y004460D01*
X013664Y004330D01*
X013504Y004300D01*
X013454Y004180D01*
X013544Y004050D01*
X013454Y003960D01*
X013324Y004050D01*
X013194Y003990D01*
X013174Y003840D01*
X013044Y003840D01*
X013014Y003990D01*
X012884Y004040D01*
X012754Y003960D01*
X012664Y004050D01*
X012744Y004170D01*
X012714Y004220D01*
X012944Y004320D01*
X012956Y004249D02*
X012852Y004249D01*
X012765Y004190D02*
X013114Y004190D01*
X013115Y004190D02*
X013414Y004190D01*
X013453Y004132D02*
X012745Y004132D01*
X012725Y004073D02*
X012889Y004073D01*
X012940Y004073D02*
X013264Y004073D01*
X013340Y004073D02*
X013492Y004073D01*
X013489Y004015D02*
X013427Y004015D01*
X013453Y004249D02*
X013267Y004249D01*
X013287Y004307D02*
X013492Y004307D01*
X013614Y004366D02*
X013306Y004366D01*
X013303Y004424D02*
X013614Y004424D01*
X013486Y004483D02*
X013283Y004483D01*
X013263Y004541D02*
X013447Y004541D01*
X013491Y004717D02*
X012726Y004717D01*
X012749Y004775D02*
X012794Y004775D01*
X012944Y004480D02*
X012957Y004502D01*
X012973Y004522D01*
X012992Y004540D01*
X013014Y004555D01*
X013037Y004566D01*
X013062Y004574D01*
X013087Y004578D01*
X013113Y004579D01*
X013139Y004576D01*
X013164Y004569D01*
X013187Y004558D01*
X013209Y004545D01*
X013229Y004528D01*
X013246Y004509D01*
X013261Y004487D01*
X013271Y004463D01*
X013279Y004439D01*
X013283Y004413D01*
X013283Y004387D01*
X013279Y004361D01*
X013271Y004337D01*
X013261Y004313D01*
X013246Y004291D01*
X013229Y004272D01*
X013209Y004255D01*
X013187Y004242D01*
X013164Y004231D01*
X013139Y004224D01*
X013113Y004221D01*
X013087Y004222D01*
X013062Y004226D01*
X013037Y004234D01*
X013014Y004245D01*
X012992Y004260D01*
X012973Y004278D01*
X012957Y004298D01*
X012944Y004320D01*
X013027Y004015D02*
X013164Y004015D01*
X013164Y003956D02*
X013064Y003956D01*
X013064Y003898D02*
X013164Y003898D01*
X012801Y004015D02*
X012740Y004015D01*
X013420Y004775D02*
X013479Y004775D01*
M02*
