G75*
G70*
%OFA0B0*%
%FSLAX24Y24*%
%IPPOS*%
%LPD*%
%AMOC8*
5,1,8,0,0,1.08239X$1,22.5*
%
%ADD10C,0.0000*%
%ADD11C,0.0375*%
%ADD12R,0.0670X0.0500*%
%ADD13R,0.0720X0.0060*%
%ADD14R,0.0512X0.0512*%
%ADD15R,0.0827X0.1024*%
%ADD16R,0.0827X0.1339*%
%ADD17R,0.0237X0.1260*%
%ADD18C,0.0394*%
%ADD19R,0.0749X0.0473*%
%ADD20R,0.0985X0.0339*%
%ADD21R,0.0257X0.0512*%
%ADD22R,0.0434X0.0473*%
%ADD23R,0.0473X0.0434*%
%ADD24C,0.0700*%
%ADD25R,0.0355X0.0591*%
%ADD26R,0.0827X0.0355*%
%ADD27R,0.0120X0.0290*%
D10*
X002428Y003348D02*
X003708Y003348D01*
X003774Y003346D01*
X003840Y003341D01*
X003906Y003331D01*
X003971Y003318D01*
X004035Y003302D01*
X004098Y003282D01*
X004160Y003258D01*
X004220Y003231D01*
X004279Y003201D01*
X004336Y003167D01*
X004391Y003130D01*
X004444Y003090D01*
X004495Y003048D01*
X004543Y003002D01*
X004589Y002954D01*
X004631Y002903D01*
X004671Y002850D01*
X004708Y002795D01*
X004742Y002738D01*
X004772Y002679D01*
X004799Y002619D01*
X004823Y002557D01*
X004843Y002494D01*
X004859Y002430D01*
X004872Y002365D01*
X004882Y002299D01*
X004887Y002233D01*
X004889Y002167D01*
X004889Y000888D01*
X013452Y000888D01*
X013452Y000887D02*
X013491Y000889D01*
X013529Y000895D01*
X013566Y000904D01*
X013603Y000917D01*
X013638Y000934D01*
X013671Y000953D01*
X013702Y000976D01*
X013731Y001002D01*
X013757Y001031D01*
X013780Y001062D01*
X013799Y001095D01*
X013816Y001130D01*
X013829Y001167D01*
X013838Y001204D01*
X013844Y001242D01*
X013846Y001281D01*
X013845Y001281D02*
X013845Y005120D01*
X012763Y005120D01*
X012720Y005122D01*
X012678Y005127D01*
X012636Y005137D01*
X012595Y005150D01*
X012555Y005166D01*
X012517Y005186D01*
X012481Y005209D01*
X012447Y005235D01*
X012415Y005264D01*
X012386Y005296D01*
X012360Y005330D01*
X012337Y005366D01*
X012317Y005404D01*
X012301Y005444D01*
X012288Y005485D01*
X012278Y005527D01*
X012273Y005569D01*
X012271Y005612D01*
X012273Y005655D01*
X012278Y005697D01*
X012288Y005739D01*
X012301Y005780D01*
X012317Y005820D01*
X012337Y005858D01*
X012360Y005894D01*
X012386Y005928D01*
X012415Y005960D01*
X012447Y005989D01*
X012481Y006015D01*
X012517Y006038D01*
X012555Y006058D01*
X012595Y006074D01*
X012636Y006087D01*
X012678Y006097D01*
X012720Y006102D01*
X012763Y006104D01*
X013845Y006104D01*
X013845Y012994D01*
X012763Y012994D01*
X012720Y012996D01*
X012678Y013001D01*
X012636Y013011D01*
X012595Y013024D01*
X012555Y013040D01*
X012517Y013060D01*
X012481Y013083D01*
X012447Y013109D01*
X012415Y013138D01*
X012386Y013170D01*
X012360Y013204D01*
X012337Y013240D01*
X012317Y013278D01*
X012301Y013318D01*
X012288Y013359D01*
X012278Y013401D01*
X012273Y013443D01*
X012271Y013486D01*
X012273Y013529D01*
X012278Y013571D01*
X012288Y013613D01*
X012301Y013654D01*
X012317Y013694D01*
X012337Y013732D01*
X012360Y013768D01*
X012386Y013802D01*
X012415Y013834D01*
X012447Y013863D01*
X012481Y013889D01*
X012517Y013912D01*
X012555Y013932D01*
X012595Y013948D01*
X012636Y013961D01*
X012678Y013971D01*
X012720Y013976D01*
X012763Y013978D01*
X013845Y013978D01*
X013845Y015750D01*
X012566Y015750D01*
X012500Y015752D01*
X012434Y015757D01*
X012368Y015767D01*
X012303Y015780D01*
X012239Y015796D01*
X012176Y015816D01*
X012114Y015840D01*
X012054Y015867D01*
X011995Y015897D01*
X011938Y015931D01*
X011883Y015968D01*
X011830Y016008D01*
X011779Y016050D01*
X011731Y016096D01*
X011685Y016144D01*
X011643Y016195D01*
X011603Y016248D01*
X011566Y016303D01*
X011532Y016360D01*
X011502Y016419D01*
X011475Y016479D01*
X011451Y016541D01*
X011431Y016604D01*
X011415Y016668D01*
X011402Y016733D01*
X011392Y016799D01*
X011387Y016865D01*
X011385Y016931D01*
X011385Y018210D01*
X002822Y018210D01*
X002822Y018211D02*
X002783Y018209D01*
X002745Y018203D01*
X002708Y018194D01*
X002671Y018181D01*
X002636Y018164D01*
X002603Y018145D01*
X002572Y018122D01*
X002543Y018096D01*
X002517Y018067D01*
X002494Y018036D01*
X002475Y018003D01*
X002458Y017968D01*
X002445Y017931D01*
X002436Y017894D01*
X002430Y017856D01*
X002428Y017817D01*
X002428Y013978D01*
X003511Y013978D01*
X003554Y013976D01*
X003596Y013971D01*
X003638Y013961D01*
X003679Y013948D01*
X003719Y013932D01*
X003757Y013912D01*
X003793Y013889D01*
X003827Y013863D01*
X003859Y013834D01*
X003888Y013802D01*
X003914Y013768D01*
X003937Y013732D01*
X003957Y013694D01*
X003973Y013654D01*
X003986Y013613D01*
X003996Y013571D01*
X004001Y013529D01*
X004003Y013486D01*
X004001Y013443D01*
X003996Y013401D01*
X003986Y013359D01*
X003973Y013318D01*
X003957Y013278D01*
X003937Y013240D01*
X003914Y013204D01*
X003888Y013170D01*
X003859Y013138D01*
X003827Y013109D01*
X003793Y013083D01*
X003757Y013060D01*
X003719Y013040D01*
X003679Y013024D01*
X003638Y013011D01*
X003596Y013001D01*
X003554Y012996D01*
X003511Y012994D01*
X002428Y012994D01*
X002428Y006104D01*
X003511Y006104D01*
X003554Y006102D01*
X003596Y006097D01*
X003638Y006087D01*
X003679Y006074D01*
X003719Y006058D01*
X003757Y006038D01*
X003793Y006015D01*
X003827Y005989D01*
X003859Y005960D01*
X003888Y005928D01*
X003914Y005894D01*
X003937Y005858D01*
X003957Y005820D01*
X003973Y005780D01*
X003986Y005739D01*
X003996Y005697D01*
X004001Y005655D01*
X004003Y005612D01*
X004001Y005569D01*
X003996Y005527D01*
X003986Y005485D01*
X003973Y005444D01*
X003957Y005404D01*
X003937Y005366D01*
X003914Y005330D01*
X003888Y005296D01*
X003859Y005264D01*
X003827Y005235D01*
X003793Y005209D01*
X003757Y005186D01*
X003719Y005166D01*
X003679Y005150D01*
X003638Y005137D01*
X003596Y005127D01*
X003554Y005122D01*
X003511Y005120D01*
X002428Y005120D01*
X002428Y003348D01*
X007094Y002659D02*
X007096Y002685D01*
X007102Y002711D01*
X007112Y002736D01*
X007125Y002759D01*
X007141Y002779D01*
X007161Y002797D01*
X007183Y002812D01*
X007206Y002824D01*
X007232Y002832D01*
X007258Y002836D01*
X007284Y002836D01*
X007310Y002832D01*
X007336Y002824D01*
X007360Y002812D01*
X007381Y002797D01*
X007401Y002779D01*
X007417Y002759D01*
X007430Y002736D01*
X007440Y002711D01*
X007446Y002685D01*
X007448Y002659D01*
X007446Y002633D01*
X007440Y002607D01*
X007430Y002582D01*
X007417Y002559D01*
X007401Y002539D01*
X007381Y002521D01*
X007359Y002506D01*
X007336Y002494D01*
X007310Y002486D01*
X007284Y002482D01*
X007258Y002482D01*
X007232Y002486D01*
X007206Y002494D01*
X007182Y002506D01*
X007161Y002521D01*
X007141Y002539D01*
X007125Y002559D01*
X007112Y002582D01*
X007102Y002607D01*
X007096Y002633D01*
X007094Y002659D01*
X008826Y002659D02*
X008828Y002685D01*
X008834Y002711D01*
X008844Y002736D01*
X008857Y002759D01*
X008873Y002779D01*
X008893Y002797D01*
X008915Y002812D01*
X008938Y002824D01*
X008964Y002832D01*
X008990Y002836D01*
X009016Y002836D01*
X009042Y002832D01*
X009068Y002824D01*
X009092Y002812D01*
X009113Y002797D01*
X009133Y002779D01*
X009149Y002759D01*
X009162Y002736D01*
X009172Y002711D01*
X009178Y002685D01*
X009180Y002659D01*
X009178Y002633D01*
X009172Y002607D01*
X009162Y002582D01*
X009149Y002559D01*
X009133Y002539D01*
X009113Y002521D01*
X009091Y002506D01*
X009068Y002494D01*
X009042Y002486D01*
X009016Y002482D01*
X008990Y002482D01*
X008964Y002486D01*
X008938Y002494D01*
X008914Y002506D01*
X008893Y002521D01*
X008873Y002539D01*
X008857Y002559D01*
X008844Y002582D01*
X008834Y002607D01*
X008828Y002633D01*
X008826Y002659D01*
D11*
X008964Y011527D02*
X008964Y011527D01*
X008964Y010681D01*
X008964Y010681D01*
X008964Y011527D01*
X008964Y011055D02*
X008964Y011055D01*
X008964Y011429D02*
X008964Y011429D01*
X008471Y011527D02*
X008471Y011527D01*
X008471Y010681D01*
X008471Y010681D01*
X008471Y011527D01*
X008471Y011055D02*
X008471Y011055D01*
X008471Y011429D02*
X008471Y011429D01*
X007979Y011527D02*
X007979Y011527D01*
X007979Y010681D01*
X007979Y010681D01*
X007979Y011527D01*
X007979Y011055D02*
X007979Y011055D01*
X007979Y011429D02*
X007979Y011429D01*
X007487Y011527D02*
X007487Y011527D01*
X007487Y010681D01*
X007487Y010681D01*
X007487Y011527D01*
X007487Y011055D02*
X007487Y011055D01*
X007487Y011429D02*
X007487Y011429D01*
X006995Y011527D02*
X006995Y011527D01*
X006995Y010681D01*
X006995Y010681D01*
X006995Y011527D01*
X006995Y011055D02*
X006995Y011055D01*
X006995Y011429D02*
X006995Y011429D01*
X006768Y011970D02*
X006768Y011970D01*
X005922Y011970D01*
X005922Y011970D01*
X006768Y011970D01*
X006768Y012462D02*
X006768Y012462D01*
X005922Y012462D01*
X005922Y012462D01*
X006768Y012462D01*
X006768Y012954D02*
X006768Y012954D01*
X005922Y012954D01*
X005922Y012954D01*
X006768Y012954D01*
X006768Y013447D02*
X006768Y013447D01*
X005922Y013447D01*
X005922Y013447D01*
X006768Y013447D01*
X006768Y013939D02*
X006768Y013939D01*
X005922Y013939D01*
X005922Y013939D01*
X006768Y013939D01*
X006768Y014431D02*
X006768Y014431D01*
X005922Y014431D01*
X005922Y014431D01*
X006768Y014431D01*
X006768Y014923D02*
X006768Y014923D01*
X005922Y014923D01*
X005922Y014923D01*
X006768Y014923D01*
X006768Y015415D02*
X006768Y015415D01*
X005922Y015415D01*
X005922Y015415D01*
X006768Y015415D01*
X006768Y015907D02*
X006768Y015907D01*
X005922Y015907D01*
X005922Y015907D01*
X006768Y015907D01*
X006768Y016399D02*
X006768Y016399D01*
X005922Y016399D01*
X005922Y016399D01*
X006768Y016399D01*
X006768Y016891D02*
X006768Y016891D01*
X005922Y016891D01*
X005922Y016891D01*
X006768Y016891D01*
X006768Y017384D02*
X006768Y017384D01*
X005922Y017384D01*
X005922Y017384D01*
X006768Y017384D01*
X006768Y017876D02*
X006768Y017876D01*
X005922Y017876D01*
X005922Y017876D01*
X006768Y017876D01*
X011512Y015907D02*
X011512Y015907D01*
X010666Y015907D01*
X010666Y015907D01*
X011512Y015907D01*
X011512Y015415D02*
X011512Y015415D01*
X010666Y015415D01*
X010666Y015415D01*
X011512Y015415D01*
X011512Y014923D02*
X011512Y014923D01*
X010666Y014923D01*
X010666Y014923D01*
X011512Y014923D01*
X011512Y014431D02*
X011512Y014431D01*
X010666Y014431D01*
X010666Y014431D01*
X011512Y014431D01*
X011512Y013939D02*
X011512Y013939D01*
X010666Y013939D01*
X010666Y013939D01*
X011512Y013939D01*
X011512Y013447D02*
X011512Y013447D01*
X010666Y013447D01*
X010666Y013447D01*
X011512Y013447D01*
X011512Y012954D02*
X011512Y012954D01*
X010666Y012954D01*
X010666Y012954D01*
X011512Y012954D01*
X011512Y012462D02*
X011512Y012462D01*
X010666Y012462D01*
X010666Y012462D01*
X011512Y012462D01*
X011512Y011970D02*
X011512Y011970D01*
X010666Y011970D01*
X010666Y011970D01*
X011512Y011970D01*
X010440Y011527D02*
X010440Y011527D01*
X010440Y010681D01*
X010440Y010681D01*
X010440Y011527D01*
X010440Y011055D02*
X010440Y011055D01*
X010440Y011429D02*
X010440Y011429D01*
X009948Y011527D02*
X009948Y011527D01*
X009948Y010681D01*
X009948Y010681D01*
X009948Y011527D01*
X009948Y011055D02*
X009948Y011055D01*
X009948Y011429D02*
X009948Y011429D01*
X009456Y011527D02*
X009456Y011527D01*
X009456Y010681D01*
X009456Y010681D01*
X009456Y011527D01*
X009456Y011055D02*
X009456Y011055D01*
X009456Y011429D02*
X009456Y011429D01*
D12*
X011483Y010439D03*
X011483Y009839D03*
X010893Y005912D03*
X010893Y005312D03*
X005381Y005312D03*
X005381Y005912D03*
X004790Y011316D03*
X004790Y011916D03*
D13*
X004790Y011616D03*
X005381Y005612D03*
X010893Y005612D03*
X011483Y010139D03*
D14*
X011089Y002482D03*
X011877Y002482D03*
X011877Y001655D03*
X011089Y001655D03*
D15*
X009889Y001478D03*
X006385Y001478D03*
D16*
X006385Y003801D03*
X009889Y003801D03*
D17*
X008767Y003840D03*
X008452Y003840D03*
X008137Y003840D03*
X007822Y003840D03*
X007507Y003840D03*
D18*
X007271Y002659D03*
X009003Y002659D03*
D19*
X007979Y008624D03*
X007979Y010080D03*
X005538Y010080D03*
X005538Y008624D03*
D20*
X009731Y008474D03*
X009731Y007974D03*
X009731Y007474D03*
X009731Y006974D03*
X011267Y006974D03*
X011267Y007474D03*
X011267Y007974D03*
X011267Y008474D03*
X011267Y008974D03*
X009731Y008974D03*
D21*
X004574Y008092D03*
X003826Y008092D03*
X003826Y007069D03*
X004200Y007069D03*
X004574Y007069D03*
D22*
X005184Y007246D03*
X005184Y007915D03*
X005775Y007915D03*
X005775Y007246D03*
X003215Y007246D03*
X003215Y007915D03*
X005381Y013348D03*
X005381Y014017D03*
X005381Y017187D03*
X005381Y017856D03*
D23*
X009869Y010139D03*
X010538Y010139D03*
X008530Y007915D03*
X008530Y007246D03*
X007940Y007246D03*
X007940Y007915D03*
X007349Y007915D03*
X007349Y007246D03*
X006365Y007246D03*
X006365Y007915D03*
X011089Y003781D03*
X011089Y003112D03*
X011877Y003112D03*
X011877Y003781D03*
D24*
X004003Y015045D03*
X004003Y016045D03*
X004003Y017045D03*
X003019Y017045D03*
X003019Y016045D03*
X003019Y015045D03*
D25*
X002664Y011773D03*
X003570Y011773D03*
X003570Y008899D03*
X002664Y008899D03*
D26*
X003904Y009451D03*
X003904Y010041D03*
X003904Y011222D03*
D27*
X004790Y011616D03*
X005381Y005612D03*
X010893Y005612D03*
M02*
