%
M48
M72
T01C0.0130
T02C0.0354
T03C0.0394
%
T01
X2822Y17817
X13452Y1281
X5282Y1675
X5282Y1281
X5676Y1281
X5971Y2856
X6365Y2856
X6759Y2856
X6759Y4825
X6365Y4825
X5971Y4825
X4200Y6596
X3215Y6793
X2822Y4825
X2822Y4136
X2822Y3742
X3215Y3742
X9515Y2856
X9908Y2856
X10302Y2856
X10302Y4825
X9908Y4825
X9515Y4825
X11975Y6990
X11975Y8466
X10696Y9352
X10893Y11124
X11680Y11321
X11975Y11911
X11975Y12305
X11975Y12699
X11975Y13092
X11975Y13486
X11975Y13880
X11975Y14273
X11975Y14667
X11975Y15061
X11975Y15454
X13058Y15356
X13452Y15356
X13452Y14962
X13452Y14273
X13452Y12699
X13452Y9549
X13452Y6399
X13452Y4825
X13452Y2069
X13452Y1675
X13058Y1675
X13058Y1281
X12664Y1281
X7546Y9254
X7940Y9549
X7349Y10139
X6562Y11222
X6168Y11517
X7152Y11911
X7152Y13486
X8137Y15454
X8530Y15454
X8530Y15848
X8137Y15848
X8137Y16242
X8530Y16242
X8530Y16636
X8137Y16636
X8137Y17029
X8530Y17029
X8530Y17423
X8137Y17423
X8137Y17817
X8530Y17817
X7743Y17817
X7349Y17817
X8924Y15848
X8924Y15454
X9318Y15454
X9318Y15848
X9712Y15848
X9712Y15454
X10105Y15454
X10105Y15848
X9908Y14864
X10204Y14569
X9121Y11911
X8924Y9352
X6168Y8565
X5578Y9549
X4889Y8565
X4200Y10730
X3019Y11124
X2822Y12699
X2822Y14273
X5184Y12895
X5381Y15848
X5381Y16340
X4790Y17817
X4397Y17817
X3215Y17817
X3019Y9352
T02
X7271Y2659
X9003Y2659
T03
X4003Y15045
X4003Y16045
X4003Y17045
X3019Y17045
X3019Y16045
X3019Y15045
M30
