G75*
G70*
%OFA0B0*%
%FSLAX24Y24*%
%IPPOS*%
%LPD*%
%AMOC8*
5,1,8,0,0,1.08239X$1,22.5*
%
%ADD10C,0.0000*%
%ADD11C,0.0335*%
%ADD12R,0.0630X0.0460*%
%ADD13R,0.0472X0.0472*%
%ADD14R,0.0787X0.0984*%
%ADD15R,0.0787X0.1299*%
%ADD16R,0.0197X0.1220*%
%ADD17R,0.0709X0.0433*%
%ADD18R,0.0945X0.0299*%
%ADD19R,0.0217X0.0472*%
%ADD20R,0.0394X0.0433*%
%ADD21R,0.0433X0.0394*%
%ADD22C,0.0660*%
%ADD23R,0.0315X0.0551*%
%ADD24R,0.0787X0.0315*%
%ADD25R,0.0080X0.0250*%
%ADD26C,0.0250*%
%ADD27C,0.0160*%
%ADD28C,0.0100*%
D10*
X002428Y003348D02*
X003708Y003348D01*
X003774Y003346D01*
X003840Y003341D01*
X003906Y003331D01*
X003971Y003318D01*
X004035Y003302D01*
X004098Y003282D01*
X004160Y003258D01*
X004220Y003231D01*
X004279Y003201D01*
X004336Y003167D01*
X004391Y003130D01*
X004444Y003090D01*
X004495Y003048D01*
X004543Y003002D01*
X004589Y002954D01*
X004631Y002903D01*
X004671Y002850D01*
X004708Y002795D01*
X004742Y002738D01*
X004772Y002679D01*
X004799Y002619D01*
X004823Y002557D01*
X004843Y002494D01*
X004859Y002430D01*
X004872Y002365D01*
X004882Y002299D01*
X004887Y002233D01*
X004889Y002167D01*
X004889Y000888D01*
X013452Y000888D01*
X013452Y000887D02*
X013491Y000889D01*
X013529Y000895D01*
X013566Y000904D01*
X013603Y000917D01*
X013638Y000934D01*
X013671Y000953D01*
X013702Y000976D01*
X013731Y001002D01*
X013757Y001031D01*
X013780Y001062D01*
X013799Y001095D01*
X013816Y001130D01*
X013829Y001167D01*
X013838Y001204D01*
X013844Y001242D01*
X013846Y001281D01*
X013845Y001281D02*
X013845Y005120D01*
X012763Y005120D01*
X012720Y005122D01*
X012678Y005127D01*
X012636Y005137D01*
X012595Y005150D01*
X012555Y005166D01*
X012517Y005186D01*
X012481Y005209D01*
X012447Y005235D01*
X012415Y005264D01*
X012386Y005296D01*
X012360Y005330D01*
X012337Y005366D01*
X012317Y005404D01*
X012301Y005444D01*
X012288Y005485D01*
X012278Y005527D01*
X012273Y005569D01*
X012271Y005612D01*
X012273Y005655D01*
X012278Y005697D01*
X012288Y005739D01*
X012301Y005780D01*
X012317Y005820D01*
X012337Y005858D01*
X012360Y005894D01*
X012386Y005928D01*
X012415Y005960D01*
X012447Y005989D01*
X012481Y006015D01*
X012517Y006038D01*
X012555Y006058D01*
X012595Y006074D01*
X012636Y006087D01*
X012678Y006097D01*
X012720Y006102D01*
X012763Y006104D01*
X013845Y006104D01*
X013845Y012994D01*
X012763Y012994D01*
X012720Y012996D01*
X012678Y013001D01*
X012636Y013011D01*
X012595Y013024D01*
X012555Y013040D01*
X012517Y013060D01*
X012481Y013083D01*
X012447Y013109D01*
X012415Y013138D01*
X012386Y013170D01*
X012360Y013204D01*
X012337Y013240D01*
X012317Y013278D01*
X012301Y013318D01*
X012288Y013359D01*
X012278Y013401D01*
X012273Y013443D01*
X012271Y013486D01*
X012273Y013529D01*
X012278Y013571D01*
X012288Y013613D01*
X012301Y013654D01*
X012317Y013694D01*
X012337Y013732D01*
X012360Y013768D01*
X012386Y013802D01*
X012415Y013834D01*
X012447Y013863D01*
X012481Y013889D01*
X012517Y013912D01*
X012555Y013932D01*
X012595Y013948D01*
X012636Y013961D01*
X012678Y013971D01*
X012720Y013976D01*
X012763Y013978D01*
X013845Y013978D01*
X013845Y015750D01*
X012566Y015750D01*
X012500Y015752D01*
X012434Y015757D01*
X012368Y015767D01*
X012303Y015780D01*
X012239Y015796D01*
X012176Y015816D01*
X012114Y015840D01*
X012054Y015867D01*
X011995Y015897D01*
X011938Y015931D01*
X011883Y015968D01*
X011830Y016008D01*
X011779Y016050D01*
X011731Y016096D01*
X011685Y016144D01*
X011643Y016195D01*
X011603Y016248D01*
X011566Y016303D01*
X011532Y016360D01*
X011502Y016419D01*
X011475Y016479D01*
X011451Y016541D01*
X011431Y016604D01*
X011415Y016668D01*
X011402Y016733D01*
X011392Y016799D01*
X011387Y016865D01*
X011385Y016931D01*
X011385Y018210D01*
X002822Y018210D01*
X002822Y018211D02*
X002783Y018209D01*
X002745Y018203D01*
X002708Y018194D01*
X002671Y018181D01*
X002636Y018164D01*
X002603Y018145D01*
X002572Y018122D01*
X002543Y018096D01*
X002517Y018067D01*
X002494Y018036D01*
X002475Y018003D01*
X002458Y017968D01*
X002445Y017931D01*
X002436Y017894D01*
X002430Y017856D01*
X002428Y017817D01*
X002428Y013978D01*
X003511Y013978D01*
X003554Y013976D01*
X003596Y013971D01*
X003638Y013961D01*
X003679Y013948D01*
X003719Y013932D01*
X003757Y013912D01*
X003793Y013889D01*
X003827Y013863D01*
X003859Y013834D01*
X003888Y013802D01*
X003914Y013768D01*
X003937Y013732D01*
X003957Y013694D01*
X003973Y013654D01*
X003986Y013613D01*
X003996Y013571D01*
X004001Y013529D01*
X004003Y013486D01*
X004001Y013443D01*
X003996Y013401D01*
X003986Y013359D01*
X003973Y013318D01*
X003957Y013278D01*
X003937Y013240D01*
X003914Y013204D01*
X003888Y013170D01*
X003859Y013138D01*
X003827Y013109D01*
X003793Y013083D01*
X003757Y013060D01*
X003719Y013040D01*
X003679Y013024D01*
X003638Y013011D01*
X003596Y013001D01*
X003554Y012996D01*
X003511Y012994D01*
X002428Y012994D01*
X002428Y006104D01*
X003511Y006104D01*
X003554Y006102D01*
X003596Y006097D01*
X003638Y006087D01*
X003679Y006074D01*
X003719Y006058D01*
X003757Y006038D01*
X003793Y006015D01*
X003827Y005989D01*
X003859Y005960D01*
X003888Y005928D01*
X003914Y005894D01*
X003937Y005858D01*
X003957Y005820D01*
X003973Y005780D01*
X003986Y005739D01*
X003996Y005697D01*
X004001Y005655D01*
X004003Y005612D01*
X004001Y005569D01*
X003996Y005527D01*
X003986Y005485D01*
X003973Y005444D01*
X003957Y005404D01*
X003937Y005366D01*
X003914Y005330D01*
X003888Y005296D01*
X003859Y005264D01*
X003827Y005235D01*
X003793Y005209D01*
X003757Y005186D01*
X003719Y005166D01*
X003679Y005150D01*
X003638Y005137D01*
X003596Y005127D01*
X003554Y005122D01*
X003511Y005120D01*
X002428Y005120D01*
X002428Y003348D01*
X007094Y002659D02*
X007096Y002685D01*
X007102Y002711D01*
X007112Y002736D01*
X007125Y002759D01*
X007141Y002779D01*
X007161Y002797D01*
X007183Y002812D01*
X007206Y002824D01*
X007232Y002832D01*
X007258Y002836D01*
X007284Y002836D01*
X007310Y002832D01*
X007336Y002824D01*
X007360Y002812D01*
X007381Y002797D01*
X007401Y002779D01*
X007417Y002759D01*
X007430Y002736D01*
X007440Y002711D01*
X007446Y002685D01*
X007448Y002659D01*
X007446Y002633D01*
X007440Y002607D01*
X007430Y002582D01*
X007417Y002559D01*
X007401Y002539D01*
X007381Y002521D01*
X007359Y002506D01*
X007336Y002494D01*
X007310Y002486D01*
X007284Y002482D01*
X007258Y002482D01*
X007232Y002486D01*
X007206Y002494D01*
X007182Y002506D01*
X007161Y002521D01*
X007141Y002539D01*
X007125Y002559D01*
X007112Y002582D01*
X007102Y002607D01*
X007096Y002633D01*
X007094Y002659D01*
X008826Y002659D02*
X008828Y002685D01*
X008834Y002711D01*
X008844Y002736D01*
X008857Y002759D01*
X008873Y002779D01*
X008893Y002797D01*
X008915Y002812D01*
X008938Y002824D01*
X008964Y002832D01*
X008990Y002836D01*
X009016Y002836D01*
X009042Y002832D01*
X009068Y002824D01*
X009092Y002812D01*
X009113Y002797D01*
X009133Y002779D01*
X009149Y002759D01*
X009162Y002736D01*
X009172Y002711D01*
X009178Y002685D01*
X009180Y002659D01*
X009178Y002633D01*
X009172Y002607D01*
X009162Y002582D01*
X009149Y002559D01*
X009133Y002539D01*
X009113Y002521D01*
X009091Y002506D01*
X009068Y002494D01*
X009042Y002486D01*
X009016Y002482D01*
X008990Y002482D01*
X008964Y002486D01*
X008938Y002494D01*
X008914Y002506D01*
X008893Y002521D01*
X008873Y002539D01*
X008857Y002559D01*
X008844Y002582D01*
X008834Y002607D01*
X008828Y002633D01*
X008826Y002659D01*
D11*
X008964Y011527D02*
X008964Y011527D01*
X008964Y010681D01*
X008964Y010681D01*
X008964Y011527D01*
X008964Y011015D02*
X008964Y011015D01*
X008964Y011349D02*
X008964Y011349D01*
X008471Y011527D02*
X008471Y011527D01*
X008471Y010681D01*
X008471Y010681D01*
X008471Y011527D01*
X008471Y011015D02*
X008471Y011015D01*
X008471Y011349D02*
X008471Y011349D01*
X007979Y011527D02*
X007979Y011527D01*
X007979Y010681D01*
X007979Y010681D01*
X007979Y011527D01*
X007979Y011015D02*
X007979Y011015D01*
X007979Y011349D02*
X007979Y011349D01*
X007487Y011527D02*
X007487Y011527D01*
X007487Y010681D01*
X007487Y010681D01*
X007487Y011527D01*
X007487Y011015D02*
X007487Y011015D01*
X007487Y011349D02*
X007487Y011349D01*
X006995Y011527D02*
X006995Y011527D01*
X006995Y010681D01*
X006995Y010681D01*
X006995Y011527D01*
X006995Y011015D02*
X006995Y011015D01*
X006995Y011349D02*
X006995Y011349D01*
X006768Y011970D02*
X006768Y011970D01*
X005922Y011970D01*
X005922Y011970D01*
X006768Y011970D01*
X006768Y012462D02*
X006768Y012462D01*
X005922Y012462D01*
X005922Y012462D01*
X006768Y012462D01*
X006768Y012954D02*
X006768Y012954D01*
X005922Y012954D01*
X005922Y012954D01*
X006768Y012954D01*
X006768Y013447D02*
X006768Y013447D01*
X005922Y013447D01*
X005922Y013447D01*
X006768Y013447D01*
X006768Y013939D02*
X006768Y013939D01*
X005922Y013939D01*
X005922Y013939D01*
X006768Y013939D01*
X006768Y014431D02*
X006768Y014431D01*
X005922Y014431D01*
X005922Y014431D01*
X006768Y014431D01*
X006768Y014923D02*
X006768Y014923D01*
X005922Y014923D01*
X005922Y014923D01*
X006768Y014923D01*
X006768Y015415D02*
X006768Y015415D01*
X005922Y015415D01*
X005922Y015415D01*
X006768Y015415D01*
X006768Y015907D02*
X006768Y015907D01*
X005922Y015907D01*
X005922Y015907D01*
X006768Y015907D01*
X006768Y016399D02*
X006768Y016399D01*
X005922Y016399D01*
X005922Y016399D01*
X006768Y016399D01*
X006768Y016891D02*
X006768Y016891D01*
X005922Y016891D01*
X005922Y016891D01*
X006768Y016891D01*
X006768Y017384D02*
X006768Y017384D01*
X005922Y017384D01*
X005922Y017384D01*
X006768Y017384D01*
X006768Y017876D02*
X006768Y017876D01*
X005922Y017876D01*
X005922Y017876D01*
X006768Y017876D01*
X011512Y015907D02*
X011512Y015907D01*
X010666Y015907D01*
X010666Y015907D01*
X011512Y015907D01*
X011512Y015415D02*
X011512Y015415D01*
X010666Y015415D01*
X010666Y015415D01*
X011512Y015415D01*
X011512Y014923D02*
X011512Y014923D01*
X010666Y014923D01*
X010666Y014923D01*
X011512Y014923D01*
X011512Y014431D02*
X011512Y014431D01*
X010666Y014431D01*
X010666Y014431D01*
X011512Y014431D01*
X011512Y013939D02*
X011512Y013939D01*
X010666Y013939D01*
X010666Y013939D01*
X011512Y013939D01*
X011512Y013447D02*
X011512Y013447D01*
X010666Y013447D01*
X010666Y013447D01*
X011512Y013447D01*
X011512Y012954D02*
X011512Y012954D01*
X010666Y012954D01*
X010666Y012954D01*
X011512Y012954D01*
X011512Y012462D02*
X011512Y012462D01*
X010666Y012462D01*
X010666Y012462D01*
X011512Y012462D01*
X011512Y011970D02*
X011512Y011970D01*
X010666Y011970D01*
X010666Y011970D01*
X011512Y011970D01*
X010440Y011527D02*
X010440Y011527D01*
X010440Y010681D01*
X010440Y010681D01*
X010440Y011527D01*
X010440Y011015D02*
X010440Y011015D01*
X010440Y011349D02*
X010440Y011349D01*
X009948Y011527D02*
X009948Y011527D01*
X009948Y010681D01*
X009948Y010681D01*
X009948Y011527D01*
X009948Y011015D02*
X009948Y011015D01*
X009948Y011349D02*
X009948Y011349D01*
X009456Y011527D02*
X009456Y011527D01*
X009456Y010681D01*
X009456Y010681D01*
X009456Y011527D01*
X009456Y011015D02*
X009456Y011015D01*
X009456Y011349D02*
X009456Y011349D01*
D12*
X011483Y010439D03*
X011483Y009839D03*
X010893Y005912D03*
X010893Y005312D03*
X005381Y005312D03*
X005381Y005912D03*
X004790Y011316D03*
X004790Y011916D03*
D13*
X011089Y002482D03*
X011877Y002482D03*
X011877Y001655D03*
X011089Y001655D03*
D14*
X009889Y001478D03*
X006385Y001478D03*
D15*
X006385Y003801D03*
X009889Y003801D03*
D16*
X008767Y003840D03*
X008452Y003840D03*
X008137Y003840D03*
X007822Y003840D03*
X007507Y003840D03*
D17*
X007979Y008624D03*
X007979Y010080D03*
X005538Y010080D03*
X005538Y008624D03*
D18*
X009731Y008474D03*
X009731Y007974D03*
X009731Y007474D03*
X009731Y006974D03*
X011267Y006974D03*
X011267Y007474D03*
X011267Y007974D03*
X011267Y008474D03*
X011267Y008974D03*
X009731Y008974D03*
D19*
X004574Y008092D03*
X003826Y008092D03*
X003826Y007069D03*
X004200Y007069D03*
X004574Y007069D03*
D20*
X005184Y007246D03*
X005184Y007915D03*
X005775Y007915D03*
X005775Y007246D03*
X003215Y007246D03*
X003215Y007915D03*
X005381Y013348D03*
X005381Y014017D03*
X005381Y017187D03*
X005381Y017856D03*
D21*
X009869Y010139D03*
X010538Y010139D03*
X008530Y007915D03*
X008530Y007246D03*
X007940Y007246D03*
X007940Y007915D03*
X007349Y007915D03*
X007349Y007246D03*
X006365Y007246D03*
X006365Y007915D03*
X011089Y003781D03*
X011089Y003112D03*
X011877Y003112D03*
X011877Y003781D03*
D22*
X004003Y015045D03*
X004003Y016045D03*
X004003Y017045D03*
X003019Y017045D03*
X003019Y016045D03*
X003019Y015045D03*
D23*
X002664Y011773D03*
X003570Y011773D03*
X003570Y008899D03*
X002664Y008899D03*
D24*
X003904Y009451D03*
X003904Y010041D03*
X003904Y011222D03*
D25*
X004790Y011616D03*
X005381Y005612D03*
X010893Y005612D03*
D26*
X010302Y004825D03*
X009908Y004825D03*
X009515Y004825D03*
X009515Y002856D03*
X009908Y002856D03*
X010302Y002856D03*
X012664Y001281D03*
X013058Y001281D03*
X013452Y001281D03*
X013452Y001675D03*
X013452Y002069D03*
X013058Y001675D03*
X013452Y004825D03*
X013452Y006399D03*
X011975Y006990D03*
X011975Y008466D03*
X010696Y009352D03*
X010893Y011124D03*
X011680Y011321D03*
X011975Y011911D03*
X011975Y012305D03*
X011975Y012699D03*
X011975Y013092D03*
X011975Y013486D03*
X011975Y013880D03*
X011975Y014273D03*
X011975Y014667D03*
X011975Y015061D03*
X011975Y015454D03*
X013058Y015356D03*
X013452Y015356D03*
X013452Y014962D03*
X013452Y014273D03*
X013452Y012699D03*
X013452Y009549D03*
X010204Y014569D03*
X009908Y014864D03*
X009712Y015454D03*
X009712Y015848D03*
X010105Y015848D03*
X010105Y015454D03*
X009318Y015454D03*
X009318Y015848D03*
X008924Y015848D03*
X008924Y015454D03*
X008530Y015454D03*
X008137Y015454D03*
X008137Y015848D03*
X008530Y015848D03*
X008530Y016242D03*
X008137Y016242D03*
X008137Y016636D03*
X008137Y017029D03*
X008530Y017029D03*
X008530Y016636D03*
X008530Y017423D03*
X008137Y017423D03*
X008137Y017817D03*
X008530Y017817D03*
X007743Y017817D03*
X007349Y017817D03*
X005381Y016340D03*
X005381Y015848D03*
X004790Y017817D03*
X004397Y017817D03*
X003215Y017817D03*
X002822Y017817D03*
X002822Y014273D03*
X002822Y012699D03*
X003019Y011124D03*
X004200Y010730D03*
X003019Y009352D03*
X004889Y008565D03*
X005578Y009549D03*
X006168Y008565D03*
X007349Y010139D03*
X007940Y009549D03*
X007546Y009254D03*
X008924Y009352D03*
X009121Y011911D03*
X007152Y011911D03*
X006562Y011222D03*
X006168Y011517D03*
X005184Y012895D03*
X007152Y013486D03*
X003215Y006793D03*
X004200Y006596D03*
X002822Y004825D03*
X002822Y004136D03*
X002822Y003742D03*
X003215Y003742D03*
X005282Y001675D03*
X005282Y001281D03*
X005676Y001281D03*
X005971Y002856D03*
X006365Y002856D03*
X006759Y002856D03*
X006759Y004825D03*
X006365Y004825D03*
X005971Y004825D03*
D27*
X005967Y004631D02*
X005922Y004618D01*
X005881Y004595D01*
X005847Y004561D01*
X005823Y004520D01*
X005811Y004474D01*
X005811Y003881D01*
X006305Y003881D01*
X006305Y004631D01*
X005967Y004631D01*
X005828Y004528D02*
X005571Y004528D01*
X005571Y004686D02*
X007287Y004686D01*
X007287Y004528D02*
X006942Y004528D01*
X006946Y004520D02*
X006923Y004561D01*
X006889Y004595D01*
X006848Y004618D01*
X006802Y004631D01*
X006465Y004631D01*
X006465Y003881D01*
X006958Y003881D01*
X006958Y004474D01*
X006946Y004520D01*
X006958Y004369D02*
X007268Y004369D01*
X007268Y004509D02*
X007268Y003172D01*
X007350Y003090D01*
X007663Y003090D01*
X007664Y003091D01*
X007665Y003090D01*
X007978Y003090D01*
X007979Y003091D01*
X007980Y003090D01*
X008293Y003090D01*
X008294Y003091D01*
X008295Y003090D01*
X008554Y003090D01*
X008558Y003086D01*
X008599Y003062D01*
X008645Y003050D01*
X008767Y003050D01*
X008889Y003050D01*
X008935Y003062D01*
X008976Y003086D01*
X009009Y003120D01*
X009033Y003161D01*
X009045Y003206D01*
X009045Y003840D01*
X008767Y003840D01*
X008767Y003840D01*
X008767Y003050D01*
X008767Y003840D01*
X008767Y003840D01*
X009045Y003840D01*
X009045Y004474D01*
X009033Y004520D01*
X009009Y004561D01*
X008976Y004595D01*
X008935Y004618D01*
X008889Y004631D01*
X008767Y004631D01*
X008767Y003840D01*
X008767Y003840D01*
X008767Y004631D01*
X008645Y004631D01*
X008599Y004618D01*
X008558Y004595D01*
X008554Y004591D01*
X008327Y004591D01*
X008327Y006675D01*
X008130Y006872D01*
X008130Y006909D01*
X008214Y006909D01*
X008235Y006930D01*
X008256Y006909D01*
X008805Y006909D01*
X008887Y006991D01*
X008887Y007349D01*
X008952Y007284D01*
X009119Y007284D01*
X009119Y007267D01*
X009161Y007224D01*
X009119Y007182D01*
X009119Y006767D01*
X009201Y006685D01*
X010262Y006685D01*
X010331Y006754D01*
X010377Y006754D01*
X010492Y006868D01*
X010614Y006991D01*
X010614Y006974D01*
X010614Y006801D01*
X010626Y006755D01*
X010650Y006714D01*
X010684Y006681D01*
X010725Y006657D01*
X010771Y006645D01*
X011267Y006645D01*
X011763Y006645D01*
X011809Y006657D01*
X011850Y006681D01*
X011883Y006714D01*
X011907Y006755D01*
X011919Y006801D01*
X011919Y006974D01*
X011267Y006974D01*
X011267Y006974D01*
X011919Y006974D01*
X011919Y007147D01*
X011907Y007193D01*
X011883Y007234D01*
X011865Y007252D01*
X011879Y007267D01*
X011879Y007682D01*
X011837Y007724D01*
X011879Y007767D01*
X011879Y008182D01*
X011837Y008224D01*
X011846Y008233D01*
X011923Y008201D01*
X012028Y008201D01*
X012125Y008242D01*
X012200Y008316D01*
X012240Y008414D01*
X012240Y008519D01*
X012200Y008616D01*
X012125Y008691D01*
X012028Y008731D01*
X011923Y008731D01*
X011857Y008704D01*
X011837Y008724D01*
X011879Y008767D01*
X011879Y009182D01*
X011797Y009264D01*
X011703Y009264D01*
X011703Y009469D01*
X011856Y009469D01*
X011938Y009552D01*
X011938Y010127D01*
X011926Y010139D01*
X011938Y010152D01*
X011938Y010727D01*
X011856Y010809D01*
X011110Y010809D01*
X011028Y010727D01*
X011028Y010659D01*
X011003Y010659D01*
X010900Y010556D01*
X010839Y010496D01*
X010824Y010504D01*
X010779Y010516D01*
X010748Y010516D01*
X010774Y010580D01*
X010787Y010647D01*
X010787Y011100D01*
X010444Y011100D01*
X010444Y011108D01*
X010787Y011108D01*
X010787Y011562D01*
X010774Y011629D01*
X010760Y011663D01*
X011574Y011663D01*
X011687Y011710D01*
X011773Y011796D01*
X011820Y011909D01*
X011820Y012031D01*
X011773Y012144D01*
X011701Y012216D01*
X011773Y012288D01*
X011820Y012401D01*
X011820Y012523D01*
X011773Y012636D01*
X011701Y012708D01*
X011773Y012780D01*
X011820Y012893D01*
X011820Y013016D01*
X011773Y013129D01*
X011701Y013201D01*
X011773Y013273D01*
X011820Y013385D01*
X011820Y013508D01*
X011773Y013621D01*
X011701Y013693D01*
X011773Y013765D01*
X011820Y013878D01*
X011820Y014000D01*
X011773Y014113D01*
X011701Y014185D01*
X011773Y014257D01*
X011820Y014370D01*
X011820Y014492D01*
X011773Y014605D01*
X011701Y014677D01*
X011773Y014749D01*
X011820Y014862D01*
X011820Y014984D01*
X011773Y015097D01*
X011701Y015169D01*
X011773Y015241D01*
X011820Y015354D01*
X011820Y015476D01*
X011773Y015589D01*
X011729Y015634D01*
X011734Y015637D01*
X011783Y015686D01*
X011821Y015743D01*
X011836Y015779D01*
X011940Y015703D01*
X011940Y015703D01*
X012350Y015570D01*
X013665Y015570D01*
X013665Y014158D01*
X012629Y014158D01*
X012382Y014056D01*
X012193Y013867D01*
X012193Y013867D01*
X012091Y013620D01*
X012091Y013352D01*
X012193Y013105D01*
X012382Y012916D01*
X012629Y012814D01*
X013665Y012814D01*
X013665Y006284D01*
X012629Y006284D01*
X012382Y006182D01*
X012193Y005993D01*
X012193Y005993D01*
X012091Y005746D01*
X012091Y005478D01*
X012193Y005231D01*
X012382Y005042D01*
X012629Y004940D01*
X013665Y004940D01*
X013665Y001281D01*
X013661Y001240D01*
X013629Y001163D01*
X013570Y001104D01*
X013493Y001072D01*
X013452Y001068D01*
X010462Y001068D01*
X010462Y001398D01*
X009969Y001398D01*
X009969Y001558D01*
X010462Y001558D01*
X010462Y001994D01*
X010450Y002040D01*
X010429Y002075D01*
X010578Y002075D01*
X010689Y002187D01*
X010713Y002211D01*
X010713Y002188D01*
X010795Y002106D01*
X011384Y002106D01*
X011466Y002188D01*
X011466Y002776D01*
X011415Y002827D01*
X011446Y002857D01*
X011446Y003367D01*
X011366Y003447D01*
X011446Y003526D01*
X011446Y004036D01*
X011364Y004118D01*
X010815Y004118D01*
X010733Y004036D01*
X010733Y003949D01*
X010617Y003833D01*
X010506Y003722D01*
X010506Y002541D01*
X010420Y002455D01*
X009304Y002455D01*
X009306Y002457D01*
X009360Y002588D01*
X009360Y002730D01*
X009306Y002862D01*
X009205Y002962D01*
X009074Y003016D01*
X008932Y003016D01*
X008801Y002962D01*
X008700Y002862D01*
X008646Y002730D01*
X008646Y002588D01*
X008700Y002457D01*
X008701Y002455D01*
X007572Y002455D01*
X007573Y002457D01*
X007628Y002588D01*
X007628Y002730D01*
X007573Y002862D01*
X007473Y002962D01*
X007342Y003016D01*
X007200Y003016D01*
X007068Y002962D01*
X006968Y002862D01*
X006913Y002730D01*
X006913Y002588D01*
X006968Y002457D01*
X006969Y002455D01*
X006050Y002455D01*
X005571Y002935D01*
X005571Y004942D01*
X005754Y004942D01*
X005836Y005024D01*
X005836Y005600D01*
X005824Y005612D01*
X005836Y005624D01*
X005836Y006200D01*
X005754Y006282D01*
X005008Y006282D01*
X004926Y006200D01*
X004926Y006102D01*
X004569Y006102D01*
X004094Y006576D01*
X003985Y006686D01*
X004022Y006665D01*
X004068Y006652D01*
X004200Y006652D01*
X004332Y006652D01*
X004377Y006665D01*
X004419Y006688D01*
X004423Y006692D01*
X004580Y006692D01*
X004699Y006573D01*
X005669Y006573D01*
X005798Y006702D01*
X005985Y006889D01*
X006029Y006889D01*
X006070Y006930D01*
X006091Y006909D01*
X006145Y006909D01*
X006145Y006899D01*
X007287Y005757D01*
X007287Y004527D01*
X007268Y004509D01*
X007268Y004211D02*
X006958Y004211D01*
X006958Y004052D02*
X007268Y004052D01*
X007268Y003894D02*
X006958Y003894D01*
X006958Y003721D02*
X006465Y003721D01*
X006465Y003881D01*
X006305Y003881D01*
X006305Y003721D01*
X006465Y003721D01*
X006465Y002971D01*
X006802Y002971D01*
X006848Y002984D01*
X006889Y003007D01*
X006923Y003041D01*
X006946Y003082D01*
X006958Y003128D01*
X006958Y003721D01*
X006958Y003577D02*
X007268Y003577D01*
X007268Y003735D02*
X006465Y003735D01*
X006465Y003577D02*
X006305Y003577D01*
X006305Y003721D02*
X006305Y002971D01*
X005967Y002971D01*
X005922Y002984D01*
X005881Y003007D01*
X005847Y003041D01*
X005823Y003082D01*
X005811Y003128D01*
X005811Y003721D01*
X006305Y003721D01*
X006305Y003735D02*
X005571Y003735D01*
X005571Y003577D02*
X005811Y003577D01*
X005811Y003418D02*
X005571Y003418D01*
X005571Y003260D02*
X005811Y003260D01*
X005818Y003101D02*
X005571Y003101D01*
X005571Y002943D02*
X007049Y002943D01*
X006951Y003101D02*
X007339Y003101D01*
X007268Y003260D02*
X006958Y003260D01*
X006958Y003418D02*
X007268Y003418D01*
X007492Y002943D02*
X008782Y002943D01*
X008767Y003101D02*
X008767Y003101D01*
X008767Y003260D02*
X008767Y003260D01*
X008767Y003418D02*
X008767Y003418D01*
X008767Y003577D02*
X008767Y003577D01*
X008767Y003735D02*
X008767Y003735D01*
X008767Y003894D02*
X008767Y003894D01*
X008767Y004052D02*
X008767Y004052D01*
X008767Y004211D02*
X008767Y004211D01*
X008767Y004369D02*
X008767Y004369D01*
X008767Y004528D02*
X008767Y004528D01*
X009028Y004528D02*
X009332Y004528D01*
X009327Y004520D02*
X009315Y004474D01*
X009315Y003881D01*
X009809Y003881D01*
X009809Y004631D01*
X009471Y004631D01*
X009426Y004618D01*
X009384Y004595D01*
X009351Y004561D01*
X009327Y004520D01*
X009315Y004369D02*
X009045Y004369D01*
X009045Y004211D02*
X009315Y004211D01*
X009315Y004052D02*
X009045Y004052D01*
X009045Y003894D02*
X009315Y003894D01*
X009315Y003721D02*
X009315Y003128D01*
X009327Y003082D01*
X009351Y003041D01*
X009384Y003007D01*
X009426Y002984D01*
X009471Y002971D01*
X009809Y002971D01*
X009809Y003721D01*
X009969Y003721D01*
X009969Y003881D01*
X010462Y003881D01*
X010462Y004474D01*
X010450Y004520D01*
X010426Y004561D01*
X010393Y004595D01*
X010352Y004618D01*
X010306Y004631D01*
X009969Y004631D01*
X009969Y003881D01*
X009809Y003881D01*
X009809Y003721D01*
X009315Y003721D01*
X009315Y003577D02*
X009045Y003577D01*
X009045Y003735D02*
X009809Y003735D01*
X009809Y003577D02*
X009969Y003577D01*
X009969Y003721D02*
X009969Y002971D01*
X010306Y002971D01*
X010352Y002984D01*
X010393Y003007D01*
X010426Y003041D01*
X010450Y003082D01*
X010462Y003128D01*
X010462Y003721D01*
X009969Y003721D01*
X009969Y003735D02*
X010519Y003735D01*
X010506Y003577D02*
X010462Y003577D01*
X010462Y003418D02*
X010506Y003418D01*
X010506Y003260D02*
X010462Y003260D01*
X010455Y003101D02*
X010506Y003101D01*
X010506Y002943D02*
X009224Y002943D01*
X009322Y003101D02*
X008991Y003101D01*
X009045Y003260D02*
X009315Y003260D01*
X009315Y003418D02*
X009045Y003418D01*
X009338Y002784D02*
X010506Y002784D01*
X010506Y002626D02*
X009360Y002626D01*
X009310Y002467D02*
X010432Y002467D01*
X010653Y002150D02*
X010751Y002150D01*
X010784Y002059D02*
X010743Y002036D01*
X010709Y002002D01*
X010686Y001961D01*
X010673Y001915D01*
X010673Y001693D01*
X011051Y001693D01*
X011051Y001617D01*
X010673Y001617D01*
X010673Y001395D01*
X010686Y001350D01*
X010709Y001309D01*
X010743Y001275D01*
X010784Y001251D01*
X010830Y001239D01*
X011051Y001239D01*
X011051Y001617D01*
X011128Y001617D01*
X011128Y001693D01*
X011839Y001693D01*
X011839Y001617D01*
X011915Y001617D01*
X011915Y001239D01*
X012137Y001239D01*
X012183Y001251D01*
X012224Y001275D01*
X012257Y001309D01*
X012281Y001350D01*
X012293Y001395D01*
X012293Y001617D01*
X011915Y001617D01*
X011915Y001693D01*
X012293Y001693D01*
X012293Y001915D01*
X012281Y001961D01*
X012257Y002002D01*
X012224Y002036D01*
X012183Y002059D01*
X012137Y002071D01*
X011915Y002071D01*
X011915Y001693D01*
X011839Y001693D01*
X011839Y002071D01*
X011617Y002071D01*
X011571Y002059D01*
X011530Y002036D01*
X011497Y002002D01*
X011483Y001979D01*
X011470Y002002D01*
X011436Y002036D01*
X011395Y002059D01*
X011349Y002071D01*
X011128Y002071D01*
X011128Y001693D01*
X011051Y001693D01*
X011051Y002071D01*
X010830Y002071D01*
X010784Y002059D01*
X010703Y001992D02*
X010462Y001992D01*
X010462Y001833D02*
X010673Y001833D01*
X010462Y001675D02*
X011051Y001675D01*
X011128Y001675D02*
X011839Y001675D01*
X011839Y001617D02*
X011506Y001617D01*
X011128Y001617D01*
X011128Y001239D01*
X011349Y001239D01*
X011395Y001251D01*
X011436Y001275D01*
X011470Y001309D01*
X011483Y001332D01*
X011497Y001309D01*
X011530Y001275D01*
X011571Y001251D01*
X011617Y001239D01*
X011839Y001239D01*
X011839Y001617D01*
X011915Y001675D02*
X013665Y001675D01*
X013665Y001833D02*
X012293Y001833D01*
X012263Y001992D02*
X013665Y001992D01*
X013665Y002150D02*
X012216Y002150D01*
X012253Y002188D02*
X012253Y002776D01*
X012203Y002827D01*
X012233Y002857D01*
X012233Y003367D01*
X012154Y003447D01*
X012233Y003526D01*
X012233Y004036D01*
X012151Y004118D01*
X012067Y004118D01*
X012067Y004313D01*
X011673Y004706D01*
X011562Y004818D01*
X011168Y004818D01*
X011083Y004903D01*
X011083Y004942D01*
X011266Y004942D01*
X011348Y005024D01*
X011348Y005600D01*
X011336Y005612D01*
X011348Y005624D01*
X011348Y005722D01*
X011665Y005722D01*
X012546Y006603D01*
X012657Y006714D01*
X012657Y011202D01*
X012546Y011314D01*
X012349Y011511D01*
X011865Y011511D01*
X011830Y011545D01*
X011733Y011586D01*
X011627Y011586D01*
X011530Y011545D01*
X011455Y011471D01*
X011415Y011373D01*
X011415Y011268D01*
X011455Y011170D01*
X011530Y011096D01*
X011627Y011056D01*
X011733Y011056D01*
X011830Y011096D01*
X011865Y011131D01*
X012192Y011131D01*
X012277Y011045D01*
X012277Y006872D01*
X011508Y006102D01*
X011348Y006102D01*
X011348Y006200D01*
X011266Y006282D01*
X010520Y006282D01*
X010438Y006200D01*
X010438Y005624D01*
X010450Y005612D01*
X010438Y005600D01*
X010438Y005024D01*
X010520Y004942D01*
X010703Y004942D01*
X010703Y004746D01*
X010814Y004635D01*
X011011Y004438D01*
X011404Y004438D01*
X011687Y004155D01*
X011687Y004118D01*
X011602Y004118D01*
X011520Y004036D01*
X011520Y003526D01*
X011600Y003447D01*
X011520Y003367D01*
X011520Y002857D01*
X011551Y002827D01*
X011501Y002776D01*
X011501Y002188D01*
X011583Y002106D01*
X012171Y002106D01*
X012253Y002188D01*
X012253Y002309D02*
X013665Y002309D01*
X013665Y002467D02*
X012253Y002467D01*
X012253Y002626D02*
X013665Y002626D01*
X013665Y002784D02*
X012245Y002784D01*
X012233Y002943D02*
X013665Y002943D01*
X013665Y003101D02*
X012233Y003101D01*
X012233Y003260D02*
X013665Y003260D01*
X013665Y003418D02*
X012182Y003418D01*
X012233Y003577D02*
X013665Y003577D01*
X013665Y003735D02*
X012233Y003735D01*
X012233Y003894D02*
X013665Y003894D01*
X013665Y004052D02*
X012217Y004052D01*
X012067Y004211D02*
X013665Y004211D01*
X013665Y004369D02*
X012010Y004369D01*
X011852Y004528D02*
X013665Y004528D01*
X013665Y004686D02*
X011693Y004686D01*
X011473Y004369D02*
X010462Y004369D01*
X010462Y004211D02*
X011631Y004211D01*
X011537Y004052D02*
X011430Y004052D01*
X011446Y003894D02*
X011520Y003894D01*
X011520Y003735D02*
X011446Y003735D01*
X011446Y003577D02*
X011520Y003577D01*
X011572Y003418D02*
X011394Y003418D01*
X011446Y003260D02*
X011520Y003260D01*
X011520Y003101D02*
X011446Y003101D01*
X011446Y002943D02*
X011520Y002943D01*
X011509Y002784D02*
X011458Y002784D01*
X011466Y002626D02*
X011501Y002626D01*
X011501Y002467D02*
X011466Y002467D01*
X011466Y002309D02*
X011501Y002309D01*
X011538Y002150D02*
X011428Y002150D01*
X011476Y001992D02*
X011491Y001992D01*
X011128Y001992D02*
X011051Y001992D01*
X011051Y001833D02*
X011128Y001833D01*
X011128Y001516D02*
X011051Y001516D01*
X011051Y001358D02*
X011128Y001358D01*
X010683Y001358D02*
X010462Y001358D01*
X010462Y001199D02*
X013645Y001199D01*
X013665Y001358D02*
X012283Y001358D01*
X012293Y001516D02*
X013665Y001516D01*
X011915Y001516D02*
X011839Y001516D01*
X011839Y001358D02*
X011915Y001358D01*
X011915Y001833D02*
X011839Y001833D01*
X011839Y001992D02*
X011915Y001992D01*
X010673Y001516D02*
X009969Y001516D01*
X009809Y001516D02*
X006465Y001516D01*
X006465Y001558D02*
X006465Y001398D01*
X006958Y001398D01*
X006958Y001068D01*
X009315Y001068D01*
X009315Y001398D01*
X009809Y001398D01*
X009809Y001558D01*
X009315Y001558D01*
X009315Y001994D01*
X009327Y002040D01*
X009348Y002075D01*
X006926Y002075D01*
X006946Y002040D01*
X006958Y001994D01*
X006958Y001558D01*
X006465Y001558D01*
X006305Y001558D02*
X006305Y001398D01*
X005811Y001398D01*
X005811Y001068D01*
X005069Y001068D01*
X005069Y002383D01*
X004935Y002793D01*
X004682Y003141D01*
X004682Y003141D01*
X004333Y003395D01*
X003923Y003528D01*
X002608Y003528D01*
X002608Y004940D01*
X003644Y004940D01*
X003891Y005042D01*
X003891Y005042D01*
X004081Y005231D01*
X004183Y005478D01*
X004183Y005746D01*
X004081Y005993D01*
X003891Y006182D01*
X003644Y006284D01*
X002608Y006284D01*
X002608Y006541D01*
X002842Y006308D01*
X003826Y006308D01*
X004412Y005722D01*
X004926Y005722D01*
X004926Y005624D01*
X004938Y005612D01*
X004926Y005600D01*
X004926Y005024D01*
X005008Y004942D01*
X005191Y004942D01*
X005191Y002777D01*
X005302Y002666D01*
X005867Y002101D01*
X005847Y002081D01*
X005823Y002040D01*
X005811Y001994D01*
X005811Y001558D01*
X006305Y001558D01*
X006305Y001516D02*
X005069Y001516D01*
X005069Y001358D02*
X005811Y001358D01*
X005811Y001199D02*
X005069Y001199D01*
X005069Y001675D02*
X005811Y001675D01*
X005811Y001833D02*
X005069Y001833D01*
X005069Y001992D02*
X005811Y001992D01*
X005818Y002150D02*
X005069Y002150D01*
X005069Y002309D02*
X005659Y002309D01*
X005501Y002467D02*
X005041Y002467D01*
X005069Y002383D02*
X005069Y002383D01*
X004990Y002626D02*
X005342Y002626D01*
X005191Y002784D02*
X004938Y002784D01*
X004826Y002943D02*
X005191Y002943D01*
X005191Y003101D02*
X004711Y003101D01*
X004519Y003260D02*
X005191Y003260D01*
X005191Y003418D02*
X004261Y003418D01*
X005191Y003577D02*
X002608Y003577D01*
X002608Y003735D02*
X005191Y003735D01*
X005191Y003894D02*
X002608Y003894D01*
X002608Y004052D02*
X005191Y004052D01*
X005191Y004211D02*
X002608Y004211D01*
X002608Y004369D02*
X005191Y004369D01*
X005191Y004528D02*
X002608Y004528D01*
X002608Y004686D02*
X005191Y004686D01*
X005191Y004845D02*
X002608Y004845D01*
X002608Y006430D02*
X002719Y006430D01*
X002999Y006688D02*
X002815Y006872D01*
X002815Y007699D01*
X002841Y007725D01*
X002879Y007725D01*
X002879Y007641D01*
X002911Y007608D01*
X002908Y007606D01*
X002875Y007573D01*
X002851Y007532D01*
X002839Y007486D01*
X002839Y007264D01*
X003197Y007264D01*
X003197Y007227D01*
X003234Y007227D01*
X003234Y006849D01*
X003436Y006849D01*
X003482Y006862D01*
X003523Y006885D01*
X003556Y006919D01*
X003577Y006955D01*
X003577Y006774D01*
X003659Y006692D01*
X003977Y006692D01*
X003981Y006688D01*
X003982Y006688D01*
X002999Y006688D01*
X002940Y006747D02*
X003605Y006747D01*
X003577Y006905D02*
X003543Y006905D01*
X003234Y006905D02*
X003197Y006905D01*
X003197Y006849D02*
X003197Y007227D01*
X002839Y007227D01*
X002839Y007006D01*
X002851Y006960D01*
X002875Y006919D01*
X002908Y006885D01*
X002949Y006862D01*
X002995Y006849D01*
X003197Y006849D01*
X003197Y007064D02*
X003234Y007064D01*
X003234Y007222D02*
X003197Y007222D01*
X002839Y007222D02*
X002815Y007222D01*
X002815Y007064D02*
X002839Y007064D01*
X002815Y006905D02*
X002888Y006905D01*
X002839Y007381D02*
X002815Y007381D01*
X002815Y007539D02*
X002855Y007539D01*
X002879Y007698D02*
X002815Y007698D01*
X002608Y008029D02*
X002608Y008484D01*
X002880Y008484D01*
X002962Y008566D01*
X002962Y009233D01*
X002880Y009315D01*
X002608Y009315D01*
X002608Y011358D01*
X002880Y011358D01*
X002962Y011440D01*
X002962Y012107D01*
X002880Y012189D01*
X002608Y012189D01*
X002608Y012814D01*
X003644Y012814D01*
X003891Y012916D01*
X003891Y012916D01*
X004081Y013105D01*
X004183Y013352D01*
X004183Y013620D01*
X004081Y013867D01*
X003891Y014056D01*
X003644Y014158D01*
X002608Y014158D01*
X002608Y014742D01*
X002630Y014713D01*
X002686Y014656D01*
X002751Y014609D01*
X002823Y014572D01*
X002899Y014548D01*
X002978Y014535D01*
X003000Y014535D01*
X003000Y015027D01*
X003037Y015027D01*
X003037Y015063D01*
X003529Y015063D01*
X003984Y015063D01*
X003984Y015027D01*
X003037Y015027D01*
X003037Y014535D01*
X003059Y014535D01*
X003138Y014548D01*
X003214Y014572D01*
X003286Y014609D01*
X003351Y014656D01*
X003408Y014713D01*
X003455Y014778D01*
X003491Y014849D01*
X003511Y014909D01*
X003530Y014849D01*
X003567Y014778D01*
X003614Y014713D01*
X003671Y014656D01*
X003736Y014609D01*
X003807Y014572D01*
X003883Y014548D01*
X003963Y014535D01*
X003984Y014535D01*
X003984Y015027D01*
X004021Y015027D01*
X004021Y015063D01*
X004513Y015063D01*
X004513Y015085D01*
X004500Y015164D01*
X004476Y015241D01*
X004439Y015312D01*
X004392Y015377D01*
X004335Y015434D01*
X004270Y015481D01*
X004199Y015518D01*
X004122Y015542D01*
X004043Y015555D01*
X004021Y015555D01*
X004021Y015063D01*
X003984Y015063D01*
X003984Y015555D01*
X003963Y015555D01*
X003883Y015542D01*
X003807Y015518D01*
X003736Y015481D01*
X003671Y015434D01*
X003614Y015377D01*
X003567Y015312D01*
X003530Y015241D01*
X003511Y015181D01*
X003491Y015241D01*
X003455Y015312D01*
X003408Y015377D01*
X003351Y015434D01*
X003286Y015481D01*
X003214Y015518D01*
X003138Y015542D01*
X003059Y015555D01*
X003037Y015555D01*
X003037Y015063D01*
X003000Y015063D01*
X003000Y015555D01*
X002978Y015555D01*
X002899Y015542D01*
X002823Y015518D01*
X002751Y015481D01*
X002686Y015434D01*
X002630Y015377D01*
X002608Y015348D01*
X002608Y015808D01*
X002620Y015779D01*
X002752Y015647D01*
X002925Y015575D01*
X003112Y015575D01*
X003285Y015647D01*
X003417Y015779D01*
X003489Y015952D01*
X003489Y016139D01*
X003417Y016311D01*
X003285Y016443D01*
X003112Y016515D01*
X002925Y016515D01*
X002752Y016443D01*
X002620Y016311D01*
X002608Y016282D01*
X002608Y016808D01*
X002620Y016779D01*
X002752Y016647D01*
X002925Y016575D01*
X003112Y016575D01*
X003285Y016647D01*
X003417Y016779D01*
X003489Y016952D01*
X003489Y017139D01*
X003417Y017311D01*
X003285Y017443D01*
X003112Y017515D01*
X002925Y017515D01*
X002752Y017443D01*
X002620Y017311D01*
X002608Y017282D01*
X002608Y017817D01*
X002612Y017858D01*
X002644Y017935D01*
X002703Y017994D01*
X002780Y018026D01*
X002822Y018030D01*
X005004Y018030D01*
X005004Y017874D01*
X005362Y017874D01*
X005362Y017838D01*
X005004Y017838D01*
X005004Y017616D01*
X005016Y017570D01*
X005040Y017529D01*
X005073Y017495D01*
X005076Y017494D01*
X005044Y017461D01*
X005044Y016912D01*
X005126Y016830D01*
X005426Y016830D01*
X005585Y016671D01*
X005708Y016671D01*
X005734Y016645D01*
X005678Y016589D01*
X005555Y016589D01*
X005516Y016605D01*
X005480Y016589D01*
X005472Y016589D01*
X005434Y016605D01*
X005328Y016605D01*
X005231Y016565D01*
X005156Y016490D01*
X005116Y016393D01*
X005116Y016288D01*
X005156Y016190D01*
X005231Y016116D01*
X005282Y016094D01*
X005231Y016073D01*
X005156Y015998D01*
X005116Y015901D01*
X005116Y015795D01*
X005156Y015698D01*
X005231Y015624D01*
X005328Y015583D01*
X005434Y015583D01*
X005531Y015624D01*
X005605Y015698D01*
X005613Y015717D01*
X005678Y015717D01*
X005734Y015661D01*
X005662Y015589D01*
X005615Y015476D01*
X005615Y015354D01*
X005662Y015241D01*
X005734Y015169D01*
X005678Y015113D01*
X005597Y015113D01*
X004980Y015730D01*
X004980Y016517D01*
X004473Y017025D01*
X004473Y017139D01*
X004401Y017311D01*
X004269Y017443D01*
X004096Y017515D01*
X003909Y017515D01*
X003737Y017443D01*
X003604Y017311D01*
X003533Y017139D01*
X003533Y016952D01*
X003604Y016779D01*
X003737Y016647D01*
X003909Y016575D01*
X004096Y016575D01*
X004269Y016647D01*
X004291Y016669D01*
X004600Y016360D01*
X004600Y015716D01*
X004441Y015875D01*
X004473Y015952D01*
X004473Y016139D01*
X004401Y016311D01*
X004269Y016443D01*
X004096Y016515D01*
X003909Y016515D01*
X003737Y016443D01*
X003604Y016311D01*
X003533Y016139D01*
X003533Y015952D01*
X003604Y015779D01*
X003737Y015647D01*
X003909Y015575D01*
X004096Y015575D01*
X004173Y015607D01*
X005405Y014374D01*
X005126Y014374D01*
X005044Y014292D01*
X005044Y014237D01*
X004837Y014237D01*
X004708Y014109D01*
X004570Y013971D01*
X004570Y012286D01*
X004417Y012286D01*
X004335Y012204D01*
X004335Y011628D01*
X004347Y011616D01*
X004335Y011604D01*
X004335Y011520D01*
X003867Y011520D01*
X003867Y012107D01*
X003785Y012189D01*
X003354Y012189D01*
X003272Y012107D01*
X003272Y011442D01*
X003026Y011442D01*
X002973Y011389D01*
X002966Y011389D01*
X002869Y011348D01*
X002794Y011274D01*
X002754Y011176D01*
X002754Y011071D01*
X002794Y010974D01*
X002869Y010899D01*
X002966Y010859D01*
X003071Y010859D01*
X003169Y010899D01*
X003243Y010974D01*
X003255Y011002D01*
X003375Y011002D01*
X003453Y010925D01*
X004356Y010925D01*
X004397Y010966D01*
X004417Y010946D01*
X004570Y010946D01*
X004570Y010427D01*
X004419Y010276D01*
X004356Y010339D01*
X003453Y010339D01*
X003371Y010257D01*
X003371Y009826D01*
X003451Y009746D01*
X003371Y009666D01*
X003371Y009315D01*
X003354Y009315D01*
X003272Y009233D01*
X003272Y008566D01*
X003354Y008484D01*
X003783Y008484D01*
X003783Y008469D01*
X003659Y008469D01*
X003577Y008387D01*
X003577Y008155D01*
X003557Y008135D01*
X003552Y008135D01*
X003552Y008190D01*
X003470Y008272D01*
X002961Y008272D01*
X002879Y008190D01*
X002879Y008105D01*
X002684Y008105D01*
X002608Y008029D01*
X002608Y008173D02*
X002879Y008173D01*
X002886Y008490D02*
X003348Y008490D01*
X003272Y008649D02*
X002962Y008649D01*
X002962Y008807D02*
X003272Y008807D01*
X003272Y008966D02*
X002962Y008966D01*
X002962Y009124D02*
X003272Y009124D01*
X003322Y009283D02*
X002912Y009283D01*
X002608Y009441D02*
X003371Y009441D01*
X003371Y009600D02*
X002608Y009600D01*
X002608Y009758D02*
X003438Y009758D01*
X003371Y009917D02*
X002608Y009917D01*
X002608Y010075D02*
X003371Y010075D01*
X003371Y010234D02*
X002608Y010234D01*
X002608Y010392D02*
X004535Y010392D01*
X004570Y010551D02*
X002608Y010551D01*
X002608Y010709D02*
X004570Y010709D01*
X004570Y010868D02*
X003094Y010868D01*
X003019Y011124D02*
X003117Y011222D01*
X003904Y011222D01*
X003867Y011660D02*
X004335Y011660D01*
X004335Y011819D02*
X003867Y011819D01*
X003867Y011977D02*
X004335Y011977D01*
X004335Y012136D02*
X003838Y012136D01*
X003301Y012136D02*
X002933Y012136D01*
X002962Y011977D02*
X003272Y011977D01*
X003272Y011819D02*
X002962Y011819D01*
X002962Y011660D02*
X003272Y011660D01*
X003272Y011502D02*
X002962Y011502D01*
X002864Y011343D02*
X002608Y011343D01*
X002608Y011185D02*
X002757Y011185D01*
X002772Y011026D02*
X002608Y011026D01*
X002608Y010868D02*
X002944Y010868D01*
X003904Y010041D02*
X004495Y010041D01*
X004790Y010336D01*
X004790Y011316D01*
X005010Y010946D02*
X005163Y010946D01*
X005227Y011009D01*
X005302Y010934D01*
X005799Y010437D01*
X005126Y010437D01*
X005044Y010355D01*
X005044Y009806D01*
X005126Y009724D01*
X005348Y009724D01*
X005348Y009688D01*
X005313Y009602D01*
X005313Y009496D01*
X005353Y009399D01*
X005428Y009324D01*
X005525Y009284D01*
X005630Y009284D01*
X005728Y009324D01*
X005802Y009399D01*
X005843Y009496D01*
X005843Y009602D01*
X005802Y009699D01*
X005777Y009724D01*
X005951Y009724D01*
X006033Y009806D01*
X006033Y010203D01*
X006766Y009470D01*
X006766Y007502D01*
X006877Y007390D01*
X006993Y007390D01*
X006993Y006991D01*
X007075Y006909D01*
X007162Y006909D01*
X007212Y006858D01*
X007632Y006404D01*
X007632Y006034D01*
X007598Y006068D01*
X006698Y006968D01*
X006722Y006991D01*
X006722Y007501D01*
X006642Y007580D01*
X006722Y007660D01*
X006722Y008170D01*
X006640Y008252D01*
X006106Y008252D01*
X006082Y008276D01*
X006041Y008299D01*
X006039Y008300D01*
X006060Y008338D01*
X006073Y008384D01*
X006073Y008595D01*
X005567Y008595D01*
X005567Y008652D01*
X006073Y008652D01*
X006073Y008864D01*
X006060Y008910D01*
X006037Y008951D01*
X006003Y008984D01*
X005962Y009008D01*
X005916Y009020D01*
X005567Y009020D01*
X005567Y008652D01*
X005510Y008652D01*
X005510Y008595D01*
X005004Y008595D01*
X005004Y008384D01*
X005016Y008338D01*
X005031Y008312D01*
X004963Y008312D01*
X004918Y008299D01*
X004877Y008276D01*
X004843Y008242D01*
X004822Y008206D01*
X004822Y008387D01*
X004740Y008469D01*
X004407Y008469D01*
X004325Y008387D01*
X004325Y007800D01*
X004074Y007800D01*
X004074Y008128D01*
X004094Y008148D01*
X004223Y008277D01*
X004223Y009153D01*
X004356Y009153D01*
X004438Y009235D01*
X004438Y009666D01*
X004358Y009746D01*
X004434Y009821D01*
X004586Y009821D01*
X004881Y010116D01*
X005010Y010245D01*
X005010Y010946D01*
X005010Y010868D02*
X005368Y010868D01*
X005526Y010709D02*
X005010Y010709D01*
X005010Y010551D02*
X005685Y010551D01*
X006033Y010075D02*
X006160Y010075D01*
X006033Y009917D02*
X006319Y009917D01*
X006477Y009758D02*
X005985Y009758D01*
X005843Y009600D02*
X006636Y009600D01*
X006766Y009441D02*
X005820Y009441D01*
X006022Y008966D02*
X006766Y008966D01*
X006766Y009124D02*
X004223Y009124D01*
X004223Y008966D02*
X005055Y008966D01*
X005040Y008951D02*
X005073Y008984D01*
X005115Y009008D01*
X005160Y009020D01*
X005510Y009020D01*
X005510Y008652D01*
X005004Y008652D01*
X005004Y008864D01*
X005016Y008910D01*
X005040Y008951D01*
X005004Y008807D02*
X004223Y008807D01*
X004223Y008649D02*
X005510Y008649D01*
X005538Y008624D02*
X005775Y008388D01*
X005775Y007915D01*
X005756Y007897D02*
X005202Y007897D01*
X005202Y007934D01*
X005561Y007934D01*
X005756Y007934D01*
X005756Y007897D01*
X006057Y008332D02*
X006766Y008332D01*
X006766Y008490D02*
X006073Y008490D01*
X006073Y008807D02*
X006766Y008807D01*
X006766Y008649D02*
X005567Y008649D01*
X005567Y008807D02*
X005510Y008807D01*
X005510Y008966D02*
X005567Y008966D01*
X005335Y009441D02*
X004438Y009441D01*
X004438Y009283D02*
X006766Y009283D01*
X007342Y009283D02*
X008340Y009283D01*
X008340Y009441D02*
X008182Y009441D01*
X008165Y009399D02*
X008205Y009496D01*
X008205Y009602D01*
X008165Y009699D01*
X008140Y009724D01*
X008392Y009724D01*
X008474Y009806D01*
X008474Y010355D01*
X008455Y010374D01*
X008533Y010374D01*
X008645Y010420D01*
X008717Y010492D01*
X008774Y010436D01*
X008774Y010061D01*
X008452Y009739D01*
X008452Y009739D01*
X008340Y009628D01*
X008340Y009020D01*
X008008Y009020D01*
X008008Y008652D01*
X007951Y008652D01*
X007951Y008595D01*
X007445Y008595D01*
X007445Y008384D01*
X007457Y008338D01*
X007465Y008324D01*
X007342Y008447D01*
X007342Y009824D01*
X005768Y011399D01*
X005768Y011702D01*
X005861Y011663D01*
X005942Y011663D01*
X005903Y011570D01*
X005903Y011465D01*
X005944Y011367D01*
X006018Y011293D01*
X006116Y011252D01*
X006221Y011252D01*
X006301Y011286D01*
X006297Y011275D01*
X006297Y011169D01*
X006337Y011072D01*
X006412Y010998D01*
X006509Y010957D01*
X006558Y010957D01*
X006601Y010914D01*
X006688Y010914D01*
X006688Y010620D01*
X006734Y010507D01*
X006821Y010420D01*
X006934Y010374D01*
X007056Y010374D01*
X007169Y010420D01*
X007241Y010492D01*
X007313Y010420D01*
X007426Y010374D01*
X007503Y010374D01*
X007485Y010355D01*
X007485Y009806D01*
X007567Y009724D01*
X007740Y009724D01*
X007715Y009699D01*
X007675Y009602D01*
X007675Y009496D01*
X007715Y009399D01*
X007790Y009324D01*
X007887Y009284D01*
X007993Y009284D01*
X008090Y009324D01*
X008165Y009399D01*
X008205Y009600D02*
X008340Y009600D01*
X008426Y009758D02*
X008471Y009758D01*
X008474Y009917D02*
X008630Y009917D01*
X008774Y010075D02*
X008474Y010075D01*
X008474Y010234D02*
X008774Y010234D01*
X008774Y010392D02*
X008578Y010392D01*
X008340Y009124D02*
X007342Y009124D01*
X007342Y008966D02*
X007496Y008966D01*
X007481Y008951D02*
X007457Y008910D01*
X007445Y008864D01*
X007445Y008652D01*
X007951Y008652D01*
X007951Y009020D01*
X007601Y009020D01*
X007555Y009008D01*
X007514Y008984D01*
X007481Y008951D01*
X007445Y008807D02*
X007342Y008807D01*
X007342Y008649D02*
X007951Y008649D01*
X007951Y008807D02*
X008008Y008807D01*
X008008Y008966D02*
X007951Y008966D01*
X007698Y009441D02*
X007342Y009441D01*
X007342Y009600D02*
X007675Y009600D01*
X007532Y009758D02*
X007342Y009758D01*
X007250Y009917D02*
X007485Y009917D01*
X007485Y010075D02*
X007092Y010075D01*
X006933Y010234D02*
X007485Y010234D01*
X007380Y010392D02*
X007102Y010392D01*
X006888Y010392D02*
X006775Y010392D01*
X006716Y010551D02*
X006616Y010551D01*
X006688Y010709D02*
X006458Y010709D01*
X006299Y010868D02*
X006688Y010868D01*
X006383Y011026D02*
X006141Y011026D01*
X006297Y011185D02*
X005982Y011185D01*
X005967Y011343D02*
X005824Y011343D01*
X005768Y011502D02*
X005903Y011502D01*
X005941Y011660D02*
X005768Y011660D01*
X005191Y012258D02*
X005163Y012286D01*
X005010Y012286D01*
X005010Y013084D01*
X005016Y013062D01*
X005040Y013021D01*
X005073Y012988D01*
X005115Y012964D01*
X005160Y012952D01*
X005362Y012952D01*
X005362Y013330D01*
X005399Y013330D01*
X005399Y012986D01*
X005191Y012777D01*
X005191Y012258D01*
X005191Y012294D02*
X005010Y012294D01*
X005010Y012453D02*
X005191Y012453D01*
X005191Y012611D02*
X005010Y012611D01*
X005010Y012770D02*
X005191Y012770D01*
X005342Y012928D02*
X005010Y012928D01*
X005362Y013087D02*
X005399Y013087D01*
X005399Y013245D02*
X005362Y013245D01*
X005381Y013348D02*
X005479Y013447D01*
X006345Y013447D01*
X006349Y013450D02*
X007116Y013450D01*
X007116Y013481D01*
X007103Y013548D01*
X007076Y013611D01*
X007038Y013668D01*
X006990Y013716D01*
X006987Y013719D01*
X007790Y013719D01*
X009728Y011781D01*
X009728Y011742D01*
X009702Y011716D01*
X009630Y011788D01*
X009517Y011835D01*
X009395Y011835D01*
X009282Y011788D01*
X009210Y011716D01*
X009138Y011788D01*
X009025Y011835D01*
X008902Y011835D01*
X008789Y011788D01*
X008717Y011716D01*
X008645Y011788D01*
X008533Y011835D01*
X008410Y011835D01*
X008297Y011788D01*
X008225Y011716D01*
X008153Y011788D01*
X008040Y011835D01*
X007918Y011835D01*
X007805Y011788D01*
X007733Y011716D01*
X007661Y011788D01*
X007548Y011835D01*
X007426Y011835D01*
X007313Y011788D01*
X007241Y011716D01*
X007169Y011788D01*
X007056Y011835D01*
X007045Y011835D01*
X007076Y011909D01*
X007076Y012031D01*
X007029Y012144D01*
X006957Y012216D01*
X007029Y012288D01*
X007076Y012401D01*
X007076Y012523D01*
X007029Y012636D01*
X006957Y012708D01*
X007029Y012780D01*
X007076Y012893D01*
X007076Y013016D01*
X007029Y013129D01*
X006985Y013173D01*
X006990Y013177D01*
X007038Y013225D01*
X007076Y013282D01*
X007103Y013345D01*
X007116Y013412D01*
X007116Y013443D01*
X006349Y013443D01*
X006349Y013450D01*
X006345Y013939D02*
X005263Y013939D01*
X005381Y014017D01*
X004928Y014017D01*
X004790Y013880D01*
X004790Y011916D01*
X004570Y012294D02*
X002608Y012294D01*
X002608Y012453D02*
X004570Y012453D01*
X004570Y012611D02*
X002608Y012611D01*
X002608Y012770D02*
X004570Y012770D01*
X004570Y012928D02*
X003904Y012928D01*
X004062Y013087D02*
X004570Y013087D01*
X004570Y013245D02*
X004139Y013245D01*
X004081Y013105D02*
X004081Y013105D01*
X004183Y013404D02*
X004570Y013404D01*
X004570Y013562D02*
X004183Y013562D01*
X004141Y013721D02*
X004570Y013721D01*
X004570Y013879D02*
X004068Y013879D01*
X004081Y013867D02*
X004081Y013867D01*
X003909Y014038D02*
X004637Y014038D01*
X004796Y014196D02*
X002608Y014196D01*
X002608Y014355D02*
X005107Y014355D01*
X005266Y014513D02*
X002608Y014513D01*
X002608Y014672D02*
X002670Y014672D01*
X003000Y014672D02*
X003037Y014672D01*
X003037Y014830D02*
X003000Y014830D01*
X003000Y014989D02*
X003037Y014989D01*
X003037Y015147D02*
X003000Y015147D01*
X003000Y015306D02*
X003037Y015306D01*
X003037Y015464D02*
X003000Y015464D01*
X002809Y015623D02*
X002608Y015623D01*
X002608Y015781D02*
X002619Y015781D01*
X002608Y015464D02*
X002728Y015464D01*
X003228Y015623D02*
X003794Y015623D01*
X003713Y015464D02*
X003309Y015464D01*
X003458Y015306D02*
X003563Y015306D01*
X003540Y014830D02*
X003482Y014830D01*
X003367Y014672D02*
X003655Y014672D01*
X003984Y014672D02*
X004021Y014672D01*
X004021Y014535D02*
X004043Y014535D01*
X004122Y014548D01*
X004199Y014572D01*
X004270Y014609D01*
X004335Y014656D01*
X004392Y014713D01*
X004439Y014778D01*
X004476Y014849D01*
X004500Y014926D01*
X004513Y015005D01*
X004513Y015027D01*
X004021Y015027D01*
X004021Y014535D01*
X004021Y014830D02*
X003984Y014830D01*
X003984Y014989D02*
X004021Y014989D01*
X004021Y015147D02*
X003984Y015147D01*
X003984Y015306D02*
X004021Y015306D01*
X004021Y015464D02*
X003984Y015464D01*
X004293Y015464D02*
X004315Y015464D01*
X004442Y015306D02*
X004473Y015306D01*
X004503Y015147D02*
X004632Y015147D01*
X004510Y014989D02*
X004790Y014989D01*
X004949Y014830D02*
X004466Y014830D01*
X004351Y014672D02*
X005107Y014672D01*
X005563Y015147D02*
X005712Y015147D01*
X005635Y015306D02*
X005404Y015306D01*
X005246Y015464D02*
X005615Y015464D01*
X005695Y015623D02*
X005530Y015623D01*
X005232Y015623D02*
X005087Y015623D01*
X005122Y015781D02*
X004980Y015781D01*
X004980Y015940D02*
X005132Y015940D01*
X005272Y016098D02*
X004980Y016098D01*
X004980Y016257D02*
X005129Y016257D01*
X005125Y016415D02*
X004980Y016415D01*
X004924Y016574D02*
X005252Y016574D01*
X005065Y016891D02*
X004607Y016891D01*
X004473Y017049D02*
X005044Y017049D01*
X005044Y017208D02*
X004444Y017208D01*
X004346Y017366D02*
X005044Y017366D01*
X005044Y017525D02*
X002608Y017525D01*
X002608Y017683D02*
X005004Y017683D01*
X005004Y018000D02*
X002718Y018000D01*
X002611Y017842D02*
X005362Y017842D01*
X005399Y017842D02*
X005575Y017842D01*
X005576Y017838D01*
X005399Y017838D01*
X005399Y017874D01*
X005758Y017874D01*
X005758Y017879D01*
X006342Y017879D01*
X006342Y017872D01*
X005575Y017872D01*
X005575Y017842D01*
X005381Y017187D02*
X005676Y016891D01*
X006345Y016891D01*
X006345Y017384D01*
X006349Y017872D02*
X006349Y017879D01*
X007116Y017879D01*
X007116Y017910D01*
X007103Y017977D01*
X007081Y018030D01*
X008647Y018030D01*
X008647Y016012D01*
X008694Y015965D01*
X010324Y015965D01*
X010319Y015941D01*
X010319Y015911D01*
X011086Y015911D01*
X011086Y015904D01*
X010319Y015904D01*
X010319Y015873D01*
X010332Y015806D01*
X010358Y015743D01*
X010396Y015686D01*
X010445Y015637D01*
X010450Y015634D01*
X010422Y015605D01*
X010381Y015605D01*
X009905Y015129D01*
X009856Y015129D01*
X009758Y015089D01*
X009684Y015014D01*
X009643Y014917D01*
X009643Y014811D01*
X009684Y014714D01*
X009758Y014639D01*
X009856Y014599D01*
X009939Y014599D01*
X009939Y014516D01*
X009979Y014419D01*
X010054Y014344D01*
X010151Y014304D01*
X010256Y014304D01*
X010354Y014344D01*
X010365Y014355D01*
X010365Y014355D01*
X010406Y014257D01*
X010478Y014185D01*
X010406Y014113D01*
X010359Y014000D01*
X010359Y013878D01*
X010406Y013765D01*
X010478Y013693D01*
X010406Y013621D01*
X010359Y013508D01*
X010359Y013385D01*
X010406Y013273D01*
X010478Y013201D01*
X010406Y013129D01*
X010359Y013016D01*
X010359Y012893D01*
X010406Y012780D01*
X010478Y012708D01*
X010406Y012636D01*
X010359Y012523D01*
X010359Y012401D01*
X010406Y012288D01*
X010478Y012216D01*
X010406Y012144D01*
X010359Y012031D01*
X010359Y011909D01*
X010376Y011869D01*
X010339Y011861D01*
X010275Y011835D01*
X010218Y011797D01*
X010170Y011749D01*
X010168Y011745D01*
X010168Y011963D01*
X010039Y012092D01*
X007972Y014159D01*
X007766Y014159D01*
X007766Y016727D01*
X007637Y016856D01*
X007381Y017111D01*
X006983Y017111D01*
X006957Y017138D01*
X007029Y017210D01*
X007076Y017322D01*
X007076Y017445D01*
X007029Y017558D01*
X006985Y017602D01*
X006990Y017606D01*
X007038Y017654D01*
X007076Y017711D01*
X007103Y017774D01*
X007116Y017842D01*
X008647Y017842D01*
X008647Y018000D02*
X007093Y018000D01*
X007116Y017872D02*
X006349Y017872D01*
X007058Y017683D02*
X008647Y017683D01*
X008647Y017525D02*
X007043Y017525D01*
X007076Y017366D02*
X008647Y017366D01*
X008647Y017208D02*
X007028Y017208D01*
X007290Y016891D02*
X007546Y016636D01*
X007546Y013939D01*
X007881Y013939D01*
X009948Y011872D01*
X009948Y011104D01*
X009948Y010159D01*
X009869Y010139D01*
X009869Y009884D01*
X010007Y009746D01*
X010401Y009746D01*
X010893Y009746D01*
X010991Y009844D01*
X010991Y010336D01*
X011094Y010439D01*
X011483Y010439D01*
X011028Y010709D02*
X010787Y010709D01*
X010787Y010868D02*
X012277Y010868D01*
X012277Y011026D02*
X010787Y011026D01*
X010787Y011185D02*
X011449Y011185D01*
X011415Y011343D02*
X010787Y011343D01*
X010787Y011502D02*
X011487Y011502D01*
X011783Y011819D02*
X013665Y011819D01*
X013665Y011977D02*
X011820Y011977D01*
X011777Y012136D02*
X013665Y012136D01*
X013665Y012294D02*
X011776Y012294D01*
X011820Y012453D02*
X013665Y012453D01*
X013665Y012611D02*
X011784Y012611D01*
X011763Y012770D02*
X013665Y012770D01*
X013665Y011660D02*
X010761Y011660D01*
X010402Y012136D02*
X009995Y012136D01*
X010153Y011977D02*
X010359Y011977D01*
X010251Y011819D02*
X010168Y011819D01*
X010403Y012294D02*
X009836Y012294D01*
X009678Y012453D02*
X010359Y012453D01*
X010395Y012611D02*
X009519Y012611D01*
X009361Y012770D02*
X010416Y012770D01*
X010359Y012928D02*
X009202Y012928D01*
X009044Y013087D02*
X010389Y013087D01*
X010433Y013245D02*
X008885Y013245D01*
X008727Y013404D02*
X010359Y013404D01*
X010382Y013562D02*
X008568Y013562D01*
X008410Y013721D02*
X010449Y013721D01*
X010359Y013879D02*
X008251Y013879D01*
X008093Y014038D02*
X010375Y014038D01*
X010466Y014196D02*
X007766Y014196D01*
X007766Y014355D02*
X010043Y014355D01*
X009940Y014513D02*
X007766Y014513D01*
X007766Y014672D02*
X009726Y014672D01*
X009643Y014830D02*
X007766Y014830D01*
X007766Y014989D02*
X009673Y014989D01*
X009923Y015147D02*
X007766Y015147D01*
X007766Y015306D02*
X010082Y015306D01*
X010240Y015464D02*
X007766Y015464D01*
X007766Y015623D02*
X010440Y015623D01*
X010342Y015781D02*
X007766Y015781D01*
X007766Y015940D02*
X010319Y015940D01*
X011739Y015623D02*
X012187Y015623D01*
X011820Y015464D02*
X013665Y015464D01*
X013665Y015306D02*
X011800Y015306D01*
X011723Y015147D02*
X013665Y015147D01*
X013665Y014989D02*
X011818Y014989D01*
X011807Y014830D02*
X013665Y014830D01*
X013665Y014672D02*
X011706Y014672D01*
X011811Y014513D02*
X013665Y014513D01*
X013665Y014355D02*
X011814Y014355D01*
X011713Y014196D02*
X013665Y014196D01*
X012382Y014056D02*
X012382Y014056D01*
X012364Y014038D02*
X011804Y014038D01*
X011820Y013879D02*
X012206Y013879D01*
X012133Y013721D02*
X011730Y013721D01*
X011797Y013562D02*
X012091Y013562D01*
X012091Y013404D02*
X011820Y013404D01*
X011746Y013245D02*
X012135Y013245D01*
X012193Y013105D02*
X012193Y013105D01*
X012211Y013087D02*
X011790Y013087D01*
X011820Y012928D02*
X012370Y012928D01*
X012382Y012916D02*
X012382Y012916D01*
X012358Y011502D02*
X013665Y011502D01*
X013665Y011343D02*
X012516Y011343D01*
X012657Y011185D02*
X013665Y011185D01*
X013665Y011026D02*
X012657Y011026D01*
X012657Y010868D02*
X013665Y010868D01*
X013665Y010709D02*
X012657Y010709D01*
X012657Y010551D02*
X013665Y010551D01*
X013665Y010392D02*
X012657Y010392D01*
X012657Y010234D02*
X013665Y010234D01*
X013665Y010075D02*
X012657Y010075D01*
X012657Y009917D02*
X013665Y009917D01*
X013665Y009758D02*
X012657Y009758D01*
X012657Y009600D02*
X013665Y009600D01*
X013665Y009441D02*
X012657Y009441D01*
X012657Y009283D02*
X013665Y009283D01*
X013665Y009124D02*
X012657Y009124D01*
X012657Y008966D02*
X013665Y008966D01*
X013665Y008807D02*
X012657Y008807D01*
X012657Y008649D02*
X013665Y008649D01*
X013665Y008490D02*
X012657Y008490D01*
X012657Y008332D02*
X013665Y008332D01*
X013665Y008173D02*
X012657Y008173D01*
X012657Y008015D02*
X013665Y008015D01*
X013665Y007856D02*
X012657Y007856D01*
X012657Y007698D02*
X013665Y007698D01*
X013665Y007539D02*
X012657Y007539D01*
X012657Y007381D02*
X013665Y007381D01*
X013665Y007222D02*
X012657Y007222D01*
X012657Y007064D02*
X013665Y007064D01*
X013665Y006905D02*
X012657Y006905D01*
X012657Y006747D02*
X013665Y006747D01*
X013665Y006588D02*
X012532Y006588D01*
X012373Y006430D02*
X013665Y006430D01*
X012599Y006271D02*
X012215Y006271D01*
X012313Y006113D02*
X012056Y006113D01*
X012177Y005954D02*
X011898Y005954D01*
X011739Y005796D02*
X012111Y005796D01*
X012091Y005637D02*
X011348Y005637D01*
X011348Y005479D02*
X012091Y005479D01*
X012156Y005320D02*
X011348Y005320D01*
X011348Y005162D02*
X012262Y005162D01*
X012193Y005231D02*
X012193Y005231D01*
X012382Y005042D02*
X012382Y005042D01*
X012475Y005003D02*
X011327Y005003D01*
X011141Y004845D02*
X013665Y004845D01*
X012382Y006182D02*
X012382Y006182D01*
X011994Y006588D02*
X008327Y006588D01*
X008327Y006430D02*
X011836Y006430D01*
X011677Y006271D02*
X011276Y006271D01*
X011348Y006113D02*
X011519Y006113D01*
X011267Y006645D02*
X011267Y006974D01*
X011267Y006974D01*
X011267Y006645D01*
X011267Y006747D02*
X011267Y006747D01*
X011267Y006905D02*
X011267Y006905D01*
X011267Y006974D02*
X010614Y006974D01*
X011267Y006974D01*
X011267Y006974D01*
X011919Y006905D02*
X012277Y006905D01*
X012277Y007064D02*
X011919Y007064D01*
X011890Y007222D02*
X012277Y007222D01*
X012277Y007381D02*
X011879Y007381D01*
X011879Y007539D02*
X012277Y007539D01*
X012277Y007698D02*
X011863Y007698D01*
X011879Y007856D02*
X012277Y007856D01*
X012277Y008015D02*
X011879Y008015D01*
X011879Y008173D02*
X012277Y008173D01*
X012277Y008332D02*
X012207Y008332D01*
X012240Y008490D02*
X012277Y008490D01*
X012277Y008649D02*
X012167Y008649D01*
X012277Y008807D02*
X011879Y008807D01*
X011879Y008966D02*
X012277Y008966D01*
X012277Y009124D02*
X011879Y009124D01*
X011703Y009283D02*
X012277Y009283D01*
X012277Y009441D02*
X011703Y009441D01*
X011938Y009600D02*
X012277Y009600D01*
X012277Y009758D02*
X011938Y009758D01*
X011938Y009917D02*
X012277Y009917D01*
X012277Y010075D02*
X011938Y010075D01*
X011938Y010234D02*
X012277Y010234D01*
X012277Y010392D02*
X011938Y010392D01*
X011938Y010551D02*
X012277Y010551D01*
X012277Y010709D02*
X011938Y010709D01*
X011483Y009839D02*
X011483Y008958D01*
X011282Y008958D01*
X011267Y008974D01*
X010401Y009746D02*
X010401Y007088D01*
X010286Y006974D01*
X009731Y006974D01*
X009119Y006905D02*
X008130Y006905D01*
X008255Y006747D02*
X009138Y006747D01*
X009119Y007064D02*
X008887Y007064D01*
X008887Y007222D02*
X009159Y007222D01*
X008327Y006271D02*
X010509Y006271D01*
X010438Y006113D02*
X008327Y006113D01*
X008327Y005954D02*
X010438Y005954D01*
X010438Y005796D02*
X008327Y005796D01*
X008327Y005637D02*
X010438Y005637D01*
X010438Y005479D02*
X008327Y005479D01*
X008327Y005320D02*
X010438Y005320D01*
X010438Y005162D02*
X008327Y005162D01*
X008327Y005003D02*
X010458Y005003D01*
X010703Y004845D02*
X008327Y004845D01*
X008327Y004686D02*
X010762Y004686D01*
X010921Y004528D02*
X010446Y004528D01*
X010462Y004052D02*
X010749Y004052D01*
X010678Y003894D02*
X010462Y003894D01*
X009969Y003894D02*
X009809Y003894D01*
X009809Y004052D02*
X009969Y004052D01*
X009969Y004211D02*
X009809Y004211D01*
X009809Y004369D02*
X009969Y004369D01*
X009969Y004528D02*
X009809Y004528D01*
X009809Y003418D02*
X009969Y003418D01*
X009969Y003260D02*
X009809Y003260D01*
X009809Y003101D02*
X009969Y003101D01*
X009315Y001992D02*
X006958Y001992D01*
X006958Y001833D02*
X009315Y001833D01*
X009315Y001675D02*
X006958Y001675D01*
X006958Y001358D02*
X009315Y001358D01*
X009315Y001199D02*
X006958Y001199D01*
X006963Y002467D02*
X006038Y002467D01*
X005880Y002626D02*
X006913Y002626D01*
X006936Y002784D02*
X005721Y002784D01*
X006305Y003101D02*
X006465Y003101D01*
X006465Y003260D02*
X006305Y003260D01*
X006305Y003418D02*
X006465Y003418D01*
X006465Y003894D02*
X006305Y003894D01*
X006305Y004052D02*
X006465Y004052D01*
X006465Y004211D02*
X006305Y004211D01*
X006305Y004369D02*
X006465Y004369D01*
X006465Y004528D02*
X006305Y004528D01*
X005811Y004369D02*
X005571Y004369D01*
X005571Y004211D02*
X005811Y004211D01*
X005811Y004052D02*
X005571Y004052D01*
X005571Y003894D02*
X005811Y003894D01*
X005571Y004845D02*
X007287Y004845D01*
X007287Y005003D02*
X005815Y005003D01*
X005836Y005162D02*
X007287Y005162D01*
X007287Y005320D02*
X005836Y005320D01*
X005836Y005479D02*
X007287Y005479D01*
X007287Y005637D02*
X005836Y005637D01*
X005836Y005796D02*
X007248Y005796D01*
X007089Y005954D02*
X005836Y005954D01*
X005836Y006113D02*
X006931Y006113D01*
X006772Y006271D02*
X005764Y006271D01*
X005684Y006588D02*
X006455Y006588D01*
X006614Y006430D02*
X004241Y006430D01*
X004082Y006588D02*
X004684Y006588D01*
X004790Y006793D02*
X005578Y006793D01*
X005775Y006990D01*
X005775Y007246D01*
X005775Y007285D01*
X006365Y007876D01*
X006365Y007915D01*
X006722Y007856D02*
X006766Y007856D01*
X006766Y007698D02*
X006722Y007698D01*
X006683Y007539D02*
X006766Y007539D01*
X006722Y007381D02*
X006993Y007381D01*
X006993Y007222D02*
X006722Y007222D01*
X006722Y007064D02*
X006993Y007064D01*
X007165Y006905D02*
X006761Y006905D01*
X006919Y006747D02*
X007315Y006747D01*
X007461Y006588D02*
X007078Y006588D01*
X007236Y006430D02*
X007608Y006430D01*
X007632Y006271D02*
X007395Y006271D01*
X007553Y006113D02*
X007632Y006113D01*
X007507Y005848D02*
X007507Y003840D01*
X007605Y002784D02*
X008668Y002784D01*
X008646Y002626D02*
X007628Y002626D01*
X007578Y002467D02*
X008696Y002467D01*
X007507Y005848D02*
X006365Y006990D01*
X006365Y007246D01*
X006145Y006905D02*
X006046Y006905D01*
X005843Y006747D02*
X006297Y006747D01*
X005798Y006702D02*
X005798Y006702D01*
X005184Y007246D02*
X005125Y007246D01*
X004574Y007797D01*
X004574Y008092D01*
X004325Y008015D02*
X004074Y008015D01*
X004074Y007856D02*
X004325Y007856D01*
X004397Y007580D02*
X004003Y007580D01*
X003826Y007403D01*
X003826Y007069D01*
X004200Y007069D02*
X004200Y006652D01*
X004200Y007069D01*
X004200Y007069D01*
X004200Y007064D02*
X004200Y007064D01*
X004200Y006905D02*
X004200Y006905D01*
X004200Y006747D02*
X004200Y006747D01*
X004399Y006271D02*
X004997Y006271D01*
X004926Y006113D02*
X004558Y006113D01*
X004338Y005796D02*
X004162Y005796D01*
X004179Y005954D02*
X004096Y005954D01*
X004081Y005993D02*
X004081Y005993D01*
X004021Y006113D02*
X003960Y006113D01*
X003891Y006182D02*
X003891Y006182D01*
X003862Y006271D02*
X003675Y006271D01*
X004183Y005637D02*
X004926Y005637D01*
X004926Y005479D02*
X004183Y005479D01*
X004118Y005320D02*
X004926Y005320D01*
X004926Y005162D02*
X004011Y005162D01*
X004081Y005231D02*
X004081Y005231D01*
X004081Y005231D01*
X003798Y005003D02*
X004946Y005003D01*
X004790Y006793D02*
X004574Y007010D01*
X004574Y007069D01*
X004574Y007403D01*
X004397Y007580D01*
X004325Y008173D02*
X004120Y008173D01*
X004223Y008332D02*
X004325Y008332D01*
X004223Y008490D02*
X005004Y008490D01*
X005020Y008332D02*
X004822Y008332D01*
X004003Y008368D02*
X004003Y009155D01*
X003826Y009332D01*
X003826Y009431D01*
X003904Y009451D01*
X004438Y009600D02*
X005313Y009600D01*
X005091Y009758D02*
X004371Y009758D01*
X004682Y009917D02*
X005044Y009917D01*
X005044Y010075D02*
X004841Y010075D01*
X004999Y010234D02*
X005044Y010234D01*
X005010Y010392D02*
X005081Y010392D01*
X004003Y008368D02*
X003826Y008191D01*
X003826Y008092D01*
X003649Y007915D01*
X003215Y007915D01*
X003552Y008173D02*
X003577Y008173D01*
X003577Y008332D02*
X002608Y008332D01*
X006718Y008173D02*
X006766Y008173D01*
X006766Y008015D02*
X006722Y008015D01*
X007342Y008490D02*
X007445Y008490D01*
X007457Y008332D02*
X007461Y008332D01*
X010226Y010121D02*
X010520Y010121D01*
X010520Y010158D01*
X010226Y010158D01*
X010226Y010121D01*
X010440Y010199D02*
X010499Y010139D01*
X010538Y010139D01*
X010440Y010199D02*
X010440Y011104D01*
X010762Y010551D02*
X010895Y010551D01*
X009689Y011819D02*
X009555Y011819D01*
X009531Y011977D02*
X007076Y011977D01*
X007094Y011819D02*
X007388Y011819D01*
X007586Y011819D02*
X007880Y011819D01*
X008078Y011819D02*
X008372Y011819D01*
X008570Y011819D02*
X008865Y011819D01*
X009062Y011819D02*
X009357Y011819D01*
X009372Y012136D02*
X007033Y012136D01*
X007032Y012294D02*
X009214Y012294D01*
X009055Y012453D02*
X007076Y012453D01*
X007040Y012611D02*
X008897Y012611D01*
X008738Y012770D02*
X007019Y012770D01*
X007076Y012928D02*
X008580Y012928D01*
X008421Y013087D02*
X007046Y013087D01*
X007052Y013245D02*
X008263Y013245D01*
X008104Y013404D02*
X007114Y013404D01*
X007097Y013562D02*
X007946Y013562D01*
X007546Y013939D02*
X006345Y013939D01*
X007766Y016098D02*
X008647Y016098D01*
X008647Y016257D02*
X007766Y016257D01*
X007766Y016415D02*
X008647Y016415D01*
X008647Y016574D02*
X007766Y016574D01*
X007760Y016732D02*
X008647Y016732D01*
X008647Y016891D02*
X007602Y016891D01*
X007443Y017049D02*
X008647Y017049D01*
X007290Y016891D02*
X006345Y016891D01*
X007116Y017842D02*
X007116Y017872D01*
X005524Y016732D02*
X004765Y016732D01*
X004545Y016415D02*
X004297Y016415D01*
X004386Y016574D02*
X002608Y016574D01*
X002608Y016732D02*
X002667Y016732D01*
X002608Y016415D02*
X002724Y016415D01*
X003313Y016415D02*
X003709Y016415D01*
X003582Y016257D02*
X003440Y016257D01*
X003489Y016098D02*
X003533Y016098D01*
X003538Y015940D02*
X003484Y015940D01*
X003418Y015781D02*
X003603Y015781D01*
X003651Y016732D02*
X003371Y016732D01*
X003464Y016891D02*
X003558Y016891D01*
X003533Y017049D02*
X003489Y017049D01*
X003460Y017208D02*
X003562Y017208D01*
X003660Y017366D02*
X003362Y017366D01*
X002675Y017366D02*
X002608Y017366D01*
X004424Y016257D02*
X004600Y016257D01*
X004600Y016098D02*
X004473Y016098D01*
X004468Y015940D02*
X004600Y015940D01*
X004600Y015781D02*
X004535Y015781D01*
X003891Y014056D02*
X003891Y014056D01*
X010324Y006747D02*
X010631Y006747D01*
X010614Y006905D02*
X010529Y006905D01*
X011902Y006747D02*
X012153Y006747D01*
D28*
X012467Y006793D02*
X012467Y011124D01*
X012271Y011321D01*
X011680Y011321D01*
X010696Y009352D02*
X010597Y009254D01*
X010597Y007580D01*
X010704Y007474D01*
X011267Y007474D01*
X011267Y008474D02*
X011672Y008474D01*
X011975Y008466D01*
X012467Y006793D02*
X011586Y005912D01*
X010893Y005912D01*
X010893Y005312D02*
X010893Y004825D01*
X011089Y004628D01*
X011483Y004628D01*
X011877Y004234D01*
X011877Y003781D01*
X011877Y003112D02*
X011877Y002482D01*
X011089Y002482D02*
X011089Y003112D01*
X010696Y003643D02*
X010696Y002462D01*
X010499Y002265D01*
X005971Y002265D01*
X005381Y002856D01*
X005381Y005312D01*
X005381Y005912D02*
X004490Y005912D01*
X003904Y006498D01*
X002920Y006498D01*
X002625Y006793D01*
X002625Y007777D01*
X002763Y007915D01*
X003215Y007915D01*
X005538Y009588D02*
X005578Y009549D01*
X005538Y009588D02*
X005538Y010080D01*
X005381Y011124D02*
X005381Y012699D01*
X005637Y012954D01*
X006345Y012954D01*
X006345Y012462D02*
X005735Y012462D01*
X005578Y012305D01*
X005578Y011321D01*
X007152Y009746D01*
X007152Y008368D01*
X007349Y008171D01*
X007349Y007915D01*
X006956Y007580D02*
X006956Y009549D01*
X005381Y011124D01*
X006168Y011517D02*
X006345Y011695D01*
X006345Y011970D01*
X006562Y011222D02*
X006680Y011104D01*
X006995Y011104D01*
X007979Y010080D02*
X007940Y010041D01*
X007940Y009549D01*
X008530Y009549D02*
X008530Y007915D01*
X008924Y007580D02*
X008924Y009352D01*
X008530Y009549D02*
X008964Y009982D01*
X008964Y011104D01*
X007940Y007915D02*
X007940Y007777D01*
X007743Y007580D01*
X006956Y007580D01*
X007349Y007246D02*
X007349Y006990D01*
X007822Y006478D01*
X007822Y003840D01*
X008137Y003840D02*
X008137Y006596D01*
X007940Y006793D01*
X007940Y007246D01*
X008530Y007246D01*
X008924Y007580D02*
X009030Y007474D01*
X009731Y007474D01*
X010893Y005312D02*
X010893Y005218D01*
X010834Y003781D02*
X010696Y003643D01*
X010834Y003781D02*
X011089Y003781D01*
X006345Y014431D02*
X005617Y014431D01*
X004003Y016045D01*
X004790Y016439D02*
X004184Y017045D01*
X004003Y017045D01*
X004790Y016439D02*
X004790Y015651D01*
X005519Y014923D01*
X006345Y014923D01*
X006345Y015907D02*
X005519Y015907D01*
X005381Y015848D01*
X005381Y016340D02*
X005519Y016399D01*
X006345Y016399D01*
X009908Y014864D02*
X010460Y015415D01*
X011089Y015415D01*
X011621Y015415D01*
X011089Y014923D02*
X010558Y014923D01*
X010204Y014569D01*
M02*
