G75*
G70*
%OFA0B0*%
%FSLAX24Y24*%
%IPPOS*%
%LPD*%
%AMOC8*
5,1,8,0,0,1.08239X$1,22.5*
%
%ADD10C,0.0000*%
%ADD11C,0.0660*%
%ADD12R,0.1417X0.1024*%
%ADD13C,0.0250*%
%ADD14C,0.0160*%
%ADD15C,0.0100*%
D10*
X002428Y003348D02*
X003708Y003348D01*
X003774Y003346D01*
X003840Y003341D01*
X003906Y003331D01*
X003971Y003318D01*
X004035Y003302D01*
X004098Y003282D01*
X004160Y003258D01*
X004220Y003231D01*
X004279Y003201D01*
X004336Y003167D01*
X004391Y003130D01*
X004444Y003090D01*
X004495Y003048D01*
X004543Y003002D01*
X004589Y002954D01*
X004631Y002903D01*
X004671Y002850D01*
X004708Y002795D01*
X004742Y002738D01*
X004772Y002679D01*
X004799Y002619D01*
X004823Y002557D01*
X004843Y002494D01*
X004859Y002430D01*
X004872Y002365D01*
X004882Y002299D01*
X004887Y002233D01*
X004889Y002167D01*
X004889Y000888D01*
X013452Y000888D01*
X013452Y000887D02*
X013491Y000889D01*
X013529Y000895D01*
X013566Y000904D01*
X013603Y000917D01*
X013638Y000934D01*
X013671Y000953D01*
X013702Y000976D01*
X013731Y001002D01*
X013757Y001031D01*
X013780Y001062D01*
X013799Y001095D01*
X013816Y001130D01*
X013829Y001167D01*
X013838Y001204D01*
X013844Y001242D01*
X013846Y001281D01*
X013845Y001281D02*
X013845Y005120D01*
X012763Y005120D01*
X012720Y005122D01*
X012678Y005127D01*
X012636Y005137D01*
X012595Y005150D01*
X012555Y005166D01*
X012517Y005186D01*
X012481Y005209D01*
X012447Y005235D01*
X012415Y005264D01*
X012386Y005296D01*
X012360Y005330D01*
X012337Y005366D01*
X012317Y005404D01*
X012301Y005444D01*
X012288Y005485D01*
X012278Y005527D01*
X012273Y005569D01*
X012271Y005612D01*
X012273Y005655D01*
X012278Y005697D01*
X012288Y005739D01*
X012301Y005780D01*
X012317Y005820D01*
X012337Y005858D01*
X012360Y005894D01*
X012386Y005928D01*
X012415Y005960D01*
X012447Y005989D01*
X012481Y006015D01*
X012517Y006038D01*
X012555Y006058D01*
X012595Y006074D01*
X012636Y006087D01*
X012678Y006097D01*
X012720Y006102D01*
X012763Y006104D01*
X013845Y006104D01*
X013845Y012994D01*
X012763Y012994D01*
X012720Y012996D01*
X012678Y013001D01*
X012636Y013011D01*
X012595Y013024D01*
X012555Y013040D01*
X012517Y013060D01*
X012481Y013083D01*
X012447Y013109D01*
X012415Y013138D01*
X012386Y013170D01*
X012360Y013204D01*
X012337Y013240D01*
X012317Y013278D01*
X012301Y013318D01*
X012288Y013359D01*
X012278Y013401D01*
X012273Y013443D01*
X012271Y013486D01*
X012273Y013529D01*
X012278Y013571D01*
X012288Y013613D01*
X012301Y013654D01*
X012317Y013694D01*
X012337Y013732D01*
X012360Y013768D01*
X012386Y013802D01*
X012415Y013834D01*
X012447Y013863D01*
X012481Y013889D01*
X012517Y013912D01*
X012555Y013932D01*
X012595Y013948D01*
X012636Y013961D01*
X012678Y013971D01*
X012720Y013976D01*
X012763Y013978D01*
X013845Y013978D01*
X013845Y015750D01*
X012566Y015750D01*
X012500Y015752D01*
X012434Y015757D01*
X012368Y015767D01*
X012303Y015780D01*
X012239Y015796D01*
X012176Y015816D01*
X012114Y015840D01*
X012054Y015867D01*
X011995Y015897D01*
X011938Y015931D01*
X011883Y015968D01*
X011830Y016008D01*
X011779Y016050D01*
X011731Y016096D01*
X011685Y016144D01*
X011643Y016195D01*
X011603Y016248D01*
X011566Y016303D01*
X011532Y016360D01*
X011502Y016419D01*
X011475Y016479D01*
X011451Y016541D01*
X011431Y016604D01*
X011415Y016668D01*
X011402Y016733D01*
X011392Y016799D01*
X011387Y016865D01*
X011385Y016931D01*
X011385Y018210D01*
X002822Y018210D01*
X002822Y018211D02*
X002783Y018209D01*
X002745Y018203D01*
X002708Y018194D01*
X002671Y018181D01*
X002636Y018164D01*
X002603Y018145D01*
X002572Y018122D01*
X002543Y018096D01*
X002517Y018067D01*
X002494Y018036D01*
X002475Y018003D01*
X002458Y017968D01*
X002445Y017931D01*
X002436Y017894D01*
X002430Y017856D01*
X002428Y017817D01*
X002428Y013978D01*
X003511Y013978D01*
X003554Y013976D01*
X003596Y013971D01*
X003638Y013961D01*
X003679Y013948D01*
X003719Y013932D01*
X003757Y013912D01*
X003793Y013889D01*
X003827Y013863D01*
X003859Y013834D01*
X003888Y013802D01*
X003914Y013768D01*
X003937Y013732D01*
X003957Y013694D01*
X003973Y013654D01*
X003986Y013613D01*
X003996Y013571D01*
X004001Y013529D01*
X004003Y013486D01*
X004001Y013443D01*
X003996Y013401D01*
X003986Y013359D01*
X003973Y013318D01*
X003957Y013278D01*
X003937Y013240D01*
X003914Y013204D01*
X003888Y013170D01*
X003859Y013138D01*
X003827Y013109D01*
X003793Y013083D01*
X003757Y013060D01*
X003719Y013040D01*
X003679Y013024D01*
X003638Y013011D01*
X003596Y013001D01*
X003554Y012996D01*
X003511Y012994D01*
X002428Y012994D01*
X002428Y006104D01*
X003511Y006104D01*
X003554Y006102D01*
X003596Y006097D01*
X003638Y006087D01*
X003679Y006074D01*
X003719Y006058D01*
X003757Y006038D01*
X003793Y006015D01*
X003827Y005989D01*
X003859Y005960D01*
X003888Y005928D01*
X003914Y005894D01*
X003937Y005858D01*
X003957Y005820D01*
X003973Y005780D01*
X003986Y005739D01*
X003996Y005697D01*
X004001Y005655D01*
X004003Y005612D01*
X004001Y005569D01*
X003996Y005527D01*
X003986Y005485D01*
X003973Y005444D01*
X003957Y005404D01*
X003937Y005366D01*
X003914Y005330D01*
X003888Y005296D01*
X003859Y005264D01*
X003827Y005235D01*
X003793Y005209D01*
X003757Y005186D01*
X003719Y005166D01*
X003679Y005150D01*
X003638Y005137D01*
X003596Y005127D01*
X003554Y005122D01*
X003511Y005120D01*
X002428Y005120D01*
X002428Y003348D01*
X007094Y002659D02*
X007096Y002685D01*
X007102Y002711D01*
X007112Y002736D01*
X007125Y002759D01*
X007141Y002779D01*
X007161Y002797D01*
X007183Y002812D01*
X007206Y002824D01*
X007232Y002832D01*
X007258Y002836D01*
X007284Y002836D01*
X007310Y002832D01*
X007336Y002824D01*
X007360Y002812D01*
X007381Y002797D01*
X007401Y002779D01*
X007417Y002759D01*
X007430Y002736D01*
X007440Y002711D01*
X007446Y002685D01*
X007448Y002659D01*
X007446Y002633D01*
X007440Y002607D01*
X007430Y002582D01*
X007417Y002559D01*
X007401Y002539D01*
X007381Y002521D01*
X007359Y002506D01*
X007336Y002494D01*
X007310Y002486D01*
X007284Y002482D01*
X007258Y002482D01*
X007232Y002486D01*
X007206Y002494D01*
X007182Y002506D01*
X007161Y002521D01*
X007141Y002539D01*
X007125Y002559D01*
X007112Y002582D01*
X007102Y002607D01*
X007096Y002633D01*
X007094Y002659D01*
X008826Y002659D02*
X008828Y002685D01*
X008834Y002711D01*
X008844Y002736D01*
X008857Y002759D01*
X008873Y002779D01*
X008893Y002797D01*
X008915Y002812D01*
X008938Y002824D01*
X008964Y002832D01*
X008990Y002836D01*
X009016Y002836D01*
X009042Y002832D01*
X009068Y002824D01*
X009092Y002812D01*
X009113Y002797D01*
X009133Y002779D01*
X009149Y002759D01*
X009162Y002736D01*
X009172Y002711D01*
X009178Y002685D01*
X009180Y002659D01*
X009178Y002633D01*
X009172Y002607D01*
X009162Y002582D01*
X009149Y002559D01*
X009133Y002539D01*
X009113Y002521D01*
X009091Y002506D01*
X009068Y002494D01*
X009042Y002486D01*
X009016Y002482D01*
X008990Y002482D01*
X008964Y002486D01*
X008938Y002494D01*
X008914Y002506D01*
X008893Y002521D01*
X008873Y002539D01*
X008857Y002559D01*
X008844Y002582D01*
X008834Y002607D01*
X008828Y002633D01*
X008826Y002659D01*
D11*
X004003Y015045D03*
X004003Y016045D03*
X004003Y017045D03*
X003019Y017045D03*
X003019Y016045D03*
X003019Y015045D03*
D12*
X008137Y013348D03*
X008137Y001813D03*
D13*
X009515Y002856D03*
X009908Y002856D03*
X010302Y002856D03*
X010302Y004825D03*
X009908Y004825D03*
X009515Y004825D03*
X011975Y006990D03*
X011975Y008466D03*
X010696Y009352D03*
X010893Y011124D03*
X011680Y011321D03*
X011975Y011911D03*
X011975Y012305D03*
X011975Y012699D03*
X011975Y013092D03*
X011975Y013486D03*
X011975Y013880D03*
X011975Y014273D03*
X011975Y014667D03*
X011975Y015061D03*
X011975Y015454D03*
X013058Y015356D03*
X013452Y015356D03*
X013452Y014962D03*
X013452Y014273D03*
X013452Y012699D03*
X013452Y009549D03*
X013452Y006399D03*
X013452Y004825D03*
X013452Y002069D03*
X013452Y001675D03*
X013452Y001281D03*
X013058Y001281D03*
X013058Y001675D03*
X012664Y001281D03*
X006759Y002856D03*
X006365Y002856D03*
X005971Y002856D03*
X005282Y001675D03*
X005282Y001281D03*
X005676Y001281D03*
X003215Y003742D03*
X002822Y003742D03*
X002822Y004136D03*
X002822Y004825D03*
X004200Y006596D03*
X003215Y006793D03*
X004889Y008565D03*
X005578Y009549D03*
X006168Y008565D03*
X007349Y010139D03*
X007940Y009549D03*
X007546Y009254D03*
X008924Y009352D03*
X009121Y011911D03*
X010204Y014569D03*
X009908Y014864D03*
X009712Y015454D03*
X009712Y015848D03*
X010105Y015848D03*
X010105Y015454D03*
X009318Y015454D03*
X009318Y015848D03*
X008924Y015848D03*
X008924Y015454D03*
X008530Y015454D03*
X008137Y015454D03*
X008137Y015848D03*
X008530Y015848D03*
X008530Y016242D03*
X008137Y016242D03*
X008137Y016636D03*
X008137Y017029D03*
X008530Y017029D03*
X008530Y016636D03*
X008530Y017423D03*
X008137Y017423D03*
X008137Y017817D03*
X008530Y017817D03*
X007743Y017817D03*
X007349Y017817D03*
X005381Y016340D03*
X005381Y015848D03*
X004790Y017817D03*
X004397Y017817D03*
X003215Y017817D03*
X002822Y017817D03*
X002822Y014273D03*
X002822Y012699D03*
X003019Y011124D03*
X004200Y010730D03*
X003019Y009352D03*
X005184Y012895D03*
X006168Y011517D03*
X006562Y011222D03*
X007152Y011911D03*
X007152Y013486D03*
X006759Y004825D03*
X006365Y004825D03*
X005971Y004825D03*
D14*
X005283Y004052D02*
X013665Y004052D01*
X013665Y003894D02*
X005441Y003894D01*
X005531Y003804D02*
X004813Y004522D01*
X004813Y005900D01*
X004124Y006589D01*
X003996Y006718D01*
X003011Y006718D01*
X002845Y006884D01*
X002845Y010639D01*
X003065Y010859D01*
X003071Y010859D01*
X003169Y010899D01*
X003243Y010974D01*
X003284Y011071D01*
X003284Y011176D01*
X003243Y011274D01*
X003169Y011348D01*
X003071Y011389D01*
X002966Y011389D01*
X002869Y011348D01*
X002794Y011274D01*
X002754Y011176D01*
X002754Y011170D01*
X002608Y011024D01*
X002608Y012814D01*
X003644Y012814D01*
X003891Y012916D01*
X003891Y012916D01*
X004081Y013105D01*
X004183Y013352D01*
X004183Y013620D01*
X004081Y013867D01*
X003891Y014056D01*
X003644Y014158D01*
X002608Y014158D01*
X002608Y014742D01*
X002630Y014713D01*
X002686Y014656D01*
X002751Y014609D01*
X002823Y014572D01*
X002899Y014548D01*
X002978Y014535D01*
X003000Y014535D01*
X003000Y015027D01*
X003037Y015027D01*
X003037Y015063D01*
X003493Y015063D01*
X003984Y015063D01*
X003984Y015027D01*
X003037Y015027D01*
X003037Y014535D01*
X003059Y014535D01*
X003138Y014548D01*
X003214Y014572D01*
X003286Y014609D01*
X003351Y014656D01*
X003408Y014713D01*
X003455Y014778D01*
X003491Y014849D01*
X003511Y014909D01*
X003530Y014849D01*
X003567Y014778D01*
X003614Y014713D01*
X003671Y014656D01*
X003736Y014609D01*
X003807Y014572D01*
X003883Y014548D01*
X003963Y014535D01*
X003984Y014535D01*
X003984Y015027D01*
X004021Y015027D01*
X004021Y014535D01*
X004043Y014535D01*
X004122Y014548D01*
X004199Y014572D01*
X004270Y014609D01*
X004335Y014656D01*
X004392Y014713D01*
X004439Y014778D01*
X004476Y014849D01*
X004500Y014926D01*
X004502Y014935D01*
X004502Y011439D01*
X004613Y011327D01*
X004908Y011032D01*
X006377Y011032D01*
X006412Y010998D01*
X006509Y010957D01*
X006615Y010957D01*
X006712Y010998D01*
X006787Y011072D01*
X006827Y011169D01*
X006827Y011275D01*
X006787Y011372D01*
X006712Y011447D01*
X006615Y011487D01*
X006509Y011487D01*
X006429Y011454D01*
X006433Y011465D01*
X006433Y011570D01*
X006393Y011668D01*
X006318Y011742D01*
X006221Y011782D01*
X006116Y011782D01*
X006018Y011742D01*
X005983Y011707D01*
X005164Y011707D01*
X005079Y011793D01*
X005079Y016419D01*
X004882Y016616D01*
X004771Y016727D01*
X004350Y016727D01*
X004401Y016779D01*
X004473Y016952D01*
X004473Y017139D01*
X004401Y017311D01*
X004269Y017443D01*
X004096Y017515D01*
X003909Y017515D01*
X003737Y017443D01*
X003604Y017311D01*
X003533Y017139D01*
X003533Y016952D01*
X003604Y016779D01*
X003656Y016727D01*
X003605Y016727D01*
X003457Y016875D01*
X003489Y016952D01*
X003489Y017139D01*
X003417Y017311D01*
X003285Y017443D01*
X003112Y017515D01*
X002925Y017515D01*
X002752Y017443D01*
X002620Y017311D01*
X002608Y017282D01*
X002608Y017817D01*
X002612Y017858D01*
X002644Y017935D01*
X002703Y017994D01*
X002780Y018026D01*
X002822Y018030D01*
X008647Y018030D01*
X008647Y016012D01*
X008694Y015965D01*
X011483Y015965D01*
X011483Y015848D01*
X011740Y015848D01*
X011940Y015703D01*
X011940Y015703D01*
X012350Y015570D01*
X013665Y015570D01*
X013665Y014158D01*
X012629Y014158D01*
X012382Y014056D01*
X012193Y013867D01*
X012193Y013867D01*
X012091Y013620D01*
X012091Y013352D01*
X012193Y013105D01*
X012382Y012916D01*
X012629Y012814D01*
X013665Y012814D01*
X013665Y006284D01*
X012629Y006284D01*
X012382Y006182D01*
X012193Y005993D01*
X012193Y005993D01*
X012091Y005746D01*
X012091Y005478D01*
X012193Y005231D01*
X012382Y005042D01*
X012629Y004940D01*
X013665Y004940D01*
X013665Y001281D01*
X013661Y001240D01*
X013629Y001163D01*
X013570Y001104D01*
X013493Y001072D01*
X013452Y001068D01*
X005069Y001068D01*
X005069Y002383D01*
X004935Y002793D01*
X004682Y003141D01*
X004682Y003141D01*
X004333Y003395D01*
X003923Y003528D01*
X002608Y003528D01*
X002608Y004940D01*
X003644Y004940D01*
X003891Y005042D01*
X003891Y005042D01*
X004081Y005231D01*
X004183Y005478D01*
X004183Y005746D01*
X004081Y005993D01*
X003891Y006182D01*
X003660Y006278D01*
X003813Y006278D01*
X004373Y005718D01*
X004373Y004340D01*
X004502Y004211D01*
X002608Y004211D01*
X002608Y004369D02*
X004373Y004369D01*
X004373Y004528D02*
X002608Y004528D01*
X002608Y004686D02*
X004373Y004686D01*
X004373Y004845D02*
X002608Y004845D01*
X002608Y004052D02*
X004661Y004052D01*
X004819Y003894D02*
X002608Y003894D01*
X002608Y003735D02*
X004978Y003735D01*
X005136Y003577D02*
X002608Y003577D01*
X003798Y005003D02*
X004373Y005003D01*
X004373Y005162D02*
X004011Y005162D01*
X004081Y005231D02*
X004081Y005231D01*
X004081Y005231D01*
X004118Y005320D02*
X004373Y005320D01*
X004373Y005479D02*
X004183Y005479D01*
X004183Y005637D02*
X004373Y005637D01*
X004295Y005796D02*
X004162Y005796D01*
X004137Y005954D02*
X004096Y005954D01*
X004081Y005993D02*
X004081Y005993D01*
X003978Y006113D02*
X003960Y006113D01*
X003891Y006182D02*
X003891Y006182D01*
X003820Y006271D02*
X003675Y006271D01*
X003904Y006498D02*
X002920Y006498D01*
X002625Y006793D01*
X002625Y010730D01*
X003019Y011124D01*
X003094Y010868D02*
X008321Y010868D01*
X008479Y010709D02*
X002915Y010709D01*
X002845Y010551D02*
X008638Y010551D01*
X008734Y010454D02*
X008734Y009537D01*
X008699Y009502D01*
X008659Y009405D01*
X008659Y009299D01*
X008699Y009202D01*
X008774Y009127D01*
X008871Y009087D01*
X008977Y009087D01*
X009074Y009127D01*
X009149Y009202D01*
X009189Y009299D01*
X009189Y009405D01*
X009149Y009502D01*
X009114Y009537D01*
X009114Y009878D01*
X009830Y009162D01*
X010511Y009162D01*
X010546Y009127D01*
X010643Y009087D01*
X010749Y009087D01*
X010846Y009127D01*
X010920Y009202D01*
X010961Y009299D01*
X010961Y009405D01*
X010920Y009502D01*
X010846Y009577D01*
X010749Y009617D01*
X010643Y009617D01*
X010546Y009577D01*
X010511Y009542D01*
X009987Y009542D01*
X009311Y010218D01*
X009311Y010809D01*
X007463Y012656D01*
X008057Y012656D01*
X008057Y013268D01*
X008217Y013268D01*
X008217Y013428D01*
X009025Y013428D01*
X009025Y013884D01*
X009013Y013929D01*
X008989Y013970D01*
X008956Y014004D01*
X008915Y014028D01*
X008869Y014040D01*
X008217Y014040D01*
X008217Y013428D01*
X008057Y013428D01*
X008057Y014040D01*
X007404Y014040D01*
X007359Y014028D01*
X007318Y014004D01*
X007284Y013970D01*
X007260Y013929D01*
X007248Y013884D01*
X007248Y013428D01*
X008057Y013428D01*
X008057Y013268D01*
X007248Y013268D01*
X007248Y012872D01*
X005965Y014155D01*
X005965Y016025D01*
X005646Y016344D01*
X005646Y016393D01*
X005605Y016490D01*
X005531Y016565D01*
X005434Y016605D01*
X005328Y016605D01*
X005231Y016565D01*
X005156Y016490D01*
X005116Y016393D01*
X005116Y016288D01*
X005156Y016190D01*
X005231Y016116D01*
X005282Y016094D01*
X005231Y016073D01*
X005156Y015998D01*
X005116Y015901D01*
X005116Y015795D01*
X005156Y015698D01*
X005231Y015624D01*
X005328Y015583D01*
X005377Y015583D01*
X005388Y015573D01*
X005388Y013801D01*
X005499Y013690D01*
X008734Y010454D01*
X008734Y010392D02*
X002845Y010392D01*
X002845Y010234D02*
X008734Y010234D01*
X008734Y010075D02*
X002845Y010075D01*
X002845Y009917D02*
X008734Y009917D01*
X008734Y009758D02*
X008105Y009758D01*
X008090Y009774D02*
X007993Y009814D01*
X007887Y009814D01*
X007790Y009774D01*
X007755Y009739D01*
X005762Y009739D01*
X005728Y009774D01*
X005630Y009814D01*
X005525Y009814D01*
X005428Y009774D01*
X005353Y009699D01*
X005313Y009602D01*
X005313Y009496D01*
X005353Y009399D01*
X005428Y009324D01*
X005525Y009284D01*
X005630Y009284D01*
X005728Y009324D01*
X005762Y009359D01*
X007755Y009359D01*
X007790Y009324D01*
X007887Y009284D01*
X007936Y009284D01*
X008649Y008572D01*
X010223Y008572D01*
X010519Y008276D01*
X011791Y008276D01*
X011825Y008242D01*
X011923Y008201D01*
X012028Y008201D01*
X012125Y008242D01*
X012200Y008316D01*
X012240Y008414D01*
X012240Y008519D01*
X012200Y008616D01*
X012125Y008691D01*
X012028Y008731D01*
X011923Y008731D01*
X011825Y008691D01*
X011791Y008656D01*
X011476Y008656D01*
X011476Y011150D01*
X011530Y011096D01*
X011627Y011056D01*
X011733Y011056D01*
X011830Y011096D01*
X011905Y011170D01*
X011945Y011268D01*
X011945Y011373D01*
X011905Y011471D01*
X011830Y011545D01*
X011733Y011586D01*
X011684Y011586D01*
X010295Y012974D01*
X010295Y014320D01*
X010354Y014344D01*
X010428Y014419D01*
X010469Y014516D01*
X010469Y014621D01*
X010428Y014719D01*
X010354Y014793D01*
X010256Y014834D01*
X010173Y014834D01*
X010173Y014917D01*
X010133Y015014D01*
X010059Y015089D01*
X009961Y015129D01*
X009856Y015129D01*
X009758Y015089D01*
X009684Y015014D01*
X009643Y014917D01*
X009643Y014811D01*
X009684Y014714D01*
X009718Y014679D01*
X009718Y012620D01*
X011096Y011242D01*
X011096Y008664D01*
X010668Y008664D01*
X010492Y008840D01*
X010381Y008952D01*
X008806Y008952D01*
X008205Y009553D01*
X008205Y009602D01*
X008165Y009699D01*
X008090Y009774D01*
X008205Y009600D02*
X008734Y009600D01*
X008674Y009441D02*
X008316Y009441D01*
X008475Y009283D02*
X008666Y009283D01*
X008633Y009124D02*
X008781Y009124D01*
X008792Y008966D02*
X011096Y008966D01*
X011096Y009124D02*
X010839Y009124D01*
X010954Y009283D02*
X011096Y009283D01*
X011096Y009441D02*
X010946Y009441D01*
X011096Y009600D02*
X010790Y009600D01*
X010602Y009600D02*
X009929Y009600D01*
X009771Y009758D02*
X011096Y009758D01*
X011096Y009917D02*
X009612Y009917D01*
X009454Y010075D02*
X011096Y010075D01*
X011096Y010234D02*
X009311Y010234D01*
X009311Y010392D02*
X011096Y010392D01*
X011096Y010551D02*
X009311Y010551D01*
X009311Y010709D02*
X011096Y010709D01*
X011096Y010868D02*
X009252Y010868D01*
X009093Y011026D02*
X011096Y011026D01*
X011096Y011185D02*
X008935Y011185D01*
X008776Y011343D02*
X010995Y011343D01*
X010836Y011502D02*
X008618Y011502D01*
X008459Y011660D02*
X010678Y011660D01*
X010519Y011819D02*
X008301Y011819D01*
X008142Y011977D02*
X010361Y011977D01*
X010202Y012136D02*
X007984Y012136D01*
X007825Y012294D02*
X010044Y012294D01*
X009885Y012453D02*
X007667Y012453D01*
X007508Y012611D02*
X009727Y012611D01*
X009718Y012770D02*
X009014Y012770D01*
X009013Y012767D02*
X009025Y012813D01*
X009025Y013268D01*
X008217Y013268D01*
X008217Y012656D01*
X008869Y012656D01*
X008915Y012669D01*
X008956Y012692D01*
X008989Y012726D01*
X009013Y012767D01*
X009025Y012928D02*
X009718Y012928D01*
X009718Y013087D02*
X009025Y013087D01*
X009025Y013245D02*
X009718Y013245D01*
X009718Y013404D02*
X008217Y013404D01*
X008217Y013562D02*
X008057Y013562D01*
X008057Y013404D02*
X006716Y013404D01*
X006557Y013562D02*
X007248Y013562D01*
X007248Y013721D02*
X006399Y013721D01*
X006240Y013879D02*
X007248Y013879D01*
X007397Y014038D02*
X006082Y014038D01*
X005965Y014196D02*
X009718Y014196D01*
X009718Y014038D02*
X008877Y014038D01*
X009025Y013879D02*
X009718Y013879D01*
X009718Y013721D02*
X009025Y013721D01*
X009025Y013562D02*
X009718Y013562D01*
X010295Y013562D02*
X012091Y013562D01*
X012091Y013404D02*
X010295Y013404D01*
X010295Y013245D02*
X012135Y013245D01*
X012193Y013105D02*
X012193Y013105D01*
X012211Y013087D02*
X010295Y013087D01*
X010341Y012928D02*
X012370Y012928D01*
X012382Y012916D02*
X012382Y012916D01*
X012133Y013721D02*
X010295Y013721D01*
X010295Y013879D02*
X012206Y013879D01*
X012364Y014038D02*
X010295Y014038D01*
X010295Y014196D02*
X013665Y014196D01*
X013665Y014355D02*
X010365Y014355D01*
X010468Y014513D02*
X013665Y014513D01*
X013665Y014672D02*
X010448Y014672D01*
X010264Y014830D02*
X013665Y014830D01*
X013665Y014989D02*
X010143Y014989D01*
X009718Y014672D02*
X005965Y014672D01*
X005965Y014830D02*
X009643Y014830D01*
X009673Y014989D02*
X005965Y014989D01*
X005965Y015147D02*
X013665Y015147D01*
X013665Y015306D02*
X005965Y015306D01*
X005965Y015464D02*
X013665Y015464D01*
X012382Y014056D02*
X012382Y014056D01*
X012187Y015623D02*
X005965Y015623D01*
X005965Y015781D02*
X011832Y015781D01*
X011483Y015940D02*
X005965Y015940D01*
X005891Y016098D02*
X008647Y016098D01*
X008647Y016257D02*
X005733Y016257D01*
X005637Y016415D02*
X008647Y016415D01*
X008647Y016574D02*
X005509Y016574D01*
X005252Y016574D02*
X004924Y016574D01*
X005079Y016415D02*
X005125Y016415D01*
X005129Y016257D02*
X005079Y016257D01*
X005079Y016098D02*
X005272Y016098D01*
X005132Y015940D02*
X005079Y015940D01*
X005079Y015781D02*
X005122Y015781D01*
X005079Y015623D02*
X005232Y015623D01*
X005079Y015464D02*
X005388Y015464D01*
X005388Y015306D02*
X005079Y015306D01*
X005079Y015147D02*
X005388Y015147D01*
X005388Y014989D02*
X005079Y014989D01*
X005079Y014830D02*
X005388Y014830D01*
X005388Y014672D02*
X005079Y014672D01*
X005079Y014513D02*
X005388Y014513D01*
X005388Y014355D02*
X005079Y014355D01*
X005079Y014196D02*
X005388Y014196D01*
X005388Y014038D02*
X005079Y014038D01*
X005079Y013879D02*
X005388Y013879D01*
X005468Y013721D02*
X005079Y013721D01*
X005079Y013562D02*
X005626Y013562D01*
X005785Y013404D02*
X005079Y013404D01*
X005079Y013245D02*
X005943Y013245D01*
X006102Y013087D02*
X005079Y013087D01*
X005079Y012928D02*
X006260Y012928D01*
X006419Y012770D02*
X005079Y012770D01*
X005079Y012611D02*
X006577Y012611D01*
X006736Y012453D02*
X005079Y012453D01*
X005079Y012294D02*
X006894Y012294D01*
X007053Y012136D02*
X005079Y012136D01*
X005079Y011977D02*
X007211Y011977D01*
X007370Y011819D02*
X005079Y011819D01*
X004502Y011819D02*
X002608Y011819D01*
X002608Y011977D02*
X004502Y011977D01*
X004502Y012136D02*
X002608Y012136D01*
X002608Y012294D02*
X004502Y012294D01*
X004502Y012453D02*
X002608Y012453D01*
X002608Y012611D02*
X004502Y012611D01*
X004502Y012770D02*
X002608Y012770D01*
X002608Y011660D02*
X004502Y011660D01*
X004502Y011502D02*
X002608Y011502D01*
X002608Y011343D02*
X002864Y011343D01*
X002757Y011185D02*
X002608Y011185D01*
X002608Y011026D02*
X002610Y011026D01*
X003174Y011343D02*
X004597Y011343D01*
X004756Y011185D02*
X003280Y011185D01*
X003265Y011026D02*
X006383Y011026D01*
X006433Y011502D02*
X007687Y011502D01*
X007845Y011343D02*
X006799Y011343D01*
X006827Y011185D02*
X008004Y011185D01*
X008162Y011026D02*
X006741Y011026D01*
X006396Y011660D02*
X007528Y011660D01*
X008057Y012770D02*
X008217Y012770D01*
X008217Y012928D02*
X008057Y012928D01*
X008057Y013087D02*
X008217Y013087D01*
X008217Y013245D02*
X008057Y013245D01*
X008057Y013721D02*
X008217Y013721D01*
X008217Y013879D02*
X008057Y013879D01*
X008057Y014038D02*
X008217Y014038D01*
X007248Y013245D02*
X006874Y013245D01*
X007033Y013087D02*
X007248Y013087D01*
X007248Y012928D02*
X007191Y012928D01*
X005965Y014355D02*
X009718Y014355D01*
X009718Y014513D02*
X005965Y014513D01*
X004502Y014513D02*
X002608Y014513D01*
X002608Y014355D02*
X004502Y014355D01*
X004502Y014196D02*
X002608Y014196D01*
X002608Y014672D02*
X002670Y014672D01*
X003000Y014672D02*
X003037Y014672D01*
X003037Y014830D02*
X003000Y014830D01*
X003000Y014989D02*
X003037Y014989D01*
X003037Y015063D02*
X003000Y015063D01*
X003000Y015555D01*
X002978Y015555D01*
X002899Y015542D01*
X002823Y015518D01*
X002751Y015481D01*
X002686Y015434D01*
X002630Y015377D01*
X002608Y015348D01*
X002608Y015808D01*
X002620Y015779D01*
X002752Y015647D01*
X002925Y015575D01*
X003112Y015575D01*
X003188Y015607D01*
X003432Y015363D01*
X003603Y015363D01*
X003567Y015312D01*
X003530Y015241D01*
X003511Y015181D01*
X003491Y015241D01*
X003455Y015312D01*
X003408Y015377D01*
X003351Y015434D01*
X003286Y015481D01*
X003214Y015518D01*
X003138Y015542D01*
X003059Y015555D01*
X003037Y015555D01*
X003037Y015063D01*
X003037Y015147D02*
X003000Y015147D01*
X003000Y015306D02*
X003037Y015306D01*
X003037Y015464D02*
X003000Y015464D01*
X002809Y015623D02*
X002608Y015623D01*
X002608Y015781D02*
X002619Y015781D01*
X002608Y015464D02*
X002728Y015464D01*
X003309Y015464D02*
X003330Y015464D01*
X003458Y015306D02*
X003563Y015306D01*
X003540Y014830D02*
X003482Y014830D01*
X003367Y014672D02*
X003655Y014672D01*
X003984Y014672D02*
X004021Y014672D01*
X004021Y014830D02*
X003984Y014830D01*
X003984Y014989D02*
X004021Y014989D01*
X004351Y014672D02*
X004502Y014672D01*
X004502Y014830D02*
X004466Y014830D01*
X004502Y014038D02*
X003909Y014038D01*
X003891Y014056D02*
X003891Y014056D01*
X004068Y013879D02*
X004502Y013879D01*
X004502Y013721D02*
X004141Y013721D01*
X004081Y013867D02*
X004081Y013867D01*
X004183Y013562D02*
X004502Y013562D01*
X004502Y013404D02*
X004183Y013404D01*
X004139Y013245D02*
X004502Y013245D01*
X004502Y013087D02*
X004062Y013087D01*
X004081Y013105D02*
X004081Y013105D01*
X003904Y012928D02*
X004502Y012928D01*
X005412Y009758D02*
X002845Y009758D01*
X002845Y009600D02*
X005313Y009600D01*
X005335Y009441D02*
X002845Y009441D01*
X002845Y009283D02*
X007937Y009283D01*
X008096Y009124D02*
X002845Y009124D01*
X002845Y008966D02*
X008254Y008966D01*
X008413Y008807D02*
X002845Y008807D01*
X002845Y008649D02*
X008571Y008649D01*
X009067Y009124D02*
X010553Y009124D01*
X010525Y008807D02*
X011096Y008807D01*
X011476Y008807D02*
X013665Y008807D01*
X013665Y008649D02*
X012167Y008649D01*
X012240Y008490D02*
X013665Y008490D01*
X013665Y008332D02*
X012207Y008332D01*
X011476Y008966D02*
X013665Y008966D01*
X013665Y009124D02*
X011476Y009124D01*
X011476Y009283D02*
X013665Y009283D01*
X013665Y009441D02*
X011476Y009441D01*
X011476Y009600D02*
X013665Y009600D01*
X013665Y009758D02*
X011476Y009758D01*
X011476Y009917D02*
X013665Y009917D01*
X013665Y010075D02*
X011476Y010075D01*
X011476Y010234D02*
X013665Y010234D01*
X013665Y010392D02*
X011476Y010392D01*
X011476Y010551D02*
X013665Y010551D01*
X013665Y010709D02*
X011476Y010709D01*
X011476Y010868D02*
X013665Y010868D01*
X013665Y011026D02*
X011476Y011026D01*
X011911Y011185D02*
X013665Y011185D01*
X013665Y011343D02*
X011945Y011343D01*
X011873Y011502D02*
X013665Y011502D01*
X013665Y011660D02*
X011609Y011660D01*
X011450Y011819D02*
X013665Y011819D01*
X013665Y011977D02*
X011292Y011977D01*
X011133Y012136D02*
X013665Y012136D01*
X013665Y012294D02*
X010975Y012294D01*
X010816Y012453D02*
X013665Y012453D01*
X013665Y012611D02*
X010658Y012611D01*
X010499Y012770D02*
X013665Y012770D01*
X013665Y008173D02*
X002845Y008173D01*
X002845Y008015D02*
X013665Y008015D01*
X013665Y007856D02*
X002845Y007856D01*
X002845Y007698D02*
X013665Y007698D01*
X013665Y007539D02*
X002845Y007539D01*
X002845Y007381D02*
X013665Y007381D01*
X013665Y007222D02*
X002845Y007222D01*
X002845Y007064D02*
X013665Y007064D01*
X013665Y006905D02*
X002845Y006905D01*
X002982Y006747D02*
X013665Y006747D01*
X013665Y006588D02*
X004125Y006588D01*
X004283Y006430D02*
X013665Y006430D01*
X012599Y006271D02*
X004442Y006271D01*
X004600Y006113D02*
X012313Y006113D01*
X012382Y006182D02*
X012382Y006182D01*
X012177Y005954D02*
X004759Y005954D01*
X004813Y005796D02*
X012111Y005796D01*
X012091Y005637D02*
X004813Y005637D01*
X004813Y005479D02*
X012091Y005479D01*
X012156Y005320D02*
X004813Y005320D01*
X004813Y005162D02*
X012262Y005162D01*
X012193Y005231D02*
X012193Y005231D01*
X012382Y005042D02*
X012382Y005042D01*
X012475Y005003D02*
X004813Y005003D01*
X004813Y004845D02*
X013665Y004845D01*
X013665Y004686D02*
X004813Y004686D01*
X004813Y004528D02*
X013665Y004528D01*
X013665Y004369D02*
X004966Y004369D01*
X005124Y004211D02*
X013665Y004211D01*
X013665Y003735D02*
X007568Y003735D01*
X007500Y003804D02*
X005531Y003804D01*
X005440Y003584D02*
X007408Y003584D01*
X008137Y002856D01*
X008137Y001813D01*
X008357Y002465D02*
X008357Y002947D01*
X008228Y003076D01*
X007500Y003804D01*
X007727Y003577D02*
X013665Y003577D01*
X013665Y003418D02*
X007885Y003418D01*
X008044Y003260D02*
X013665Y003260D01*
X013665Y003101D02*
X008202Y003101D01*
X008357Y002943D02*
X008782Y002943D01*
X008801Y002962D02*
X008700Y002862D01*
X008646Y002730D01*
X008646Y002588D01*
X008697Y002465D01*
X008357Y002465D01*
X008357Y002467D02*
X008696Y002467D01*
X008646Y002626D02*
X008357Y002626D01*
X008357Y002784D02*
X008668Y002784D01*
X008801Y002962D02*
X008932Y003016D01*
X009074Y003016D01*
X009205Y002962D01*
X009306Y002862D01*
X009360Y002730D01*
X009360Y002588D01*
X009306Y002457D01*
X009205Y002356D01*
X009074Y002302D01*
X008985Y002302D01*
X008985Y001243D01*
X008903Y001161D01*
X007370Y001161D01*
X007288Y001243D01*
X007288Y002302D01*
X007200Y002302D01*
X007068Y002356D01*
X006968Y002457D01*
X006913Y002588D01*
X006913Y002730D01*
X006968Y002862D01*
X007068Y002962D01*
X007200Y003016D01*
X007342Y003016D01*
X007473Y002962D01*
X007573Y002862D01*
X007628Y002730D01*
X007628Y002588D01*
X007577Y002465D01*
X007917Y002465D01*
X007917Y002765D01*
X007317Y003364D01*
X005349Y003364D01*
X005220Y003493D01*
X004502Y004211D01*
X004593Y004431D02*
X004593Y005809D01*
X003904Y006498D01*
X002845Y008332D02*
X010463Y008332D01*
X010304Y008490D02*
X002845Y008490D01*
X005743Y009758D02*
X007775Y009758D01*
X009114Y009758D02*
X009233Y009758D01*
X009114Y009600D02*
X009392Y009600D01*
X009550Y009441D02*
X009174Y009441D01*
X009182Y009283D02*
X009709Y009283D01*
X007422Y003260D02*
X004519Y003260D01*
X004711Y003101D02*
X007580Y003101D01*
X007492Y002943D02*
X007739Y002943D01*
X007605Y002784D02*
X007897Y002784D01*
X007917Y002626D02*
X007628Y002626D01*
X007578Y002467D02*
X007917Y002467D01*
X007288Y002150D02*
X005069Y002150D01*
X005069Y001992D02*
X007288Y001992D01*
X007288Y001833D02*
X005069Y001833D01*
X005069Y001675D02*
X007288Y001675D01*
X007288Y001516D02*
X005069Y001516D01*
X005069Y001358D02*
X007288Y001358D01*
X007332Y001199D02*
X005069Y001199D01*
X005069Y002309D02*
X007183Y002309D01*
X006963Y002467D02*
X005041Y002467D01*
X005069Y002383D02*
X005069Y002383D01*
X004990Y002626D02*
X006913Y002626D01*
X006936Y002784D02*
X004938Y002784D01*
X004826Y002943D02*
X007049Y002943D01*
X005440Y003584D02*
X004593Y004431D01*
X004261Y003418D02*
X005295Y003418D01*
X008942Y001199D02*
X013645Y001199D01*
X013665Y001358D02*
X008985Y001358D01*
X008985Y001516D02*
X013665Y001516D01*
X013665Y001675D02*
X008985Y001675D01*
X008985Y001833D02*
X013665Y001833D01*
X013665Y001992D02*
X008985Y001992D01*
X008985Y002150D02*
X013665Y002150D01*
X013665Y002309D02*
X009091Y002309D01*
X009310Y002467D02*
X013665Y002467D01*
X013665Y002626D02*
X009360Y002626D01*
X009338Y002784D02*
X013665Y002784D01*
X013665Y002943D02*
X009224Y002943D01*
X008647Y016732D02*
X004355Y016732D01*
X004448Y016891D02*
X008647Y016891D01*
X008647Y017049D02*
X004473Y017049D01*
X004444Y017208D02*
X008647Y017208D01*
X008647Y017366D02*
X004346Y017366D01*
X003660Y017366D02*
X003362Y017366D01*
X003460Y017208D02*
X003562Y017208D01*
X003533Y017049D02*
X003489Y017049D01*
X003464Y016891D02*
X003558Y016891D01*
X003600Y016732D02*
X003651Y016732D01*
X002675Y017366D02*
X002608Y017366D01*
X002608Y017525D02*
X008647Y017525D01*
X008647Y017683D02*
X002608Y017683D01*
X002611Y017842D02*
X008647Y017842D01*
X008647Y018000D02*
X002718Y018000D01*
D15*
X003019Y017045D02*
X003527Y016537D01*
X004692Y016537D01*
X004889Y016340D01*
X004889Y011714D01*
X005086Y011517D01*
X006168Y011517D01*
X006562Y011222D02*
X004987Y011222D01*
X004692Y011517D01*
X004692Y015356D01*
X004495Y015553D01*
X003511Y015553D01*
X003019Y016045D01*
X005381Y015848D02*
X005578Y015651D01*
X005578Y013880D01*
X008924Y010533D01*
X008924Y009352D01*
X008727Y008762D02*
X007940Y009549D01*
X005578Y009549D01*
X008727Y008762D02*
X010302Y008762D01*
X010597Y008466D01*
X010696Y008466D01*
X010704Y008474D01*
X011267Y008474D01*
X011286Y008494D01*
X011286Y011321D01*
X009908Y012699D01*
X009908Y014864D01*
X010204Y014569D02*
X010105Y014470D01*
X010105Y012895D01*
X011680Y011321D01*
X010696Y009352D02*
X009908Y009352D01*
X009121Y010139D01*
X009121Y010730D01*
X005775Y014077D01*
X005775Y015947D01*
X005381Y016340D01*
X010696Y008466D02*
X011975Y008466D01*
M02*
