G75*
G70*
%OFA0B0*%
%FSLAX24Y24*%
%IPPOS*%
%LPD*%
%AMOC8*
5,1,8,0,0,1.08239X$1,22.5*
%
%ADD10C,0.0000*%
%ADD11C,0.0335*%
%ADD12R,0.0630X0.0460*%
%ADD13R,0.0472X0.0472*%
%ADD14R,0.0787X0.0984*%
%ADD15R,0.0787X0.1299*%
%ADD16R,0.0197X0.1220*%
%ADD17R,0.0709X0.0433*%
%ADD18R,0.0945X0.0299*%
%ADD19R,0.0217X0.0472*%
%ADD20R,0.0394X0.0433*%
%ADD21R,0.0433X0.0394*%
%ADD22R,0.0315X0.0551*%
%ADD23R,0.0787X0.0315*%
D10*
X002428Y001468D02*
X002428Y014853D01*
X002979Y014853D02*
X002981Y014903D01*
X002987Y014953D01*
X002997Y015002D01*
X003011Y015050D01*
X003028Y015097D01*
X003049Y015142D01*
X003074Y015186D01*
X003102Y015227D01*
X003134Y015266D01*
X003168Y015303D01*
X003205Y015337D01*
X003245Y015367D01*
X003287Y015394D01*
X003331Y015418D01*
X003377Y015439D01*
X003424Y015455D01*
X003472Y015468D01*
X003522Y015477D01*
X003571Y015482D01*
X003622Y015483D01*
X003672Y015480D01*
X003721Y015473D01*
X003770Y015462D01*
X003818Y015447D01*
X003864Y015429D01*
X003909Y015407D01*
X003952Y015381D01*
X003993Y015352D01*
X004032Y015320D01*
X004068Y015285D01*
X004100Y015247D01*
X004130Y015207D01*
X004157Y015164D01*
X004180Y015120D01*
X004199Y015074D01*
X004215Y015026D01*
X004227Y014977D01*
X004235Y014928D01*
X004239Y014878D01*
X004239Y014828D01*
X004235Y014778D01*
X004227Y014729D01*
X004215Y014680D01*
X004199Y014632D01*
X004180Y014586D01*
X004157Y014542D01*
X004130Y014499D01*
X004100Y014459D01*
X004068Y014421D01*
X004032Y014386D01*
X003993Y014354D01*
X003952Y014325D01*
X003909Y014299D01*
X003864Y014277D01*
X003818Y014259D01*
X003770Y014244D01*
X003721Y014233D01*
X003672Y014226D01*
X003622Y014223D01*
X003571Y014224D01*
X003522Y014229D01*
X003472Y014238D01*
X003424Y014251D01*
X003377Y014267D01*
X003331Y014288D01*
X003287Y014312D01*
X003245Y014339D01*
X003205Y014369D01*
X003168Y014403D01*
X003134Y014440D01*
X003102Y014479D01*
X003074Y014520D01*
X003049Y014564D01*
X003028Y014609D01*
X003011Y014656D01*
X002997Y014704D01*
X002987Y014753D01*
X002981Y014803D01*
X002979Y014853D01*
X002428Y014853D02*
X002430Y014919D01*
X002435Y014985D01*
X002445Y015051D01*
X002458Y015116D01*
X002474Y015180D01*
X002494Y015243D01*
X002518Y015305D01*
X002545Y015365D01*
X002575Y015424D01*
X002609Y015481D01*
X002646Y015536D01*
X002686Y015589D01*
X002728Y015640D01*
X002774Y015688D01*
X002822Y015734D01*
X002873Y015776D01*
X002926Y015816D01*
X002981Y015853D01*
X003038Y015887D01*
X003097Y015917D01*
X003157Y015944D01*
X003219Y015968D01*
X003282Y015988D01*
X003346Y016004D01*
X003411Y016017D01*
X003477Y016027D01*
X003543Y016032D01*
X003609Y016034D01*
X011089Y016034D01*
X011155Y016032D01*
X011221Y016027D01*
X011287Y016017D01*
X011352Y016004D01*
X011416Y015988D01*
X011479Y015968D01*
X011541Y015944D01*
X011601Y015917D01*
X011660Y015887D01*
X011717Y015853D01*
X011772Y015816D01*
X011825Y015776D01*
X011876Y015734D01*
X011924Y015688D01*
X011970Y015640D01*
X012012Y015589D01*
X012052Y015536D01*
X012089Y015481D01*
X012123Y015424D01*
X012153Y015365D01*
X012180Y015305D01*
X012204Y015243D01*
X012224Y015180D01*
X012240Y015116D01*
X012253Y015051D01*
X012263Y014985D01*
X012268Y014919D01*
X012270Y014853D01*
X012271Y014853D02*
X012271Y001468D01*
X010459Y001468D02*
X010461Y001518D01*
X010467Y001568D01*
X010477Y001617D01*
X010491Y001665D01*
X010508Y001712D01*
X010529Y001757D01*
X010554Y001801D01*
X010582Y001842D01*
X010614Y001881D01*
X010648Y001918D01*
X010685Y001952D01*
X010725Y001982D01*
X010767Y002009D01*
X010811Y002033D01*
X010857Y002054D01*
X010904Y002070D01*
X010952Y002083D01*
X011002Y002092D01*
X011051Y002097D01*
X011102Y002098D01*
X011152Y002095D01*
X011201Y002088D01*
X011250Y002077D01*
X011298Y002062D01*
X011344Y002044D01*
X011389Y002022D01*
X011432Y001996D01*
X011473Y001967D01*
X011512Y001935D01*
X011548Y001900D01*
X011580Y001862D01*
X011610Y001822D01*
X011637Y001779D01*
X011660Y001735D01*
X011679Y001689D01*
X011695Y001641D01*
X011707Y001592D01*
X011715Y001543D01*
X011719Y001493D01*
X011719Y001443D01*
X011715Y001393D01*
X011707Y001344D01*
X011695Y001295D01*
X011679Y001247D01*
X011660Y001201D01*
X011637Y001157D01*
X011610Y001114D01*
X011580Y001074D01*
X011548Y001036D01*
X011512Y001001D01*
X011473Y000969D01*
X011432Y000940D01*
X011389Y000914D01*
X011344Y000892D01*
X011298Y000874D01*
X011250Y000859D01*
X011201Y000848D01*
X011152Y000841D01*
X011102Y000838D01*
X011051Y000839D01*
X011002Y000844D01*
X010952Y000853D01*
X010904Y000866D01*
X010857Y000882D01*
X010811Y000903D01*
X010767Y000927D01*
X010725Y000954D01*
X010685Y000984D01*
X010648Y001018D01*
X010614Y001055D01*
X010582Y001094D01*
X010554Y001135D01*
X010529Y001179D01*
X010508Y001224D01*
X010491Y001271D01*
X010477Y001319D01*
X010467Y001368D01*
X010461Y001418D01*
X010459Y001468D01*
X011089Y000287D02*
X011155Y000289D01*
X011221Y000294D01*
X011287Y000304D01*
X011352Y000317D01*
X011416Y000333D01*
X011479Y000353D01*
X011541Y000377D01*
X011601Y000404D01*
X011660Y000434D01*
X011717Y000468D01*
X011772Y000505D01*
X011825Y000545D01*
X011876Y000587D01*
X011924Y000633D01*
X011970Y000681D01*
X012012Y000732D01*
X012052Y000785D01*
X012089Y000840D01*
X012123Y000897D01*
X012153Y000956D01*
X012180Y001016D01*
X012204Y001078D01*
X012224Y001141D01*
X012240Y001205D01*
X012253Y001270D01*
X012263Y001336D01*
X012268Y001402D01*
X012270Y001468D01*
X011089Y000286D02*
X003609Y000286D01*
X002979Y001468D02*
X002981Y001518D01*
X002987Y001568D01*
X002997Y001617D01*
X003011Y001665D01*
X003028Y001712D01*
X003049Y001757D01*
X003074Y001801D01*
X003102Y001842D01*
X003134Y001881D01*
X003168Y001918D01*
X003205Y001952D01*
X003245Y001982D01*
X003287Y002009D01*
X003331Y002033D01*
X003377Y002054D01*
X003424Y002070D01*
X003472Y002083D01*
X003522Y002092D01*
X003571Y002097D01*
X003622Y002098D01*
X003672Y002095D01*
X003721Y002088D01*
X003770Y002077D01*
X003818Y002062D01*
X003864Y002044D01*
X003909Y002022D01*
X003952Y001996D01*
X003993Y001967D01*
X004032Y001935D01*
X004068Y001900D01*
X004100Y001862D01*
X004130Y001822D01*
X004157Y001779D01*
X004180Y001735D01*
X004199Y001689D01*
X004215Y001641D01*
X004227Y001592D01*
X004235Y001543D01*
X004239Y001493D01*
X004239Y001443D01*
X004235Y001393D01*
X004227Y001344D01*
X004215Y001295D01*
X004199Y001247D01*
X004180Y001201D01*
X004157Y001157D01*
X004130Y001114D01*
X004100Y001074D01*
X004068Y001036D01*
X004032Y001001D01*
X003993Y000969D01*
X003952Y000940D01*
X003909Y000914D01*
X003864Y000892D01*
X003818Y000874D01*
X003770Y000859D01*
X003721Y000848D01*
X003672Y000841D01*
X003622Y000838D01*
X003571Y000839D01*
X003522Y000844D01*
X003472Y000853D01*
X003424Y000866D01*
X003377Y000882D01*
X003331Y000903D01*
X003287Y000927D01*
X003245Y000954D01*
X003205Y000984D01*
X003168Y001018D01*
X003134Y001055D01*
X003102Y001094D01*
X003074Y001135D01*
X003049Y001179D01*
X003028Y001224D01*
X003011Y001271D01*
X002997Y001319D01*
X002987Y001368D01*
X002981Y001418D01*
X002979Y001468D01*
X002428Y001468D02*
X002430Y001402D01*
X002435Y001336D01*
X002445Y001270D01*
X002458Y001205D01*
X002474Y001141D01*
X002494Y001078D01*
X002518Y001016D01*
X002545Y000956D01*
X002575Y000897D01*
X002609Y000840D01*
X002646Y000785D01*
X002686Y000732D01*
X002728Y000681D01*
X002774Y000633D01*
X002822Y000587D01*
X002873Y000545D01*
X002926Y000505D01*
X002981Y000468D01*
X003038Y000434D01*
X003097Y000404D01*
X003157Y000377D01*
X003219Y000353D01*
X003282Y000333D01*
X003346Y000317D01*
X003411Y000304D01*
X003477Y000294D01*
X003543Y000289D01*
X003609Y000287D01*
X006306Y002452D02*
X006308Y002478D01*
X006314Y002504D01*
X006324Y002529D01*
X006337Y002552D01*
X006353Y002572D01*
X006373Y002590D01*
X006395Y002605D01*
X006418Y002617D01*
X006444Y002625D01*
X006470Y002629D01*
X006496Y002629D01*
X006522Y002625D01*
X006548Y002617D01*
X006572Y002605D01*
X006593Y002590D01*
X006613Y002572D01*
X006629Y002552D01*
X006642Y002529D01*
X006652Y002504D01*
X006658Y002478D01*
X006660Y002452D01*
X006658Y002426D01*
X006652Y002400D01*
X006642Y002375D01*
X006629Y002352D01*
X006613Y002332D01*
X006593Y002314D01*
X006571Y002299D01*
X006548Y002287D01*
X006522Y002279D01*
X006496Y002275D01*
X006470Y002275D01*
X006444Y002279D01*
X006418Y002287D01*
X006394Y002299D01*
X006373Y002314D01*
X006353Y002332D01*
X006337Y002352D01*
X006324Y002375D01*
X006314Y002400D01*
X006308Y002426D01*
X006306Y002452D01*
X008038Y002452D02*
X008040Y002478D01*
X008046Y002504D01*
X008056Y002529D01*
X008069Y002552D01*
X008085Y002572D01*
X008105Y002590D01*
X008127Y002605D01*
X008150Y002617D01*
X008176Y002625D01*
X008202Y002629D01*
X008228Y002629D01*
X008254Y002625D01*
X008280Y002617D01*
X008304Y002605D01*
X008325Y002590D01*
X008345Y002572D01*
X008361Y002552D01*
X008374Y002529D01*
X008384Y002504D01*
X008390Y002478D01*
X008392Y002452D01*
X008390Y002426D01*
X008384Y002400D01*
X008374Y002375D01*
X008361Y002352D01*
X008345Y002332D01*
X008325Y002314D01*
X008303Y002299D01*
X008280Y002287D01*
X008254Y002279D01*
X008228Y002275D01*
X008202Y002275D01*
X008176Y002279D01*
X008150Y002287D01*
X008126Y002299D01*
X008105Y002314D01*
X008085Y002332D01*
X008069Y002352D01*
X008056Y002375D01*
X008046Y002400D01*
X008040Y002426D01*
X008038Y002452D01*
D11*
X007979Y009351D02*
X007979Y009351D01*
X007979Y008505D01*
X007979Y008505D01*
X007979Y009351D01*
X007979Y008839D02*
X007979Y008839D01*
X007979Y009173D02*
X007979Y009173D01*
X007487Y009351D02*
X007487Y009351D01*
X007487Y008505D01*
X007487Y008505D01*
X007487Y009351D01*
X007487Y008839D02*
X007487Y008839D01*
X007487Y009173D02*
X007487Y009173D01*
X006995Y009351D02*
X006995Y009351D01*
X006995Y008505D01*
X006995Y008505D01*
X006995Y009351D01*
X006995Y008839D02*
X006995Y008839D01*
X006995Y009173D02*
X006995Y009173D01*
X006768Y009794D02*
X006768Y009794D01*
X005922Y009794D01*
X005922Y009794D01*
X006768Y009794D01*
X006768Y010286D02*
X006768Y010286D01*
X005922Y010286D01*
X005922Y010286D01*
X006768Y010286D01*
X006768Y010779D02*
X006768Y010779D01*
X005922Y010779D01*
X005922Y010779D01*
X006768Y010779D01*
X006768Y011271D02*
X006768Y011271D01*
X005922Y011271D01*
X005922Y011271D01*
X006768Y011271D01*
X006768Y011763D02*
X006768Y011763D01*
X005922Y011763D01*
X005922Y011763D01*
X006768Y011763D01*
X006768Y012255D02*
X006768Y012255D01*
X005922Y012255D01*
X005922Y012255D01*
X006768Y012255D01*
X006768Y012747D02*
X006768Y012747D01*
X005922Y012747D01*
X005922Y012747D01*
X006768Y012747D01*
X006768Y013239D02*
X006768Y013239D01*
X005922Y013239D01*
X005922Y013239D01*
X006768Y013239D01*
X006768Y013731D02*
X006768Y013731D01*
X005922Y013731D01*
X005922Y013731D01*
X006768Y013731D01*
X006768Y014223D02*
X006768Y014223D01*
X005922Y014223D01*
X005922Y014223D01*
X006768Y014223D01*
X006768Y014716D02*
X006768Y014716D01*
X005922Y014716D01*
X005922Y014716D01*
X006768Y014716D01*
X006768Y015208D02*
X006768Y015208D01*
X005922Y015208D01*
X005922Y015208D01*
X006768Y015208D01*
X006768Y015700D02*
X006768Y015700D01*
X005922Y015700D01*
X005922Y015700D01*
X006768Y015700D01*
X011512Y013731D02*
X011512Y013731D01*
X010666Y013731D01*
X010666Y013731D01*
X011512Y013731D01*
X011512Y013239D02*
X011512Y013239D01*
X010666Y013239D01*
X010666Y013239D01*
X011512Y013239D01*
X011512Y012747D02*
X011512Y012747D01*
X010666Y012747D01*
X010666Y012747D01*
X011512Y012747D01*
X011512Y012255D02*
X011512Y012255D01*
X010666Y012255D01*
X010666Y012255D01*
X011512Y012255D01*
X011512Y011763D02*
X011512Y011763D01*
X010666Y011763D01*
X010666Y011763D01*
X011512Y011763D01*
X011512Y011271D02*
X011512Y011271D01*
X010666Y011271D01*
X010666Y011271D01*
X011512Y011271D01*
X011512Y010779D02*
X011512Y010779D01*
X010666Y010779D01*
X010666Y010779D01*
X011512Y010779D01*
X011512Y010286D02*
X011512Y010286D01*
X010666Y010286D01*
X010666Y010286D01*
X011512Y010286D01*
X011512Y009794D02*
X011512Y009794D01*
X010666Y009794D01*
X010666Y009794D01*
X011512Y009794D01*
X010440Y009351D02*
X010440Y009351D01*
X010440Y008505D01*
X010440Y008505D01*
X010440Y009351D01*
X010440Y008839D02*
X010440Y008839D01*
X010440Y009173D02*
X010440Y009173D01*
X009948Y009351D02*
X009948Y009351D01*
X009948Y008505D01*
X009948Y008505D01*
X009948Y009351D01*
X009948Y008839D02*
X009948Y008839D01*
X009948Y009173D02*
X009948Y009173D01*
X009456Y009351D02*
X009456Y009351D01*
X009456Y008505D01*
X009456Y008505D01*
X009456Y009351D01*
X009456Y008839D02*
X009456Y008839D01*
X009456Y009173D02*
X009456Y009173D01*
X008964Y009351D02*
X008964Y009351D01*
X008964Y008505D01*
X008964Y008505D01*
X008964Y009351D01*
X008964Y008839D02*
X008964Y008839D01*
X008964Y009173D02*
X008964Y009173D01*
X008471Y009351D02*
X008471Y009351D01*
X008471Y008505D01*
X008471Y008505D01*
X008471Y009351D01*
X008471Y008839D02*
X008471Y008839D01*
X008471Y009173D02*
X008471Y009173D01*
D12*
X011483Y008264D03*
X011483Y007664D03*
X011483Y003933D03*
X011483Y003333D03*
X004790Y009140D03*
X004790Y009740D03*
X003215Y003933D03*
X003215Y003333D03*
D13*
X004593Y003220D03*
X004593Y004046D03*
X010105Y004046D03*
X010105Y003220D03*
D14*
X009101Y001271D03*
X005597Y001271D03*
D15*
X005597Y003594D03*
X009101Y003594D03*
D16*
X007979Y003633D03*
X007664Y003633D03*
X007349Y003633D03*
X007034Y003633D03*
X006719Y003633D03*
D17*
X005538Y006448D03*
X005538Y007905D03*
X007979Y007905D03*
X007979Y006448D03*
D18*
X009731Y006298D03*
X009731Y005798D03*
X009731Y005298D03*
X009731Y004798D03*
X011267Y004798D03*
X011267Y005298D03*
X011267Y005798D03*
X011267Y006298D03*
X011267Y006798D03*
X009731Y006798D03*
D19*
X004574Y005916D03*
X003826Y005916D03*
X003826Y004893D03*
X004200Y004893D03*
X004574Y004893D03*
D20*
X005184Y005070D03*
X005775Y005070D03*
X005775Y005739D03*
X005184Y005739D03*
X003215Y005739D03*
X003215Y005070D03*
X005381Y011172D03*
X005381Y011842D03*
X005381Y015011D03*
X005381Y015680D03*
D21*
X009869Y007964D03*
X010538Y007964D03*
X008530Y005739D03*
X007940Y005739D03*
X007940Y005070D03*
X008530Y005070D03*
X007349Y005070D03*
X007349Y005739D03*
X006365Y005739D03*
X006365Y005070D03*
X004003Y003968D03*
X004003Y003298D03*
X010696Y003298D03*
X010696Y003968D03*
D22*
X003570Y006723D03*
X002664Y006723D03*
X002664Y009597D03*
X003570Y009597D03*
D23*
X003904Y009046D03*
X003904Y007865D03*
X003904Y007275D03*
M02*
