G75*
G70*
%OFA0B0*%
%FSLAX24Y24*%
%IPPOS*%
%LPD*%
%AMOC8*
5,1,8,0,0,1.08239X$1,22.5*
%
%ADD10C,0.0000*%
%ADD11C,0.0040*%
%ADD12C,0.0050*%
%ADD13C,0.0098*%
%ADD14C,0.0060*%
%ADD15R,0.0003X0.0003*%
%ADD16R,0.0008X0.0003*%
%ADD17R,0.0005X0.0003*%
%ADD18R,0.0015X0.0003*%
%ADD19R,0.0020X0.0003*%
%ADD20R,0.0010X0.0003*%
%ADD21R,0.0018X0.0003*%
%ADD22R,0.0067X0.0003*%
%ADD23R,0.0013X0.0003*%
%ADD24R,0.0045X0.0003*%
%ADD25R,0.0077X0.0003*%
%ADD26R,0.0030X0.0003*%
%ADD27R,0.0032X0.0003*%
%ADD28R,0.0022X0.0003*%
%ADD29R,0.0127X0.0003*%
%ADD30R,0.0140X0.0003*%
%ADD31R,0.0025X0.0003*%
%ADD32R,0.0043X0.0003*%
%ADD33R,0.0053X0.0003*%
%ADD34R,0.0088X0.0003*%
%ADD35R,0.0035X0.0003*%
%ADD36R,0.0055X0.0003*%
%ADD37R,0.0040X0.0003*%
%ADD38R,0.0080X0.0003*%
%ADD39R,0.0065X0.0003*%
%ADD40R,0.0090X0.0003*%
%ADD41R,0.0143X0.0003*%
%ADD42R,0.0248X0.0003*%
%ADD43R,0.0293X0.0003*%
%ADD44R,0.0257X0.0003*%
%ADD45R,0.0037X0.0003*%
%ADD46R,0.0262X0.0003*%
%ADD47R,0.0027X0.0003*%
%ADD48R,0.0280X0.0003*%
%ADD49R,0.0070X0.0003*%
%ADD50R,0.0440X0.0003*%
%ADD51R,0.0315X0.0003*%
%ADD52R,0.0085X0.0003*%
%ADD53R,0.0330X0.0003*%
%ADD54R,0.0323X0.0003*%
%ADD55R,0.0107X0.0003*%
%ADD56R,0.0057X0.0003*%
%ADD57R,0.0490X0.0003*%
%ADD58R,0.0360X0.0003*%
%ADD59R,0.0512X0.0003*%
%ADD60R,0.0390X0.0003*%
%ADD61R,0.0565X0.0003*%
%ADD62R,0.0325X0.0003*%
%ADD63R,0.0168X0.0003*%
%ADD64R,0.0307X0.0003*%
%ADD65R,0.0152X0.0003*%
%ADD66R,0.0272X0.0003*%
%ADD67R,0.0132X0.0003*%
%ADD68R,0.0147X0.0003*%
%ADD69R,0.0243X0.0003*%
%ADD70R,0.0125X0.0003*%
%ADD71R,0.0240X0.0003*%
%ADD72R,0.0130X0.0003*%
%ADD73R,0.0225X0.0003*%
%ADD74R,0.0083X0.0003*%
%ADD75R,0.0222X0.0003*%
%ADD76R,0.0217X0.0003*%
%ADD77R,0.0120X0.0003*%
%ADD78R,0.0215X0.0003*%
%ADD79R,0.0118X0.0003*%
%ADD80R,0.0205X0.0003*%
%ADD81R,0.0103X0.0003*%
%ADD82R,0.0210X0.0003*%
%ADD83R,0.0097X0.0003*%
%ADD84R,0.0198X0.0003*%
%ADD85R,0.0100X0.0003*%
%ADD86R,0.0190X0.0003*%
%ADD87R,0.0187X0.0003*%
%ADD88R,0.0192X0.0003*%
%ADD89R,0.0170X0.0003*%
%ADD90R,0.0173X0.0003*%
%ADD91R,0.0182X0.0003*%
%ADD92R,0.0180X0.0003*%
%ADD93R,0.0047X0.0003*%
%ADD94R,0.0165X0.0003*%
%ADD95R,0.0163X0.0003*%
%ADD96R,0.0160X0.0003*%
%ADD97R,0.0158X0.0003*%
%ADD98R,0.0155X0.0003*%
%ADD99R,0.0092X0.0003*%
%ADD100R,0.0150X0.0003*%
%ADD101R,0.0105X0.0003*%
%ADD102R,0.0115X0.0003*%
%ADD103R,0.0145X0.0003*%
%ADD104R,0.0138X0.0003*%
%ADD105R,0.0135X0.0003*%
%ADD106R,0.0075X0.0003*%
%ADD107R,0.0063X0.0003*%
%ADD108R,0.0060X0.0003*%
%ADD109R,0.0050X0.0003*%
%ADD110R,0.0123X0.0003*%
%ADD111R,0.0112X0.0003*%
%ADD112R,0.0110X0.0003*%
%ADD113R,0.0073X0.0003*%
%ADD114R,0.0095X0.0003*%
%ADD115R,0.0185X0.0003*%
%ADD116R,0.0208X0.0003*%
%ADD117R,0.0235X0.0003*%
%ADD118R,0.0260X0.0003*%
%ADD119R,0.0267X0.0003*%
%ADD120R,0.0283X0.0003*%
%ADD121R,0.0295X0.0003*%
%ADD122R,0.0302X0.0003*%
%ADD123R,0.0320X0.0003*%
%ADD124R,0.0333X0.0003*%
%ADD125R,0.0338X0.0003*%
%ADD126R,0.0343X0.0003*%
%ADD127R,0.0350X0.0003*%
%ADD128R,0.0355X0.0003*%
%ADD129R,0.0365X0.0003*%
%ADD130R,0.0370X0.0003*%
%ADD131R,0.0375X0.0003*%
%ADD132R,0.0380X0.0003*%
%ADD133R,0.0382X0.0003*%
%ADD134R,0.0393X0.0003*%
%ADD135R,0.0398X0.0003*%
%ADD136R,0.0403X0.0003*%
%ADD137R,0.0405X0.0003*%
%ADD138R,0.0415X0.0003*%
%ADD139R,0.0177X0.0003*%
%ADD140R,0.0175X0.0003*%
%ADD141R,0.0195X0.0003*%
%ADD142R,0.0200X0.0003*%
%ADD143R,0.0203X0.0003*%
%ADD144R,0.0213X0.0003*%
%ADD145R,0.0220X0.0003*%
%ADD146R,0.0227X0.0003*%
%ADD147R,0.0230X0.0003*%
%ADD148R,0.0232X0.0003*%
%ADD149R,0.0238X0.0003*%
%ADD150R,0.0245X0.0003*%
%ADD151R,0.0250X0.0003*%
%ADD152R,0.0253X0.0003*%
%ADD153R,0.0255X0.0003*%
%ADD154R,0.0305X0.0003*%
%ADD155R,0.0318X0.0003*%
%ADD156R,0.0328X0.0003*%
%ADD157R,0.0335X0.0003*%
%ADD158R,0.0340X0.0003*%
%ADD159R,0.0352X0.0003*%
%ADD160R,0.0387X0.0003*%
%ADD161R,0.0410X0.0003*%
%ADD162R,0.0413X0.0003*%
%ADD163R,0.0430X0.0003*%
%ADD164R,0.0432X0.0003*%
%ADD165R,0.0428X0.0003*%
%ADD166R,0.0420X0.0003*%
%ADD167R,0.0435X0.0003*%
%ADD168R,0.0425X0.0003*%
%ADD169R,0.0423X0.0003*%
%ADD170R,0.0418X0.0003*%
%ADD171R,0.0372X0.0003*%
%ADD172R,0.0362X0.0003*%
%ADD173R,0.0348X0.0003*%
%ADD174R,0.0345X0.0003*%
%ADD175R,0.0310X0.0003*%
%ADD176R,0.0300X0.0003*%
%ADD177R,0.0297X0.0003*%
%ADD178R,0.0285X0.0003*%
%ADD179R,0.0278X0.0003*%
%ADD180R,0.0265X0.0003*%
%ADD181R,0.0010X0.0050*%
%ADD182R,0.0010X0.0040*%
%ADD183R,0.0010X0.0130*%
%ADD184R,0.0010X0.0070*%
%ADD185R,0.0010X0.0180*%
%ADD186R,0.0010X0.0080*%
%ADD187R,0.0010X0.0210*%
%ADD188R,0.0010X0.0090*%
%ADD189R,0.0010X0.0060*%
%ADD190R,0.0010X0.0010*%
%ADD191R,0.0010X0.0030*%
%ADD192R,0.0010X0.0020*%
%ADD193R,0.0010X0.0220*%
%ADD194R,0.0010X0.0100*%
%ADD195R,0.0010X0.0110*%
%ADD196R,0.0010X0.0120*%
%ADD197R,0.0010X0.0140*%
%ADD198R,0.0010X0.0150*%
%ADD199R,0.0010X0.0200*%
%ADD200R,0.0010X0.0170*%
%ADD201R,0.0010X0.0190*%
%ADD202R,0.0010X0.0160*%
D10*
X002428Y001468D02*
X002428Y014853D01*
X002979Y014853D02*
X002981Y014903D01*
X002987Y014953D01*
X002997Y015002D01*
X003011Y015050D01*
X003028Y015097D01*
X003049Y015142D01*
X003074Y015186D01*
X003102Y015227D01*
X003134Y015266D01*
X003168Y015303D01*
X003205Y015337D01*
X003245Y015367D01*
X003287Y015394D01*
X003331Y015418D01*
X003377Y015439D01*
X003424Y015455D01*
X003472Y015468D01*
X003522Y015477D01*
X003571Y015482D01*
X003622Y015483D01*
X003672Y015480D01*
X003721Y015473D01*
X003770Y015462D01*
X003818Y015447D01*
X003864Y015429D01*
X003909Y015407D01*
X003952Y015381D01*
X003993Y015352D01*
X004032Y015320D01*
X004068Y015285D01*
X004100Y015247D01*
X004130Y015207D01*
X004157Y015164D01*
X004180Y015120D01*
X004199Y015074D01*
X004215Y015026D01*
X004227Y014977D01*
X004235Y014928D01*
X004239Y014878D01*
X004239Y014828D01*
X004235Y014778D01*
X004227Y014729D01*
X004215Y014680D01*
X004199Y014632D01*
X004180Y014586D01*
X004157Y014542D01*
X004130Y014499D01*
X004100Y014459D01*
X004068Y014421D01*
X004032Y014386D01*
X003993Y014354D01*
X003952Y014325D01*
X003909Y014299D01*
X003864Y014277D01*
X003818Y014259D01*
X003770Y014244D01*
X003721Y014233D01*
X003672Y014226D01*
X003622Y014223D01*
X003571Y014224D01*
X003522Y014229D01*
X003472Y014238D01*
X003424Y014251D01*
X003377Y014267D01*
X003331Y014288D01*
X003287Y014312D01*
X003245Y014339D01*
X003205Y014369D01*
X003168Y014403D01*
X003134Y014440D01*
X003102Y014479D01*
X003074Y014520D01*
X003049Y014564D01*
X003028Y014609D01*
X003011Y014656D01*
X002997Y014704D01*
X002987Y014753D01*
X002981Y014803D01*
X002979Y014853D01*
X002428Y014853D02*
X002430Y014919D01*
X002435Y014985D01*
X002445Y015051D01*
X002458Y015116D01*
X002474Y015180D01*
X002494Y015243D01*
X002518Y015305D01*
X002545Y015365D01*
X002575Y015424D01*
X002609Y015481D01*
X002646Y015536D01*
X002686Y015589D01*
X002728Y015640D01*
X002774Y015688D01*
X002822Y015734D01*
X002873Y015776D01*
X002926Y015816D01*
X002981Y015853D01*
X003038Y015887D01*
X003097Y015917D01*
X003157Y015944D01*
X003219Y015968D01*
X003282Y015988D01*
X003346Y016004D01*
X003411Y016017D01*
X003477Y016027D01*
X003543Y016032D01*
X003609Y016034D01*
X011089Y016034D01*
X011155Y016032D01*
X011221Y016027D01*
X011287Y016017D01*
X011352Y016004D01*
X011416Y015988D01*
X011479Y015968D01*
X011541Y015944D01*
X011601Y015917D01*
X011660Y015887D01*
X011717Y015853D01*
X011772Y015816D01*
X011825Y015776D01*
X011876Y015734D01*
X011924Y015688D01*
X011970Y015640D01*
X012012Y015589D01*
X012052Y015536D01*
X012089Y015481D01*
X012123Y015424D01*
X012153Y015365D01*
X012180Y015305D01*
X012204Y015243D01*
X012224Y015180D01*
X012240Y015116D01*
X012253Y015051D01*
X012263Y014985D01*
X012268Y014919D01*
X012270Y014853D01*
X012271Y014853D02*
X012271Y001468D01*
X010459Y001468D02*
X010461Y001518D01*
X010467Y001568D01*
X010477Y001617D01*
X010491Y001665D01*
X010508Y001712D01*
X010529Y001757D01*
X010554Y001801D01*
X010582Y001842D01*
X010614Y001881D01*
X010648Y001918D01*
X010685Y001952D01*
X010725Y001982D01*
X010767Y002009D01*
X010811Y002033D01*
X010857Y002054D01*
X010904Y002070D01*
X010952Y002083D01*
X011002Y002092D01*
X011051Y002097D01*
X011102Y002098D01*
X011152Y002095D01*
X011201Y002088D01*
X011250Y002077D01*
X011298Y002062D01*
X011344Y002044D01*
X011389Y002022D01*
X011432Y001996D01*
X011473Y001967D01*
X011512Y001935D01*
X011548Y001900D01*
X011580Y001862D01*
X011610Y001822D01*
X011637Y001779D01*
X011660Y001735D01*
X011679Y001689D01*
X011695Y001641D01*
X011707Y001592D01*
X011715Y001543D01*
X011719Y001493D01*
X011719Y001443D01*
X011715Y001393D01*
X011707Y001344D01*
X011695Y001295D01*
X011679Y001247D01*
X011660Y001201D01*
X011637Y001157D01*
X011610Y001114D01*
X011580Y001074D01*
X011548Y001036D01*
X011512Y001001D01*
X011473Y000969D01*
X011432Y000940D01*
X011389Y000914D01*
X011344Y000892D01*
X011298Y000874D01*
X011250Y000859D01*
X011201Y000848D01*
X011152Y000841D01*
X011102Y000838D01*
X011051Y000839D01*
X011002Y000844D01*
X010952Y000853D01*
X010904Y000866D01*
X010857Y000882D01*
X010811Y000903D01*
X010767Y000927D01*
X010725Y000954D01*
X010685Y000984D01*
X010648Y001018D01*
X010614Y001055D01*
X010582Y001094D01*
X010554Y001135D01*
X010529Y001179D01*
X010508Y001224D01*
X010491Y001271D01*
X010477Y001319D01*
X010467Y001368D01*
X010461Y001418D01*
X010459Y001468D01*
X011089Y000287D02*
X011155Y000289D01*
X011221Y000294D01*
X011287Y000304D01*
X011352Y000317D01*
X011416Y000333D01*
X011479Y000353D01*
X011541Y000377D01*
X011601Y000404D01*
X011660Y000434D01*
X011717Y000468D01*
X011772Y000505D01*
X011825Y000545D01*
X011876Y000587D01*
X011924Y000633D01*
X011970Y000681D01*
X012012Y000732D01*
X012052Y000785D01*
X012089Y000840D01*
X012123Y000897D01*
X012153Y000956D01*
X012180Y001016D01*
X012204Y001078D01*
X012224Y001141D01*
X012240Y001205D01*
X012253Y001270D01*
X012263Y001336D01*
X012268Y001402D01*
X012270Y001468D01*
X011089Y000286D02*
X003609Y000286D01*
X002979Y001468D02*
X002981Y001518D01*
X002987Y001568D01*
X002997Y001617D01*
X003011Y001665D01*
X003028Y001712D01*
X003049Y001757D01*
X003074Y001801D01*
X003102Y001842D01*
X003134Y001881D01*
X003168Y001918D01*
X003205Y001952D01*
X003245Y001982D01*
X003287Y002009D01*
X003331Y002033D01*
X003377Y002054D01*
X003424Y002070D01*
X003472Y002083D01*
X003522Y002092D01*
X003571Y002097D01*
X003622Y002098D01*
X003672Y002095D01*
X003721Y002088D01*
X003770Y002077D01*
X003818Y002062D01*
X003864Y002044D01*
X003909Y002022D01*
X003952Y001996D01*
X003993Y001967D01*
X004032Y001935D01*
X004068Y001900D01*
X004100Y001862D01*
X004130Y001822D01*
X004157Y001779D01*
X004180Y001735D01*
X004199Y001689D01*
X004215Y001641D01*
X004227Y001592D01*
X004235Y001543D01*
X004239Y001493D01*
X004239Y001443D01*
X004235Y001393D01*
X004227Y001344D01*
X004215Y001295D01*
X004199Y001247D01*
X004180Y001201D01*
X004157Y001157D01*
X004130Y001114D01*
X004100Y001074D01*
X004068Y001036D01*
X004032Y001001D01*
X003993Y000969D01*
X003952Y000940D01*
X003909Y000914D01*
X003864Y000892D01*
X003818Y000874D01*
X003770Y000859D01*
X003721Y000848D01*
X003672Y000841D01*
X003622Y000838D01*
X003571Y000839D01*
X003522Y000844D01*
X003472Y000853D01*
X003424Y000866D01*
X003377Y000882D01*
X003331Y000903D01*
X003287Y000927D01*
X003245Y000954D01*
X003205Y000984D01*
X003168Y001018D01*
X003134Y001055D01*
X003102Y001094D01*
X003074Y001135D01*
X003049Y001179D01*
X003028Y001224D01*
X003011Y001271D01*
X002997Y001319D01*
X002987Y001368D01*
X002981Y001418D01*
X002979Y001468D01*
X002428Y001468D02*
X002430Y001402D01*
X002435Y001336D01*
X002445Y001270D01*
X002458Y001205D01*
X002474Y001141D01*
X002494Y001078D01*
X002518Y001016D01*
X002545Y000956D01*
X002575Y000897D01*
X002609Y000840D01*
X002646Y000785D01*
X002686Y000732D01*
X002728Y000681D01*
X002774Y000633D01*
X002822Y000587D01*
X002873Y000545D01*
X002926Y000505D01*
X002981Y000468D01*
X003038Y000434D01*
X003097Y000404D01*
X003157Y000377D01*
X003219Y000353D01*
X003282Y000333D01*
X003346Y000317D01*
X003411Y000304D01*
X003477Y000294D01*
X003543Y000289D01*
X003609Y000287D01*
X006306Y002452D02*
X006308Y002478D01*
X006314Y002504D01*
X006324Y002529D01*
X006337Y002552D01*
X006353Y002572D01*
X006373Y002590D01*
X006395Y002605D01*
X006418Y002617D01*
X006444Y002625D01*
X006470Y002629D01*
X006496Y002629D01*
X006522Y002625D01*
X006548Y002617D01*
X006572Y002605D01*
X006593Y002590D01*
X006613Y002572D01*
X006629Y002552D01*
X006642Y002529D01*
X006652Y002504D01*
X006658Y002478D01*
X006660Y002452D01*
X006658Y002426D01*
X006652Y002400D01*
X006642Y002375D01*
X006629Y002352D01*
X006613Y002332D01*
X006593Y002314D01*
X006571Y002299D01*
X006548Y002287D01*
X006522Y002279D01*
X006496Y002275D01*
X006470Y002275D01*
X006444Y002279D01*
X006418Y002287D01*
X006394Y002299D01*
X006373Y002314D01*
X006353Y002332D01*
X006337Y002352D01*
X006324Y002375D01*
X006314Y002400D01*
X006308Y002426D01*
X006306Y002452D01*
X008038Y002452D02*
X008040Y002478D01*
X008046Y002504D01*
X008056Y002529D01*
X008069Y002552D01*
X008085Y002572D01*
X008105Y002590D01*
X008127Y002605D01*
X008150Y002617D01*
X008176Y002625D01*
X008202Y002629D01*
X008228Y002629D01*
X008254Y002625D01*
X008280Y002617D01*
X008304Y002605D01*
X008325Y002590D01*
X008345Y002572D01*
X008361Y002552D01*
X008374Y002529D01*
X008384Y002504D01*
X008390Y002478D01*
X008392Y002452D01*
X008390Y002426D01*
X008384Y002400D01*
X008374Y002375D01*
X008361Y002352D01*
X008345Y002332D01*
X008325Y002314D01*
X008303Y002299D01*
X008280Y002287D01*
X008254Y002279D01*
X008228Y002275D01*
X008202Y002275D01*
X008176Y002279D01*
X008150Y002287D01*
X008126Y002299D01*
X008105Y002314D01*
X008085Y002332D01*
X008069Y002352D01*
X008056Y002375D01*
X008046Y002400D01*
X008040Y002426D01*
X008038Y002452D01*
D11*
X006979Y005318D02*
X006979Y005472D01*
X006903Y005548D01*
X006672Y005548D01*
X006672Y005318D01*
X006749Y005241D01*
X006826Y005318D01*
X006826Y005548D01*
X006749Y005702D02*
X006903Y005702D01*
X006979Y005778D01*
X006979Y006009D01*
X006903Y006162D02*
X006979Y006239D01*
X006979Y006392D01*
X006903Y006469D01*
X006672Y006469D01*
X006749Y006623D02*
X006672Y006699D01*
X006672Y006853D01*
X006826Y006929D02*
X006826Y006623D01*
X006749Y006623D02*
X006903Y006623D01*
X006979Y006699D01*
X006979Y006853D01*
X006903Y006929D01*
X006826Y006929D01*
X006903Y007083D02*
X006826Y007160D01*
X006826Y007313D01*
X006749Y007390D01*
X006672Y007313D01*
X006672Y007083D01*
X006903Y007083D02*
X006979Y007160D01*
X006979Y007390D01*
X006979Y007543D02*
X006979Y007620D01*
X006672Y007620D01*
X006672Y007543D02*
X006672Y007697D01*
X006672Y008004D02*
X006979Y008157D01*
X006903Y008311D02*
X006749Y008311D01*
X006672Y008387D01*
X006672Y008541D01*
X006826Y008618D02*
X006826Y008311D01*
X006903Y008311D02*
X006979Y008387D01*
X006979Y008541D01*
X006903Y008618D01*
X006826Y008618D01*
X006672Y008004D02*
X006979Y007850D01*
X007133Y007620D02*
X007210Y007620D01*
X007854Y007620D02*
X008161Y007620D01*
X008161Y007543D01*
X008161Y007390D02*
X008161Y007236D01*
X008237Y007313D02*
X007930Y007313D01*
X007854Y007390D01*
X007854Y007543D02*
X007854Y007697D01*
X007930Y007850D02*
X007854Y007927D01*
X007854Y008080D01*
X007930Y008157D01*
X008084Y008157D01*
X008161Y008080D01*
X008161Y007927D01*
X008084Y007850D01*
X007930Y007850D01*
X008314Y007620D02*
X008391Y007620D01*
X008084Y007083D02*
X007854Y007083D01*
X007854Y006853D01*
X007930Y006776D01*
X008007Y006853D01*
X008007Y007083D01*
X008084Y007083D02*
X008161Y007006D01*
X008161Y006853D01*
X008161Y006623D02*
X007854Y006316D01*
X007854Y006162D02*
X007854Y006009D01*
X007854Y006085D02*
X008161Y006085D01*
X008161Y006009D01*
X008314Y006085D02*
X008391Y006085D01*
X008314Y005855D02*
X008237Y005778D01*
X007854Y005778D01*
X008084Y005702D02*
X008084Y005855D01*
X008161Y006316D02*
X007854Y006623D01*
X007133Y006162D02*
X006672Y006162D01*
X006672Y006009D02*
X006672Y005778D01*
X006749Y005702D01*
X006672Y006009D02*
X007133Y006009D01*
X007854Y008311D02*
X008161Y008311D01*
X008161Y008541D01*
X008084Y008618D01*
X007854Y008618D01*
X005601Y011464D02*
X005601Y011694D01*
X005525Y011771D01*
X005448Y011771D01*
X005371Y011694D01*
X005371Y011464D01*
X005141Y011464D02*
X005141Y011694D01*
X005218Y011771D01*
X005294Y011771D01*
X005371Y011694D01*
X005141Y011464D02*
X005601Y011464D01*
X005601Y011924D02*
X005601Y012231D01*
X005601Y012078D02*
X005141Y012078D01*
X005141Y012385D02*
X005141Y012692D01*
X005141Y012538D02*
X005601Y012538D01*
X005448Y012385D01*
X002845Y009343D02*
X002845Y009209D01*
X002845Y009276D02*
X002645Y009276D01*
X002645Y009122D02*
X002778Y009122D01*
X002845Y009055D01*
X002778Y008988D01*
X002645Y008988D01*
X002678Y008901D02*
X002645Y008867D01*
X002645Y008767D01*
X002845Y008767D01*
X002845Y008867D01*
X002812Y008901D01*
X002778Y008901D01*
X002745Y008867D01*
X002745Y008767D01*
X002745Y008867D02*
X002712Y008901D01*
X002678Y008901D01*
X002745Y008988D02*
X002745Y009122D01*
X002745Y008459D02*
X002645Y008325D01*
X002745Y008238D02*
X002745Y008104D01*
X002645Y008017D02*
X002745Y007883D01*
X002845Y008017D01*
X002845Y008325D02*
X002745Y008459D01*
X002712Y007575D02*
X002678Y007575D01*
X002645Y007541D01*
X002645Y007441D01*
X002845Y007441D01*
X002845Y007541D01*
X002812Y007575D01*
X002778Y007575D01*
X002745Y007541D01*
X002745Y007441D01*
X002712Y007354D02*
X002678Y007354D01*
X002645Y007320D01*
X002645Y007254D01*
X002678Y007220D01*
X002745Y007254D02*
X002745Y007320D01*
X002712Y007354D01*
X002812Y007354D02*
X002845Y007320D01*
X002845Y007254D01*
X002812Y007220D01*
X002778Y007220D01*
X002745Y007254D01*
X002678Y007133D02*
X002845Y007133D01*
X002845Y006999D02*
X002678Y006999D01*
X002645Y007033D01*
X002645Y007099D01*
X002678Y007133D01*
X002745Y007541D02*
X002712Y007575D01*
D12*
X004397Y009145D02*
X004397Y004420D01*
X004397Y003042D01*
X004987Y002452D01*
X005971Y002452D01*
X005971Y001271D01*
X006365Y001271D01*
X006365Y001861D01*
X008727Y001861D01*
X008727Y001271D01*
X009121Y001271D01*
X009121Y002452D01*
X010696Y002452D01*
X010696Y004420D01*
X010696Y009145D01*
X010696Y011113D01*
X009121Y011113D01*
X009121Y012294D01*
X008727Y012294D01*
X008727Y011704D01*
X006365Y011704D01*
X006365Y012294D01*
X005971Y012294D01*
X005971Y011113D01*
X004397Y011113D01*
X004397Y009145D01*
X004593Y010523D02*
X004595Y010562D01*
X004601Y010601D01*
X004611Y010639D01*
X004624Y010676D01*
X004641Y010711D01*
X004661Y010745D01*
X004685Y010776D01*
X004712Y010805D01*
X004741Y010831D01*
X004773Y010854D01*
X004807Y010874D01*
X004843Y010890D01*
X004880Y010902D01*
X004919Y010911D01*
X004958Y010916D01*
X004997Y010917D01*
X005036Y010914D01*
X005075Y010907D01*
X005112Y010896D01*
X005149Y010882D01*
X005184Y010864D01*
X005217Y010843D01*
X005248Y010818D01*
X005276Y010791D01*
X005301Y010761D01*
X005323Y010728D01*
X005342Y010694D01*
X005357Y010658D01*
X005369Y010620D01*
X005377Y010582D01*
X005381Y010543D01*
X005381Y010503D01*
X005377Y010464D01*
X005369Y010426D01*
X005357Y010388D01*
X005342Y010352D01*
X005323Y010318D01*
X005301Y010285D01*
X005276Y010255D01*
X005248Y010228D01*
X005217Y010203D01*
X005184Y010182D01*
X005149Y010164D01*
X005112Y010150D01*
X005075Y010139D01*
X005036Y010132D01*
X004997Y010129D01*
X004958Y010130D01*
X004919Y010135D01*
X004880Y010144D01*
X004843Y010156D01*
X004807Y010172D01*
X004773Y010192D01*
X004741Y010215D01*
X004712Y010241D01*
X004685Y010270D01*
X004661Y010301D01*
X004641Y010335D01*
X004624Y010370D01*
X004611Y010407D01*
X004601Y010445D01*
X004595Y010484D01*
X004593Y010523D01*
X006365Y010523D02*
X006365Y010720D01*
X008727Y010720D01*
X008727Y010523D01*
X008727Y010720D02*
X008727Y011704D01*
X008727Y009145D02*
X006365Y009145D01*
X006365Y004420D01*
X008727Y004420D01*
X008727Y009145D01*
X010696Y004420D02*
X010578Y004274D01*
X010454Y004134D01*
X010323Y003999D01*
X010186Y003871D01*
X010043Y003749D01*
X009894Y003634D01*
X009740Y003527D01*
X009582Y003426D01*
X009418Y003334D01*
X009251Y003249D01*
X009080Y003172D01*
X008905Y003103D01*
X008727Y003042D01*
X008727Y002846D01*
X006365Y002846D01*
X006365Y001861D01*
X006365Y002846D02*
X006365Y003042D01*
X008727Y002846D02*
X008727Y001861D01*
X009711Y003042D02*
X009713Y003081D01*
X009719Y003120D01*
X009729Y003158D01*
X009742Y003195D01*
X009759Y003230D01*
X009779Y003264D01*
X009803Y003295D01*
X009830Y003324D01*
X009859Y003350D01*
X009891Y003373D01*
X009925Y003393D01*
X009961Y003409D01*
X009998Y003421D01*
X010037Y003430D01*
X010076Y003435D01*
X010115Y003436D01*
X010154Y003433D01*
X010193Y003426D01*
X010230Y003415D01*
X010267Y003401D01*
X010302Y003383D01*
X010335Y003362D01*
X010366Y003337D01*
X010394Y003310D01*
X010419Y003280D01*
X010441Y003247D01*
X010460Y003213D01*
X010475Y003177D01*
X010487Y003139D01*
X010495Y003101D01*
X010499Y003062D01*
X010499Y003022D01*
X010495Y002983D01*
X010487Y002945D01*
X010475Y002907D01*
X010460Y002871D01*
X010441Y002837D01*
X010419Y002804D01*
X010394Y002774D01*
X010366Y002747D01*
X010335Y002722D01*
X010302Y002701D01*
X010267Y002683D01*
X010230Y002669D01*
X010193Y002658D01*
X010154Y002651D01*
X010115Y002648D01*
X010076Y002649D01*
X010037Y002654D01*
X009998Y002663D01*
X009961Y002675D01*
X009925Y002691D01*
X009891Y002711D01*
X009859Y002734D01*
X009830Y002760D01*
X009803Y002789D01*
X009779Y002820D01*
X009759Y002854D01*
X009742Y002889D01*
X009729Y002926D01*
X009719Y002964D01*
X009713Y003003D01*
X009711Y003042D01*
X010696Y009145D02*
X010579Y009292D01*
X010455Y009433D01*
X010324Y009568D01*
X010187Y009697D01*
X010045Y009819D01*
X009896Y009934D01*
X009742Y010042D01*
X009583Y010142D01*
X009420Y010234D01*
X009252Y010319D01*
X009081Y010395D01*
X008906Y010464D01*
X008727Y010523D01*
X006365Y010720D02*
X006365Y011704D01*
X006365Y010523D02*
X006186Y010464D01*
X006011Y010395D01*
X005840Y010319D01*
X005672Y010234D01*
X005509Y010142D01*
X005350Y010042D01*
X005196Y009934D01*
X005047Y009819D01*
X004905Y009697D01*
X004768Y009568D01*
X004637Y009433D01*
X004513Y009292D01*
X004396Y009145D01*
X004396Y004420D02*
X004512Y004273D01*
X004636Y004131D01*
X004766Y003996D01*
X004903Y003867D01*
X005046Y003745D01*
X005194Y003630D01*
X005348Y003522D01*
X005507Y003422D01*
X005671Y003329D01*
X005839Y003245D01*
X006011Y003169D01*
X006186Y003101D01*
X006365Y003042D01*
D13*
X009908Y003042D02*
X010302Y003042D01*
X010105Y002846D02*
X010105Y003239D01*
X005184Y010523D02*
X004790Y010523D01*
D14*
X011089Y004346D02*
X011169Y004226D01*
X011139Y004166D01*
X011369Y004076D01*
X011339Y004136D02*
X011539Y004236D01*
X011689Y004136D01*
X011739Y003986D01*
X011689Y003836D01*
X011539Y003786D01*
X011389Y003836D01*
X011339Y003886D01*
X011189Y003786D01*
X011139Y003636D01*
X011189Y003586D01*
X011339Y003686D01*
X011489Y003586D01*
X011489Y003486D01*
X011589Y003486D01*
X011589Y003636D01*
X011739Y003686D01*
X011889Y003586D01*
X011939Y003636D01*
X011839Y003786D01*
X011939Y003936D01*
X012039Y003936D01*
X012039Y004036D01*
X011889Y004086D01*
X011839Y004236D01*
X011939Y004336D01*
X011889Y004386D01*
X011739Y004336D01*
X011589Y004386D01*
X011589Y004536D01*
X011489Y004486D01*
X011439Y004336D01*
X011289Y004336D01*
X011189Y004386D01*
X011139Y004336D01*
X011189Y004236D01*
X011189Y004186D01*
X011339Y004136D01*
X011362Y004147D02*
X011305Y004147D01*
X011189Y004206D02*
X011479Y004206D01*
X011585Y004206D02*
X011850Y004206D01*
X011879Y004206D02*
X011969Y004346D01*
X011879Y004436D01*
X011749Y004346D01*
X011629Y004396D01*
X011599Y004546D01*
X011469Y004546D01*
X011439Y004406D01*
X011309Y004346D01*
X011179Y004436D01*
X011089Y004346D01*
X011146Y004323D02*
X011926Y004323D01*
X011894Y004381D02*
X011876Y004381D01*
X011868Y004264D02*
X011175Y004264D01*
X011185Y004381D02*
X011199Y004381D01*
X011455Y004381D02*
X011603Y004381D01*
X011589Y004440D02*
X011474Y004440D01*
X011514Y004498D02*
X011589Y004498D01*
X011672Y004147D02*
X011869Y004147D01*
X011879Y004206D02*
X011929Y004086D01*
X012089Y004056D01*
X012089Y003926D01*
X011929Y003896D01*
X011879Y003776D01*
X011969Y003646D01*
X011879Y003556D01*
X011749Y003646D01*
X011619Y003586D01*
X011599Y003436D01*
X011469Y003436D01*
X011439Y003586D01*
X011309Y003636D01*
X011179Y003556D01*
X011089Y003646D01*
X011169Y003766D01*
X011139Y003816D01*
X011369Y003916D01*
X011371Y003855D02*
X011293Y003855D01*
X011205Y003796D02*
X011508Y003796D01*
X011571Y003796D02*
X011846Y003796D01*
X011872Y003738D02*
X011173Y003738D01*
X011154Y003679D02*
X011330Y003679D01*
X011349Y003679D02*
X011720Y003679D01*
X011749Y003679D02*
X011911Y003679D01*
X011924Y003621D02*
X011837Y003621D01*
X011885Y003855D02*
X011696Y003855D01*
X011715Y003913D02*
X011924Y003913D01*
X012039Y003972D02*
X011735Y003972D01*
X011725Y004030D02*
X012039Y004030D01*
X011889Y004089D02*
X011705Y004089D01*
X011369Y004076D02*
X011382Y004098D01*
X011398Y004118D01*
X011417Y004136D01*
X011439Y004151D01*
X011462Y004162D01*
X011487Y004170D01*
X011512Y004174D01*
X011538Y004175D01*
X011564Y004172D01*
X011589Y004165D01*
X011612Y004154D01*
X011634Y004141D01*
X011654Y004124D01*
X011671Y004105D01*
X011686Y004083D01*
X011696Y004059D01*
X011704Y004035D01*
X011708Y004009D01*
X011708Y003983D01*
X011704Y003957D01*
X011696Y003933D01*
X011686Y003909D01*
X011671Y003887D01*
X011654Y003868D01*
X011634Y003851D01*
X011612Y003838D01*
X011589Y003827D01*
X011564Y003820D01*
X011538Y003817D01*
X011512Y003818D01*
X011487Y003822D01*
X011462Y003830D01*
X011439Y003841D01*
X011417Y003856D01*
X011398Y003874D01*
X011382Y003894D01*
X011369Y003916D01*
X011437Y003621D02*
X011589Y003621D01*
X011589Y003562D02*
X011489Y003562D01*
X011489Y003504D02*
X011589Y003504D01*
X011242Y003621D02*
X011155Y003621D01*
D15*
X011128Y011998D03*
X011133Y012008D03*
X011140Y012011D03*
X011145Y012011D03*
X011148Y012008D03*
X011140Y012003D03*
X011125Y012011D03*
X011125Y012013D03*
X011128Y012016D03*
X011120Y012018D03*
X011115Y012011D03*
X011110Y012008D03*
X011103Y012013D03*
X011098Y012011D03*
X011098Y012018D03*
X011093Y012021D03*
X011095Y012026D03*
X011095Y012028D03*
X011090Y012028D03*
X011090Y012026D03*
X011085Y012028D03*
X011085Y012023D03*
X011088Y012013D03*
X011088Y012008D03*
X011088Y012003D03*
X011088Y012001D03*
X011088Y011998D03*
X011080Y012003D03*
X011080Y012006D03*
X011080Y012008D03*
X011073Y012008D03*
X011075Y012018D03*
X011070Y012021D03*
X011068Y012023D03*
X011060Y012031D03*
X011055Y012028D03*
X011050Y012028D03*
X011048Y012031D03*
X011043Y012028D03*
X011053Y012023D03*
X011058Y012018D03*
X011060Y012013D03*
X011040Y012008D03*
X011038Y012016D03*
X011038Y012018D03*
X011035Y012021D03*
X011030Y012021D03*
X011030Y012023D03*
X011025Y012031D03*
X011025Y012033D03*
X011020Y012028D03*
X011015Y012031D03*
X011013Y012026D03*
X011008Y012018D03*
X011000Y012018D03*
X010998Y012023D03*
X010998Y012031D03*
X011003Y012031D03*
X011005Y012041D03*
X011000Y012041D03*
X011010Y012038D03*
X010993Y012031D03*
X010985Y012031D03*
X010983Y012033D03*
X010988Y012038D03*
X010980Y012041D03*
X010980Y012043D03*
X010973Y012043D03*
X010968Y012038D03*
X010960Y012038D03*
X010953Y012033D03*
X010948Y012033D03*
X010943Y012031D03*
X010940Y012028D03*
X010938Y012038D03*
X010945Y012043D03*
X010930Y012051D03*
X010928Y012046D03*
X010923Y012046D03*
X010920Y012043D03*
X010915Y012041D03*
X010910Y012038D03*
X010903Y012038D03*
X010903Y012048D03*
X010900Y012056D03*
X010890Y012046D03*
X010893Y012043D03*
X010893Y012038D03*
X010888Y012033D03*
X010885Y012036D03*
X010878Y012038D03*
X010878Y012046D03*
X010883Y012048D03*
X010870Y012038D03*
X010863Y012033D03*
X010860Y012036D03*
X010858Y012041D03*
X010860Y012043D03*
X010855Y012046D03*
X010853Y012051D03*
X010848Y012051D03*
X010848Y012046D03*
X010848Y012043D03*
X010850Y012041D03*
X010853Y012038D03*
X010840Y012041D03*
X010838Y012043D03*
X010840Y012053D03*
X010835Y012056D03*
X010825Y012048D03*
X010828Y012046D03*
X010820Y012046D03*
X010808Y012048D03*
X010805Y012053D03*
X010803Y012061D03*
X010808Y012061D03*
X010808Y012063D03*
X010805Y012066D03*
X010800Y012066D03*
X010793Y012066D03*
X010793Y012063D03*
X010788Y012068D03*
X010785Y012071D03*
X010783Y012073D03*
X010780Y012076D03*
X010780Y012078D03*
X010778Y012081D03*
X010775Y012078D03*
X010770Y012078D03*
X010778Y012073D03*
X010790Y012078D03*
X010805Y012073D03*
X010815Y012068D03*
X010815Y012058D03*
X010803Y012088D03*
X010783Y012096D03*
X010780Y012098D03*
X010760Y012091D03*
X010760Y012088D03*
X010758Y012093D03*
X010755Y012096D03*
X010753Y012093D03*
X010748Y012093D03*
X010740Y012101D03*
X010738Y012103D03*
X010745Y012106D03*
X010748Y012113D03*
X010745Y012116D03*
X010740Y012116D03*
X010735Y012118D03*
X010733Y012121D03*
X010730Y012123D03*
X010730Y012126D03*
X010725Y012126D03*
X010723Y012131D03*
X010723Y012133D03*
X010723Y012136D03*
X010713Y012138D03*
X010710Y012136D03*
X010705Y012136D03*
X010705Y012141D03*
X010700Y012141D03*
X010695Y012141D03*
X010690Y012133D03*
X010688Y012128D03*
X010685Y012131D03*
X010680Y012131D03*
X010680Y012133D03*
X010680Y012136D03*
X010685Y012143D03*
X010673Y012143D03*
X010673Y012141D03*
X010665Y012133D03*
X010665Y012131D03*
X010670Y012128D03*
X010670Y012126D03*
X010675Y012128D03*
X010665Y012123D03*
X010655Y012141D03*
X010660Y012143D03*
X010658Y012148D03*
X010663Y012151D03*
X010660Y012158D03*
X010653Y012158D03*
X010648Y012156D03*
X010645Y012158D03*
X010640Y012156D03*
X010635Y012156D03*
X010630Y012156D03*
X010640Y012151D03*
X010643Y012148D03*
X010648Y012146D03*
X010648Y012143D03*
X010645Y012138D03*
X010668Y012163D03*
X010675Y012166D03*
X010695Y012173D03*
X010703Y012173D03*
X010710Y012163D03*
X010715Y012176D03*
X010725Y012173D03*
X010735Y012163D03*
X010740Y012163D03*
X010750Y012158D03*
X010750Y012156D03*
X010755Y012156D03*
X010768Y012151D03*
X010770Y012148D03*
X010783Y012143D03*
X010748Y012138D03*
X010743Y012143D03*
X010740Y012136D03*
X010740Y012128D03*
X010735Y012128D03*
X010745Y012128D03*
X010733Y012113D03*
X010728Y012116D03*
X010728Y012118D03*
X010725Y012121D03*
X010723Y012116D03*
X010725Y012113D03*
X010718Y012116D03*
X010713Y012118D03*
X010713Y012103D03*
X010723Y012098D03*
X010753Y012108D03*
X010760Y012081D03*
X010730Y012146D03*
X010690Y012113D03*
X010683Y012188D03*
X010615Y012171D03*
X010608Y012178D03*
X010605Y012166D03*
X010595Y012171D03*
X010593Y012173D03*
X010595Y012178D03*
X010590Y012178D03*
X010580Y012178D03*
X010575Y012191D03*
X010570Y012191D03*
X010560Y012208D03*
X010555Y012206D03*
X010550Y012206D03*
X010548Y012211D03*
X010545Y012216D03*
X010540Y012216D03*
X010540Y012221D03*
X010535Y012226D03*
X010538Y012228D03*
X010538Y012233D03*
X010543Y012233D03*
X010535Y012248D03*
X010523Y012243D03*
X010520Y012236D03*
X010520Y012233D03*
X010523Y012231D03*
X010510Y012241D03*
X010513Y012251D03*
X010518Y012253D03*
X010518Y012256D03*
X010515Y012258D03*
X010510Y012268D03*
X010505Y012268D03*
X010505Y012266D03*
X010503Y012271D03*
X010498Y012271D03*
X010498Y012273D03*
X010493Y012273D03*
X010498Y012281D03*
X010500Y012283D03*
X010503Y012281D03*
X010503Y012278D03*
X010508Y012281D03*
X010510Y012291D03*
X010503Y012293D03*
X010498Y012291D03*
X010495Y012288D03*
X010498Y012296D03*
X010498Y012303D03*
X010503Y012308D03*
X010510Y012308D03*
X010508Y012326D03*
X010505Y012328D03*
X010505Y012331D03*
X010503Y012326D03*
X010498Y012326D03*
X010493Y012321D03*
X010488Y012321D03*
X010488Y012318D03*
X010490Y012316D03*
X010483Y012308D03*
X010485Y012301D03*
X010490Y012298D03*
X010470Y012303D03*
X010468Y012298D03*
X010458Y012293D03*
X010463Y012311D03*
X010468Y012311D03*
X010465Y012318D03*
X010465Y012321D03*
X010465Y012323D03*
X010468Y012328D03*
X010478Y012331D03*
X010478Y012323D03*
X010473Y012318D03*
X010458Y012318D03*
X010448Y012326D03*
X010450Y012331D03*
X010455Y012336D03*
X010460Y012341D03*
X010468Y012341D03*
X010468Y012343D03*
X010468Y012346D03*
X010470Y012348D03*
X010475Y012348D03*
X010473Y012341D03*
X010468Y012338D03*
X010483Y012346D03*
X010488Y012353D03*
X010488Y012356D03*
X010488Y012361D03*
X010483Y012356D03*
X010495Y012346D03*
X010488Y012338D03*
X010503Y012338D03*
X010508Y012338D03*
X010533Y012313D03*
X010530Y012271D03*
X010525Y012271D03*
X010520Y012271D03*
X010528Y012266D03*
X010503Y012261D03*
X010565Y012216D03*
X010448Y012341D03*
X010448Y012346D03*
X010448Y012348D03*
X010443Y012348D03*
X010443Y012353D03*
X010438Y012348D03*
X010430Y012348D03*
X010430Y012351D03*
X010425Y012351D03*
X010420Y012353D03*
X010413Y012348D03*
X010410Y012351D03*
X010405Y012361D03*
X010403Y012366D03*
X010408Y012368D03*
X010408Y012371D03*
X010408Y012373D03*
X010405Y012381D03*
X010410Y012388D03*
X010410Y012396D03*
X010408Y012406D03*
X010390Y012403D03*
X010380Y012403D03*
X010380Y012406D03*
X010375Y012406D03*
X010370Y012403D03*
X010368Y012401D03*
X010368Y012398D03*
X010370Y012391D03*
X010378Y012391D03*
X010380Y012393D03*
X010380Y012398D03*
X010378Y012401D03*
X010380Y012413D03*
X010375Y012413D03*
X010373Y012421D03*
X010368Y012421D03*
X010368Y012418D03*
X010370Y012426D03*
X010370Y012436D03*
X010370Y012438D03*
X010365Y012438D03*
X010365Y012441D03*
X010370Y012443D03*
X010358Y012438D03*
X010358Y012433D03*
X010358Y012428D03*
X010350Y012436D03*
X010348Y012438D03*
X010343Y012433D03*
X010350Y012446D03*
X010353Y012448D03*
X010353Y012451D03*
X010350Y012453D03*
X010348Y012451D03*
X010350Y012458D03*
X010348Y012463D03*
X010340Y012461D03*
X010335Y012453D03*
X010340Y012451D03*
X010360Y012453D03*
X010360Y012458D03*
X010358Y012463D03*
X010373Y012473D03*
X010378Y012473D03*
X010360Y012486D03*
X010355Y012496D03*
X010355Y012498D03*
X010350Y012498D03*
X010345Y012501D03*
X010343Y012503D03*
X010338Y012511D03*
X010335Y012513D03*
X010328Y012511D03*
X010323Y012511D03*
X010320Y012516D03*
X010315Y012511D03*
X010315Y012506D03*
X010310Y012513D03*
X010303Y012511D03*
X010300Y012523D03*
X010295Y012521D03*
X010290Y012518D03*
X010298Y012531D03*
X010305Y012526D03*
X010308Y012531D03*
X010318Y012528D03*
X010323Y012531D03*
X010328Y012531D03*
X010328Y012526D03*
X010335Y012536D03*
X010343Y012543D03*
X010335Y012548D03*
X010328Y012558D03*
X010325Y012566D03*
X010318Y012571D03*
X010318Y012573D03*
X010313Y012573D03*
X010313Y012563D03*
X010300Y012566D03*
X010295Y012566D03*
X010295Y012563D03*
X010298Y012558D03*
X010305Y012551D03*
X010310Y012548D03*
X010315Y012548D03*
X010320Y012548D03*
X010313Y012543D03*
X010303Y012541D03*
X010298Y012546D03*
X010288Y012553D03*
X010285Y012548D03*
X010283Y012546D03*
X010285Y012543D03*
X010283Y012541D03*
X010275Y012533D03*
X010268Y012556D03*
X010265Y012558D03*
X010260Y012556D03*
X010273Y012561D03*
X010278Y012561D03*
X010283Y012561D03*
X010283Y012558D03*
X010278Y012568D03*
X010275Y012573D03*
X010270Y012573D03*
X010280Y012576D03*
X010278Y012588D03*
X010285Y012591D03*
X010303Y012588D03*
X010308Y012588D03*
X010313Y012586D03*
X010303Y012598D03*
X010293Y012608D03*
X010290Y012616D03*
X010263Y012598D03*
X010263Y012596D03*
X010258Y012596D03*
X010253Y012596D03*
X010253Y012601D03*
X010253Y012591D03*
X010245Y012593D03*
X010243Y012591D03*
X010238Y012591D03*
X010235Y012596D03*
X010233Y012601D03*
X010235Y012603D03*
X010238Y012608D03*
X010235Y012611D03*
X010235Y012613D03*
X010240Y012613D03*
X010243Y012611D03*
X010248Y012611D03*
X010243Y012618D03*
X010230Y012611D03*
X010220Y012611D03*
X010220Y012613D03*
X010218Y012616D03*
X010220Y012618D03*
X010218Y012621D03*
X010218Y012626D03*
X010218Y012628D03*
X010220Y012631D03*
X010215Y012631D03*
X010210Y012633D03*
X010213Y012626D03*
X010203Y012631D03*
X010205Y012643D03*
X010208Y012648D03*
X010213Y012648D03*
X010203Y012651D03*
X010198Y012648D03*
X010195Y012651D03*
X010193Y012656D03*
X010195Y012658D03*
X010193Y012661D03*
X010200Y012658D03*
X010185Y012658D03*
X010185Y012661D03*
X010185Y012666D03*
X010190Y012673D03*
X010190Y012678D03*
X010185Y012678D03*
X010180Y012678D03*
X010178Y012686D03*
X010183Y012693D03*
X010178Y012696D03*
X010175Y012698D03*
X010173Y012703D03*
X010168Y012708D03*
X010170Y012711D03*
X010170Y012718D03*
X010168Y012721D03*
X010175Y012721D03*
X010175Y012718D03*
X010188Y012721D03*
X010190Y012713D03*
X010183Y012701D03*
X010193Y012688D03*
X010165Y012696D03*
X010163Y012701D03*
X010158Y012708D03*
X010155Y012706D03*
X010155Y012711D03*
X010153Y012713D03*
X010158Y012716D03*
X010160Y012713D03*
X010158Y012723D03*
X010153Y012728D03*
X010150Y012726D03*
X010150Y012723D03*
X010138Y012743D03*
X010138Y012746D03*
X010135Y012751D03*
X010138Y012758D03*
X010135Y012761D03*
X010130Y012761D03*
X010130Y012768D03*
X010135Y012771D03*
X010125Y012773D03*
X010120Y012776D03*
X010120Y012778D03*
X010120Y012786D03*
X010113Y012788D03*
X010113Y012793D03*
X010108Y012793D03*
X010115Y012801D03*
X010098Y012808D03*
X010098Y012811D03*
X010100Y012813D03*
X010100Y012816D03*
X010093Y012838D03*
X010085Y012838D03*
X010085Y012841D03*
X010083Y012843D03*
X010080Y012848D03*
X010075Y012858D03*
X010173Y012833D03*
X010193Y012783D03*
X010175Y012776D03*
X010158Y012748D03*
X010168Y012741D03*
X010173Y012741D03*
X010198Y012746D03*
X010143Y012756D03*
X010123Y012766D03*
X010243Y012698D03*
X010195Y012641D03*
X010205Y012616D03*
X010210Y012613D03*
X010215Y012613D03*
X010230Y012586D03*
X010245Y012586D03*
X010245Y012583D03*
X010250Y012573D03*
X010243Y012568D03*
X010243Y012566D03*
X010240Y012561D03*
X010258Y012578D03*
X010330Y012506D03*
X010330Y012501D03*
X010325Y012501D03*
X010325Y012491D03*
X010320Y012483D03*
X010328Y012473D03*
X010323Y012468D03*
X010338Y012483D03*
X010335Y012488D03*
X010335Y012493D03*
X010345Y012478D03*
X010370Y012501D03*
X010360Y012511D03*
X010308Y012488D03*
X010380Y012423D03*
X010385Y012391D03*
X010388Y012383D03*
X010393Y012386D03*
X010380Y012381D03*
X010410Y012363D03*
X010413Y012366D03*
X010420Y012371D03*
X010425Y012371D03*
X010425Y012368D03*
X010430Y012366D03*
X010430Y012371D03*
X010440Y012363D03*
X010460Y012363D03*
X010458Y012381D03*
X010418Y012376D03*
X010433Y012338D03*
X010430Y012336D03*
X010440Y012336D03*
X010440Y012338D03*
X010443Y012341D03*
X010413Y012446D03*
X010860Y012053D03*
X010865Y012048D03*
X010918Y012036D03*
X010918Y012033D03*
X010923Y012028D03*
X010915Y012023D03*
X010935Y012018D03*
X010948Y012021D03*
X010968Y012021D03*
X010968Y012023D03*
X010973Y012021D03*
X010975Y012018D03*
X010978Y012021D03*
X010973Y012026D03*
X010988Y012016D03*
X010965Y012046D03*
X010980Y012053D03*
X010980Y012056D03*
X010975Y012086D03*
X010968Y012088D03*
X010953Y012091D03*
X011010Y012088D03*
X011023Y012088D03*
X011158Y012008D03*
X011163Y012011D03*
X011165Y012008D03*
X011170Y012006D03*
X011173Y012011D03*
X011175Y012013D03*
X011178Y012011D03*
X011178Y012003D03*
X011168Y012013D03*
X011188Y012018D03*
X011193Y012018D03*
X011200Y012016D03*
X011208Y012018D03*
X011213Y012018D03*
X011220Y012023D03*
X011225Y012023D03*
X011220Y012028D03*
X011233Y012023D03*
X011238Y012026D03*
X011243Y012028D03*
X011240Y012036D03*
X011255Y012038D03*
X011278Y012041D03*
X011278Y012043D03*
X011285Y012048D03*
X011290Y012056D03*
X011298Y012056D03*
X011298Y012053D03*
X011310Y012068D03*
X011308Y012071D03*
X011310Y012073D03*
X011335Y012071D03*
X011185Y012043D03*
X011193Y012008D03*
X009648Y013686D03*
X009558Y013676D03*
X009078Y013723D03*
X009168Y014311D03*
X008918Y014328D03*
X008893Y014338D03*
X008310Y014483D03*
X008108Y014238D03*
X007970Y013936D03*
X007740Y014631D03*
X007670Y014648D03*
X007528Y014761D03*
X007355Y014796D03*
X007295Y014803D03*
X007228Y014803D03*
X007393Y014396D03*
X009508Y014406D03*
D16*
X009168Y014308D03*
X009540Y013758D03*
X010128Y012781D03*
X010128Y012778D03*
X010135Y012776D03*
X010143Y012753D03*
X010143Y012751D03*
X010150Y012748D03*
X010150Y012746D03*
X010155Y012738D03*
X010160Y012746D03*
X010168Y012748D03*
X010178Y012736D03*
X010160Y012728D03*
X010160Y012721D03*
X010160Y012718D03*
X010178Y012716D03*
X010183Y012713D03*
X010185Y012686D03*
X010183Y012681D03*
X010190Y012668D03*
X010193Y012666D03*
X010203Y012661D03*
X010228Y012631D03*
X010225Y012616D03*
X010255Y012598D03*
X010263Y012593D03*
X010268Y012591D03*
X010265Y012586D03*
X010265Y012583D03*
X010270Y012578D03*
X010270Y012568D03*
X010280Y012571D03*
X010278Y012591D03*
X010268Y012608D03*
X010298Y012551D03*
X010305Y012546D03*
X010313Y012551D03*
X010318Y012546D03*
X010330Y012546D03*
X010335Y012543D03*
X010333Y012541D03*
X010328Y012536D03*
X010330Y012516D03*
X010323Y012506D03*
X010325Y012503D03*
X010343Y012513D03*
X010348Y012511D03*
X010350Y012506D03*
X010350Y012503D03*
X010353Y012501D03*
X010360Y012503D03*
X010363Y012501D03*
X010363Y012498D03*
X010368Y012483D03*
X010375Y012488D03*
X010378Y012486D03*
X010350Y012476D03*
X010348Y012473D03*
X010375Y012441D03*
X010373Y012431D03*
X010393Y012401D03*
X010393Y012398D03*
X010393Y012391D03*
X010400Y012406D03*
X010418Y012396D03*
X010450Y012381D03*
X010453Y012373D03*
X010465Y012378D03*
X010475Y012356D03*
X010475Y012346D03*
X010475Y012343D03*
X010480Y012333D03*
X010495Y012338D03*
X010498Y012343D03*
X010460Y012346D03*
X010458Y012338D03*
X010445Y012351D03*
X010443Y012358D03*
X010433Y012358D03*
X010430Y012353D03*
X010438Y012346D03*
X010510Y012306D03*
X010518Y012303D03*
X010518Y012298D03*
X010525Y012296D03*
X010520Y012291D03*
X010513Y012278D03*
X010503Y012288D03*
X010520Y012263D03*
X010518Y012261D03*
X010543Y012238D03*
X010555Y012211D03*
X010560Y012198D03*
X010603Y012168D03*
X010615Y012166D03*
X010620Y012158D03*
X010648Y012153D03*
X010648Y012151D03*
X010655Y012146D03*
X010658Y012161D03*
X010690Y012148D03*
X010713Y012146D03*
X010713Y012141D03*
X010723Y012141D03*
X010723Y012146D03*
X010728Y012153D03*
X010738Y012146D03*
X010740Y012158D03*
X010723Y012171D03*
X010688Y012193D03*
X010718Y012123D03*
X010748Y012121D03*
X010753Y012128D03*
X010745Y012111D03*
X010755Y012101D03*
X010775Y012083D03*
X010788Y012081D03*
X010803Y012078D03*
X010803Y012071D03*
X010815Y012066D03*
X010828Y012056D03*
X010825Y012051D03*
X010835Y012051D03*
X010833Y012061D03*
X010848Y012066D03*
X010870Y012046D03*
X010875Y012048D03*
X010890Y012058D03*
X010913Y012058D03*
X010935Y012046D03*
X010948Y012041D03*
X010948Y012038D03*
X010948Y012036D03*
X010958Y012046D03*
X010973Y012053D03*
X010980Y012048D03*
X010993Y012048D03*
X010995Y012033D03*
X010978Y012036D03*
X010980Y012061D03*
X010975Y012088D03*
X011018Y012043D03*
X011040Y012031D03*
X011048Y012018D03*
X011060Y012023D03*
X011063Y012026D03*
X011065Y012033D03*
X011055Y012033D03*
X011093Y012023D03*
X011100Y012021D03*
X011098Y012016D03*
X011108Y012011D03*
X011110Y012023D03*
X011095Y012043D03*
X011133Y012011D03*
X011140Y012001D03*
X011153Y012011D03*
X011200Y012011D03*
X011203Y012013D03*
X011200Y012018D03*
X011205Y012023D03*
X011265Y012036D03*
X011265Y012038D03*
X011278Y012038D03*
X010530Y012303D03*
X010343Y012521D03*
X010218Y012741D03*
X011040Y013696D03*
X011040Y013698D03*
X011040Y013701D03*
X011035Y013708D03*
X011033Y013716D03*
X007955Y013936D03*
D17*
X007939Y013936D03*
X008066Y014241D03*
X008226Y014506D03*
X008321Y014593D03*
X008114Y014633D03*
X008579Y014206D03*
X008649Y013791D03*
X008686Y013776D03*
X009044Y013716D03*
X009079Y013726D03*
X009539Y014408D03*
X010069Y012876D03*
X010094Y012823D03*
X010104Y012811D03*
X010109Y012801D03*
X010114Y012791D03*
X010116Y012783D03*
X010119Y012781D03*
X010124Y012783D03*
X010126Y012776D03*
X010126Y012763D03*
X010139Y012766D03*
X010141Y012761D03*
X010141Y012748D03*
X010156Y012736D03*
X010161Y012726D03*
X010181Y012718D03*
X010176Y012701D03*
X010186Y012691D03*
X010184Y012688D03*
X010196Y012681D03*
X010201Y012673D03*
X010199Y012671D03*
X010204Y012653D03*
X010194Y012653D03*
X010206Y012638D03*
X010211Y012636D03*
X010224Y012626D03*
X010231Y012618D03*
X010226Y012613D03*
X010231Y012608D03*
X010234Y012606D03*
X010241Y012603D03*
X010241Y012601D03*
X010244Y012598D03*
X010251Y012603D03*
X010261Y012603D03*
X010269Y012596D03*
X010274Y012586D03*
X010276Y012581D03*
X010279Y012578D03*
X010284Y012573D03*
X010286Y012576D03*
X010286Y012563D03*
X010276Y012563D03*
X010289Y012551D03*
X010299Y012561D03*
X010304Y012548D03*
X010316Y012531D03*
X010321Y012526D03*
X010324Y012528D03*
X010329Y012521D03*
X010329Y012513D03*
X010336Y012506D03*
X010344Y012508D03*
X010336Y012496D03*
X010344Y012491D03*
X010359Y012483D03*
X010366Y012481D03*
X010369Y012486D03*
X010369Y012493D03*
X010364Y012473D03*
X010356Y012473D03*
X010349Y012461D03*
X010341Y012463D03*
X010336Y012458D03*
X010341Y012471D03*
X010321Y012476D03*
X010349Y012443D03*
X010371Y012446D03*
X010374Y012423D03*
X010379Y012418D03*
X010381Y012411D03*
X010391Y012406D03*
X010401Y012398D03*
X010404Y012393D03*
X010404Y012391D03*
X010401Y012388D03*
X010401Y012386D03*
X010401Y012383D03*
X010394Y012383D03*
X010399Y012376D03*
X010409Y012376D03*
X010414Y012373D03*
X010424Y012376D03*
X010424Y012366D03*
X010424Y012361D03*
X010421Y012358D03*
X010421Y012346D03*
X010429Y012343D03*
X010439Y012343D03*
X010449Y012336D03*
X010451Y012353D03*
X010459Y012351D03*
X010474Y012338D03*
X010479Y012336D03*
X010471Y012333D03*
X010474Y012326D03*
X010464Y012326D03*
X010466Y012316D03*
X010474Y012316D03*
X010474Y012313D03*
X010484Y012323D03*
X010489Y012313D03*
X010494Y012308D03*
X010499Y012306D03*
X010499Y012313D03*
X010509Y012303D03*
X010506Y012301D03*
X010509Y012298D03*
X010509Y012296D03*
X010509Y012293D03*
X010504Y012291D03*
X010501Y012286D03*
X010499Y012298D03*
X010489Y012293D03*
X010516Y012296D03*
X010526Y012298D03*
X010539Y012303D03*
X010544Y012301D03*
X010526Y012316D03*
X010514Y012326D03*
X010511Y012328D03*
X010511Y012331D03*
X010499Y012341D03*
X010494Y012348D03*
X010494Y012353D03*
X010489Y012346D03*
X010489Y012343D03*
X010489Y012336D03*
X010476Y012371D03*
X010444Y012373D03*
X010416Y012388D03*
X010411Y012391D03*
X010411Y012393D03*
X010419Y012393D03*
X010414Y012403D03*
X010369Y012413D03*
X010361Y012421D03*
X010361Y012423D03*
X010351Y012521D03*
X010344Y012523D03*
X010344Y012531D03*
X010339Y012533D03*
X010334Y012538D03*
X010329Y012548D03*
X010331Y012556D03*
X010316Y012568D03*
X010311Y012571D03*
X010314Y012578D03*
X010304Y012591D03*
X010259Y012591D03*
X010256Y012583D03*
X010256Y012581D03*
X010241Y012616D03*
X010236Y012708D03*
X010206Y012748D03*
X010206Y012763D03*
X010189Y012743D03*
X010169Y012683D03*
X010124Y012806D03*
X010511Y012271D03*
X010516Y012273D03*
X010511Y012263D03*
X010526Y012261D03*
X010521Y012251D03*
X010526Y012248D03*
X010534Y012238D03*
X010544Y012228D03*
X010546Y012231D03*
X010551Y012226D03*
X010549Y012221D03*
X010561Y012201D03*
X010569Y012201D03*
X010581Y012191D03*
X010586Y012183D03*
X010601Y012178D03*
X010601Y012171D03*
X010609Y012171D03*
X010624Y012151D03*
X010649Y012161D03*
X010656Y012156D03*
X010661Y012163D03*
X010666Y012158D03*
X010669Y012161D03*
X010676Y012163D03*
X010679Y012153D03*
X010676Y012151D03*
X010676Y012148D03*
X010679Y012143D03*
X010679Y012141D03*
X010676Y012138D03*
X010686Y012141D03*
X010691Y012158D03*
X010711Y012148D03*
X010721Y012138D03*
X010716Y012131D03*
X010706Y012126D03*
X010704Y012131D03*
X010719Y012118D03*
X010729Y012131D03*
X010731Y012141D03*
X010736Y012153D03*
X010759Y012151D03*
X010754Y012138D03*
X010739Y012121D03*
X010754Y012103D03*
X010754Y012098D03*
X010766Y012093D03*
X010764Y012083D03*
X010766Y012081D03*
X010771Y012076D03*
X010766Y012073D03*
X010786Y012076D03*
X010786Y012083D03*
X010789Y012096D03*
X010776Y012093D03*
X010796Y012068D03*
X010799Y012056D03*
X010814Y012056D03*
X010819Y012053D03*
X010826Y012053D03*
X010834Y012053D03*
X010834Y012048D03*
X010824Y012061D03*
X010821Y012068D03*
X010829Y012068D03*
X010814Y012063D03*
X010811Y012073D03*
X010854Y012048D03*
X010859Y012051D03*
X010861Y012046D03*
X010869Y012041D03*
X010876Y012041D03*
X010879Y012043D03*
X010884Y012046D03*
X010884Y012038D03*
X010879Y012036D03*
X010896Y012041D03*
X010896Y012046D03*
X010901Y012043D03*
X010906Y012041D03*
X010906Y012046D03*
X010909Y012048D03*
X010914Y012046D03*
X010914Y012043D03*
X010919Y012038D03*
X010924Y012041D03*
X010926Y012033D03*
X010911Y012036D03*
X010926Y012053D03*
X010949Y012046D03*
X010966Y012033D03*
X010984Y012026D03*
X010999Y012026D03*
X010999Y012028D03*
X011004Y012033D03*
X011004Y012038D03*
X011009Y012043D03*
X011016Y012038D03*
X011014Y012033D03*
X011024Y012038D03*
X011019Y012046D03*
X011036Y012028D03*
X011034Y012026D03*
X011041Y012026D03*
X011054Y012031D03*
X011066Y012028D03*
X011079Y012023D03*
X011081Y012021D03*
X011081Y012018D03*
X011079Y012011D03*
X011086Y012031D03*
X011101Y012026D03*
X011101Y012023D03*
X011106Y012018D03*
X011106Y012016D03*
X011114Y012018D03*
X011114Y012013D03*
X011151Y012013D03*
X011159Y012013D03*
X011169Y012023D03*
X011176Y012016D03*
X011181Y012013D03*
X011189Y012011D03*
X011191Y012016D03*
X011194Y012023D03*
X011214Y012023D03*
X011214Y012021D03*
X011221Y012033D03*
X011226Y012028D03*
X011229Y012033D03*
X011236Y012031D03*
X011244Y012031D03*
X011246Y012036D03*
X011249Y012033D03*
X011254Y012036D03*
X011266Y012041D03*
X011271Y012043D03*
X011289Y012058D03*
X011304Y012056D03*
X011369Y012096D03*
X011174Y012008D03*
X011054Y012013D03*
X010899Y012058D03*
X010881Y012066D03*
X010669Y012151D03*
X010659Y012171D03*
X011039Y013703D03*
X011036Y013706D03*
X007374Y014306D03*
X007364Y014398D03*
X007346Y014396D03*
X007474Y014773D03*
X007269Y014806D03*
D18*
X008581Y014203D03*
X010111Y012806D03*
X010141Y012778D03*
X010151Y012766D03*
X010151Y012741D03*
X010171Y012738D03*
X010181Y012731D03*
X010174Y012726D03*
X010231Y012628D03*
X010281Y012608D03*
X010289Y012588D03*
X010301Y012586D03*
X010356Y012508D03*
X010384Y012421D03*
X010436Y012381D03*
X010436Y012361D03*
X010486Y012326D03*
X010494Y012333D03*
X010519Y012301D03*
X010521Y012286D03*
X010521Y012281D03*
X010606Y012173D03*
X010619Y012176D03*
X010664Y012166D03*
X010686Y012166D03*
X010699Y012143D03*
X010741Y012148D03*
X010749Y012153D03*
X010759Y012148D03*
X010769Y012143D03*
X010769Y012098D03*
X010894Y012053D03*
X010914Y012053D03*
X010996Y012051D03*
X010996Y012043D03*
X011046Y012021D03*
X011049Y012016D03*
X011079Y012026D03*
X011134Y012018D03*
X011136Y012013D03*
X011181Y012023D03*
X011206Y012026D03*
X011299Y012066D03*
X011399Y012128D03*
X011026Y013643D03*
X011021Y013646D03*
X011021Y013648D03*
X011019Y013653D03*
X011016Y013656D03*
X011001Y013676D03*
D19*
X011006Y013668D03*
X011039Y013633D03*
X011044Y013626D03*
X011046Y013623D03*
X010276Y012618D03*
X010299Y012578D03*
X010299Y012573D03*
X010296Y012571D03*
X010314Y012558D03*
X010359Y012488D03*
X010396Y012411D03*
X010431Y012388D03*
X010446Y012393D03*
X010454Y012388D03*
X010459Y012356D03*
X010491Y012331D03*
X010529Y012308D03*
X010541Y012298D03*
X010541Y012296D03*
X010646Y012163D03*
X010736Y012156D03*
X010754Y012146D03*
X010806Y012081D03*
X010831Y012066D03*
X010874Y012053D03*
X010996Y012061D03*
X011009Y012048D03*
X011001Y012036D03*
X011154Y012018D03*
X011154Y012016D03*
X011204Y012028D03*
X011321Y012071D03*
X011324Y012068D03*
X010221Y012638D03*
X010184Y012746D03*
X010199Y012761D03*
X010189Y012776D03*
X010159Y012753D03*
D20*
X010166Y012736D03*
X010169Y012723D03*
X010184Y012723D03*
X010196Y012726D03*
X010209Y012746D03*
X010214Y012743D03*
X010179Y012743D03*
X010139Y012781D03*
X010129Y012786D03*
X010201Y012668D03*
X010201Y012663D03*
X010214Y012663D03*
X010269Y012646D03*
X010259Y012611D03*
X010251Y012608D03*
X010266Y012581D03*
X010276Y012583D03*
X010284Y012586D03*
X010294Y012591D03*
X010304Y012563D03*
X010309Y012553D03*
X010304Y012543D03*
X010294Y012548D03*
X010296Y012553D03*
X010321Y012563D03*
X010324Y012543D03*
X010321Y012538D03*
X010331Y012523D03*
X010344Y012526D03*
X010354Y012513D03*
X010346Y012496D03*
X010354Y012491D03*
X010351Y012486D03*
X010349Y012483D03*
X010366Y012491D03*
X010369Y012496D03*
X010379Y012483D03*
X010379Y012478D03*
X010386Y012473D03*
X010386Y012396D03*
X010399Y012396D03*
X010414Y012378D03*
X010421Y012381D03*
X010429Y012393D03*
X010429Y012396D03*
X010466Y012381D03*
X010461Y012348D03*
X010484Y012348D03*
X010494Y012323D03*
X010509Y012333D03*
X010534Y012301D03*
X010519Y012293D03*
X010519Y012268D03*
X010519Y012266D03*
X010536Y012231D03*
X010604Y012176D03*
X010636Y012173D03*
X010636Y012153D03*
X010636Y012146D03*
X010671Y012156D03*
X010676Y012158D03*
X010701Y012148D03*
X010709Y012178D03*
X010731Y012136D03*
X010771Y012146D03*
X010791Y012093D03*
X010811Y012076D03*
X010806Y012068D03*
X010839Y012068D03*
X010849Y012056D03*
X010851Y012053D03*
X010844Y012048D03*
X010839Y012046D03*
X010869Y012043D03*
X010894Y012048D03*
X010959Y012041D03*
X010961Y012043D03*
X010971Y012041D03*
X010981Y012051D03*
X010989Y012056D03*
X011001Y012056D03*
X010996Y012046D03*
X011009Y012046D03*
X011014Y012041D03*
X011014Y012058D03*
X010989Y012028D03*
X011041Y012023D03*
X011076Y012028D03*
X011111Y012026D03*
X011136Y012016D03*
X011201Y012021D03*
X011239Y012033D03*
X011246Y012038D03*
X011306Y012058D03*
X011401Y012131D03*
X009196Y014313D03*
X008704Y013776D03*
D21*
X009470Y014273D03*
X010110Y012808D03*
X010150Y012743D03*
X010255Y012618D03*
X010248Y012606D03*
X010313Y012566D03*
X010325Y012553D03*
X010328Y012551D03*
X010318Y012541D03*
X010348Y012516D03*
X010363Y012478D03*
X010370Y012463D03*
X010373Y012458D03*
X010393Y012458D03*
X010388Y012408D03*
X010408Y012408D03*
X010430Y012373D03*
X010428Y012356D03*
X010468Y012373D03*
X010470Y012368D03*
X010485Y012341D03*
X010490Y012311D03*
X010530Y012256D03*
X010683Y012161D03*
X010695Y012151D03*
X010698Y012146D03*
X010723Y012163D03*
X010735Y012138D03*
X010770Y012096D03*
X010858Y012063D03*
X010915Y012056D03*
X010915Y012051D03*
X010968Y012056D03*
X011073Y012031D03*
X011175Y012018D03*
X011175Y012048D03*
X011253Y012041D03*
X011308Y012061D03*
X011318Y012066D03*
X011033Y013636D03*
X011020Y013651D03*
X011015Y013658D03*
X011015Y013661D03*
X011015Y013663D03*
X011005Y013671D03*
X011005Y013673D03*
X007368Y014396D03*
X007325Y014798D03*
X007233Y014806D03*
D22*
X009050Y013728D03*
X009473Y014291D03*
X009198Y014303D03*
X010175Y012758D03*
X010625Y012183D03*
X011058Y012046D03*
X011160Y012021D03*
X010623Y015551D03*
D23*
X009468Y014271D03*
X009048Y013718D03*
X010110Y012796D03*
X010178Y012753D03*
X010200Y012743D03*
X010188Y012711D03*
X010193Y012683D03*
X010210Y012656D03*
X010230Y012621D03*
X010255Y012646D03*
X010275Y012593D03*
X010263Y012588D03*
X010270Y012576D03*
X010283Y012566D03*
X010313Y012536D03*
X010338Y012528D03*
X010325Y012508D03*
X010363Y012506D03*
X010355Y012481D03*
X010378Y012481D03*
X010388Y012463D03*
X010385Y012443D03*
X010400Y012403D03*
X010405Y012401D03*
X010413Y012398D03*
X010428Y012391D03*
X010435Y012376D03*
X010430Y012363D03*
X010450Y012363D03*
X010480Y012328D03*
X010495Y012328D03*
X010500Y012336D03*
X010558Y012288D03*
X010528Y012253D03*
X010555Y012216D03*
X010570Y012193D03*
X010623Y012173D03*
X010628Y012166D03*
X010635Y012158D03*
X010643Y012166D03*
X010660Y012153D03*
X010688Y012181D03*
X010693Y012188D03*
X010703Y012181D03*
X010713Y012173D03*
X010715Y012151D03*
X010715Y012143D03*
X010713Y012133D03*
X010725Y012148D03*
X010733Y012143D03*
X010735Y012133D03*
X010753Y012143D03*
X010875Y012063D03*
X010923Y012048D03*
X010930Y012043D03*
X010983Y012046D03*
X011020Y012056D03*
X011038Y012033D03*
X011080Y012033D03*
X011113Y012021D03*
X010985Y012086D03*
X011320Y012073D03*
X011335Y012073D03*
X010390Y012393D03*
X010160Y012731D03*
X011028Y013638D03*
X011028Y013641D03*
X011013Y013666D03*
X011033Y013711D03*
X011033Y013713D03*
D24*
X011056Y013686D03*
X011059Y013683D03*
X011059Y013681D03*
X011086Y013643D03*
X010261Y012621D03*
X010266Y012613D03*
X010244Y012656D03*
X010209Y012718D03*
X010184Y012766D03*
X010376Y012461D03*
X010384Y012448D03*
X010399Y012436D03*
X010806Y012123D03*
X011141Y012023D03*
X009541Y014406D03*
X009044Y013723D03*
X010626Y015556D03*
D25*
X009200Y014296D03*
X008703Y013786D03*
X008585Y014193D03*
X008088Y014228D03*
X007965Y013943D03*
X007365Y014388D03*
X010130Y012841D03*
X010130Y012836D03*
X011135Y012041D03*
X011158Y012026D03*
X011228Y012043D03*
D26*
X011174Y012028D03*
X010949Y012053D03*
X010941Y012056D03*
X010869Y012058D03*
X010749Y012126D03*
X010629Y012161D03*
X010624Y012168D03*
X010549Y012286D03*
X010544Y012291D03*
X010541Y012293D03*
X010469Y012361D03*
X010459Y012376D03*
X010444Y012368D03*
X010426Y012411D03*
X010296Y012568D03*
X010244Y012666D03*
X010156Y012776D03*
D27*
X010145Y012773D03*
X010133Y012788D03*
X010275Y012606D03*
X010290Y012596D03*
X010373Y012476D03*
X010393Y012446D03*
X010435Y012403D03*
X010470Y012358D03*
X010533Y012288D03*
X010775Y012138D03*
X010783Y012088D03*
X010948Y012048D03*
X010950Y012051D03*
X011140Y012028D03*
X011330Y012076D03*
X009040Y013721D03*
X008583Y014201D03*
D28*
X008070Y014238D03*
X009470Y014276D03*
X010145Y012768D03*
X010160Y012751D03*
X010213Y012681D03*
X010210Y012666D03*
X010220Y012653D03*
X010295Y012593D03*
X010318Y012561D03*
X010320Y012533D03*
X010353Y012493D03*
X010405Y012443D03*
X010448Y012396D03*
X010475Y012363D03*
X010513Y012323D03*
X010515Y012313D03*
X010585Y012258D03*
X010555Y012213D03*
X010705Y012171D03*
X010823Y012078D03*
X010865Y012066D03*
X010890Y012061D03*
X011018Y012051D03*
X011110Y012028D03*
X011043Y013628D03*
X011040Y013631D03*
X010620Y015558D03*
D29*
X010620Y015541D03*
X010430Y015378D03*
X010428Y015376D03*
X010423Y015371D03*
X010420Y015368D03*
X010418Y015366D03*
X010413Y015361D03*
X010408Y015356D03*
X010405Y015351D03*
X009625Y014306D03*
X009315Y013843D03*
X009318Y013838D03*
X009320Y013836D03*
X009200Y014088D03*
X009200Y014091D03*
X009200Y014093D03*
X009200Y014096D03*
X009200Y014098D03*
X009093Y013781D03*
X009090Y013778D03*
X009088Y013776D03*
X009080Y013766D03*
X008800Y013913D03*
X008803Y013918D03*
X008803Y013921D03*
X008810Y013936D03*
X008810Y013938D03*
X008810Y013941D03*
X008588Y014161D03*
X008885Y014271D03*
X008885Y014273D03*
X008890Y014293D03*
X008890Y014296D03*
X008890Y014298D03*
X008890Y014301D03*
X008890Y014303D03*
X008100Y014088D03*
X008093Y014073D03*
X008090Y014068D03*
X008090Y014066D03*
X007970Y013951D03*
X007388Y014368D03*
X007163Y013898D03*
X007163Y013896D03*
X007160Y013893D03*
X007160Y013891D03*
X007155Y013841D03*
X010885Y012076D03*
X010910Y012068D03*
X011153Y012033D03*
X011155Y012031D03*
X011428Y012261D03*
X011428Y012263D03*
X011430Y012266D03*
X011430Y012268D03*
X011433Y012273D03*
X011435Y012278D03*
X011438Y012283D03*
X011445Y012298D03*
X011445Y012301D03*
D30*
X011404Y012221D03*
X011404Y012218D03*
X011401Y012213D03*
X011166Y012036D03*
X010831Y012101D03*
X009694Y013778D03*
X009379Y013783D03*
X009371Y013786D03*
X009359Y013798D03*
X009201Y014043D03*
X009201Y014046D03*
X009201Y014048D03*
X009201Y014051D03*
X009201Y014053D03*
X009201Y014056D03*
X009201Y014058D03*
X008781Y013888D03*
X008496Y013913D03*
X008494Y013908D03*
X008484Y013893D03*
X008481Y013891D03*
X008479Y013888D03*
X008586Y014136D03*
X008306Y014506D03*
X008071Y014041D03*
X007976Y013956D03*
X007176Y013918D03*
X007171Y013826D03*
X007184Y013806D03*
X010464Y015413D03*
X010466Y015416D03*
X010616Y015536D03*
D31*
X009201Y014311D03*
X010124Y012798D03*
X010196Y012756D03*
X010199Y012753D03*
X010216Y012726D03*
X010239Y012681D03*
X010219Y012651D03*
X010264Y012643D03*
X010279Y012611D03*
X010336Y012518D03*
X010431Y012408D03*
X010449Y012391D03*
X010471Y012353D03*
X010509Y012316D03*
X010514Y012321D03*
X010679Y012171D03*
X010694Y012163D03*
X010741Y012151D03*
X010834Y012063D03*
X011041Y012038D03*
X011076Y012041D03*
X011081Y012036D03*
D32*
X011045Y012036D03*
X010790Y012091D03*
X010780Y012103D03*
X010703Y012156D03*
X010690Y012176D03*
X010443Y012386D03*
X010398Y012438D03*
X010385Y012453D03*
X010385Y012456D03*
X010255Y012638D03*
X010225Y012646D03*
X010218Y012711D03*
X010215Y012713D03*
X010173Y012788D03*
X011088Y013641D03*
X011075Y013656D03*
X011075Y013658D03*
X011075Y013661D03*
X011055Y013688D03*
X007178Y013781D03*
D33*
X008703Y013781D03*
X010213Y012698D03*
X010220Y012691D03*
X010405Y012426D03*
X010410Y012418D03*
X010440Y012383D03*
X010793Y012126D03*
X011210Y012038D03*
X011063Y013676D03*
D34*
X010123Y012853D03*
X010128Y012846D03*
X010118Y012863D03*
X010115Y012868D03*
X010113Y012871D03*
X010113Y012873D03*
X010110Y012878D03*
X010108Y012881D03*
X010098Y012903D03*
X010088Y012928D03*
X010088Y012931D03*
X010085Y012938D03*
X010083Y012941D03*
X010070Y012968D03*
X010070Y012971D03*
X010070Y012973D03*
X010070Y012976D03*
X010068Y012983D03*
X010065Y012988D03*
X010060Y012996D03*
X010055Y013011D03*
X010055Y013013D03*
X010053Y013023D03*
X010045Y013036D03*
X010045Y013038D03*
X010045Y013041D03*
X010045Y013043D03*
X010043Y013048D03*
X010040Y013053D03*
X010038Y013061D03*
X010038Y013063D03*
X010033Y013078D03*
X010033Y013081D03*
X010025Y013093D03*
X010025Y013096D03*
X010025Y013098D03*
X010025Y013101D03*
X010018Y013121D03*
X010018Y013123D03*
X010018Y013126D03*
X010018Y013128D03*
X010018Y013131D03*
X010015Y013136D03*
X010015Y013138D03*
X010010Y013146D03*
X010010Y013148D03*
X010010Y013151D03*
X010010Y013153D03*
X010010Y013156D03*
X010008Y013158D03*
X010005Y013163D03*
X010005Y013166D03*
X010005Y013168D03*
X010005Y013171D03*
X010005Y013173D03*
X010003Y013178D03*
X010003Y013181D03*
X010000Y013183D03*
X010000Y013186D03*
X010000Y013188D03*
X010000Y013191D03*
X009998Y013193D03*
X009993Y013216D03*
X009990Y013221D03*
X009990Y013223D03*
X009990Y013233D03*
X009985Y013246D03*
X009978Y013276D03*
X009978Y013278D03*
X009978Y013281D03*
X009978Y013283D03*
X009978Y013286D03*
X009973Y013303D03*
X009973Y013306D03*
X009973Y013308D03*
X009970Y013311D03*
X009965Y013336D03*
X009968Y013343D03*
X009965Y013346D03*
X009965Y013348D03*
X009965Y013351D03*
X009963Y013358D03*
X009963Y013361D03*
X009963Y013363D03*
X009953Y013408D03*
X009953Y013411D03*
X009953Y013413D03*
X009953Y013416D03*
X009953Y013418D03*
X009953Y013421D03*
X009953Y013423D03*
X009953Y013433D03*
X009950Y013436D03*
X009950Y013438D03*
X009950Y013441D03*
X009948Y013463D03*
X009948Y013466D03*
X009948Y013468D03*
X009948Y013471D03*
X009948Y013473D03*
X009948Y013476D03*
X009948Y013478D03*
X009940Y013518D03*
X009940Y013521D03*
X009940Y013523D03*
X009940Y013526D03*
X009938Y013561D03*
X009938Y013563D03*
X009935Y013581D03*
X009935Y013593D03*
X009935Y013596D03*
X009933Y013616D03*
X009930Y013621D03*
X009930Y013623D03*
X009930Y013626D03*
X009930Y013628D03*
X009930Y013631D03*
X009930Y013633D03*
X009930Y013636D03*
X009930Y013641D03*
X009930Y013643D03*
X009930Y013648D03*
X009930Y013651D03*
X009930Y013653D03*
X009930Y013671D03*
X009930Y013673D03*
X009930Y013676D03*
X009930Y013678D03*
X009928Y013693D03*
X009928Y013696D03*
X009928Y013706D03*
X009928Y013708D03*
X009928Y013711D03*
X009928Y013713D03*
X009928Y013723D03*
X009928Y013726D03*
X009928Y013728D03*
X009928Y013743D03*
X009925Y013768D03*
X009925Y013771D03*
X009925Y013773D03*
X009928Y013778D03*
X009928Y013781D03*
X009928Y013783D03*
X009925Y013788D03*
X009925Y013791D03*
X009925Y013793D03*
X009925Y013796D03*
X009925Y013798D03*
X009925Y013801D03*
X009925Y013803D03*
X009925Y013806D03*
X009925Y013808D03*
X009925Y013811D03*
X009925Y013813D03*
X009925Y013826D03*
X009925Y013828D03*
X009925Y013831D03*
X009925Y013833D03*
X009925Y013836D03*
X009925Y013838D03*
X009925Y013841D03*
X009925Y013858D03*
X009925Y013861D03*
X009925Y013871D03*
X009925Y013873D03*
X009925Y013876D03*
X009930Y013888D03*
X009930Y013891D03*
X009928Y013893D03*
X009928Y013898D03*
X009928Y013901D03*
X009928Y013903D03*
X009928Y013906D03*
X009928Y013908D03*
X009928Y013911D03*
X009928Y013913D03*
X009928Y013916D03*
X009928Y013921D03*
X009928Y013923D03*
X009928Y013926D03*
X009928Y013928D03*
X009928Y013931D03*
X009928Y013933D03*
X009928Y013936D03*
X009928Y013938D03*
X009930Y013951D03*
X009930Y013953D03*
X009930Y013956D03*
X009930Y013971D03*
X009933Y013978D03*
X009930Y014001D03*
X009930Y014003D03*
X009930Y014006D03*
X009930Y014008D03*
X009930Y014011D03*
X009933Y014036D03*
X009935Y014043D03*
X009935Y014053D03*
X009935Y014066D03*
X009935Y014068D03*
X009935Y014071D03*
X009938Y014083D03*
X009938Y014086D03*
X009938Y014088D03*
X009938Y014091D03*
X009938Y014093D03*
X009940Y014098D03*
X009940Y014101D03*
X009940Y014116D03*
X009940Y014118D03*
X009940Y014121D03*
X009940Y014123D03*
X009940Y014126D03*
X009945Y014168D03*
X009945Y014171D03*
X009948Y014176D03*
X009948Y014178D03*
X009948Y014181D03*
X009948Y014193D03*
X009948Y014196D03*
X009955Y014238D03*
X009955Y014241D03*
X009955Y014243D03*
X009958Y014261D03*
X009958Y014263D03*
X009960Y014278D03*
X009960Y014281D03*
X009960Y014283D03*
X009960Y014286D03*
X009960Y014288D03*
X009963Y014293D03*
X009963Y014296D03*
X009963Y014298D03*
X009963Y014301D03*
X009963Y014303D03*
X009965Y014308D03*
X009965Y014311D03*
X009968Y014326D03*
X009968Y014328D03*
X009968Y014331D03*
X009970Y014343D03*
X009973Y014358D03*
X009975Y014366D03*
X009978Y014378D03*
X009978Y014381D03*
X009980Y014396D03*
X009983Y014418D03*
X009985Y014426D03*
X009985Y014428D03*
X009985Y014431D03*
X009988Y014441D03*
X009990Y014448D03*
X009990Y014451D03*
X009990Y014453D03*
X009995Y014471D03*
X010013Y014546D03*
X010020Y014576D03*
X010023Y014583D03*
X010048Y014666D03*
X010050Y014676D03*
X010050Y014678D03*
X010050Y014681D03*
X010058Y014701D03*
X009535Y014398D03*
X008885Y014323D03*
X008090Y014223D03*
X008090Y014221D03*
X010593Y012228D03*
X010613Y012216D03*
X010615Y012213D03*
X010963Y012058D03*
X011138Y012046D03*
X011138Y012038D03*
D35*
X011074Y012038D03*
X011011Y012086D03*
X010886Y012051D03*
X010704Y012153D03*
X010636Y012171D03*
X010519Y012311D03*
X010441Y012378D03*
X010439Y012398D03*
X010299Y012581D03*
X010261Y012628D03*
X010251Y012653D03*
X010194Y012741D03*
X010164Y012756D03*
X009199Y014308D03*
X008876Y014336D03*
X007254Y014803D03*
D36*
X007281Y014798D03*
X008876Y014333D03*
X009191Y014306D03*
X009466Y014283D03*
X010219Y012693D03*
X010231Y012671D03*
X010236Y012661D03*
X010246Y012648D03*
X010256Y012626D03*
X010366Y012468D03*
X010364Y012466D03*
X010414Y012413D03*
X010549Y012278D03*
X010556Y012268D03*
X010559Y012266D03*
X010786Y012128D03*
X011206Y012041D03*
X011096Y013628D03*
D37*
X011076Y013653D03*
X011074Y013663D03*
X011071Y013666D03*
X011069Y013671D03*
X011069Y013673D03*
X010194Y012751D03*
X010201Y012738D03*
X010204Y012736D03*
X010211Y012723D03*
X010166Y012761D03*
X010229Y012643D03*
X010266Y012616D03*
X010434Y012401D03*
X010661Y012168D03*
X010681Y012183D03*
X010761Y012123D03*
X011041Y012041D03*
X008701Y013778D03*
D38*
X008344Y013758D03*
X008321Y014493D03*
X009479Y014293D03*
X009929Y013856D03*
X009931Y013853D03*
X009931Y013851D03*
X009931Y013848D03*
X009959Y013376D03*
X009999Y013203D03*
X009999Y013201D03*
X010101Y012896D03*
X010104Y012893D03*
X010114Y012876D03*
X010134Y012826D03*
X010139Y012818D03*
X010144Y012813D03*
X011141Y012043D03*
D39*
X011056Y012043D03*
X010776Y012131D03*
X010574Y012253D03*
X010564Y012261D03*
X010546Y012276D03*
X010169Y012763D03*
X010171Y012771D03*
X010154Y012801D03*
X009536Y014403D03*
X008876Y014328D03*
X008326Y014488D03*
X007361Y014393D03*
D40*
X007371Y014386D03*
X008586Y014188D03*
X008886Y014321D03*
X009196Y014293D03*
X009946Y014186D03*
X009946Y014183D03*
X009949Y014188D03*
X009949Y014191D03*
X009951Y014211D03*
X009951Y014213D03*
X009954Y014221D03*
X009954Y014223D03*
X009954Y014226D03*
X009954Y014228D03*
X009954Y014231D03*
X009954Y014233D03*
X009954Y014236D03*
X009956Y014246D03*
X009956Y014248D03*
X009956Y014251D03*
X009956Y014253D03*
X009956Y014256D03*
X009956Y014258D03*
X009959Y014266D03*
X009959Y014268D03*
X009959Y014271D03*
X009959Y014273D03*
X009959Y014276D03*
X009961Y014291D03*
X009964Y014306D03*
X009966Y014313D03*
X009966Y014316D03*
X009966Y014318D03*
X009966Y014321D03*
X009966Y014323D03*
X009969Y014333D03*
X009969Y014336D03*
X009969Y014338D03*
X009969Y014341D03*
X009971Y014346D03*
X009971Y014348D03*
X009971Y014351D03*
X009971Y014353D03*
X009971Y014356D03*
X009974Y014361D03*
X009974Y014363D03*
X009976Y014368D03*
X009976Y014371D03*
X009976Y014373D03*
X009976Y014376D03*
X009979Y014383D03*
X009979Y014386D03*
X009979Y014388D03*
X009979Y014391D03*
X009979Y014393D03*
X009981Y014398D03*
X009981Y014401D03*
X009981Y014403D03*
X009984Y014408D03*
X009984Y014411D03*
X009984Y014413D03*
X009984Y014416D03*
X009986Y014433D03*
X009986Y014436D03*
X009986Y014438D03*
X009989Y014443D03*
X009989Y014446D03*
X009991Y014456D03*
X009991Y014458D03*
X009991Y014461D03*
X009994Y014466D03*
X009994Y014468D03*
X009996Y014473D03*
X009996Y014476D03*
X009999Y014483D03*
X009999Y014486D03*
X009999Y014488D03*
X009999Y014491D03*
X009999Y014493D03*
X010001Y014496D03*
X010001Y014498D03*
X010004Y014501D03*
X010004Y014503D03*
X010004Y014506D03*
X010006Y014521D03*
X010006Y014523D03*
X010006Y014526D03*
X010009Y014528D03*
X010009Y014531D03*
X010011Y014533D03*
X010011Y014536D03*
X010011Y014538D03*
X010011Y014541D03*
X010011Y014543D03*
X010014Y014548D03*
X010016Y014556D03*
X010019Y014568D03*
X010019Y014571D03*
X010019Y014573D03*
X010021Y014578D03*
X010021Y014581D03*
X010024Y014586D03*
X010026Y014593D03*
X010026Y014596D03*
X010029Y014601D03*
X010034Y014618D03*
X010034Y014621D03*
X010034Y014623D03*
X010034Y014626D03*
X010039Y014636D03*
X010039Y014638D03*
X010039Y014641D03*
X010041Y014646D03*
X010044Y014648D03*
X010044Y014651D03*
X010044Y014653D03*
X010046Y014661D03*
X010046Y014663D03*
X010049Y014668D03*
X010049Y014671D03*
X010049Y014673D03*
X010051Y014683D03*
X010056Y014696D03*
X010056Y014698D03*
X010059Y014703D03*
X010059Y014706D03*
X010059Y014708D03*
X010061Y014713D03*
X010079Y014761D03*
X010079Y014763D03*
X010079Y014766D03*
X010081Y014768D03*
X010081Y014771D03*
X009946Y014166D03*
X009946Y014161D03*
X009946Y014158D03*
X009946Y014156D03*
X009944Y014151D03*
X009944Y014148D03*
X009944Y014146D03*
X009941Y014131D03*
X009941Y014128D03*
X009941Y014113D03*
X009936Y014076D03*
X009936Y014073D03*
X009936Y014063D03*
X009936Y014061D03*
X009936Y014058D03*
X009936Y014056D03*
X009934Y014048D03*
X009934Y014046D03*
X009931Y014013D03*
X009931Y013976D03*
X009931Y013973D03*
X009929Y013948D03*
X009929Y013946D03*
X009929Y013943D03*
X009929Y013941D03*
X009926Y013918D03*
X009926Y013896D03*
X009926Y013868D03*
X009926Y013866D03*
X009926Y013863D03*
X009926Y013823D03*
X009926Y013821D03*
X009926Y013818D03*
X009926Y013816D03*
X009926Y013786D03*
X009929Y013738D03*
X009929Y013736D03*
X009929Y013733D03*
X009926Y013731D03*
X009929Y013716D03*
X009929Y013691D03*
X009929Y013688D03*
X009929Y013686D03*
X009929Y013683D03*
X009929Y013681D03*
X009931Y013656D03*
X009931Y013646D03*
X009929Y013638D03*
X009934Y013613D03*
X009934Y013611D03*
X009934Y013608D03*
X009934Y013606D03*
X009934Y013603D03*
X009934Y013601D03*
X009934Y013598D03*
X009939Y013558D03*
X009939Y013556D03*
X009939Y013553D03*
X009941Y013546D03*
X009941Y013543D03*
X009941Y013541D03*
X009941Y013516D03*
X009944Y013511D03*
X009944Y013508D03*
X009944Y013506D03*
X009944Y013503D03*
X009944Y013498D03*
X009944Y013496D03*
X009944Y013493D03*
X009946Y013486D03*
X009946Y013483D03*
X009946Y013481D03*
X009991Y013218D03*
X010014Y013141D03*
X010016Y013133D03*
X010034Y013076D03*
X010036Y013068D03*
X010036Y013066D03*
X010039Y013058D03*
X010039Y013056D03*
X010041Y013051D03*
X010044Y013046D03*
X010054Y013021D03*
X010054Y013018D03*
X010054Y013016D03*
X010066Y012986D03*
X010069Y012981D03*
X010069Y012978D03*
X010116Y012866D03*
X010119Y012861D03*
X010656Y012178D03*
X011229Y012046D03*
X011231Y012048D03*
X010626Y015548D03*
D41*
X010470Y015421D03*
X010468Y015418D03*
X009388Y013776D03*
X008588Y014131D03*
X008588Y014133D03*
X008478Y013886D03*
X008475Y013883D03*
X008473Y013881D03*
X008073Y014043D03*
X010890Y012081D03*
X011093Y012048D03*
X011398Y012211D03*
D42*
X011155Y012051D03*
X009560Y013701D03*
X009558Y014316D03*
X008718Y013868D03*
D43*
X007640Y014701D03*
X007585Y014713D03*
X007545Y014723D03*
X011133Y012053D03*
D44*
X011158Y012056D03*
D45*
X010878Y012056D03*
X010858Y012061D03*
X010715Y012158D03*
X010715Y012166D03*
X010648Y012176D03*
X010553Y012281D03*
X010453Y012371D03*
X010430Y012406D03*
X010413Y012421D03*
X010400Y012441D03*
X010278Y012601D03*
X010253Y012651D03*
X010240Y012663D03*
X010213Y012721D03*
X010210Y012731D03*
X010183Y012773D03*
X011070Y013668D03*
D46*
X011238Y012093D03*
X011153Y012058D03*
X008720Y013886D03*
D47*
X008335Y013753D03*
X009470Y014278D03*
X010188Y012748D03*
X010283Y012603D03*
X010283Y012598D03*
X010300Y012583D03*
X010305Y012576D03*
X010310Y012556D03*
X010478Y012351D03*
X010513Y012318D03*
X010530Y012306D03*
X010620Y012163D03*
X010785Y012086D03*
X010838Y012058D03*
X011045Y013691D03*
X011043Y013693D03*
D48*
X011149Y012061D03*
X008259Y014538D03*
X007516Y014731D03*
D49*
X008084Y014233D03*
X007966Y013941D03*
X008324Y014491D03*
X009199Y014301D03*
X009536Y014401D03*
X010241Y012641D03*
X010574Y012248D03*
X010939Y012061D03*
X007181Y013786D03*
D50*
X011104Y012063D03*
D51*
X011131Y012066D03*
X007751Y014671D03*
D52*
X008091Y014226D03*
X008586Y014191D03*
X009479Y014298D03*
X009949Y014201D03*
X009949Y014198D03*
X009951Y014203D03*
X009951Y014206D03*
X009951Y014208D03*
X009946Y014173D03*
X009939Y014111D03*
X009939Y014108D03*
X009939Y014106D03*
X009939Y014103D03*
X009939Y014096D03*
X009934Y014041D03*
X009934Y014038D03*
X009934Y014033D03*
X009934Y014031D03*
X009934Y014028D03*
X009934Y014026D03*
X009934Y014023D03*
X009934Y014021D03*
X009934Y014018D03*
X009934Y014016D03*
X009931Y013998D03*
X009931Y013996D03*
X009931Y013993D03*
X009931Y013991D03*
X009931Y013988D03*
X009931Y013986D03*
X009931Y013983D03*
X009931Y013981D03*
X009931Y013968D03*
X009931Y013966D03*
X009929Y013961D03*
X009929Y013958D03*
X009929Y013886D03*
X009929Y013883D03*
X009929Y013881D03*
X009929Y013846D03*
X009926Y013843D03*
X009926Y013776D03*
X009924Y013766D03*
X009924Y013763D03*
X009926Y013758D03*
X009924Y013753D03*
X009926Y013746D03*
X009926Y013703D03*
X009926Y013701D03*
X009926Y013698D03*
X009929Y013668D03*
X009929Y013666D03*
X009929Y013663D03*
X009931Y013618D03*
X009936Y013591D03*
X009936Y013588D03*
X009936Y013586D03*
X009936Y013583D03*
X009936Y013578D03*
X009936Y013576D03*
X009939Y013566D03*
X009941Y013536D03*
X009941Y013533D03*
X009941Y013531D03*
X009941Y013528D03*
X009946Y013461D03*
X009949Y013451D03*
X009949Y013448D03*
X009949Y013446D03*
X009949Y013443D03*
X009954Y013431D03*
X009954Y013428D03*
X009954Y013426D03*
X009954Y013406D03*
X009956Y013398D03*
X009956Y013396D03*
X009956Y013393D03*
X009956Y013391D03*
X009956Y013388D03*
X009961Y013366D03*
X009964Y013356D03*
X009964Y013353D03*
X009966Y013341D03*
X009966Y013338D03*
X009966Y013333D03*
X009966Y013331D03*
X009969Y013318D03*
X009969Y013316D03*
X009969Y013313D03*
X009974Y013301D03*
X009974Y013298D03*
X009974Y013296D03*
X009976Y013293D03*
X009976Y013291D03*
X009976Y013288D03*
X009979Y013273D03*
X009979Y013271D03*
X009979Y013268D03*
X009979Y013266D03*
X009981Y013263D03*
X009981Y013261D03*
X009981Y013258D03*
X009984Y013251D03*
X009984Y013248D03*
X009986Y013243D03*
X009986Y013241D03*
X009986Y013238D03*
X009986Y013236D03*
X009989Y013231D03*
X009989Y013228D03*
X009989Y013226D03*
X009994Y013213D03*
X009994Y013211D03*
X009994Y013208D03*
X009999Y013196D03*
X010004Y013176D03*
X010006Y013161D03*
X010019Y013118D03*
X010019Y013116D03*
X010021Y013108D03*
X010024Y013103D03*
X010026Y013091D03*
X010029Y013088D03*
X010029Y013086D03*
X010031Y013083D03*
X010046Y013033D03*
X010049Y013031D03*
X010051Y013028D03*
X010051Y013026D03*
X010056Y013008D03*
X010059Y013006D03*
X010059Y013003D03*
X010059Y013001D03*
X010059Y012998D03*
X010064Y012991D03*
X010071Y012966D03*
X010074Y012963D03*
X010076Y012961D03*
X010076Y012958D03*
X010076Y012956D03*
X010076Y012953D03*
X010086Y012936D03*
X010086Y012933D03*
X010089Y012926D03*
X010089Y012923D03*
X010091Y012921D03*
X010091Y012918D03*
X010091Y012916D03*
X010094Y012913D03*
X010094Y012911D03*
X010094Y012908D03*
X010096Y012906D03*
X010099Y012901D03*
X010099Y012898D03*
X010101Y012891D03*
X010104Y012886D03*
X010121Y012858D03*
X010124Y012856D03*
X010126Y012848D03*
X010134Y012831D03*
X010134Y012828D03*
X010574Y012243D03*
X010576Y012241D03*
X010599Y012226D03*
X010929Y012066D03*
X009984Y014421D03*
X009984Y014423D03*
X007301Y014796D03*
D53*
X011141Y012068D03*
D54*
X011143Y012071D03*
D55*
X010925Y012071D03*
X010620Y012203D03*
X010615Y012206D03*
X011365Y013171D03*
X011365Y013173D03*
X011363Y013176D03*
X011355Y013196D03*
X011348Y013216D03*
X011345Y013221D03*
X011330Y013246D03*
X011330Y013248D03*
X011323Y013258D03*
X011323Y013261D03*
X011305Y013296D03*
X011303Y013298D03*
X011258Y013386D03*
X011255Y013388D03*
X011220Y013441D03*
X011218Y013446D03*
X011213Y013453D03*
X011203Y013468D03*
X011200Y013471D03*
X011195Y013476D03*
X011398Y013093D03*
X011423Y013036D03*
X011423Y013033D03*
X011425Y013026D03*
X011433Y013001D03*
X011435Y012998D03*
X011435Y012996D03*
X011435Y012993D03*
X011435Y012986D03*
X011445Y012958D03*
X011445Y012956D03*
X011445Y012953D03*
X011455Y012926D03*
X011460Y012911D03*
X011475Y012838D03*
X011475Y012836D03*
X011475Y012833D03*
X011483Y012798D03*
X011488Y012743D03*
X011488Y012741D03*
X011488Y012738D03*
X011493Y012706D03*
X009728Y013828D03*
X009730Y013843D03*
X009730Y013846D03*
X009730Y013848D03*
X009730Y013851D03*
X009733Y013853D03*
X009733Y013856D03*
X009733Y013858D03*
X009733Y013861D03*
X009735Y013886D03*
X009735Y013928D03*
X009735Y013931D03*
X009705Y014121D03*
X009705Y014123D03*
X009690Y014171D03*
X009685Y014181D03*
X009685Y014183D03*
X009685Y014186D03*
X009685Y014188D03*
X009683Y014193D03*
X009680Y014196D03*
X009680Y014198D03*
X009678Y014203D03*
X009488Y014311D03*
X009158Y013891D03*
X009158Y013888D03*
X009155Y013883D03*
X009155Y013881D03*
X009150Y013866D03*
X009145Y013856D03*
X009145Y013853D03*
X009145Y013851D03*
X009138Y013838D03*
X009138Y013836D03*
X009135Y013833D03*
X009130Y013826D03*
X009128Y013823D03*
X008640Y013898D03*
X008640Y013901D03*
X008638Y013906D03*
X007380Y014376D03*
X007185Y013796D03*
X007185Y013793D03*
X010223Y015078D03*
X010225Y015083D03*
X010228Y015086D03*
X010228Y015088D03*
X010230Y015091D03*
X010233Y015096D03*
X010235Y015101D03*
X010238Y015103D03*
X010238Y015106D03*
X010240Y015108D03*
X010240Y015111D03*
X010250Y015123D03*
X010250Y015126D03*
X010260Y015138D03*
X010263Y015143D03*
X010265Y015151D03*
X010268Y015153D03*
X010270Y015158D03*
X010273Y015161D03*
X010275Y015166D03*
X010278Y015171D03*
X010280Y015173D03*
X010285Y015181D03*
X010288Y015188D03*
D56*
X010620Y015553D03*
X009468Y014286D03*
X008580Y014198D03*
X008080Y014236D03*
X007180Y013783D03*
X010158Y012806D03*
X010165Y012786D03*
X010160Y012783D03*
X010200Y012728D03*
X010208Y012706D03*
X010213Y012703D03*
X010225Y012678D03*
X010225Y012676D03*
X010410Y012416D03*
X010550Y012273D03*
X010775Y012133D03*
X010840Y012071D03*
X011098Y013623D03*
X011098Y013626D03*
D57*
X011061Y012073D03*
D58*
X011131Y012076D03*
X007881Y014641D03*
X007864Y014646D03*
D59*
X011093Y012078D03*
D60*
X011159Y012081D03*
X008189Y014566D03*
D61*
X011074Y012083D03*
D62*
X011194Y012086D03*
X007779Y014663D03*
D63*
X007568Y014206D03*
X007300Y014028D03*
X007285Y014013D03*
X007280Y014011D03*
X007278Y014008D03*
X007245Y013983D03*
X007240Y013981D03*
X007230Y013973D03*
X008045Y014023D03*
X008438Y013848D03*
X008583Y014048D03*
X008583Y014051D03*
X008583Y014053D03*
X008583Y014056D03*
X008580Y014066D03*
X008580Y014068D03*
X008705Y013811D03*
X009208Y013983D03*
X010613Y015528D03*
X011345Y012153D03*
X010888Y012086D03*
D64*
X011210Y012088D03*
X009553Y013716D03*
X007715Y014681D03*
X007665Y014693D03*
D65*
X007395Y014361D03*
X007583Y014221D03*
X007590Y014226D03*
X007978Y013961D03*
X008055Y014028D03*
X008058Y014031D03*
X008455Y013861D03*
X008585Y014106D03*
X008585Y014108D03*
X008585Y014111D03*
X008708Y013803D03*
X009205Y014013D03*
X009398Y013768D03*
X009688Y013773D03*
X010490Y015436D03*
X010493Y015438D03*
X010513Y015453D03*
X011388Y012196D03*
X011380Y012188D03*
X011373Y012183D03*
X011373Y012181D03*
X010883Y012088D03*
X007188Y013936D03*
D66*
X008263Y014536D03*
X011230Y012091D03*
D67*
X011415Y012236D03*
X011415Y012238D03*
X011418Y012241D03*
X011418Y012243D03*
X011423Y012251D03*
X010880Y012091D03*
X010820Y012106D03*
X009700Y013783D03*
X009355Y013801D03*
X009348Y013808D03*
X009345Y013811D03*
X009333Y013821D03*
X009330Y013823D03*
X009328Y013828D03*
X009198Y014068D03*
X009198Y014071D03*
X009198Y014073D03*
X009200Y014078D03*
X009200Y014081D03*
X008888Y014278D03*
X008888Y014281D03*
X008888Y014283D03*
X008888Y014286D03*
X008793Y013903D03*
X008793Y013901D03*
X008790Y013898D03*
X008590Y014156D03*
X008083Y014056D03*
X007165Y013901D03*
X007158Y013838D03*
X007163Y013833D03*
X007185Y013803D03*
X009620Y014311D03*
X010438Y015383D03*
X010440Y015388D03*
X010443Y015391D03*
X010448Y015396D03*
X010450Y015398D03*
D68*
X010480Y015428D03*
X010483Y015431D03*
X009203Y014033D03*
X009203Y014031D03*
X009203Y014028D03*
X008063Y014033D03*
X007595Y014233D03*
X007595Y014236D03*
X007595Y014238D03*
X007593Y014231D03*
X007593Y014228D03*
X007393Y014363D03*
X007180Y013926D03*
X007180Y013923D03*
X007180Y013921D03*
X007178Y013818D03*
X007183Y013813D03*
X007183Y013811D03*
X010873Y012093D03*
X011383Y012191D03*
X011388Y012198D03*
X011390Y012201D03*
X011390Y012203D03*
X011393Y012206D03*
D69*
X011243Y012096D03*
X009558Y014323D03*
X009558Y014326D03*
X008718Y013863D03*
X008563Y013933D03*
D70*
X008589Y014163D03*
X008821Y013966D03*
X008811Y013943D03*
X008809Y013933D03*
X008806Y013923D03*
X008796Y013908D03*
X008871Y014213D03*
X008871Y014216D03*
X008876Y014236D03*
X008876Y014238D03*
X008876Y014241D03*
X008876Y014243D03*
X008879Y014248D03*
X008879Y014251D03*
X008881Y014253D03*
X008881Y014256D03*
X008881Y014258D03*
X008881Y014261D03*
X008881Y014263D03*
X008881Y014266D03*
X009199Y014128D03*
X009199Y014126D03*
X009199Y014123D03*
X009199Y014121D03*
X009199Y014106D03*
X009199Y014103D03*
X009199Y014101D03*
X009294Y013871D03*
X009306Y013853D03*
X009309Y013851D03*
X009311Y013848D03*
X009314Y013846D03*
X009316Y013841D03*
X009094Y013783D03*
X009084Y013771D03*
X009084Y013768D03*
X009081Y013763D03*
X009704Y013788D03*
X009706Y013791D03*
X009629Y014303D03*
X010391Y015333D03*
X010396Y015338D03*
X010401Y015346D03*
X010404Y015348D03*
X010406Y015353D03*
X010411Y015358D03*
X010424Y015373D03*
X008354Y013768D03*
X008094Y014076D03*
X008096Y014078D03*
X008096Y014081D03*
X008099Y014083D03*
X008099Y014086D03*
X008101Y014091D03*
X007184Y013801D03*
X007154Y013843D03*
X007154Y013846D03*
X007151Y013861D03*
X007151Y013863D03*
X007151Y013866D03*
X007154Y013881D03*
X007154Y013883D03*
X007159Y013888D03*
X010624Y012196D03*
X010859Y012096D03*
X011436Y012281D03*
X011439Y012286D03*
X011441Y012291D03*
X011441Y012293D03*
X011444Y012296D03*
X011449Y012306D03*
X011449Y012308D03*
X011449Y012311D03*
X011459Y012333D03*
X011466Y012356D03*
D71*
X011254Y012098D03*
X009559Y014328D03*
X008716Y013861D03*
X008564Y013936D03*
X008564Y013938D03*
D72*
X008704Y013796D03*
X008789Y013896D03*
X008794Y013906D03*
X008799Y013911D03*
X008801Y013916D03*
X009086Y013773D03*
X009324Y013833D03*
X009326Y013831D03*
X009329Y013826D03*
X009336Y013818D03*
X009341Y013816D03*
X009341Y013813D03*
X009199Y014076D03*
X009201Y014083D03*
X009201Y014086D03*
X008884Y014268D03*
X008886Y014276D03*
X008889Y014288D03*
X008889Y014291D03*
X008589Y014158D03*
X008091Y014071D03*
X008089Y014063D03*
X008086Y014061D03*
X008084Y014058D03*
X007324Y014791D03*
X007161Y013836D03*
X009559Y013683D03*
X009701Y013786D03*
X009624Y014308D03*
X010414Y015363D03*
X010434Y015381D03*
X011434Y012276D03*
X011431Y012271D03*
X011426Y012258D03*
X011426Y012256D03*
X011424Y012253D03*
X010849Y012098D03*
D73*
X011261Y012101D03*
X011266Y012103D03*
X009551Y014346D03*
X009219Y013903D03*
X009219Y013901D03*
X008566Y013956D03*
X008279Y014523D03*
D74*
X008883Y014326D03*
X009478Y014296D03*
X009560Y013678D03*
X009925Y013748D03*
X009925Y013751D03*
X009925Y013756D03*
X009925Y013761D03*
X009928Y013878D03*
X009930Y013963D03*
X009938Y013573D03*
X009938Y013571D03*
X009938Y013568D03*
X009948Y013458D03*
X009948Y013456D03*
X009948Y013453D03*
X009955Y013403D03*
X009955Y013401D03*
X009958Y013386D03*
X009958Y013383D03*
X009958Y013381D03*
X009958Y013378D03*
X009960Y013373D03*
X009960Y013371D03*
X009960Y013368D03*
X009968Y013328D03*
X009968Y013326D03*
X009968Y013323D03*
X009968Y013321D03*
X009983Y013256D03*
X009983Y013253D03*
X009995Y013206D03*
X010000Y013198D03*
X010020Y013113D03*
X010020Y013111D03*
X010023Y013106D03*
X010063Y012993D03*
X010078Y012951D03*
X010080Y012948D03*
X010080Y012946D03*
X010083Y012943D03*
X010105Y012888D03*
X010108Y012883D03*
X010125Y012851D03*
X010130Y012843D03*
X010145Y012803D03*
X010568Y012251D03*
X010583Y012236D03*
X010588Y012233D03*
X010593Y012231D03*
X010795Y012121D03*
X010845Y012103D03*
X007188Y013788D03*
D75*
X007445Y014753D03*
X008568Y013966D03*
X008568Y013963D03*
X008568Y013961D03*
X008568Y013958D03*
X008715Y013846D03*
X009558Y013696D03*
X009550Y014348D03*
X011270Y012106D03*
D76*
X011275Y012108D03*
X009550Y014351D03*
X009218Y013908D03*
X008713Y013841D03*
X008390Y013823D03*
X008388Y013818D03*
X010570Y015481D03*
D77*
X010376Y015313D03*
X010369Y015303D03*
X010366Y015298D03*
X010339Y015263D03*
X010336Y015261D03*
X009634Y014293D03*
X009639Y014286D03*
X009639Y014283D03*
X009644Y014276D03*
X009204Y014253D03*
X009204Y014251D03*
X009204Y014248D03*
X009204Y014246D03*
X009201Y014258D03*
X009201Y014261D03*
X009201Y014263D03*
X009201Y014266D03*
X009204Y014228D03*
X009204Y014211D03*
X009201Y014208D03*
X009201Y014206D03*
X009201Y014203D03*
X009201Y014201D03*
X009201Y014198D03*
X009201Y014196D03*
X009201Y014181D03*
X009201Y014178D03*
X009201Y014176D03*
X009201Y014173D03*
X009199Y014161D03*
X009199Y014158D03*
X009199Y014156D03*
X009199Y014143D03*
X009199Y014141D03*
X009199Y014116D03*
X009199Y014113D03*
X009109Y013796D03*
X009079Y013758D03*
X008816Y013948D03*
X008816Y013951D03*
X008816Y013953D03*
X008816Y013956D03*
X008819Y013958D03*
X008819Y013961D03*
X008819Y013963D03*
X008821Y013971D03*
X008821Y013973D03*
X008826Y013981D03*
X008831Y014001D03*
X008831Y014003D03*
X008831Y014006D03*
X008831Y014008D03*
X008854Y014123D03*
X008856Y014136D03*
X008856Y014138D03*
X008856Y014141D03*
X008856Y014143D03*
X008859Y014146D03*
X008859Y014148D03*
X008861Y014153D03*
X008861Y014156D03*
X008861Y014158D03*
X008861Y014161D03*
X008861Y014163D03*
X008861Y014166D03*
X008861Y014168D03*
X008864Y014173D03*
X008866Y014183D03*
X008869Y014196D03*
X008869Y014198D03*
X008874Y014226D03*
X008874Y014228D03*
X008889Y014306D03*
X008589Y014168D03*
X008704Y013793D03*
X008104Y014096D03*
X008106Y014103D03*
X008106Y014106D03*
X008106Y014108D03*
X008106Y014121D03*
X008106Y014123D03*
X008106Y014126D03*
X008106Y014128D03*
X008101Y014171D03*
X008101Y014173D03*
X008096Y014186D03*
X008096Y014188D03*
X008096Y014191D03*
X007969Y013948D03*
X007386Y014371D03*
X007151Y013873D03*
X007151Y013871D03*
X007154Y013853D03*
X010641Y012186D03*
X010821Y012108D03*
X011451Y012318D03*
X011454Y012323D03*
X011464Y012346D03*
X011464Y012348D03*
X011464Y012351D03*
X011464Y012353D03*
X011466Y012361D03*
X011466Y012363D03*
X011469Y012371D03*
X011471Y012373D03*
X011471Y012376D03*
X011471Y012378D03*
X011471Y012381D03*
X011474Y012386D03*
X011479Y012411D03*
X011481Y012413D03*
X011481Y012416D03*
X011484Y012426D03*
X011486Y012461D03*
X011486Y012463D03*
X011489Y012466D03*
X011489Y012468D03*
X011491Y012471D03*
X011491Y012483D03*
D78*
X011281Y012111D03*
X009551Y014353D03*
X009219Y013911D03*
X008569Y013971D03*
X008569Y013973D03*
X008569Y013976D03*
X008394Y013826D03*
X008389Y013821D03*
X010564Y015476D03*
X010569Y015478D03*
X010576Y015486D03*
X010581Y015488D03*
D79*
X010373Y015308D03*
X010360Y015291D03*
X010353Y015283D03*
X010348Y015276D03*
X010345Y015273D03*
X010343Y015271D03*
X010343Y015268D03*
X010340Y015266D03*
X010335Y015258D03*
X009545Y014393D03*
X009635Y014291D03*
X009640Y014281D03*
X009643Y014278D03*
X009645Y014273D03*
X009648Y014271D03*
X009648Y014268D03*
X009655Y014258D03*
X009283Y013886D03*
X009120Y013811D03*
X009118Y013806D03*
X009075Y013756D03*
X009075Y013753D03*
X009073Y013751D03*
X009068Y013748D03*
X008825Y013983D03*
X008825Y013986D03*
X008830Y013996D03*
X008830Y013998D03*
X008833Y014011D03*
X008833Y014013D03*
X008835Y014021D03*
X008835Y014023D03*
X008835Y014026D03*
X008835Y014028D03*
X008835Y014031D03*
X008840Y014048D03*
X008840Y014051D03*
X008843Y014058D03*
X008843Y014061D03*
X008845Y014066D03*
X008845Y014068D03*
X008845Y014071D03*
X008848Y014083D03*
X008850Y014091D03*
X008850Y014093D03*
X008850Y014096D03*
X008850Y014098D03*
X008850Y014101D03*
X008850Y014103D03*
X008850Y014106D03*
X008850Y014108D03*
X008853Y014111D03*
X008853Y014113D03*
X008853Y014116D03*
X008853Y014118D03*
X008853Y014121D03*
X008855Y014126D03*
X008855Y014128D03*
X008855Y014131D03*
X008855Y014133D03*
X008588Y014171D03*
X008350Y013766D03*
X008105Y014098D03*
X008105Y014101D03*
X008108Y014111D03*
X008108Y014113D03*
X008108Y014116D03*
X008108Y014118D03*
X008108Y014131D03*
X008108Y014133D03*
X008108Y014136D03*
X008108Y014138D03*
X008108Y014141D03*
X008105Y014146D03*
X008105Y014148D03*
X008105Y014151D03*
X008105Y014153D03*
X008105Y014156D03*
X008105Y014158D03*
X008103Y014161D03*
X008103Y014163D03*
X008103Y014166D03*
X008103Y014168D03*
X008100Y014176D03*
X008100Y014178D03*
X008098Y014183D03*
X008095Y014193D03*
X008095Y014196D03*
X008095Y014198D03*
X008095Y014201D03*
X009200Y014171D03*
X009200Y014168D03*
X009200Y014166D03*
X009200Y014163D03*
X009200Y014153D03*
X009200Y014151D03*
X009200Y014148D03*
X009200Y014146D03*
X009203Y014183D03*
X009203Y014186D03*
X009203Y014188D03*
X009203Y014191D03*
X009203Y014193D03*
X009203Y014213D03*
X009203Y014216D03*
X009203Y014218D03*
X009203Y014221D03*
X009203Y014223D03*
X009203Y014226D03*
X009203Y014236D03*
X009203Y014238D03*
X009203Y014241D03*
X009203Y014243D03*
X009203Y014256D03*
X009203Y014268D03*
X009203Y014271D03*
X009203Y014273D03*
X010813Y012111D03*
X011453Y012321D03*
X011473Y012383D03*
X011475Y012388D03*
X011475Y012391D03*
X011475Y012393D03*
X011475Y012396D03*
X011475Y012398D03*
X011478Y012406D03*
X011478Y012408D03*
X011483Y012418D03*
X011483Y012421D03*
X011483Y012423D03*
X011483Y012428D03*
X011483Y012431D03*
X011483Y012433D03*
X011485Y012438D03*
X011485Y012441D03*
X011485Y012443D03*
X011485Y012446D03*
X011488Y012451D03*
X011488Y012453D03*
X011488Y012456D03*
X011488Y012458D03*
X011490Y012473D03*
X011490Y012476D03*
X011490Y012478D03*
X011490Y012481D03*
X011490Y012486D03*
X011490Y012488D03*
X011490Y012491D03*
X011495Y012533D03*
X011498Y012571D03*
X011498Y012573D03*
X011498Y012576D03*
X011475Y012848D03*
X011475Y012851D03*
X011475Y012853D03*
X011475Y012856D03*
D80*
X011284Y012113D03*
X009551Y014358D03*
X009216Y013921D03*
X008571Y013986D03*
X008571Y013988D03*
X008379Y013806D03*
X008014Y014008D03*
X008011Y014006D03*
X007471Y014308D03*
X007466Y014313D03*
X007456Y014318D03*
X010596Y015503D03*
D81*
X010220Y015073D03*
X010218Y015068D03*
X010215Y015061D03*
X010213Y015058D03*
X010210Y015056D03*
X010210Y015053D03*
X010208Y015048D03*
X010205Y015046D03*
X010203Y015041D03*
X010203Y015038D03*
X010200Y015036D03*
X010198Y015031D03*
X010195Y015026D03*
X010183Y015001D03*
X010180Y014998D03*
X010178Y014993D03*
X010143Y014918D03*
X009695Y014161D03*
X009695Y014158D03*
X009698Y014151D03*
X009698Y014148D03*
X009698Y014146D03*
X009700Y014138D03*
X009700Y014136D03*
X009703Y014131D03*
X009703Y014128D03*
X009708Y014116D03*
X009708Y014113D03*
X009708Y014111D03*
X009708Y014108D03*
X009710Y014103D03*
X009710Y014101D03*
X009713Y014096D03*
X009713Y014093D03*
X009718Y014071D03*
X009718Y014068D03*
X009718Y014066D03*
X009718Y014063D03*
X009720Y014058D03*
X009720Y014056D03*
X009720Y014053D03*
X009720Y014051D03*
X009720Y014048D03*
X009723Y014041D03*
X009723Y014038D03*
X009725Y014028D03*
X009728Y014003D03*
X009728Y013986D03*
X009728Y013983D03*
X009733Y013981D03*
X009733Y013978D03*
X009733Y013976D03*
X009733Y013973D03*
X009733Y013971D03*
X009733Y013958D03*
X009733Y013956D03*
X009735Y013943D03*
X009735Y013941D03*
X009733Y013923D03*
X009733Y013901D03*
X009733Y013898D03*
X009733Y013896D03*
X009733Y013893D03*
X009733Y013891D03*
X009733Y013888D03*
X009733Y013878D03*
X009733Y013876D03*
X009733Y013873D03*
X009733Y013871D03*
X009733Y013868D03*
X009485Y014306D03*
X009060Y013738D03*
X008635Y013908D03*
X008635Y013911D03*
X008633Y013921D03*
X008633Y013923D03*
X008633Y013926D03*
X008633Y013928D03*
X008093Y014211D03*
X010615Y012208D03*
X010630Y012193D03*
X010810Y012113D03*
X011463Y012891D03*
X011460Y012893D03*
X011438Y012976D03*
X011438Y012978D03*
X011438Y012981D03*
X011425Y013018D03*
X011400Y013086D03*
X011378Y013138D03*
X011360Y013181D03*
X011360Y013183D03*
X011358Y013188D03*
X011358Y013191D03*
X011340Y013223D03*
X011340Y013226D03*
X011338Y013231D03*
X011335Y013233D03*
X011335Y013236D03*
X011333Y013238D03*
X011333Y013241D03*
X011325Y013253D03*
X011320Y013266D03*
X011318Y013271D03*
X011305Y013291D03*
X011300Y013303D03*
X011295Y013308D03*
X011295Y013311D03*
X011293Y013316D03*
X011280Y013341D03*
X011278Y013343D03*
X011278Y013346D03*
X011275Y013348D03*
X011258Y013381D03*
X011248Y013396D03*
X011230Y013423D03*
X011225Y013433D03*
X011223Y013436D03*
X011215Y013448D03*
X011193Y013478D03*
X011190Y013483D03*
X011188Y013486D03*
X011185Y013488D03*
X011180Y013496D03*
X011178Y013498D03*
X011175Y013501D03*
X011163Y013516D03*
X011163Y013518D03*
X011158Y013523D03*
X011155Y013528D03*
X011140Y013548D03*
X011120Y013576D03*
X011105Y013596D03*
D82*
X011289Y012116D03*
X009551Y014356D03*
X009216Y013918D03*
X009216Y013916D03*
X008569Y013978D03*
X008569Y013981D03*
X008384Y013813D03*
X008286Y014521D03*
X007459Y014316D03*
X007441Y014326D03*
X007439Y014328D03*
X007414Y014761D03*
X010559Y015473D03*
X010586Y015496D03*
X010591Y015498D03*
D83*
X010193Y015021D03*
X010190Y015016D03*
X010188Y015011D03*
X010173Y014978D03*
X010170Y014976D03*
X010163Y014961D03*
X010160Y014956D03*
X010158Y014953D03*
X010158Y014951D03*
X010155Y014946D03*
X010155Y014943D03*
X010153Y014941D03*
X010150Y014936D03*
X010150Y014933D03*
X010150Y014931D03*
X010148Y014928D03*
X010145Y014923D03*
X010145Y014921D03*
X010140Y014908D03*
X010135Y014901D03*
X010135Y014898D03*
X010133Y014893D03*
X010128Y014881D03*
X010125Y014876D03*
X010120Y014863D03*
X010118Y014858D03*
X010115Y014856D03*
X010115Y014853D03*
X010113Y014848D03*
X010105Y014836D03*
X010105Y014833D03*
X010100Y014821D03*
X010100Y014818D03*
X010100Y014816D03*
X009725Y014018D03*
X009725Y014016D03*
X009725Y014013D03*
X009728Y013998D03*
X009728Y013996D03*
X009733Y013918D03*
X009733Y013916D03*
X009198Y014291D03*
X009055Y013736D03*
X008348Y013761D03*
X007965Y013946D03*
X008093Y014216D03*
X010595Y012223D03*
X010805Y012116D03*
X011308Y013286D03*
X011273Y013351D03*
X011265Y013363D03*
X011258Y013376D03*
X011240Y013403D03*
X011240Y013406D03*
X011150Y013533D03*
X011150Y013536D03*
X011145Y013541D03*
X011138Y013551D03*
X011133Y013558D03*
X011118Y013581D03*
X011115Y013583D03*
X011095Y013603D03*
X011095Y013606D03*
D84*
X011293Y012118D03*
X009215Y013928D03*
X009215Y013931D03*
X009215Y013933D03*
X008575Y013998D03*
X008575Y014001D03*
X008575Y014003D03*
X007485Y014303D03*
D85*
X008094Y014213D03*
X008581Y014181D03*
X008709Y013791D03*
X009199Y014286D03*
X009199Y014288D03*
X009701Y014133D03*
X009711Y014091D03*
X009711Y014088D03*
X009711Y014086D03*
X009711Y014083D03*
X009714Y014081D03*
X009714Y014078D03*
X009716Y014076D03*
X009716Y014073D03*
X009721Y014046D03*
X009721Y014043D03*
X009724Y014026D03*
X009724Y014023D03*
X009724Y014021D03*
X009726Y014011D03*
X009726Y014008D03*
X009726Y014006D03*
X009726Y014001D03*
X009729Y013993D03*
X009729Y013991D03*
X009729Y013988D03*
X009731Y013921D03*
X009734Y013913D03*
X009734Y013911D03*
X009734Y013908D03*
X009734Y013906D03*
X009734Y013903D03*
X010136Y014903D03*
X010139Y014906D03*
X010141Y014911D03*
X010141Y014913D03*
X010141Y014916D03*
X010146Y014926D03*
X010151Y014938D03*
X010156Y014948D03*
X010161Y014958D03*
X010164Y014963D03*
X010166Y014966D03*
X010166Y014968D03*
X010166Y014971D03*
X010169Y014973D03*
X010174Y014981D03*
X010174Y014983D03*
X010176Y014986D03*
X010176Y014988D03*
X010176Y014991D03*
X010179Y014996D03*
X010184Y015003D03*
X010184Y015006D03*
X010186Y015008D03*
X010189Y015013D03*
X010191Y015018D03*
X010194Y015023D03*
X010196Y015028D03*
X010199Y015033D03*
X010204Y015043D03*
X010209Y015051D03*
X011086Y013618D03*
X011089Y013616D03*
X011089Y013613D03*
X011091Y013611D03*
X011094Y013608D03*
X011106Y013593D03*
X011109Y013591D03*
X011109Y013588D03*
X011111Y013586D03*
X011119Y013578D03*
X011126Y013566D03*
X011129Y013563D03*
X011131Y013561D03*
X011134Y013556D03*
X011136Y013553D03*
X011144Y013546D03*
X011144Y013543D03*
X011149Y013538D03*
X011151Y013531D03*
X011156Y013526D03*
X011181Y013493D03*
X011231Y013421D03*
X011251Y013391D03*
X011256Y013378D03*
X011296Y013306D03*
X011306Y013288D03*
X011309Y013283D03*
X011311Y013281D03*
X011311Y013278D03*
X011311Y013276D03*
X011314Y013273D03*
X011319Y013268D03*
X011379Y013136D03*
X010791Y012118D03*
X010614Y012211D03*
D86*
X011299Y012121D03*
X009556Y013691D03*
X009214Y013941D03*
X009551Y014366D03*
X008576Y014018D03*
X008366Y013791D03*
X008006Y013993D03*
X008001Y013988D03*
X008291Y014513D03*
X007534Y014283D03*
X007529Y014286D03*
X007524Y014288D03*
D87*
X007513Y014293D03*
X007500Y014298D03*
X007415Y014343D03*
X007503Y014158D03*
X007500Y014156D03*
X007495Y014153D03*
X007995Y013983D03*
X008028Y014016D03*
X008578Y014021D03*
X008708Y013821D03*
X009213Y013943D03*
X009213Y013946D03*
X009213Y013948D03*
X009430Y013758D03*
X009550Y014368D03*
X010605Y015516D03*
X011300Y012123D03*
D88*
X011305Y012126D03*
X009655Y013758D03*
X009215Y013938D03*
X009553Y014363D03*
X008708Y013823D03*
X008575Y014013D03*
X008575Y014016D03*
X008415Y013833D03*
X008413Y013831D03*
X008025Y014013D03*
X008000Y013986D03*
X007518Y014291D03*
X007493Y014301D03*
X010600Y015513D03*
D89*
X010529Y015463D03*
X009551Y014376D03*
X009209Y013981D03*
X009209Y013978D03*
X009411Y013763D03*
X008581Y014058D03*
X008581Y014061D03*
X008581Y014063D03*
X008441Y013851D03*
X008436Y013846D03*
X008041Y014021D03*
X007984Y013968D03*
X007564Y014203D03*
X007559Y014198D03*
X007581Y014253D03*
X007579Y014256D03*
X007569Y014261D03*
X007406Y014353D03*
X007314Y014036D03*
X007309Y014033D03*
X007306Y014031D03*
X007294Y014021D03*
X007291Y014018D03*
X007269Y014003D03*
X007266Y014001D03*
X007261Y013998D03*
X007261Y013996D03*
X007256Y013993D03*
X011304Y012128D03*
X011341Y012151D03*
X011346Y012156D03*
D90*
X011338Y012148D03*
X011338Y012146D03*
X011308Y012131D03*
X009210Y013973D03*
X009210Y013976D03*
X008433Y013843D03*
X008360Y013781D03*
X007560Y014201D03*
X007555Y014196D03*
X007573Y014258D03*
X007295Y014023D03*
X007273Y014006D03*
X007375Y014773D03*
X010533Y015466D03*
X010610Y015526D03*
D91*
X009550Y014371D03*
X009213Y013953D03*
X008578Y014028D03*
X008365Y013788D03*
X007993Y013976D03*
X007993Y013978D03*
X007538Y014183D03*
X007528Y014173D03*
X007520Y014168D03*
X007515Y014166D03*
X007513Y014163D03*
X007490Y014151D03*
X007475Y014141D03*
X007465Y014136D03*
X007460Y014133D03*
X007438Y014118D03*
X007423Y014108D03*
X007405Y014098D03*
X007403Y014096D03*
X007400Y014093D03*
X007398Y014091D03*
X007378Y014078D03*
X007360Y014068D03*
X007410Y014348D03*
X011318Y012133D03*
X011325Y012141D03*
D92*
X011324Y012138D03*
X011321Y012136D03*
X011331Y012143D03*
X009211Y013956D03*
X009211Y013958D03*
X008709Y013816D03*
X008579Y014031D03*
X008579Y014033D03*
X008579Y014036D03*
X008579Y014038D03*
X008579Y014041D03*
X008424Y013836D03*
X007991Y013973D03*
X007549Y014191D03*
X007546Y014188D03*
X007536Y014181D03*
X007531Y014178D03*
X007529Y014176D03*
X007479Y014143D03*
X007454Y014128D03*
X007449Y014126D03*
X007444Y014123D03*
X007441Y014121D03*
X007394Y014088D03*
X007384Y014083D03*
X007381Y014081D03*
X007369Y014073D03*
X007366Y014071D03*
X007356Y014066D03*
X007354Y014063D03*
X007546Y014276D03*
X007551Y014273D03*
X010541Y015471D03*
X010609Y015521D03*
D93*
X009468Y014281D03*
X008320Y014486D03*
X007958Y013938D03*
X010175Y012778D03*
X010183Y012768D03*
X010258Y012631D03*
X010370Y012471D03*
X010383Y012451D03*
X010400Y012433D03*
X010403Y012431D03*
X010458Y012366D03*
X010558Y012271D03*
X010548Y012258D03*
X010668Y012173D03*
X010708Y012168D03*
X010718Y012161D03*
X010760Y012141D03*
X010773Y012136D03*
X011090Y013636D03*
X011090Y013638D03*
X011085Y013646D03*
X011085Y013648D03*
X011083Y013651D03*
D94*
X011359Y012166D03*
X011351Y012161D03*
X011349Y012158D03*
X009671Y013763D03*
X009404Y013766D03*
X009551Y014378D03*
X008581Y014073D03*
X008581Y014071D03*
X008356Y013778D03*
X007981Y013966D03*
X007584Y014251D03*
X007404Y014356D03*
X007299Y014026D03*
X007286Y014016D03*
X007254Y013991D03*
X007249Y013988D03*
X007246Y013986D03*
X007224Y013968D03*
X007221Y013966D03*
X007204Y013951D03*
X007201Y013948D03*
X007369Y014776D03*
X007366Y014778D03*
X007346Y014783D03*
D95*
X007585Y014248D03*
X007570Y014208D03*
X007235Y013978D03*
X007233Y013976D03*
X007225Y013971D03*
X007220Y013963D03*
X008050Y014026D03*
X008583Y014076D03*
X008583Y014078D03*
X008583Y014081D03*
X008705Y013808D03*
X009208Y013986D03*
X009208Y013988D03*
X009208Y013991D03*
X009208Y013993D03*
X009208Y013996D03*
X009208Y013998D03*
X009553Y014381D03*
X009675Y013766D03*
X010523Y015458D03*
X010525Y015461D03*
X011355Y012163D03*
D96*
X011361Y012168D03*
X009559Y013686D03*
X008706Y013806D03*
X008584Y014083D03*
X008446Y013853D03*
X008354Y013776D03*
X007979Y013963D03*
X007574Y014211D03*
X007589Y014246D03*
X007216Y013961D03*
X007214Y013958D03*
X007211Y013956D03*
X007209Y013953D03*
D97*
X007198Y013946D03*
X007193Y013941D03*
X007578Y014216D03*
X007590Y014243D03*
X007350Y014781D03*
X008298Y014508D03*
X008585Y014086D03*
X008453Y013858D03*
X008450Y013856D03*
X009553Y014383D03*
X009680Y013768D03*
X010505Y015448D03*
X010508Y015451D03*
X010518Y015456D03*
X010615Y015531D03*
X011368Y012176D03*
X011365Y012173D03*
X011363Y012171D03*
D98*
X011369Y012178D03*
X009684Y013771D03*
X009206Y014001D03*
X009206Y014003D03*
X009206Y014006D03*
X009206Y014008D03*
X009204Y014011D03*
X008586Y014101D03*
X008586Y014103D03*
X008584Y014098D03*
X008584Y014096D03*
X008584Y014093D03*
X008584Y014091D03*
X008584Y014088D03*
X007591Y014241D03*
X007579Y014218D03*
X007576Y014213D03*
X007399Y014358D03*
X007196Y013943D03*
X007191Y013938D03*
X010496Y015441D03*
X010499Y015443D03*
X010501Y015446D03*
D99*
X010103Y014823D03*
X010098Y014813D03*
X010098Y014811D03*
X010095Y014808D03*
X010095Y014806D03*
X010090Y014791D03*
X010088Y014783D03*
X010085Y014778D03*
X010083Y014773D03*
X010078Y014758D03*
X010078Y014756D03*
X010075Y014753D03*
X010075Y014751D03*
X010073Y014748D03*
X010073Y014746D03*
X010073Y014743D03*
X010073Y014741D03*
X010073Y014738D03*
X010070Y014736D03*
X010070Y014733D03*
X010070Y014731D03*
X010068Y014728D03*
X010068Y014726D03*
X010063Y014716D03*
X010060Y014711D03*
X010055Y014693D03*
X010055Y014691D03*
X010053Y014686D03*
X010045Y014658D03*
X010045Y014656D03*
X010040Y014643D03*
X010038Y014633D03*
X010038Y014631D03*
X010035Y014628D03*
X010033Y014616D03*
X010033Y014613D03*
X010030Y014611D03*
X010030Y014608D03*
X010030Y014606D03*
X010030Y014603D03*
X010028Y014598D03*
X010025Y014591D03*
X010025Y014588D03*
X010018Y014566D03*
X010018Y014563D03*
X010018Y014561D03*
X010018Y014558D03*
X010015Y014553D03*
X010015Y014551D03*
X010005Y014518D03*
X010005Y014516D03*
X010005Y014513D03*
X010005Y014511D03*
X010005Y014508D03*
X009998Y014481D03*
X009998Y014478D03*
X009993Y014463D03*
X009983Y014406D03*
X009953Y014218D03*
X009953Y014216D03*
X009945Y014163D03*
X009945Y014153D03*
X009943Y014143D03*
X009943Y014141D03*
X009943Y014138D03*
X009943Y014136D03*
X009943Y014133D03*
X009938Y014081D03*
X009938Y014078D03*
X009928Y013741D03*
X009928Y013721D03*
X009928Y013718D03*
X009930Y013661D03*
X009930Y013658D03*
X009940Y013551D03*
X009940Y013548D03*
X009940Y013538D03*
X009943Y013513D03*
X009945Y013501D03*
X009945Y013491D03*
X009945Y013488D03*
X010013Y013143D03*
X010035Y013073D03*
X010035Y013071D03*
X010600Y012221D03*
X010633Y012181D03*
X011268Y013353D03*
X011268Y013356D03*
X011268Y013358D03*
X011260Y013371D03*
X011233Y013413D03*
X011098Y013598D03*
X011083Y013621D03*
X009480Y014301D03*
X008885Y014318D03*
X008585Y014186D03*
X007373Y014383D03*
X007185Y013791D03*
D100*
X007181Y013816D03*
X007176Y013821D03*
X007184Y013928D03*
X007186Y013931D03*
X007186Y013933D03*
X007586Y014223D03*
X008354Y013773D03*
X008456Y013863D03*
X008586Y014113D03*
X008586Y014116D03*
X008586Y014118D03*
X009204Y014026D03*
X009204Y014023D03*
X009204Y014021D03*
X009204Y014018D03*
X009204Y014016D03*
X010486Y015433D03*
X010616Y015533D03*
X011384Y012193D03*
X011376Y012186D03*
D101*
X011459Y012896D03*
X011459Y012898D03*
X011459Y012903D03*
X011459Y012906D03*
X011459Y012908D03*
X011436Y012983D03*
X011424Y013021D03*
X011424Y013023D03*
X011401Y013083D03*
X011399Y013088D03*
X011399Y013091D03*
X011376Y013141D03*
X011376Y013143D03*
X011376Y013146D03*
X011376Y013148D03*
X011376Y013151D03*
X011374Y013153D03*
X011374Y013156D03*
X011371Y013158D03*
X011369Y013161D03*
X011369Y013163D03*
X011369Y013166D03*
X011366Y013168D03*
X011361Y013178D03*
X011359Y013186D03*
X011356Y013193D03*
X011349Y013211D03*
X011349Y013213D03*
X011339Y013228D03*
X011331Y013243D03*
X011326Y013251D03*
X011324Y013256D03*
X011321Y013263D03*
X011306Y013293D03*
X011301Y013301D03*
X011294Y013313D03*
X011289Y013318D03*
X011289Y013321D03*
X011289Y013323D03*
X011281Y013338D03*
X011259Y013383D03*
X011249Y013393D03*
X011246Y013398D03*
X011229Y013426D03*
X011229Y013428D03*
X011229Y013431D03*
X011221Y013438D03*
X011214Y013451D03*
X011191Y013481D03*
X011184Y013491D03*
X011174Y013503D03*
X011174Y013506D03*
X011159Y013521D03*
X011124Y013568D03*
X011124Y013571D03*
X011124Y013573D03*
X010596Y012218D03*
X010626Y012201D03*
X010626Y012188D03*
X010639Y012191D03*
X009734Y013881D03*
X009734Y013883D03*
X009734Y013926D03*
X009736Y013933D03*
X009736Y013936D03*
X009736Y013938D03*
X009734Y013946D03*
X009734Y013948D03*
X009734Y013951D03*
X009734Y013953D03*
X009731Y013961D03*
X009731Y013963D03*
X009731Y013966D03*
X009731Y013968D03*
X009724Y014031D03*
X009724Y014033D03*
X009724Y014036D03*
X009719Y014061D03*
X009711Y014098D03*
X009709Y014106D03*
X009706Y014118D03*
X009704Y014126D03*
X009701Y014141D03*
X009699Y014143D03*
X009696Y014153D03*
X009696Y014156D03*
X009694Y014163D03*
X009691Y014166D03*
X009691Y014168D03*
X009689Y014173D03*
X009689Y014176D03*
X009689Y014178D03*
X009684Y014191D03*
X009486Y014308D03*
X009201Y014283D03*
X008889Y014316D03*
X008581Y014178D03*
X008634Y013918D03*
X008634Y013916D03*
X008634Y013913D03*
X008639Y013903D03*
X009061Y013741D03*
X009139Y013841D03*
X009141Y013843D03*
X009141Y013846D03*
X009144Y013848D03*
X009149Y013863D03*
X010216Y015063D03*
X010216Y015066D03*
X010219Y015071D03*
X010221Y015076D03*
X010224Y015081D03*
X010234Y015098D03*
X010241Y015113D03*
X010244Y015116D03*
X010244Y015118D03*
X010249Y015121D03*
X010261Y015141D03*
X010264Y015146D03*
X010264Y015148D03*
X010269Y015156D03*
X010274Y015163D03*
X010276Y015168D03*
X010281Y015176D03*
X010284Y015178D03*
X010624Y015546D03*
X007379Y014378D03*
X007311Y014793D03*
D102*
X007186Y013798D03*
X008106Y014143D03*
X008099Y014181D03*
X008836Y014036D03*
X008836Y014033D03*
X008839Y014046D03*
X008841Y014053D03*
X008841Y014056D03*
X008844Y014063D03*
X008846Y014073D03*
X008846Y014076D03*
X008846Y014078D03*
X008846Y014081D03*
X008849Y014086D03*
X008849Y014088D03*
X008834Y014018D03*
X008834Y014016D03*
X008829Y013993D03*
X008826Y013991D03*
X008826Y013988D03*
X008889Y014308D03*
X009204Y014278D03*
X009204Y014276D03*
X009279Y013893D03*
X009281Y013891D03*
X009281Y013888D03*
X009284Y013883D03*
X009286Y013881D03*
X009124Y013816D03*
X009121Y013813D03*
X009119Y013808D03*
X009114Y013803D03*
X009111Y013798D03*
X009719Y013806D03*
X009721Y013811D03*
X009721Y013813D03*
X009664Y014238D03*
X009659Y014251D03*
X009659Y014253D03*
X009656Y014256D03*
X009654Y014261D03*
X009654Y014263D03*
X009651Y014266D03*
X009636Y014288D03*
X010306Y015216D03*
X010311Y015223D03*
X010314Y015226D03*
X010316Y015231D03*
X010319Y015233D03*
X010321Y015238D03*
X010324Y015241D03*
X010326Y015243D03*
X010326Y015246D03*
X010329Y015248D03*
X010331Y015251D03*
X010331Y015253D03*
X010334Y015256D03*
X010351Y015278D03*
X010351Y015281D03*
X010359Y015286D03*
X010359Y015288D03*
X010361Y015293D03*
X011209Y013463D03*
X011389Y013131D03*
X011389Y013128D03*
X011391Y013121D03*
X011391Y013118D03*
X011406Y013081D03*
X011419Y013043D03*
X011471Y012868D03*
X011474Y012861D03*
X011474Y012858D03*
X011476Y012846D03*
X011484Y012791D03*
X011484Y012788D03*
X011484Y012786D03*
X011486Y012776D03*
X011489Y012756D03*
X011494Y012718D03*
X011494Y012716D03*
X011496Y012691D03*
X011496Y012671D03*
X011496Y012668D03*
X011496Y012666D03*
X011499Y012643D03*
X011499Y012633D03*
X011499Y012621D03*
X011499Y012618D03*
X011499Y012616D03*
X011499Y012613D03*
X011499Y012611D03*
X011499Y012608D03*
X011499Y012606D03*
X011499Y012603D03*
X011499Y012601D03*
X011499Y012598D03*
X011496Y012583D03*
X011496Y012581D03*
X011496Y012578D03*
X011496Y012568D03*
X011496Y012566D03*
X011496Y012541D03*
X011496Y012538D03*
X011496Y012536D03*
X011494Y012531D03*
X011494Y012528D03*
X011494Y012526D03*
X011494Y012523D03*
X011494Y012513D03*
X011494Y012511D03*
X011494Y012508D03*
X011494Y012506D03*
X011486Y012448D03*
X011484Y012436D03*
X011476Y012403D03*
X011476Y012401D03*
X010624Y012198D03*
D103*
X011394Y012208D03*
X009691Y013776D03*
X009394Y013771D03*
X009389Y013773D03*
X009384Y013778D03*
X009381Y013781D03*
X009201Y014036D03*
X009201Y014038D03*
X009201Y014041D03*
X009549Y014386D03*
X010474Y015423D03*
X010476Y015426D03*
X008586Y014128D03*
X008586Y014126D03*
X008586Y014123D03*
X008586Y014121D03*
X008469Y013878D03*
X008469Y013876D03*
X008469Y013873D03*
X008464Y013871D03*
X008461Y013868D03*
X008461Y013866D03*
X008066Y014038D03*
X008064Y014036D03*
X007976Y013958D03*
X007391Y014366D03*
X007174Y013823D03*
X007181Y013808D03*
D104*
X007165Y013828D03*
X007165Y013831D03*
X007168Y013908D03*
X007168Y013911D03*
X007170Y013913D03*
X007173Y013916D03*
X007330Y014786D03*
X007328Y014788D03*
X007975Y013953D03*
X008075Y014046D03*
X008080Y014053D03*
X008353Y013771D03*
X008485Y013896D03*
X008490Y013903D03*
X008495Y013911D03*
X008705Y013801D03*
X008785Y013891D03*
X008785Y013893D03*
X008588Y014138D03*
X008588Y014141D03*
X008308Y014503D03*
X009200Y014066D03*
X009200Y014063D03*
X009200Y014061D03*
X009363Y013796D03*
X009365Y013793D03*
X009370Y013788D03*
X010460Y015408D03*
X010463Y015411D03*
X011410Y012231D03*
X011410Y012228D03*
X011410Y012226D03*
X011405Y012223D03*
X011403Y012216D03*
D105*
X011411Y012233D03*
X011421Y012246D03*
X011421Y012248D03*
X009696Y013781D03*
X009369Y013791D03*
X009354Y013803D03*
X009351Y013806D03*
X009546Y014388D03*
X008706Y013798D03*
X008504Y013921D03*
X008504Y013923D03*
X008504Y013926D03*
X008506Y013928D03*
X008501Y013918D03*
X008499Y013916D03*
X008491Y013906D03*
X008489Y013901D03*
X008486Y013898D03*
X008589Y014143D03*
X008589Y014146D03*
X008589Y014148D03*
X008589Y014151D03*
X008589Y014153D03*
X008079Y014051D03*
X008076Y014048D03*
X007166Y013906D03*
X007166Y013903D03*
X010439Y015386D03*
X010444Y015393D03*
X010454Y015401D03*
X010456Y015403D03*
X010456Y015406D03*
X010619Y015538D03*
D106*
X009199Y014298D03*
X009054Y013731D03*
X008086Y014231D03*
X007366Y014391D03*
X010131Y012833D03*
X010136Y012823D03*
X010136Y012821D03*
X010141Y012816D03*
X010146Y012811D03*
X010154Y012793D03*
X010156Y012791D03*
X010574Y012246D03*
X010586Y012238D03*
D107*
X010573Y012256D03*
X010253Y012623D03*
X010248Y012633D03*
X010153Y012808D03*
X008338Y013756D03*
X007273Y014801D03*
D108*
X008579Y014196D03*
X008876Y014331D03*
X008701Y013783D03*
X009469Y014288D03*
X010214Y012696D03*
X010221Y012686D03*
X010234Y012658D03*
X010246Y012636D03*
X010561Y012263D03*
D109*
X010541Y012283D03*
X010409Y012423D03*
X010401Y012428D03*
X010234Y012668D03*
X010231Y012673D03*
X010226Y012683D03*
X010224Y012688D03*
X010216Y012701D03*
X010206Y012708D03*
X010209Y012716D03*
X010171Y012781D03*
X010164Y012798D03*
X011091Y013633D03*
X011094Y013631D03*
X011061Y013678D03*
X009044Y013726D03*
D110*
X009080Y013761D03*
X009098Y013786D03*
X009103Y013788D03*
X009103Y013791D03*
X009105Y013793D03*
X009290Y013878D03*
X009293Y013876D03*
X009293Y013873D03*
X009295Y013868D03*
X009298Y013866D03*
X009300Y013863D03*
X009300Y013861D03*
X009303Y013858D03*
X009305Y013856D03*
X009200Y014108D03*
X009200Y014111D03*
X009198Y014118D03*
X009200Y014131D03*
X009200Y014133D03*
X009200Y014136D03*
X009200Y014138D03*
X009203Y014231D03*
X009203Y014233D03*
X008878Y014246D03*
X008875Y014233D03*
X008875Y014231D03*
X008873Y014223D03*
X008873Y014221D03*
X008873Y014218D03*
X008870Y014211D03*
X008870Y014208D03*
X008870Y014206D03*
X008870Y014203D03*
X008870Y014201D03*
X008868Y014193D03*
X008868Y014191D03*
X008868Y014188D03*
X008868Y014186D03*
X008865Y014181D03*
X008865Y014178D03*
X008865Y014176D03*
X008863Y014171D03*
X008860Y014151D03*
X008823Y013978D03*
X008823Y013976D03*
X008820Y013968D03*
X008813Y013946D03*
X008808Y013931D03*
X008808Y013928D03*
X008808Y013926D03*
X008588Y014166D03*
X008313Y014501D03*
X008103Y014093D03*
X007158Y013886D03*
X007153Y013878D03*
X007153Y013876D03*
X007150Y013868D03*
X007153Y013858D03*
X007153Y013856D03*
X007155Y013851D03*
X007155Y013848D03*
X009545Y014391D03*
X009630Y014301D03*
X009633Y014298D03*
X009633Y014296D03*
X009715Y013803D03*
X009715Y013801D03*
X009713Y013798D03*
X009710Y013796D03*
X009708Y013793D03*
X010365Y015296D03*
X010368Y015301D03*
X010370Y015306D03*
X010375Y015311D03*
X010378Y015316D03*
X010380Y015318D03*
X010380Y015321D03*
X010383Y015323D03*
X010385Y015326D03*
X010388Y015328D03*
X010390Y015331D03*
X010393Y015336D03*
X010398Y015341D03*
X010400Y015343D03*
X011468Y012368D03*
X011468Y012366D03*
X011468Y012358D03*
X011463Y012343D03*
X011463Y012341D03*
X011463Y012338D03*
X011460Y012336D03*
X011458Y012331D03*
X011458Y012328D03*
X011458Y012326D03*
X011450Y012316D03*
X011450Y012313D03*
X011448Y012303D03*
X011440Y012288D03*
D111*
X011490Y012493D03*
X011490Y012496D03*
X011493Y012503D03*
X011493Y012516D03*
X011493Y012518D03*
X011493Y012521D03*
X011495Y012543D03*
X011495Y012563D03*
X011495Y012586D03*
X011498Y012593D03*
X011498Y012596D03*
X011498Y012623D03*
X011498Y012626D03*
X011498Y012628D03*
X011498Y012631D03*
X011498Y012636D03*
X011498Y012638D03*
X011498Y012641D03*
X011495Y012658D03*
X011495Y012661D03*
X011495Y012663D03*
X011498Y012673D03*
X011498Y012676D03*
X011498Y012678D03*
X011498Y012681D03*
X011495Y012683D03*
X011495Y012686D03*
X011495Y012688D03*
X011495Y012693D03*
X011495Y012696D03*
X011495Y012698D03*
X011495Y012701D03*
X011493Y012721D03*
X011493Y012723D03*
X011493Y012726D03*
X011493Y012728D03*
X011488Y012758D03*
X011488Y012761D03*
X011488Y012763D03*
X011485Y012773D03*
X011485Y012778D03*
X011485Y012781D03*
X011485Y012783D03*
X011485Y012793D03*
X011483Y012801D03*
X011483Y012803D03*
X011483Y012806D03*
X011483Y012808D03*
X011483Y012811D03*
X011480Y012816D03*
X011478Y012818D03*
X011478Y012821D03*
X011478Y012823D03*
X011478Y012826D03*
X011478Y012828D03*
X011475Y012841D03*
X011475Y012843D03*
X011473Y012863D03*
X011473Y012866D03*
X011470Y012871D03*
X011470Y012873D03*
X011468Y012883D03*
X011453Y012936D03*
X011448Y012951D03*
X011445Y012966D03*
X011445Y012968D03*
X011445Y012971D03*
X011445Y012973D03*
X011438Y012991D03*
X011430Y013016D03*
X011420Y013041D03*
X011418Y013046D03*
X011418Y013048D03*
X011418Y013051D03*
X011418Y013053D03*
X011418Y013056D03*
X011413Y013061D03*
X011413Y013063D03*
X011410Y013066D03*
X011408Y013078D03*
X011398Y013098D03*
X011398Y013101D03*
X011395Y013106D03*
X011395Y013108D03*
X011395Y013111D03*
X011395Y013113D03*
X011395Y013116D03*
X011390Y013123D03*
X011390Y013126D03*
X011385Y013133D03*
X011355Y013201D03*
X011355Y013203D03*
X011353Y013206D03*
X011288Y013331D03*
X011288Y013333D03*
X011213Y013456D03*
X011210Y013461D03*
X011170Y013511D03*
X010298Y015203D03*
X010300Y015206D03*
X010303Y015208D03*
X010305Y015213D03*
X010308Y015218D03*
X010310Y015221D03*
X010315Y015228D03*
X010320Y015236D03*
X010623Y015543D03*
X009660Y014248D03*
X009660Y014246D03*
X009660Y014243D03*
X009663Y014241D03*
X009665Y014236D03*
X009665Y014233D03*
X009668Y014231D03*
X009675Y014208D03*
X009725Y013823D03*
X009723Y013818D03*
X009723Y013816D03*
X009720Y013808D03*
X009555Y013681D03*
X009153Y013871D03*
X009153Y013873D03*
X009153Y013876D03*
X009145Y013858D03*
X009125Y013821D03*
X009125Y013818D03*
X009113Y013801D03*
X009065Y013746D03*
X008838Y014038D03*
X008838Y014041D03*
X008838Y014043D03*
X008643Y013896D03*
X008585Y014173D03*
X008095Y014203D03*
X008095Y014206D03*
X009203Y014281D03*
D112*
X008889Y014311D03*
X008889Y014313D03*
X008584Y014176D03*
X008644Y013893D03*
X008644Y013891D03*
X008644Y013888D03*
X008349Y013763D03*
X008094Y014208D03*
X008316Y014498D03*
X009064Y013743D03*
X009131Y013828D03*
X009134Y013831D03*
X009146Y013861D03*
X009151Y013868D03*
X009154Y013878D03*
X009156Y013886D03*
X009159Y013893D03*
X009544Y014396D03*
X009669Y014228D03*
X009669Y014226D03*
X009671Y014223D03*
X009674Y014221D03*
X009674Y014218D03*
X009674Y014216D03*
X009674Y014213D03*
X009674Y014211D03*
X009676Y014206D03*
X009679Y014201D03*
X009734Y013866D03*
X009734Y013863D03*
X009729Y013841D03*
X009729Y013838D03*
X009729Y013836D03*
X009729Y013833D03*
X009729Y013831D03*
X009726Y013826D03*
X009724Y013821D03*
X010231Y015093D03*
X010251Y015128D03*
X010251Y015131D03*
X010254Y015133D03*
X010256Y015136D03*
X010286Y015183D03*
X010286Y015186D03*
X010289Y015191D03*
X010291Y015193D03*
X010291Y015196D03*
X010294Y015198D03*
X010296Y015201D03*
X010304Y015211D03*
X011169Y013513D03*
X011171Y013508D03*
X011199Y013473D03*
X011206Y013466D03*
X011211Y013458D03*
X011219Y013443D03*
X011286Y013336D03*
X011289Y013328D03*
X011289Y013326D03*
X011346Y013218D03*
X011351Y013208D03*
X011356Y013198D03*
X011396Y013103D03*
X011399Y013096D03*
X011409Y013076D03*
X011409Y013073D03*
X011409Y013071D03*
X011409Y013068D03*
X011414Y013058D03*
X011421Y013038D03*
X011424Y013031D03*
X011424Y013028D03*
X011431Y013013D03*
X011431Y013011D03*
X011431Y013008D03*
X011431Y013006D03*
X011431Y013003D03*
X011436Y012988D03*
X011446Y012963D03*
X011446Y012961D03*
X011449Y012948D03*
X011449Y012946D03*
X011451Y012943D03*
X011451Y012941D03*
X011451Y012938D03*
X011454Y012933D03*
X011454Y012931D03*
X011454Y012928D03*
X011456Y012923D03*
X011459Y012921D03*
X011459Y012918D03*
X011459Y012916D03*
X011459Y012913D03*
X011461Y012901D03*
X011466Y012888D03*
X011466Y012886D03*
X011469Y012881D03*
X011469Y012878D03*
X011469Y012876D03*
X011476Y012831D03*
X011481Y012813D03*
X011484Y012796D03*
X011486Y012771D03*
X011486Y012768D03*
X011486Y012766D03*
X011489Y012753D03*
X011489Y012751D03*
X011489Y012748D03*
X011489Y012746D03*
X011489Y012736D03*
X011491Y012733D03*
X011491Y012731D03*
X011491Y012713D03*
X011491Y012711D03*
X011491Y012708D03*
X011494Y012703D03*
X011494Y012656D03*
X011494Y012653D03*
X011494Y012651D03*
X011496Y012648D03*
X011496Y012646D03*
X011496Y012591D03*
X011496Y012588D03*
X011494Y012561D03*
X011494Y012558D03*
X011494Y012556D03*
X011494Y012553D03*
X011494Y012551D03*
X011494Y012548D03*
X011494Y012546D03*
X011491Y012501D03*
X011491Y012498D03*
X007381Y014373D03*
D113*
X010133Y012838D03*
X010155Y012796D03*
X010190Y012733D03*
D114*
X011096Y013601D03*
X011231Y013418D03*
X011231Y013416D03*
X011234Y013411D03*
X011236Y013408D03*
X011241Y013401D03*
X011259Y013373D03*
X011261Y013368D03*
X011264Y013366D03*
X011266Y013361D03*
X010121Y014866D03*
X010121Y014868D03*
X010121Y014871D03*
X010121Y014873D03*
X010126Y014878D03*
X010129Y014883D03*
X010129Y014886D03*
X010131Y014888D03*
X010131Y014891D03*
X010134Y014896D03*
X010119Y014861D03*
X010114Y014851D03*
X010111Y014846D03*
X010111Y014843D03*
X010109Y014841D03*
X010106Y014838D03*
X010104Y014831D03*
X010104Y014828D03*
X010104Y014826D03*
X010094Y014803D03*
X010094Y014801D03*
X010091Y014798D03*
X010091Y014796D03*
X010091Y014793D03*
X010089Y014788D03*
X010089Y014786D03*
X010086Y014781D03*
X010084Y014776D03*
X010066Y014723D03*
X010066Y014721D03*
X010066Y014718D03*
X010054Y014688D03*
X009931Y014051D03*
X009481Y014303D03*
X009054Y013733D03*
X008706Y013788D03*
X008584Y014183D03*
X008319Y014496D03*
X008091Y014218D03*
X007374Y014381D03*
D115*
X007414Y014346D03*
X007506Y014296D03*
X007536Y014281D03*
X007541Y014278D03*
X007521Y014171D03*
X007509Y014161D03*
X007486Y014148D03*
X007484Y014146D03*
X007471Y014138D03*
X007459Y014131D03*
X007994Y013981D03*
X008576Y014023D03*
X008576Y014026D03*
X008709Y013818D03*
X009211Y013951D03*
X009559Y013688D03*
X010606Y015518D03*
D116*
X010593Y015501D03*
X009558Y013693D03*
X008713Y013833D03*
X008713Y013836D03*
X008570Y013983D03*
X008383Y013811D03*
X008383Y013808D03*
X007468Y014311D03*
X007428Y014336D03*
X007405Y014766D03*
D117*
X008716Y013856D03*
X009559Y013698D03*
X009556Y014333D03*
D118*
X009556Y013703D03*
X008719Y013883D03*
D119*
X009555Y013706D03*
D120*
X009555Y013708D03*
X007530Y014728D03*
X007510Y014733D03*
X007488Y014738D03*
D121*
X007591Y014711D03*
X009554Y013711D03*
D122*
X009553Y013713D03*
X007728Y014678D03*
X007688Y014688D03*
D123*
X007756Y014668D03*
X009554Y013718D03*
D124*
X009550Y013721D03*
X007800Y014658D03*
D125*
X007795Y014661D03*
X009550Y013723D03*
D126*
X009550Y013726D03*
X007853Y014648D03*
D127*
X009549Y013728D03*
D128*
X009549Y013731D03*
D129*
X009546Y013733D03*
D130*
X009546Y013736D03*
X008206Y014558D03*
X007889Y014638D03*
D131*
X007916Y014633D03*
X009546Y013738D03*
D132*
X009546Y013741D03*
X008199Y014561D03*
D133*
X009545Y013743D03*
D134*
X009548Y013746D03*
D135*
X009548Y013748D03*
D136*
X009545Y013751D03*
X007960Y014626D03*
D137*
X009544Y013753D03*
D138*
X009544Y013756D03*
X008159Y014576D03*
D139*
X008035Y014018D03*
X007990Y013971D03*
X008363Y013786D03*
X008580Y014043D03*
X008580Y014046D03*
X009210Y013968D03*
X009210Y013966D03*
X009210Y013963D03*
X009210Y013961D03*
X009548Y014373D03*
X009663Y013761D03*
X010610Y015523D03*
X007565Y014263D03*
X007555Y014271D03*
X007543Y014186D03*
X007425Y014111D03*
X007418Y014106D03*
X007413Y014103D03*
X007410Y014101D03*
X007388Y014086D03*
X007375Y014076D03*
X007353Y014061D03*
D140*
X007349Y014058D03*
X007344Y014056D03*
X007341Y014053D03*
X007339Y014051D03*
X007331Y014048D03*
X007329Y014046D03*
X007326Y014043D03*
X007321Y014041D03*
X007319Y014038D03*
X007429Y014113D03*
X007434Y014116D03*
X007551Y014193D03*
X007559Y014266D03*
X007556Y014268D03*
X007409Y014351D03*
X008296Y014511D03*
X008429Y013841D03*
X008426Y013838D03*
X008361Y013783D03*
X008709Y013813D03*
X009211Y013971D03*
X009419Y013761D03*
X010536Y015468D03*
D141*
X010599Y015508D03*
X010599Y015511D03*
X009216Y013936D03*
X008709Y013826D03*
X008574Y014006D03*
X008574Y014008D03*
X008574Y014011D03*
X008374Y013798D03*
X008371Y013796D03*
X008369Y013793D03*
X008009Y013996D03*
X008009Y013998D03*
X008004Y013991D03*
X008289Y014516D03*
X007484Y014306D03*
D142*
X007449Y014323D03*
X007421Y014338D03*
X007421Y014341D03*
X007396Y014768D03*
X007389Y014771D03*
X008019Y014011D03*
X008011Y014001D03*
X008376Y013801D03*
X008404Y013828D03*
X008574Y013996D03*
X008711Y013828D03*
X008289Y014518D03*
X009551Y014361D03*
D143*
X009215Y013926D03*
X009215Y013923D03*
X008713Y013831D03*
X008573Y013991D03*
X008573Y013993D03*
X008378Y013803D03*
X008010Y014003D03*
X007453Y014321D03*
X007433Y014331D03*
X007430Y014333D03*
X010598Y015506D03*
D144*
X010585Y015493D03*
X010583Y015491D03*
X009218Y013913D03*
X008713Y013838D03*
X008385Y013816D03*
X007425Y014758D03*
X007408Y014763D03*
D145*
X007434Y014756D03*
X007449Y014751D03*
X008569Y013968D03*
X008714Y013843D03*
X009219Y013906D03*
X010574Y015483D03*
D146*
X009553Y014343D03*
X009220Y013898D03*
X009220Y013896D03*
X008715Y013848D03*
X008565Y013948D03*
X008565Y013951D03*
X008565Y013953D03*
D147*
X008566Y013946D03*
X008566Y013943D03*
X008716Y013851D03*
X008276Y014526D03*
X009554Y014341D03*
X009554Y014338D03*
D148*
X009555Y014336D03*
X008715Y013853D03*
X008275Y014528D03*
X007455Y014748D03*
D149*
X008565Y013941D03*
X008715Y013858D03*
X009558Y014331D03*
D150*
X009559Y014321D03*
X009559Y014318D03*
X008716Y013866D03*
X008561Y013931D03*
X008274Y014531D03*
X007461Y014746D03*
D151*
X008719Y013871D03*
D152*
X008718Y013873D03*
X008270Y014533D03*
X009560Y014313D03*
D153*
X008719Y013881D03*
X008719Y013878D03*
X008719Y013876D03*
D154*
X008246Y014541D03*
X008244Y014543D03*
X007736Y014676D03*
X007694Y014686D03*
X007654Y014696D03*
D155*
X008238Y014546D03*
D156*
X008233Y014548D03*
D157*
X008229Y014551D03*
D158*
X008224Y014553D03*
X007809Y014656D03*
D159*
X008218Y014556D03*
D160*
X008195Y014563D03*
X007945Y014628D03*
D161*
X008179Y014568D03*
D162*
X008175Y014571D03*
X008165Y014573D03*
X008000Y014618D03*
D163*
X008054Y014606D03*
X008074Y014601D03*
X008096Y014596D03*
X008114Y014591D03*
X008126Y014586D03*
X008149Y014578D03*
D164*
X008145Y014581D03*
D165*
X008130Y014583D03*
X008125Y014588D03*
X008035Y014611D03*
D166*
X007986Y014621D03*
X008101Y014593D03*
D167*
X008081Y014598D03*
X008046Y014608D03*
D168*
X008066Y014603D03*
D169*
X008025Y014613D03*
D170*
X008020Y014616D03*
X007975Y014623D03*
D171*
X007935Y014631D03*
X007900Y014636D03*
D172*
X007868Y014643D03*
D173*
X007833Y014651D03*
D174*
X007821Y014653D03*
D175*
X007769Y014666D03*
X007744Y014673D03*
D176*
X007709Y014683D03*
X007681Y014691D03*
X007596Y014708D03*
D177*
X007628Y014703D03*
X007643Y014698D03*
D178*
X007616Y014706D03*
X007571Y014716D03*
X007564Y014718D03*
X007559Y014721D03*
X007539Y014726D03*
D179*
X007500Y014736D03*
X007478Y014741D03*
D180*
X007471Y014743D03*
D181*
X011366Y011184D03*
X011376Y011194D03*
X011416Y011204D03*
X011426Y011204D03*
X011436Y011194D03*
X011516Y011064D03*
X011536Y011054D03*
X011546Y011054D03*
X011586Y011074D03*
X011586Y010854D03*
X011576Y010854D03*
X011566Y010854D03*
X011556Y010854D03*
X011546Y010854D03*
X011536Y010854D03*
X011526Y010854D03*
X011516Y010854D03*
X011506Y010854D03*
X011496Y010854D03*
X011486Y010854D03*
X011476Y010854D03*
X011466Y010854D03*
X011456Y010854D03*
X011446Y010854D03*
X011436Y010854D03*
X011426Y010854D03*
X011416Y010854D03*
X011406Y010854D03*
X011396Y010854D03*
X011386Y010854D03*
X011376Y010854D03*
X011366Y010854D03*
X011596Y010854D03*
X011606Y010854D03*
X011616Y010854D03*
X011626Y010854D03*
X011636Y010854D03*
X011646Y010854D03*
X011656Y010854D03*
X011666Y010854D03*
X011676Y010854D03*
X011736Y010854D03*
X011656Y010764D03*
X011646Y010754D03*
X011636Y010744D03*
X011576Y010574D03*
X011566Y010574D03*
X011546Y010584D03*
X011536Y010584D03*
X011526Y010584D03*
X011516Y010584D03*
X011506Y010584D03*
X011496Y010584D03*
X011486Y010584D03*
X011476Y010584D03*
X011466Y010584D03*
X011456Y010584D03*
X011446Y010584D03*
X011436Y010584D03*
X011426Y010584D03*
X011416Y010584D03*
X011406Y010584D03*
X011396Y010584D03*
X011386Y010584D03*
X011376Y010584D03*
X011366Y010584D03*
X011356Y010584D03*
X011346Y010584D03*
X011336Y010584D03*
X011326Y010584D03*
X011326Y010394D03*
X011336Y010394D03*
X011346Y010394D03*
X011356Y010394D03*
X011366Y010394D03*
X011376Y010394D03*
X011386Y010394D03*
X011396Y010394D03*
X011406Y010394D03*
X011416Y010394D03*
X011426Y010394D03*
X011436Y010394D03*
X011446Y010394D03*
X011456Y010394D03*
X011466Y010394D03*
X011476Y010394D03*
X011486Y010394D03*
X011496Y010394D03*
X011506Y010394D03*
X011516Y010394D03*
X011526Y010394D03*
X011536Y010394D03*
X011546Y010394D03*
X011556Y010394D03*
X011526Y010254D03*
X011516Y010254D03*
X011506Y010254D03*
X011496Y010254D03*
X011456Y010254D03*
X011446Y010254D03*
X011436Y010254D03*
X011426Y010254D03*
X011416Y010254D03*
X011406Y010254D03*
X011396Y010254D03*
X011356Y010184D03*
X011366Y010074D03*
X011386Y010064D03*
X011396Y010064D03*
X011406Y010064D03*
X011446Y010094D03*
X011576Y010084D03*
X011576Y009934D03*
X011566Y009934D03*
X011556Y009934D03*
X011546Y009934D03*
X011536Y009934D03*
X011526Y009934D03*
X011516Y009934D03*
X011506Y009934D03*
X011496Y009934D03*
X011486Y009934D03*
X011476Y009934D03*
X011466Y009934D03*
X011456Y009934D03*
X011446Y009934D03*
X011436Y009934D03*
X011426Y009934D03*
X011416Y009934D03*
X011406Y009934D03*
X011396Y009934D03*
X011386Y009934D03*
X011376Y009934D03*
X011366Y009934D03*
X011356Y009934D03*
X011346Y009934D03*
X011336Y009934D03*
X011326Y009934D03*
X011316Y009934D03*
X011306Y009934D03*
X011296Y009934D03*
X011286Y009934D03*
X011266Y009924D03*
X011586Y009934D03*
X011596Y009934D03*
X011606Y009934D03*
X011616Y009934D03*
X011696Y009934D03*
X011736Y009934D03*
X011576Y010234D03*
X011566Y010244D03*
X011546Y009574D03*
X011536Y009574D03*
X011526Y009574D03*
X011516Y009574D03*
X011506Y009574D03*
X011496Y009574D03*
X011486Y009574D03*
X011476Y009574D03*
X011466Y009574D03*
X011456Y009574D03*
X011446Y009574D03*
X011436Y009574D03*
X011426Y009574D03*
X011416Y009574D03*
X011406Y009574D03*
X011396Y009574D03*
X011386Y009574D03*
X011376Y009574D03*
X011366Y009574D03*
X011356Y009574D03*
X011346Y009574D03*
X011336Y009574D03*
X011326Y009574D03*
X011326Y009394D03*
X011336Y009394D03*
X011346Y009394D03*
X011356Y009394D03*
X011366Y009394D03*
X011376Y009394D03*
X011386Y009394D03*
X011396Y009394D03*
X011406Y009394D03*
X011416Y009394D03*
X011426Y009394D03*
X011436Y009394D03*
X011446Y009394D03*
X011456Y009394D03*
X011466Y009394D03*
X011476Y009394D03*
X011486Y009394D03*
X011496Y009394D03*
X011506Y009394D03*
X011516Y009394D03*
X011526Y009394D03*
X011536Y009394D03*
X011546Y009394D03*
X011546Y009224D03*
X011536Y009224D03*
X011526Y009224D03*
X011516Y009224D03*
X011506Y009224D03*
X011496Y009224D03*
X011486Y009224D03*
X011476Y009224D03*
X011466Y009224D03*
X011456Y009224D03*
X011446Y009224D03*
X011436Y009224D03*
X011426Y009224D03*
X011416Y009224D03*
X011406Y009224D03*
X011396Y009224D03*
X011386Y009224D03*
X011376Y009224D03*
X011366Y009224D03*
X011356Y009224D03*
X011346Y009224D03*
X011336Y009224D03*
X011326Y009224D03*
X011396Y009074D03*
X011386Y009064D03*
X011376Y009054D03*
X011416Y009084D03*
X011426Y009084D03*
X011466Y009094D03*
X011476Y009094D03*
X011486Y009094D03*
X011526Y009084D03*
X011536Y009084D03*
X011556Y009074D03*
X011566Y009064D03*
X011576Y009054D03*
X011576Y008894D03*
X011566Y008884D03*
X011556Y008874D03*
X011536Y008864D03*
X011526Y008864D03*
X011486Y008854D03*
X011476Y008854D03*
X011466Y008854D03*
X011426Y008864D03*
X011416Y008864D03*
X011396Y008874D03*
X011386Y008884D03*
X011376Y008894D03*
X011366Y008754D03*
X011396Y008594D03*
X011416Y008584D03*
X011466Y008574D03*
X011476Y008574D03*
X011486Y008574D03*
X011536Y008584D03*
X011556Y008594D03*
X011566Y008604D03*
X011586Y008754D03*
X011376Y008464D03*
X011336Y008464D03*
X011406Y008344D03*
X011386Y008334D03*
X011376Y008324D03*
X011436Y008354D03*
X011446Y008354D03*
X011456Y008354D03*
X011466Y008354D03*
X011476Y008354D03*
X011486Y008354D03*
X011496Y008354D03*
X011506Y008354D03*
X011516Y008354D03*
X011526Y008354D03*
X011546Y008344D03*
X011556Y008344D03*
X011566Y008334D03*
X011556Y008144D03*
X011546Y008144D03*
X011536Y008144D03*
X011526Y008144D03*
X011516Y008144D03*
X011506Y008144D03*
X011496Y008144D03*
X011486Y008144D03*
X011476Y008144D03*
X011466Y008144D03*
X011456Y008144D03*
X011446Y008144D03*
X011436Y008144D03*
X011426Y008144D03*
X011416Y008144D03*
X011406Y008144D03*
X011396Y008144D03*
X011386Y008144D03*
X011396Y008004D03*
X011406Y008004D03*
X011416Y008004D03*
X011426Y008004D03*
X011436Y008004D03*
X011446Y008004D03*
X011456Y008004D03*
X011466Y008004D03*
X011476Y008004D03*
X011486Y008004D03*
X011496Y008004D03*
X011506Y008004D03*
X011516Y008004D03*
X011526Y008004D03*
X011536Y008004D03*
X011546Y008004D03*
X011556Y008004D03*
X011566Y008004D03*
X011576Y008004D03*
X011586Y008004D03*
X011596Y008004D03*
X011606Y008004D03*
X011616Y008004D03*
X011616Y008144D03*
X011606Y008144D03*
X011596Y008144D03*
X011586Y008144D03*
X011626Y008144D03*
X011636Y008144D03*
X011646Y008144D03*
X011656Y008144D03*
X011666Y008144D03*
X011676Y008144D03*
X011686Y008144D03*
X011696Y008144D03*
X011706Y008144D03*
X011716Y008144D03*
X011726Y008144D03*
X011736Y008144D03*
X011746Y008144D03*
X011756Y008144D03*
X011616Y007804D03*
X011606Y007804D03*
X011596Y007804D03*
X011586Y007804D03*
X011576Y007804D03*
X011566Y007804D03*
X011556Y007804D03*
X011546Y007804D03*
X011536Y007804D03*
X011526Y007804D03*
X011516Y007804D03*
X011506Y007804D03*
X011496Y007804D03*
X011486Y007804D03*
X011476Y007804D03*
X011466Y007804D03*
X011456Y007804D03*
X011446Y007804D03*
X011436Y007804D03*
X011426Y007804D03*
X011416Y007804D03*
X011406Y007804D03*
X011386Y007814D03*
X011376Y007814D03*
X011376Y007664D03*
X011366Y007664D03*
X011356Y007664D03*
X011346Y007664D03*
X011336Y007664D03*
X011326Y007664D03*
X011386Y007664D03*
X011396Y007664D03*
X011406Y007664D03*
X011416Y007664D03*
X011426Y007664D03*
X011436Y007664D03*
X011446Y007664D03*
X011456Y007664D03*
X011466Y007664D03*
X011476Y007664D03*
X011486Y007664D03*
X011496Y007664D03*
X011506Y007664D03*
X011516Y007664D03*
X011526Y007664D03*
X011536Y007664D03*
X011546Y007664D03*
X011566Y007654D03*
X011576Y007654D03*
X011586Y007474D03*
X011596Y007474D03*
X011606Y007474D03*
X011616Y007474D03*
X011626Y007474D03*
X011636Y007474D03*
X011646Y007474D03*
X011656Y007474D03*
X011666Y007474D03*
X011676Y007474D03*
X011686Y007474D03*
X011696Y007474D03*
X011706Y007474D03*
X011716Y007474D03*
X011726Y007474D03*
X011736Y007474D03*
X011746Y007474D03*
X011756Y007474D03*
X011556Y007474D03*
X011546Y007474D03*
X011536Y007474D03*
X011526Y007474D03*
X011516Y007474D03*
X011506Y007474D03*
X011496Y007474D03*
X011486Y007474D03*
X011476Y007474D03*
X011466Y007474D03*
X011456Y007474D03*
X011446Y007474D03*
X011436Y007474D03*
X011426Y007474D03*
X011416Y007474D03*
X011406Y007474D03*
X011396Y007474D03*
X011386Y007474D03*
X011376Y007474D03*
X011366Y007474D03*
X011356Y007474D03*
X011346Y007474D03*
X011336Y007474D03*
X011326Y007474D03*
X011366Y007274D03*
X011396Y007264D03*
X011406Y007264D03*
X011416Y007264D03*
X011426Y007264D03*
X011436Y007264D03*
X011446Y007264D03*
X011456Y007264D03*
X011466Y007264D03*
X011476Y007264D03*
X011486Y007264D03*
X011496Y007264D03*
X011506Y007264D03*
X011516Y007264D03*
X011526Y007264D03*
X011536Y007264D03*
X011546Y007264D03*
X011556Y007264D03*
X011566Y007264D03*
X011576Y007264D03*
X011576Y007094D03*
X011566Y007094D03*
X011556Y007094D03*
X011546Y007094D03*
X011536Y007094D03*
X011526Y007094D03*
X011516Y007094D03*
X011506Y007094D03*
X011496Y007094D03*
X011486Y007094D03*
X011476Y007094D03*
X011466Y007094D03*
X011456Y007094D03*
X011446Y007094D03*
X011436Y007094D03*
X011426Y007094D03*
X011416Y007094D03*
X011406Y007094D03*
X011396Y007094D03*
X011386Y007094D03*
X011376Y007094D03*
X011366Y007094D03*
X011356Y007094D03*
X011346Y007094D03*
X011336Y007094D03*
X011326Y007094D03*
X011326Y006984D03*
X011316Y006984D03*
X011336Y006974D03*
X011266Y006954D03*
X011226Y006864D03*
X011276Y006764D03*
X011396Y006784D03*
X011526Y006774D03*
X011536Y006774D03*
X011586Y006794D03*
X011576Y006944D03*
X011586Y007094D03*
X011596Y007094D03*
X011606Y007094D03*
X011616Y007094D03*
X011696Y007094D03*
X011736Y007094D03*
X011596Y006274D03*
X011556Y006274D03*
X011376Y006274D03*
X011336Y006274D03*
X011376Y006134D03*
X011366Y006124D03*
X011416Y006144D03*
X011426Y006144D03*
X011436Y006134D03*
X011516Y006004D03*
X011536Y005994D03*
X011546Y005994D03*
X011586Y006014D03*
X011546Y005884D03*
X011536Y005884D03*
X011566Y005874D03*
X011576Y005864D03*
X011496Y005894D03*
X011486Y005894D03*
X011476Y005894D03*
X011466Y005894D03*
X011426Y005884D03*
X011416Y005884D03*
X011396Y005874D03*
X011386Y005864D03*
X011386Y005684D03*
X011396Y005684D03*
X011406Y005684D03*
X011416Y005684D03*
X011426Y005684D03*
X011436Y005684D03*
X011446Y005684D03*
X011456Y005684D03*
X011466Y005684D03*
X011476Y005684D03*
X011486Y005684D03*
X011496Y005684D03*
X011506Y005684D03*
X011516Y005684D03*
X011526Y005684D03*
X011536Y005684D03*
X011546Y005684D03*
X011556Y005684D03*
X011556Y005474D03*
X011546Y005474D03*
X011536Y005474D03*
X011526Y005474D03*
X011516Y005474D03*
X011506Y005474D03*
X011496Y005474D03*
X011486Y005474D03*
X011476Y005474D03*
X011466Y005474D03*
X011456Y005474D03*
X011446Y005474D03*
X011436Y005474D03*
X011426Y005474D03*
X011416Y005474D03*
X011406Y005474D03*
X011396Y005474D03*
X011366Y005484D03*
X011356Y005684D03*
X011346Y005684D03*
X011336Y005684D03*
X011326Y005684D03*
X011316Y005684D03*
X011306Y005684D03*
X011296Y005684D03*
X011286Y005684D03*
X011276Y005684D03*
X011266Y005684D03*
X011256Y005684D03*
X011246Y005684D03*
X011236Y005684D03*
X011226Y005684D03*
X011366Y005254D03*
X011396Y005244D03*
X011406Y005244D03*
X011416Y005244D03*
X011426Y005244D03*
X011436Y005244D03*
X011446Y005244D03*
X011456Y005244D03*
X011466Y005244D03*
X011476Y005244D03*
X011486Y005244D03*
X011496Y005244D03*
X011506Y005244D03*
X011516Y005244D03*
X011526Y005244D03*
X011536Y005244D03*
X011546Y005244D03*
X011556Y005244D03*
X011566Y005244D03*
X011576Y005244D03*
X011546Y005094D03*
X011536Y005094D03*
X011526Y005094D03*
X011516Y005094D03*
X011506Y005094D03*
X011496Y005094D03*
X011486Y005094D03*
X011476Y005094D03*
X011466Y005094D03*
X011456Y005094D03*
X011446Y005094D03*
X011436Y005094D03*
X011426Y005094D03*
X011416Y005094D03*
X011406Y005094D03*
X011396Y005094D03*
X011386Y005094D03*
X011376Y005094D03*
X011366Y005094D03*
X011356Y005094D03*
X011346Y005094D03*
X011336Y005094D03*
X011326Y005094D03*
X011326Y004904D03*
X011336Y004904D03*
X011346Y004904D03*
X011356Y004904D03*
X011366Y004904D03*
X011376Y004904D03*
X011386Y004904D03*
X011396Y004904D03*
X011406Y004904D03*
X011416Y004904D03*
X011426Y004904D03*
X011436Y004904D03*
X011446Y004904D03*
X011456Y004904D03*
X011466Y004904D03*
X011476Y004904D03*
X011486Y004904D03*
X011496Y004904D03*
X011506Y004904D03*
X011516Y004904D03*
X011526Y004904D03*
X011536Y004904D03*
X011546Y004904D03*
X011556Y004904D03*
X011586Y004904D03*
X011596Y004904D03*
X011606Y004904D03*
X011616Y004904D03*
X011626Y004904D03*
X011636Y004904D03*
X011646Y004904D03*
X011656Y004904D03*
X011666Y004904D03*
X011676Y004904D03*
X011686Y004904D03*
X011696Y004904D03*
X011706Y004904D03*
X011716Y004904D03*
X011726Y004904D03*
X011736Y004904D03*
X011746Y004904D03*
X011756Y004904D03*
X011576Y005084D03*
X011566Y005084D03*
X011566Y005474D03*
X011576Y005474D03*
X011556Y009224D03*
X011566Y009564D03*
X011576Y009564D03*
D182*
X011556Y009569D03*
X011586Y009439D03*
X011576Y009379D03*
X011566Y009379D03*
X011586Y009369D03*
X011586Y009219D03*
X011596Y009219D03*
X011606Y009219D03*
X011616Y009219D03*
X011546Y009079D03*
X011516Y009089D03*
X011506Y009089D03*
X011496Y009089D03*
X011456Y009089D03*
X011446Y009089D03*
X011436Y009089D03*
X011406Y009079D03*
X011406Y008869D03*
X011436Y008859D03*
X011446Y008859D03*
X011456Y008859D03*
X011496Y008859D03*
X011506Y008859D03*
X011516Y008859D03*
X011546Y008869D03*
X011626Y008689D03*
X011546Y008589D03*
X011526Y008579D03*
X011516Y008579D03*
X011506Y008579D03*
X011496Y008579D03*
X011456Y008579D03*
X011446Y008579D03*
X011436Y008579D03*
X011426Y008579D03*
X011406Y008589D03*
X011386Y008599D03*
X011386Y008459D03*
X011416Y008349D03*
X011426Y008349D03*
X011396Y008339D03*
X011536Y008349D03*
X011356Y008139D03*
X011346Y008139D03*
X011336Y008139D03*
X011336Y008009D03*
X011346Y008009D03*
X011356Y008009D03*
X011366Y008009D03*
X011366Y007949D03*
X011396Y007809D03*
X011556Y007659D03*
X011616Y007269D03*
X011626Y007269D03*
X011636Y007269D03*
X011646Y007269D03*
X011656Y007269D03*
X011666Y007269D03*
X011676Y007269D03*
X011686Y007269D03*
X011386Y007269D03*
X011376Y007269D03*
X011306Y006979D03*
X011296Y006979D03*
X011286Y006979D03*
X011276Y006969D03*
X011476Y006929D03*
X011486Y006939D03*
X011496Y006949D03*
X011506Y006949D03*
X011526Y006959D03*
X011536Y006959D03*
X011556Y006949D03*
X011566Y006949D03*
X011576Y006789D03*
X011566Y006779D03*
X011556Y006779D03*
X011546Y006779D03*
X011516Y006779D03*
X011506Y006779D03*
X011496Y006779D03*
X011486Y006789D03*
X011476Y006799D03*
X011406Y006779D03*
X011336Y006769D03*
X011316Y006759D03*
X011306Y006759D03*
X011296Y006759D03*
X011286Y006759D03*
X011336Y006569D03*
X011386Y006589D03*
X011436Y006609D03*
X011486Y006629D03*
X011536Y006649D03*
X011566Y006659D03*
X011586Y006669D03*
X011616Y006679D03*
X011636Y006689D03*
X011666Y006699D03*
X011716Y006719D03*
X011716Y006539D03*
X011666Y006519D03*
X011636Y006509D03*
X011616Y006499D03*
X011586Y006489D03*
X011566Y006479D03*
X011536Y006469D03*
X011486Y006449D03*
X011436Y006429D03*
X011386Y006409D03*
X011336Y006389D03*
X011386Y006139D03*
X011396Y006139D03*
X011406Y006139D03*
X011366Y005989D03*
X011406Y005879D03*
X011436Y005889D03*
X011446Y005889D03*
X011456Y005889D03*
X011506Y005889D03*
X011516Y005889D03*
X011526Y005889D03*
X011556Y005879D03*
X011556Y005999D03*
X011566Y005999D03*
X011576Y005999D03*
X011526Y005999D03*
X011586Y005679D03*
X011596Y005679D03*
X011606Y005679D03*
X011616Y005679D03*
X011616Y005479D03*
X011626Y005479D03*
X011636Y005479D03*
X011646Y005479D03*
X011656Y005479D03*
X011666Y005479D03*
X011676Y005479D03*
X011686Y005479D03*
X011686Y005249D03*
X011676Y005249D03*
X011666Y005249D03*
X011656Y005249D03*
X011646Y005249D03*
X011636Y005249D03*
X011626Y005249D03*
X011616Y005249D03*
X011556Y005089D03*
X011386Y005249D03*
X011376Y005249D03*
X011376Y005479D03*
X011386Y005479D03*
X011336Y009679D03*
X011386Y009699D03*
X011436Y009719D03*
X011486Y009739D03*
X011536Y009759D03*
X011566Y009769D03*
X011586Y009779D03*
X011616Y009789D03*
X011636Y009799D03*
X011666Y009809D03*
X011716Y009829D03*
X011436Y010079D03*
X011426Y010069D03*
X011416Y010069D03*
X011376Y010069D03*
X011276Y009929D03*
X011226Y009869D03*
X011336Y010259D03*
X011346Y010259D03*
X011356Y010259D03*
X011366Y010259D03*
X011536Y010249D03*
X011546Y010249D03*
X011556Y010249D03*
X011586Y010389D03*
X011596Y010389D03*
X011606Y010389D03*
X011616Y010389D03*
X011556Y010579D03*
X011746Y010859D03*
X011576Y011059D03*
X011566Y011059D03*
X011556Y011059D03*
X011526Y011059D03*
X011406Y011199D03*
X011396Y011199D03*
X011386Y011199D03*
X011366Y011049D03*
D183*
X011606Y011134D03*
X011346Y010134D03*
X011596Y009324D03*
X011606Y008264D03*
X011346Y008254D03*
X011346Y007884D03*
X011356Y007314D03*
X011596Y006944D03*
X011456Y006864D03*
X011236Y006864D03*
X011606Y006074D03*
X011606Y005804D03*
X011346Y005794D03*
X011356Y005524D03*
X011356Y005294D03*
D184*
X011576Y004914D03*
X011576Y005694D03*
X011456Y006114D03*
X011356Y006274D03*
X011576Y006274D03*
X011596Y006814D03*
X011346Y006964D03*
X011716Y007094D03*
X011576Y007484D03*
X011356Y008464D03*
X011576Y009234D03*
X011236Y009884D03*
X011376Y010244D03*
X011486Y010244D03*
X011586Y010094D03*
X011716Y009934D03*
X011576Y010404D03*
X011716Y010844D03*
X011456Y011174D03*
D185*
X011466Y010189D03*
X011596Y008689D03*
X011596Y007289D03*
X011586Y007289D03*
X011606Y007289D03*
X011246Y006859D03*
X011586Y005499D03*
X011596Y005499D03*
X011606Y005499D03*
X011606Y005269D03*
X011596Y005269D03*
X011586Y005269D03*
D186*
X011366Y005699D03*
X011356Y006009D03*
X011376Y007989D03*
X011366Y008159D03*
X011576Y008159D03*
X011616Y009329D03*
X011246Y009889D03*
X011706Y010839D03*
X011356Y011069D03*
D187*
X011256Y006864D03*
D188*
X011386Y006814D03*
X011336Y007314D03*
X011616Y007594D03*
X011336Y008254D03*
X011256Y009894D03*
X011456Y010124D03*
X011616Y010514D03*
X011496Y011094D03*
X011466Y011154D03*
X011616Y011134D03*
X011466Y006094D03*
X011496Y006034D03*
X011616Y006074D03*
X011616Y005804D03*
X011336Y005524D03*
X011336Y005294D03*
X011616Y005024D03*
D189*
X011586Y005069D03*
X011566Y004909D03*
X011566Y005689D03*
X011586Y005859D03*
X011506Y006019D03*
X011446Y006129D03*
X011356Y006109D03*
X011346Y006279D03*
X011366Y006279D03*
X011566Y006279D03*
X011586Y006279D03*
X011376Y005859D03*
X011366Y005849D03*
X011376Y005689D03*
X011266Y006779D03*
X011706Y007099D03*
X011726Y007099D03*
X011566Y007479D03*
X011586Y007639D03*
X011366Y007829D03*
X011386Y007999D03*
X011376Y008149D03*
X011366Y008309D03*
X011366Y008459D03*
X011346Y008459D03*
X011376Y008609D03*
X011366Y008619D03*
X011366Y008899D03*
X011366Y009049D03*
X011586Y009049D03*
X011586Y008899D03*
X011586Y008619D03*
X011576Y008609D03*
X011576Y008329D03*
X011586Y008319D03*
X011566Y008149D03*
X011566Y009229D03*
X011556Y009399D03*
X011586Y009549D03*
X011706Y009939D03*
X011726Y009939D03*
X011586Y010229D03*
X011566Y010399D03*
X011586Y010559D03*
X011666Y010779D03*
X011676Y010789D03*
X011726Y010849D03*
X011506Y011079D03*
X011446Y011189D03*
X011356Y011169D03*
X011386Y010249D03*
X011356Y010089D03*
D190*
X011296Y009654D03*
X011686Y009934D03*
X011756Y009854D03*
X011616Y010744D03*
X011576Y011204D03*
X011386Y008764D03*
X011326Y008464D03*
X011686Y007094D03*
X011626Y006864D03*
X011756Y006744D03*
X011756Y006564D03*
X011546Y006274D03*
X011576Y006144D03*
X011326Y006274D03*
X011296Y006364D03*
X011296Y006544D03*
D191*
X011306Y006554D03*
X011316Y006564D03*
X011326Y006564D03*
X011346Y006574D03*
X011356Y006574D03*
X011366Y006584D03*
X011376Y006584D03*
X011396Y006594D03*
X011406Y006594D03*
X011416Y006604D03*
X011426Y006604D03*
X011446Y006614D03*
X011456Y006614D03*
X011466Y006624D03*
X011476Y006624D03*
X011496Y006634D03*
X011506Y006634D03*
X011516Y006644D03*
X011526Y006644D03*
X011546Y006654D03*
X011556Y006654D03*
X011576Y006664D03*
X011596Y006674D03*
X011606Y006674D03*
X011626Y006684D03*
X011646Y006694D03*
X011656Y006694D03*
X011676Y006704D03*
X011686Y006704D03*
X011696Y006714D03*
X011706Y006714D03*
X011726Y006724D03*
X011736Y006724D03*
X011746Y006734D03*
X011746Y006554D03*
X011736Y006544D03*
X011726Y006544D03*
X011706Y006534D03*
X011696Y006534D03*
X011686Y006524D03*
X011676Y006524D03*
X011656Y006514D03*
X011646Y006514D03*
X011626Y006504D03*
X011606Y006494D03*
X011596Y006494D03*
X011576Y006484D03*
X011556Y006474D03*
X011546Y006474D03*
X011526Y006464D03*
X011516Y006464D03*
X011506Y006454D03*
X011496Y006454D03*
X011476Y006444D03*
X011466Y006444D03*
X011456Y006434D03*
X011446Y006434D03*
X011426Y006424D03*
X011416Y006424D03*
X011406Y006414D03*
X011396Y006414D03*
X011376Y006404D03*
X011366Y006404D03*
X011356Y006394D03*
X011346Y006394D03*
X011326Y006384D03*
X011316Y006384D03*
X011306Y006374D03*
X011386Y006274D03*
X011606Y006274D03*
X011586Y006134D03*
X011626Y006074D03*
X011626Y005804D03*
X011586Y005734D03*
X011696Y005484D03*
X011706Y005484D03*
X011716Y005484D03*
X011716Y005254D03*
X011706Y005254D03*
X011696Y005254D03*
X011626Y005024D03*
X011586Y004954D03*
X011326Y005294D03*
X011326Y005524D03*
X011326Y006764D03*
X011346Y006784D03*
X011416Y006784D03*
X011426Y006784D03*
X011436Y006794D03*
X011516Y006954D03*
X011546Y006954D03*
X011746Y007094D03*
X011716Y007274D03*
X011706Y007274D03*
X011696Y007274D03*
X011586Y007524D03*
X011626Y007594D03*
X011326Y007314D03*
X011326Y007874D03*
X011326Y008014D03*
X011326Y008134D03*
X011326Y008254D03*
X011586Y008194D03*
X011326Y008684D03*
X011376Y008764D03*
X011326Y008974D03*
X011586Y009264D03*
X011576Y009424D03*
X011626Y009504D03*
X011506Y009744D03*
X011496Y009744D03*
X011476Y009734D03*
X011466Y009734D03*
X011456Y009724D03*
X011446Y009724D03*
X011426Y009714D03*
X011416Y009714D03*
X011406Y009704D03*
X011396Y009704D03*
X011376Y009694D03*
X011366Y009694D03*
X011356Y009684D03*
X011346Y009684D03*
X011326Y009674D03*
X011316Y009674D03*
X011306Y009664D03*
X011516Y009754D03*
X011526Y009754D03*
X011546Y009764D03*
X011556Y009764D03*
X011576Y009774D03*
X011596Y009784D03*
X011606Y009784D03*
X011626Y009794D03*
X011646Y009804D03*
X011656Y009804D03*
X011676Y009814D03*
X011686Y009814D03*
X011696Y009824D03*
X011706Y009824D03*
X011726Y009834D03*
X011736Y009834D03*
X011746Y009844D03*
X011746Y009934D03*
X011626Y010174D03*
X011586Y010444D03*
X011626Y010514D03*
X011626Y010744D03*
X011626Y011134D03*
X011586Y011194D03*
X011326Y010264D03*
X011366Y010204D03*
X011326Y010124D03*
X011626Y008974D03*
D192*
X011576Y008759D03*
X011626Y008269D03*
X011366Y007359D03*
X011326Y006059D03*
X011376Y005989D03*
X011326Y005789D03*
X011366Y005569D03*
X011366Y005339D03*
X011626Y009329D03*
X011566Y009419D03*
X011626Y009919D03*
X011566Y010079D03*
X011376Y011049D03*
X011326Y011119D03*
D193*
X011326Y010849D03*
X011336Y010849D03*
X011346Y010849D03*
X011356Y010849D03*
X011606Y006899D03*
D194*
X011586Y006959D03*
X011446Y006849D03*
X011486Y006059D03*
X011336Y006059D03*
X011336Y005789D03*
X011336Y007879D03*
X011616Y008269D03*
X011606Y009329D03*
X011616Y009499D03*
X011336Y010129D03*
X011696Y010829D03*
X011486Y011119D03*
X011336Y011119D03*
D195*
X011476Y011134D03*
X011686Y010824D03*
X011616Y010164D03*
X011616Y008974D03*
X011336Y008974D03*
X011336Y008684D03*
X011616Y008684D03*
X011616Y006864D03*
X011476Y006074D03*
D196*
X011346Y005529D03*
X011346Y005299D03*
X011606Y005019D03*
X011346Y007319D03*
X011606Y007589D03*
X011606Y009499D03*
X011606Y010509D03*
D197*
X011596Y010509D03*
X011476Y010209D03*
X011596Y009499D03*
X011606Y008689D03*
X011596Y007589D03*
X011346Y006059D03*
X011596Y005019D03*
X011346Y011119D03*
D198*
X011606Y010164D03*
X011606Y008974D03*
X011346Y008974D03*
X011346Y008684D03*
X011356Y008254D03*
X011596Y008264D03*
X011356Y007884D03*
X011466Y006864D03*
X011596Y005804D03*
X011356Y005794D03*
D199*
X011356Y006889D03*
D200*
X011356Y008684D03*
X011596Y010164D03*
D201*
X011596Y008974D03*
X011356Y008974D03*
X011366Y006884D03*
X011376Y006864D03*
D202*
X011596Y006079D03*
X011596Y011139D03*
M02*
