%
M48
M72
T01C0.0130
T02C0.0354
T03C0.0394
T04C0.1260
%
T01
X2822Y14066
X2822Y13672
X3215Y13672
X11877Y2255
X11877Y2649
X11483Y2649
X10302Y680
X9908Y680
X9908Y1074
X9121Y2058
X9121Y2649
X8334Y3633
X5578Y2649
X5578Y2058
X4790Y1074
X4790Y680
X4397Y680
X11778Y6290
X10696Y7176
X10893Y8948
X11680Y9145
X11975Y9735
X11975Y10129
X11975Y10523
X11975Y10916
X11975Y11310
X11975Y11704
X11975Y12097
X11975Y12491
X11975Y12885
X11975Y13279
X11975Y13672
X10204Y12393
X9908Y12688
X9712Y13279
X10105Y13279
X10105Y13672
X9712Y13672
X9318Y13672
X9318Y13279
X8924Y13279
X8924Y13672
X8530Y13672
X8530Y14066
X8530Y14460
X8137Y14460
X8137Y14066
X8137Y13672
X8137Y13279
X8530Y13279
X8530Y14853
X8530Y15247
X8530Y15641
X8137Y15641
X8137Y15247
X8137Y14853
X7743Y15641
X7349Y15641
X5381Y14164
X5381Y13672
X4790Y15247
X4790Y15641
X4397Y15641
X7152Y11310
X7152Y9735
X6562Y9046
X6168Y9342
X5184Y10720
X4200Y8554
X3019Y8948
X3019Y7176
X4889Y6389
X5578Y7373
X6168Y6389
X7349Y7964
X7940Y7373
X7546Y7078
X8924Y7176
X9121Y9735
X4200Y4420
X3215Y4617
X3215Y2649
X2822Y2649
X2822Y2255
T02
X6483Y2452
X8215Y2452
T03
X4003Y10704
X4003Y11704
X4003Y12704
X3019Y12704
X3019Y11704
X3019Y10704
T04
X3609Y1468
X11089Y1468
X3609Y14853
M30
