G75*
G70*
%OFA0B0*%
%FSLAX24Y24*%
%IPPOS*%
%LPD*%
%AMOC8*
5,1,8,0,0,1.08239X$1,22.5*
%
%ADD10C,0.0000*%
%ADD11C,0.0660*%
%ADD12R,0.1417X0.1024*%
%ADD13C,0.0250*%
%ADD14C,0.0160*%
%ADD15C,0.0100*%
D10*
X002428Y001468D02*
X002428Y014853D01*
X002979Y014853D02*
X002981Y014903D01*
X002987Y014953D01*
X002997Y015002D01*
X003011Y015050D01*
X003028Y015097D01*
X003049Y015142D01*
X003074Y015186D01*
X003102Y015227D01*
X003134Y015266D01*
X003168Y015303D01*
X003205Y015337D01*
X003245Y015367D01*
X003287Y015394D01*
X003331Y015418D01*
X003377Y015439D01*
X003424Y015455D01*
X003472Y015468D01*
X003522Y015477D01*
X003571Y015482D01*
X003622Y015483D01*
X003672Y015480D01*
X003721Y015473D01*
X003770Y015462D01*
X003818Y015447D01*
X003864Y015429D01*
X003909Y015407D01*
X003952Y015381D01*
X003993Y015352D01*
X004032Y015320D01*
X004068Y015285D01*
X004100Y015247D01*
X004130Y015207D01*
X004157Y015164D01*
X004180Y015120D01*
X004199Y015074D01*
X004215Y015026D01*
X004227Y014977D01*
X004235Y014928D01*
X004239Y014878D01*
X004239Y014828D01*
X004235Y014778D01*
X004227Y014729D01*
X004215Y014680D01*
X004199Y014632D01*
X004180Y014586D01*
X004157Y014542D01*
X004130Y014499D01*
X004100Y014459D01*
X004068Y014421D01*
X004032Y014386D01*
X003993Y014354D01*
X003952Y014325D01*
X003909Y014299D01*
X003864Y014277D01*
X003818Y014259D01*
X003770Y014244D01*
X003721Y014233D01*
X003672Y014226D01*
X003622Y014223D01*
X003571Y014224D01*
X003522Y014229D01*
X003472Y014238D01*
X003424Y014251D01*
X003377Y014267D01*
X003331Y014288D01*
X003287Y014312D01*
X003245Y014339D01*
X003205Y014369D01*
X003168Y014403D01*
X003134Y014440D01*
X003102Y014479D01*
X003074Y014520D01*
X003049Y014564D01*
X003028Y014609D01*
X003011Y014656D01*
X002997Y014704D01*
X002987Y014753D01*
X002981Y014803D01*
X002979Y014853D01*
X002428Y014853D02*
X002430Y014919D01*
X002435Y014985D01*
X002445Y015051D01*
X002458Y015116D01*
X002474Y015180D01*
X002494Y015243D01*
X002518Y015305D01*
X002545Y015365D01*
X002575Y015424D01*
X002609Y015481D01*
X002646Y015536D01*
X002686Y015589D01*
X002728Y015640D01*
X002774Y015688D01*
X002822Y015734D01*
X002873Y015776D01*
X002926Y015816D01*
X002981Y015853D01*
X003038Y015887D01*
X003097Y015917D01*
X003157Y015944D01*
X003219Y015968D01*
X003282Y015988D01*
X003346Y016004D01*
X003411Y016017D01*
X003477Y016027D01*
X003543Y016032D01*
X003609Y016034D01*
X011089Y016034D01*
X011155Y016032D01*
X011221Y016027D01*
X011287Y016017D01*
X011352Y016004D01*
X011416Y015988D01*
X011479Y015968D01*
X011541Y015944D01*
X011601Y015917D01*
X011660Y015887D01*
X011717Y015853D01*
X011772Y015816D01*
X011825Y015776D01*
X011876Y015734D01*
X011924Y015688D01*
X011970Y015640D01*
X012012Y015589D01*
X012052Y015536D01*
X012089Y015481D01*
X012123Y015424D01*
X012153Y015365D01*
X012180Y015305D01*
X012204Y015243D01*
X012224Y015180D01*
X012240Y015116D01*
X012253Y015051D01*
X012263Y014985D01*
X012268Y014919D01*
X012270Y014853D01*
X012271Y014853D02*
X012271Y001468D01*
X010459Y001468D02*
X010461Y001518D01*
X010467Y001568D01*
X010477Y001617D01*
X010491Y001665D01*
X010508Y001712D01*
X010529Y001757D01*
X010554Y001801D01*
X010582Y001842D01*
X010614Y001881D01*
X010648Y001918D01*
X010685Y001952D01*
X010725Y001982D01*
X010767Y002009D01*
X010811Y002033D01*
X010857Y002054D01*
X010904Y002070D01*
X010952Y002083D01*
X011002Y002092D01*
X011051Y002097D01*
X011102Y002098D01*
X011152Y002095D01*
X011201Y002088D01*
X011250Y002077D01*
X011298Y002062D01*
X011344Y002044D01*
X011389Y002022D01*
X011432Y001996D01*
X011473Y001967D01*
X011512Y001935D01*
X011548Y001900D01*
X011580Y001862D01*
X011610Y001822D01*
X011637Y001779D01*
X011660Y001735D01*
X011679Y001689D01*
X011695Y001641D01*
X011707Y001592D01*
X011715Y001543D01*
X011719Y001493D01*
X011719Y001443D01*
X011715Y001393D01*
X011707Y001344D01*
X011695Y001295D01*
X011679Y001247D01*
X011660Y001201D01*
X011637Y001157D01*
X011610Y001114D01*
X011580Y001074D01*
X011548Y001036D01*
X011512Y001001D01*
X011473Y000969D01*
X011432Y000940D01*
X011389Y000914D01*
X011344Y000892D01*
X011298Y000874D01*
X011250Y000859D01*
X011201Y000848D01*
X011152Y000841D01*
X011102Y000838D01*
X011051Y000839D01*
X011002Y000844D01*
X010952Y000853D01*
X010904Y000866D01*
X010857Y000882D01*
X010811Y000903D01*
X010767Y000927D01*
X010725Y000954D01*
X010685Y000984D01*
X010648Y001018D01*
X010614Y001055D01*
X010582Y001094D01*
X010554Y001135D01*
X010529Y001179D01*
X010508Y001224D01*
X010491Y001271D01*
X010477Y001319D01*
X010467Y001368D01*
X010461Y001418D01*
X010459Y001468D01*
X011089Y000287D02*
X011155Y000289D01*
X011221Y000294D01*
X011287Y000304D01*
X011352Y000317D01*
X011416Y000333D01*
X011479Y000353D01*
X011541Y000377D01*
X011601Y000404D01*
X011660Y000434D01*
X011717Y000468D01*
X011772Y000505D01*
X011825Y000545D01*
X011876Y000587D01*
X011924Y000633D01*
X011970Y000681D01*
X012012Y000732D01*
X012052Y000785D01*
X012089Y000840D01*
X012123Y000897D01*
X012153Y000956D01*
X012180Y001016D01*
X012204Y001078D01*
X012224Y001141D01*
X012240Y001205D01*
X012253Y001270D01*
X012263Y001336D01*
X012268Y001402D01*
X012270Y001468D01*
X011089Y000286D02*
X003609Y000286D01*
X002979Y001468D02*
X002981Y001518D01*
X002987Y001568D01*
X002997Y001617D01*
X003011Y001665D01*
X003028Y001712D01*
X003049Y001757D01*
X003074Y001801D01*
X003102Y001842D01*
X003134Y001881D01*
X003168Y001918D01*
X003205Y001952D01*
X003245Y001982D01*
X003287Y002009D01*
X003331Y002033D01*
X003377Y002054D01*
X003424Y002070D01*
X003472Y002083D01*
X003522Y002092D01*
X003571Y002097D01*
X003622Y002098D01*
X003672Y002095D01*
X003721Y002088D01*
X003770Y002077D01*
X003818Y002062D01*
X003864Y002044D01*
X003909Y002022D01*
X003952Y001996D01*
X003993Y001967D01*
X004032Y001935D01*
X004068Y001900D01*
X004100Y001862D01*
X004130Y001822D01*
X004157Y001779D01*
X004180Y001735D01*
X004199Y001689D01*
X004215Y001641D01*
X004227Y001592D01*
X004235Y001543D01*
X004239Y001493D01*
X004239Y001443D01*
X004235Y001393D01*
X004227Y001344D01*
X004215Y001295D01*
X004199Y001247D01*
X004180Y001201D01*
X004157Y001157D01*
X004130Y001114D01*
X004100Y001074D01*
X004068Y001036D01*
X004032Y001001D01*
X003993Y000969D01*
X003952Y000940D01*
X003909Y000914D01*
X003864Y000892D01*
X003818Y000874D01*
X003770Y000859D01*
X003721Y000848D01*
X003672Y000841D01*
X003622Y000838D01*
X003571Y000839D01*
X003522Y000844D01*
X003472Y000853D01*
X003424Y000866D01*
X003377Y000882D01*
X003331Y000903D01*
X003287Y000927D01*
X003245Y000954D01*
X003205Y000984D01*
X003168Y001018D01*
X003134Y001055D01*
X003102Y001094D01*
X003074Y001135D01*
X003049Y001179D01*
X003028Y001224D01*
X003011Y001271D01*
X002997Y001319D01*
X002987Y001368D01*
X002981Y001418D01*
X002979Y001468D01*
X002428Y001468D02*
X002430Y001402D01*
X002435Y001336D01*
X002445Y001270D01*
X002458Y001205D01*
X002474Y001141D01*
X002494Y001078D01*
X002518Y001016D01*
X002545Y000956D01*
X002575Y000897D01*
X002609Y000840D01*
X002646Y000785D01*
X002686Y000732D01*
X002728Y000681D01*
X002774Y000633D01*
X002822Y000587D01*
X002873Y000545D01*
X002926Y000505D01*
X002981Y000468D01*
X003038Y000434D01*
X003097Y000404D01*
X003157Y000377D01*
X003219Y000353D01*
X003282Y000333D01*
X003346Y000317D01*
X003411Y000304D01*
X003477Y000294D01*
X003543Y000289D01*
X003609Y000287D01*
X006306Y002452D02*
X006308Y002478D01*
X006314Y002504D01*
X006324Y002529D01*
X006337Y002552D01*
X006353Y002572D01*
X006373Y002590D01*
X006395Y002605D01*
X006418Y002617D01*
X006444Y002625D01*
X006470Y002629D01*
X006496Y002629D01*
X006522Y002625D01*
X006548Y002617D01*
X006572Y002605D01*
X006593Y002590D01*
X006613Y002572D01*
X006629Y002552D01*
X006642Y002529D01*
X006652Y002504D01*
X006658Y002478D01*
X006660Y002452D01*
X006658Y002426D01*
X006652Y002400D01*
X006642Y002375D01*
X006629Y002352D01*
X006613Y002332D01*
X006593Y002314D01*
X006571Y002299D01*
X006548Y002287D01*
X006522Y002279D01*
X006496Y002275D01*
X006470Y002275D01*
X006444Y002279D01*
X006418Y002287D01*
X006394Y002299D01*
X006373Y002314D01*
X006353Y002332D01*
X006337Y002352D01*
X006324Y002375D01*
X006314Y002400D01*
X006308Y002426D01*
X006306Y002452D01*
X008038Y002452D02*
X008040Y002478D01*
X008046Y002504D01*
X008056Y002529D01*
X008069Y002552D01*
X008085Y002572D01*
X008105Y002590D01*
X008127Y002605D01*
X008150Y002617D01*
X008176Y002625D01*
X008202Y002629D01*
X008228Y002629D01*
X008254Y002625D01*
X008280Y002617D01*
X008304Y002605D01*
X008325Y002590D01*
X008345Y002572D01*
X008361Y002552D01*
X008374Y002529D01*
X008384Y002504D01*
X008390Y002478D01*
X008392Y002452D01*
X008390Y002426D01*
X008384Y002400D01*
X008374Y002375D01*
X008361Y002352D01*
X008345Y002332D01*
X008325Y002314D01*
X008303Y002299D01*
X008280Y002287D01*
X008254Y002279D01*
X008228Y002275D01*
X008202Y002275D01*
X008176Y002279D01*
X008150Y002287D01*
X008126Y002299D01*
X008105Y002314D01*
X008085Y002332D01*
X008069Y002352D01*
X008056Y002375D01*
X008046Y002400D01*
X008040Y002426D01*
X008038Y002452D01*
D11*
X004003Y010704D03*
X004003Y011704D03*
X004003Y012704D03*
X003019Y012704D03*
X003019Y011704D03*
X003019Y010704D03*
D12*
X007546Y012550D03*
X007546Y001015D03*
D13*
X009121Y002058D03*
X009121Y002649D03*
X008334Y003633D03*
X009908Y001074D03*
X009908Y000680D03*
X010302Y000680D03*
X011483Y002649D03*
X011877Y002649D03*
X011877Y002255D03*
X011778Y006290D03*
X010696Y007176D03*
X010893Y008948D03*
X011680Y009145D03*
X011975Y009735D03*
X011975Y010129D03*
X011975Y010523D03*
X011975Y010916D03*
X011975Y011310D03*
X011975Y011704D03*
X011975Y012097D03*
X011975Y012491D03*
X011975Y012885D03*
X011975Y013279D03*
X011975Y013672D03*
X010204Y012393D03*
X009908Y012688D03*
X009712Y013279D03*
X010105Y013279D03*
X010105Y013672D03*
X009712Y013672D03*
X009318Y013672D03*
X009318Y013279D03*
X008924Y013279D03*
X008924Y013672D03*
X008530Y013672D03*
X008530Y014066D03*
X008530Y014460D03*
X008137Y014460D03*
X008137Y014066D03*
X008137Y013672D03*
X008137Y013279D03*
X008530Y013279D03*
X008530Y014853D03*
X008530Y015247D03*
X008530Y015641D03*
X008137Y015641D03*
X008137Y015247D03*
X008137Y014853D03*
X007743Y015641D03*
X007349Y015641D03*
X005381Y014164D03*
X005381Y013672D03*
X004790Y015247D03*
X004790Y015641D03*
X004397Y015641D03*
X003215Y013672D03*
X002822Y013672D03*
X002822Y014066D03*
X005184Y010720D03*
X006168Y009342D03*
X006562Y009046D03*
X007152Y009735D03*
X007152Y011310D03*
X009121Y009735D03*
X007940Y007373D03*
X007546Y007078D03*
X007349Y007964D03*
X006168Y006389D03*
X005578Y007373D03*
X004889Y006389D03*
X004200Y004420D03*
X003215Y004617D03*
X003215Y002649D03*
X002822Y002649D03*
X002822Y002255D03*
X004397Y000680D03*
X004790Y000680D03*
X004790Y001074D03*
X005578Y002058D03*
X005578Y002649D03*
X003019Y007176D03*
X004200Y008554D03*
X003019Y008948D03*
X008924Y007176D03*
D14*
X009114Y007361D02*
X009114Y007702D01*
X009830Y006986D01*
X010511Y006986D01*
X010546Y006952D01*
X010643Y006911D01*
X010749Y006911D01*
X010846Y006952D01*
X010920Y007026D01*
X010961Y007124D01*
X010961Y007229D01*
X010920Y007326D01*
X010846Y007401D01*
X010749Y007441D01*
X010643Y007441D01*
X010546Y007401D01*
X010511Y007366D01*
X009987Y007366D01*
X009311Y008042D01*
X009311Y009027D01*
X005965Y012373D01*
X005965Y013849D01*
X005646Y014168D01*
X005646Y014217D01*
X005605Y014315D01*
X005531Y014389D01*
X005434Y014429D01*
X005328Y014429D01*
X005231Y014389D01*
X005156Y014315D01*
X005116Y014217D01*
X005116Y014112D01*
X005156Y014014D01*
X005231Y013940D01*
X005282Y013918D01*
X005231Y013897D01*
X005156Y013822D01*
X005116Y013725D01*
X005116Y013620D01*
X005156Y013522D01*
X005231Y013448D01*
X005328Y013407D01*
X005377Y013407D01*
X005388Y013397D01*
X005388Y012019D01*
X005499Y011907D01*
X008734Y008672D01*
X008734Y007361D01*
X008699Y007326D01*
X008659Y007229D01*
X008659Y007124D01*
X008699Y007026D01*
X008774Y006952D01*
X008871Y006911D01*
X008977Y006911D01*
X009074Y006952D01*
X009149Y007026D01*
X009189Y007124D01*
X009189Y007229D01*
X009149Y007326D01*
X009114Y007361D01*
X009114Y007419D02*
X009397Y007419D01*
X009555Y007260D02*
X009176Y007260D01*
X009180Y007102D02*
X009714Y007102D01*
X009934Y007419D02*
X010589Y007419D01*
X010802Y007419D02*
X011096Y007419D01*
X011096Y007577D02*
X009776Y007577D01*
X009617Y007736D02*
X011096Y007736D01*
X011096Y007894D02*
X009459Y007894D01*
X009311Y008053D02*
X011096Y008053D01*
X011096Y008211D02*
X009311Y008211D01*
X009311Y008370D02*
X011096Y008370D01*
X011096Y008528D02*
X009311Y008528D01*
X009311Y008687D02*
X011096Y008687D01*
X011096Y008845D02*
X009311Y008845D01*
X009311Y009004D02*
X011096Y009004D01*
X011096Y009066D02*
X011096Y006488D01*
X010668Y006488D01*
X010492Y006664D01*
X010381Y006776D01*
X008806Y006776D01*
X008205Y007377D01*
X008205Y007426D01*
X008165Y007523D01*
X008090Y007598D01*
X007993Y007638D01*
X007887Y007638D01*
X007790Y007598D01*
X007755Y007563D01*
X005762Y007563D01*
X005728Y007598D01*
X005630Y007638D01*
X005525Y007638D01*
X005428Y007598D01*
X005353Y007523D01*
X005313Y007426D01*
X005313Y007320D01*
X005353Y007223D01*
X005428Y007148D01*
X005525Y007108D01*
X005630Y007108D01*
X005728Y007148D01*
X005762Y007183D01*
X007755Y007183D01*
X007790Y007148D01*
X007887Y007108D01*
X007936Y007108D01*
X008649Y006396D01*
X010223Y006396D01*
X010519Y006100D01*
X011594Y006100D01*
X011628Y006066D01*
X011726Y006025D01*
X011831Y006025D01*
X011929Y006066D01*
X012003Y006140D01*
X012043Y006238D01*
X012043Y006343D01*
X012003Y006441D01*
X011929Y006515D01*
X011831Y006555D01*
X011726Y006555D01*
X011628Y006515D01*
X011594Y006480D01*
X011476Y006480D01*
X011476Y008974D01*
X011530Y008920D01*
X011627Y008880D01*
X011733Y008880D01*
X011830Y008920D01*
X011905Y008995D01*
X011945Y009092D01*
X011945Y009197D01*
X011905Y009295D01*
X011830Y009369D01*
X011733Y009410D01*
X011684Y009410D01*
X010295Y010798D01*
X010295Y012144D01*
X010354Y012168D01*
X010428Y012243D01*
X010469Y012340D01*
X010469Y012445D01*
X010428Y012543D01*
X010354Y012617D01*
X010256Y012658D01*
X010173Y012658D01*
X010173Y012741D01*
X010133Y012838D01*
X010059Y012913D01*
X009961Y012953D01*
X009856Y012953D01*
X009758Y012913D01*
X009684Y012838D01*
X009643Y012741D01*
X009643Y012635D01*
X009684Y012538D01*
X009718Y012503D01*
X009718Y010444D01*
X011096Y009066D01*
X011000Y009162D02*
X009175Y009162D01*
X009017Y009321D02*
X010841Y009321D01*
X010683Y009479D02*
X008858Y009479D01*
X008700Y009638D02*
X010524Y009638D01*
X010366Y009796D02*
X008541Y009796D01*
X008383Y009955D02*
X010207Y009955D01*
X010049Y010113D02*
X008224Y010113D01*
X008066Y010272D02*
X009890Y010272D01*
X009732Y010430D02*
X007907Y010430D01*
X007749Y010589D02*
X009718Y010589D01*
X009718Y010747D02*
X007590Y010747D01*
X007432Y010906D02*
X009718Y010906D01*
X009718Y011064D02*
X007273Y011064D01*
X007115Y011223D02*
X009718Y011223D01*
X009718Y011381D02*
X006956Y011381D01*
X006798Y011540D02*
X009718Y011540D01*
X009718Y011698D02*
X006639Y011698D01*
X006727Y011894D02*
X006768Y011871D01*
X006814Y011858D01*
X007466Y011858D01*
X007466Y012470D01*
X007626Y012470D01*
X007626Y011858D01*
X008279Y011858D01*
X008324Y011871D01*
X008365Y011894D01*
X008399Y011928D01*
X008423Y011969D01*
X008435Y012015D01*
X008435Y012470D01*
X007626Y012470D01*
X007626Y012630D01*
X008435Y012630D01*
X008435Y013086D01*
X008423Y013132D01*
X008399Y013173D01*
X008365Y013206D01*
X008324Y013230D01*
X008279Y013242D01*
X007626Y013242D01*
X007626Y012630D01*
X007466Y012630D01*
X007466Y012470D01*
X006658Y012470D01*
X006658Y012015D01*
X006670Y011969D01*
X006693Y011928D01*
X006727Y011894D01*
X006658Y012015D02*
X006322Y012015D01*
X006481Y011857D02*
X009718Y011857D01*
X009718Y012015D02*
X008435Y012015D01*
X008435Y012174D02*
X009718Y012174D01*
X009718Y012332D02*
X008435Y012332D01*
X008435Y012649D02*
X009643Y012649D01*
X009671Y012808D02*
X008435Y012808D01*
X008435Y012966D02*
X012091Y012966D01*
X012091Y012808D02*
X010146Y012808D01*
X010276Y012649D02*
X012091Y012649D01*
X012091Y012491D02*
X010450Y012491D01*
X010466Y012332D02*
X012091Y012332D01*
X012091Y012174D02*
X010360Y012174D01*
X010295Y012015D02*
X012091Y012015D01*
X012091Y011857D02*
X010295Y011857D01*
X010295Y011698D02*
X012091Y011698D01*
X012091Y011540D02*
X010295Y011540D01*
X010295Y011381D02*
X012091Y011381D01*
X012091Y011223D02*
X010295Y011223D01*
X010295Y011064D02*
X012091Y011064D01*
X012091Y010906D02*
X010295Y010906D01*
X010346Y010747D02*
X012091Y010747D01*
X012091Y010589D02*
X010504Y010589D01*
X010663Y010430D02*
X012091Y010430D01*
X012091Y010272D02*
X010821Y010272D01*
X010980Y010113D02*
X012091Y010113D01*
X012091Y009955D02*
X011138Y009955D01*
X011297Y009796D02*
X012091Y009796D01*
X012091Y009638D02*
X011455Y009638D01*
X011614Y009479D02*
X012091Y009479D01*
X012091Y009321D02*
X011879Y009321D01*
X011945Y009162D02*
X012091Y009162D01*
X012091Y009004D02*
X011909Y009004D01*
X012091Y008845D02*
X011476Y008845D01*
X011476Y008687D02*
X012091Y008687D01*
X012091Y008528D02*
X011476Y008528D01*
X011476Y008370D02*
X012091Y008370D01*
X012091Y008211D02*
X011476Y008211D01*
X011476Y008053D02*
X012091Y008053D01*
X012091Y007894D02*
X011476Y007894D01*
X011476Y007736D02*
X012091Y007736D01*
X012091Y007577D02*
X011476Y007577D01*
X011476Y007419D02*
X012091Y007419D01*
X012091Y007260D02*
X011476Y007260D01*
X011476Y007102D02*
X012091Y007102D01*
X012091Y006943D02*
X011476Y006943D01*
X011476Y006785D02*
X012091Y006785D01*
X012091Y006626D02*
X011476Y006626D01*
X011096Y006626D02*
X010530Y006626D01*
X010565Y006943D02*
X009055Y006943D01*
X008794Y006943D02*
X008638Y006943D01*
X008668Y007102D02*
X008480Y007102D01*
X008321Y007260D02*
X008672Y007260D01*
X008734Y007419D02*
X008205Y007419D01*
X008110Y007577D02*
X008734Y007577D01*
X008734Y007736D02*
X002845Y007736D01*
X002845Y007894D02*
X008734Y007894D01*
X008734Y008053D02*
X002845Y008053D01*
X002845Y008211D02*
X008734Y008211D01*
X008734Y008370D02*
X002845Y008370D01*
X002845Y008463D02*
X003065Y008683D01*
X003071Y008683D01*
X003169Y008723D01*
X003243Y008798D01*
X003284Y008895D01*
X003284Y009001D01*
X003243Y009098D01*
X003169Y009173D01*
X003071Y009213D01*
X002966Y009213D01*
X002869Y009173D01*
X002794Y009098D01*
X002754Y009001D01*
X002754Y008994D01*
X002608Y008848D01*
X002608Y010401D01*
X002630Y010372D01*
X002686Y010315D01*
X002751Y010268D01*
X002823Y010231D01*
X002899Y010206D01*
X002978Y010194D01*
X003000Y010194D01*
X003000Y010685D01*
X003037Y010685D01*
X003037Y010194D01*
X003059Y010194D01*
X003138Y010206D01*
X003214Y010231D01*
X003286Y010268D01*
X003351Y010315D01*
X003408Y010372D01*
X003455Y010436D01*
X003491Y010508D01*
X003511Y010568D01*
X003530Y010508D01*
X003567Y010436D01*
X003614Y010372D01*
X003671Y010315D01*
X003736Y010268D01*
X003807Y010231D01*
X003883Y010206D01*
X003963Y010194D01*
X003984Y010194D01*
X003984Y010685D01*
X003037Y010685D01*
X003037Y010722D01*
X003529Y010722D01*
X003984Y010722D01*
X003984Y010685D01*
X004021Y010685D01*
X004021Y010194D01*
X004043Y010194D01*
X004122Y010206D01*
X004199Y010231D01*
X004270Y010268D01*
X004335Y010315D01*
X004392Y010372D01*
X004439Y010436D01*
X004476Y010508D01*
X004500Y010584D01*
X004502Y010594D01*
X004502Y009263D01*
X004613Y009152D01*
X004908Y008856D01*
X006377Y008856D01*
X006412Y008822D01*
X006509Y008781D01*
X006615Y008781D01*
X006712Y008822D01*
X006787Y008896D01*
X006827Y008994D01*
X006827Y009099D01*
X006787Y009196D01*
X006712Y009271D01*
X006615Y009311D01*
X006509Y009311D01*
X006429Y009278D01*
X006433Y009289D01*
X006433Y009394D01*
X006393Y009492D01*
X006318Y009566D01*
X006221Y009607D01*
X006116Y009607D01*
X006018Y009566D01*
X005983Y009532D01*
X005164Y009532D01*
X005079Y009617D01*
X005079Y012078D01*
X004882Y012275D01*
X004771Y012386D01*
X004350Y012386D01*
X004401Y012438D01*
X004473Y012610D01*
X004473Y012797D01*
X004401Y012970D01*
X004269Y013102D01*
X004096Y013174D01*
X003909Y013174D01*
X003737Y013102D01*
X003604Y012970D01*
X003533Y012797D01*
X003533Y012610D01*
X003604Y012438D01*
X003656Y012386D01*
X003605Y012386D01*
X003457Y012534D01*
X003489Y012610D01*
X003489Y012797D01*
X003417Y012970D01*
X003285Y013102D01*
X003112Y013174D01*
X002925Y013174D01*
X002752Y013102D01*
X002620Y012970D01*
X002608Y012941D01*
X002608Y014853D01*
X002620Y015010D01*
X002717Y015308D01*
X002901Y015561D01*
X003155Y015745D01*
X003453Y015842D01*
X003609Y015854D01*
X008647Y015854D01*
X008647Y013836D01*
X008694Y013789D01*
X012091Y013789D01*
X012091Y001468D01*
X012078Y001311D01*
X011981Y001013D01*
X011797Y000760D01*
X011544Y000576D01*
X011246Y000479D01*
X011089Y000466D01*
X008395Y000466D01*
X008395Y001585D01*
X008313Y001667D01*
X006780Y001667D01*
X006698Y001585D01*
X006698Y001235D01*
X005728Y001235D01*
X002845Y004118D01*
X002845Y008463D01*
X002910Y008528D02*
X008734Y008528D01*
X008719Y008687D02*
X003081Y008687D01*
X003263Y008845D02*
X006388Y008845D01*
X006736Y008845D02*
X008561Y008845D01*
X008402Y009004D02*
X006827Y009004D01*
X006801Y009162D02*
X008244Y009162D01*
X008085Y009321D02*
X006433Y009321D01*
X006398Y009479D02*
X007927Y009479D01*
X007768Y009638D02*
X005079Y009638D01*
X005079Y009796D02*
X007610Y009796D01*
X007451Y009955D02*
X005079Y009955D01*
X005079Y010113D02*
X007293Y010113D01*
X007134Y010272D02*
X005079Y010272D01*
X005079Y010430D02*
X006976Y010430D01*
X006817Y010589D02*
X005079Y010589D01*
X005079Y010747D02*
X006659Y010747D01*
X006500Y010906D02*
X005079Y010906D01*
X005079Y011064D02*
X006342Y011064D01*
X006183Y011223D02*
X005079Y011223D01*
X005079Y011381D02*
X006025Y011381D01*
X005866Y011540D02*
X005079Y011540D01*
X005079Y011698D02*
X005708Y011698D01*
X005549Y011857D02*
X005079Y011857D01*
X005079Y012015D02*
X005391Y012015D01*
X005388Y012174D02*
X004982Y012174D01*
X004824Y012332D02*
X005388Y012332D01*
X005388Y012491D02*
X004423Y012491D01*
X004473Y012649D02*
X005388Y012649D01*
X005388Y012808D02*
X004468Y012808D01*
X004403Y012966D02*
X005388Y012966D01*
X005388Y013125D02*
X004214Y013125D01*
X003792Y013125D02*
X003230Y013125D01*
X003419Y012966D02*
X003603Y012966D01*
X003537Y012808D02*
X003484Y012808D01*
X003489Y012649D02*
X003533Y012649D01*
X003500Y012491D02*
X003582Y012491D01*
X002807Y013125D02*
X002608Y013125D01*
X002608Y013283D02*
X005388Y013283D01*
X005244Y013442D02*
X002608Y013442D01*
X002608Y013600D02*
X005124Y013600D01*
X005130Y013759D02*
X002608Y013759D01*
X002608Y013917D02*
X005280Y013917D01*
X005131Y014076D02*
X003849Y014076D01*
X003770Y014043D02*
X004068Y014167D01*
X004296Y014395D01*
X004419Y014692D01*
X004419Y015014D01*
X004296Y015312D01*
X004068Y015540D01*
X003770Y015663D01*
X003448Y015663D01*
X003150Y015540D01*
X002923Y015312D01*
X002799Y015014D01*
X002799Y014692D01*
X002923Y014395D01*
X003150Y014167D01*
X003448Y014043D01*
X003770Y014043D01*
X004136Y014234D02*
X005123Y014234D01*
X005240Y014393D02*
X004294Y014393D01*
X004361Y014551D02*
X008647Y014551D01*
X008647Y014393D02*
X005521Y014393D01*
X005639Y014234D02*
X008647Y014234D01*
X008647Y014076D02*
X005738Y014076D01*
X005896Y013917D02*
X008647Y013917D01*
X008424Y013125D02*
X012091Y013125D01*
X012091Y013283D02*
X005965Y013283D01*
X005965Y013125D02*
X006668Y013125D01*
X006670Y013132D02*
X006658Y013086D01*
X006658Y012630D01*
X007466Y012630D01*
X007466Y013242D01*
X006814Y013242D01*
X006768Y013230D01*
X006727Y013206D01*
X006693Y013173D01*
X006670Y013132D01*
X006658Y012966D02*
X005965Y012966D01*
X005965Y012808D02*
X006658Y012808D01*
X006658Y012649D02*
X005965Y012649D01*
X005965Y012491D02*
X007466Y012491D01*
X007466Y012649D02*
X007626Y012649D01*
X007626Y012491D02*
X009718Y012491D01*
X008647Y014710D02*
X004419Y014710D01*
X004419Y014868D02*
X008647Y014868D01*
X008647Y015027D02*
X004414Y015027D01*
X004348Y015185D02*
X008647Y015185D01*
X008647Y015344D02*
X004264Y015344D01*
X004105Y015502D02*
X008647Y015502D01*
X008647Y015661D02*
X003776Y015661D01*
X003442Y015661D02*
X003039Y015661D01*
X003113Y015502D02*
X002859Y015502D01*
X002954Y015344D02*
X002743Y015344D01*
X002677Y015185D02*
X002870Y015185D01*
X002804Y015027D02*
X002626Y015027D01*
X002609Y014868D02*
X002799Y014868D01*
X002799Y014710D02*
X002608Y014710D01*
X002608Y014551D02*
X002858Y014551D01*
X002924Y014393D02*
X002608Y014393D01*
X002608Y014234D02*
X003083Y014234D01*
X003370Y014076D02*
X002608Y014076D01*
X002608Y012966D02*
X002619Y012966D01*
X002608Y011467D02*
X002620Y011438D01*
X002752Y011305D01*
X002925Y011234D01*
X003112Y011234D01*
X003188Y011265D01*
X003432Y011022D01*
X003603Y011022D01*
X003567Y010971D01*
X003530Y010900D01*
X003511Y010840D01*
X003491Y010900D01*
X003455Y010971D01*
X003408Y011036D01*
X003351Y011093D01*
X003286Y011140D01*
X003214Y011176D01*
X003138Y011201D01*
X003059Y011214D01*
X003037Y011214D01*
X003037Y010722D01*
X003000Y010722D01*
X003000Y011214D01*
X002978Y011214D01*
X002899Y011201D01*
X002823Y011176D01*
X002751Y011140D01*
X002686Y011093D01*
X002630Y011036D01*
X002608Y011006D01*
X002608Y011467D01*
X002608Y011381D02*
X002676Y011381D01*
X002608Y011223D02*
X003231Y011223D01*
X003037Y011064D02*
X003000Y011064D01*
X003000Y010906D02*
X003037Y010906D01*
X003037Y010747D02*
X003000Y010747D01*
X003000Y010589D02*
X003037Y010589D01*
X003037Y010430D02*
X003000Y010430D01*
X003000Y010272D02*
X003037Y010272D01*
X003292Y010272D02*
X003730Y010272D01*
X003571Y010430D02*
X003450Y010430D01*
X003488Y010906D02*
X003534Y010906D01*
X003389Y011064D02*
X003379Y011064D01*
X003984Y010589D02*
X004021Y010589D01*
X004021Y010430D02*
X003984Y010430D01*
X003984Y010272D02*
X004021Y010272D01*
X004276Y010272D02*
X004502Y010272D01*
X004502Y010430D02*
X004435Y010430D01*
X004501Y010589D02*
X004502Y010589D01*
X004502Y010113D02*
X002608Y010113D01*
X002608Y009955D02*
X004502Y009955D01*
X004502Y009796D02*
X002608Y009796D01*
X002608Y009638D02*
X004502Y009638D01*
X004502Y009479D02*
X002608Y009479D01*
X002608Y009321D02*
X004502Y009321D01*
X004602Y009162D02*
X003179Y009162D01*
X003282Y009004D02*
X004761Y009004D01*
X005407Y007577D02*
X002845Y007577D01*
X002845Y007419D02*
X005313Y007419D01*
X005337Y007260D02*
X002845Y007260D01*
X002845Y007102D02*
X007942Y007102D01*
X008101Y006943D02*
X002845Y006943D01*
X002845Y006785D02*
X008259Y006785D01*
X008418Y006626D02*
X002845Y006626D01*
X002845Y006468D02*
X008576Y006468D01*
X008797Y006785D02*
X011096Y006785D01*
X011096Y006943D02*
X010826Y006943D01*
X010952Y007102D02*
X011096Y007102D01*
X011096Y007260D02*
X010948Y007260D01*
X010310Y006309D02*
X002845Y006309D01*
X002845Y006151D02*
X010468Y006151D01*
X009238Y007577D02*
X009114Y007577D01*
X007770Y007577D02*
X005748Y007577D01*
X003019Y008948D02*
X002625Y008554D01*
X002625Y004027D01*
X005637Y001015D01*
X007546Y001015D01*
X008013Y002149D02*
X008144Y002095D01*
X008287Y002095D01*
X008418Y002149D01*
X008518Y002249D01*
X008573Y002381D01*
X008573Y002523D01*
X008518Y002654D01*
X008418Y002755D01*
X008287Y002809D01*
X008144Y002809D01*
X008013Y002755D01*
X007913Y002654D01*
X007858Y002523D01*
X007858Y002381D01*
X007913Y002249D01*
X008013Y002149D01*
X007974Y002188D02*
X006725Y002188D01*
X006686Y002149D02*
X006554Y002095D01*
X006412Y002095D01*
X006281Y002149D01*
X006180Y002249D01*
X006126Y002381D01*
X006126Y002523D01*
X006180Y002654D01*
X006281Y002755D01*
X006412Y002809D01*
X006554Y002809D01*
X006686Y002755D01*
X006786Y002654D01*
X006840Y002523D01*
X006840Y002381D01*
X006786Y002249D01*
X006686Y002149D01*
X006826Y002347D02*
X007872Y002347D01*
X007858Y002505D02*
X006840Y002505D01*
X006776Y002664D02*
X007923Y002664D01*
X008457Y002188D02*
X010713Y002188D01*
X010631Y002154D02*
X010403Y001926D01*
X010280Y001629D01*
X010280Y001306D01*
X010403Y001009D01*
X010631Y000781D01*
X010928Y000658D01*
X011251Y000658D01*
X011548Y000781D01*
X011776Y001009D01*
X011899Y001306D01*
X011899Y001629D01*
X011776Y001926D01*
X011548Y002154D01*
X011251Y002277D01*
X010928Y002277D01*
X010631Y002154D01*
X010506Y002030D02*
X004933Y002030D01*
X005091Y001871D02*
X010380Y001871D01*
X010314Y001713D02*
X005250Y001713D01*
X005408Y001554D02*
X006698Y001554D01*
X006698Y001396D02*
X005567Y001396D01*
X005725Y001237D02*
X006698Y001237D01*
X006698Y000795D02*
X005728Y000795D01*
X005546Y000795D01*
X002608Y003732D01*
X002608Y001468D01*
X002620Y001311D01*
X002717Y001013D01*
X002901Y000760D01*
X003155Y000576D01*
X003453Y000479D01*
X003609Y000466D01*
X006698Y000466D01*
X006698Y000795D01*
X006698Y000762D02*
X004022Y000762D01*
X004068Y000781D02*
X004296Y001009D01*
X004419Y001306D01*
X004419Y001629D01*
X004296Y001926D01*
X004068Y002154D01*
X003770Y002277D01*
X003448Y002277D01*
X003150Y002154D01*
X002923Y001926D01*
X002799Y001629D01*
X002799Y001306D01*
X002923Y001009D01*
X003150Y000781D01*
X003448Y000658D01*
X003770Y000658D01*
X004068Y000781D01*
X004207Y000920D02*
X005420Y000920D01*
X005261Y001079D02*
X004325Y001079D01*
X004391Y001237D02*
X005103Y001237D01*
X004944Y001396D02*
X004419Y001396D01*
X004419Y001554D02*
X004786Y001554D01*
X004627Y001713D02*
X004384Y001713D01*
X004319Y001871D02*
X004469Y001871D01*
X004310Y002030D02*
X004192Y002030D01*
X004152Y002188D02*
X003985Y002188D01*
X003993Y002347D02*
X002608Y002347D01*
X002608Y002505D02*
X003835Y002505D01*
X003676Y002664D02*
X002608Y002664D01*
X002608Y002822D02*
X003518Y002822D01*
X003359Y002981D02*
X002608Y002981D01*
X002608Y003139D02*
X003201Y003139D01*
X003042Y003298D02*
X002608Y003298D01*
X002608Y003456D02*
X002884Y003456D01*
X002725Y003615D02*
X002608Y003615D01*
X002872Y004090D02*
X012091Y004090D01*
X012091Y003932D02*
X003031Y003932D01*
X003189Y003773D02*
X012091Y003773D01*
X012091Y003615D02*
X003348Y003615D01*
X003506Y003456D02*
X012091Y003456D01*
X012091Y003298D02*
X003665Y003298D01*
X003823Y003139D02*
X012091Y003139D01*
X012091Y002981D02*
X003982Y002981D01*
X004140Y002822D02*
X012091Y002822D01*
X012091Y002664D02*
X008508Y002664D01*
X008573Y002505D02*
X012091Y002505D01*
X012091Y002347D02*
X008559Y002347D01*
X008395Y001554D02*
X010280Y001554D01*
X010280Y001396D02*
X008395Y001396D01*
X008395Y001237D02*
X010308Y001237D01*
X010374Y001079D02*
X008395Y001079D01*
X008395Y000920D02*
X010491Y000920D01*
X010677Y000762D02*
X008395Y000762D01*
X008395Y000603D02*
X011582Y000603D01*
X011502Y000762D02*
X011799Y000762D01*
X011688Y000920D02*
X011914Y000920D01*
X012003Y001079D02*
X011805Y001079D01*
X011871Y001237D02*
X012054Y001237D01*
X012085Y001396D02*
X011899Y001396D01*
X011899Y001554D02*
X012091Y001554D01*
X012091Y001713D02*
X011865Y001713D01*
X011799Y001871D02*
X012091Y001871D01*
X012091Y002030D02*
X011672Y002030D01*
X011466Y002188D02*
X012091Y002188D01*
X012091Y004249D02*
X002845Y004249D01*
X002845Y004407D02*
X012091Y004407D01*
X012091Y004566D02*
X002845Y004566D01*
X002845Y004724D02*
X012091Y004724D01*
X012091Y004883D02*
X002845Y004883D01*
X002845Y005041D02*
X012091Y005041D01*
X012091Y005200D02*
X002845Y005200D01*
X002845Y005358D02*
X012091Y005358D01*
X012091Y005517D02*
X002845Y005517D01*
X002845Y005675D02*
X012091Y005675D01*
X012091Y005834D02*
X002845Y005834D01*
X002845Y005992D02*
X012091Y005992D01*
X012091Y006151D02*
X012008Y006151D01*
X012043Y006309D02*
X012091Y006309D01*
X012091Y006468D02*
X011976Y006468D01*
X007626Y012015D02*
X007466Y012015D01*
X007466Y012174D02*
X007626Y012174D01*
X007626Y012332D02*
X007466Y012332D01*
X007466Y012808D02*
X007626Y012808D01*
X007626Y012966D02*
X007466Y012966D01*
X007466Y013125D02*
X007626Y013125D01*
X006658Y012332D02*
X006005Y012332D01*
X006164Y012174D02*
X006658Y012174D01*
X005965Y013442D02*
X012091Y013442D01*
X012091Y013600D02*
X005965Y013600D01*
X005965Y013759D02*
X012091Y013759D01*
X008647Y015819D02*
X003383Y015819D01*
X002658Y011064D02*
X002608Y011064D01*
X002608Y010272D02*
X002745Y010272D01*
X002858Y009162D02*
X002608Y009162D01*
X002608Y009004D02*
X002755Y009004D01*
X004299Y002664D02*
X006190Y002664D01*
X006126Y002505D02*
X004457Y002505D01*
X004616Y002347D02*
X006140Y002347D01*
X006241Y002188D02*
X004774Y002188D01*
X003233Y002188D02*
X002608Y002188D01*
X002608Y002030D02*
X003026Y002030D01*
X002900Y001871D02*
X002608Y001871D01*
X002608Y001713D02*
X002834Y001713D01*
X002799Y001554D02*
X002608Y001554D01*
X002614Y001396D02*
X002799Y001396D01*
X002828Y001237D02*
X002644Y001237D01*
X002696Y001079D02*
X002893Y001079D01*
X002784Y000920D02*
X003011Y000920D01*
X002900Y000762D02*
X003196Y000762D01*
X003116Y000603D02*
X006698Y000603D01*
D15*
X010597Y006290D02*
X010302Y006586D01*
X008727Y006586D01*
X007940Y007373D01*
X005578Y007373D01*
X004987Y009046D02*
X004692Y009342D01*
X004692Y011015D01*
X004495Y011212D01*
X003511Y011212D01*
X003019Y011704D01*
X003527Y012196D02*
X003019Y012704D01*
X003527Y012196D02*
X004692Y012196D01*
X004889Y011999D01*
X004889Y009538D01*
X005086Y009342D01*
X006168Y009342D01*
X006562Y009046D02*
X004987Y009046D01*
X005578Y012097D02*
X005578Y013475D01*
X005381Y013672D01*
X005775Y013771D02*
X005381Y014164D01*
X005775Y013771D02*
X005775Y012294D01*
X009121Y008948D01*
X009121Y007964D01*
X009908Y007176D01*
X010696Y007176D01*
X010704Y006298D02*
X010696Y006290D01*
X010597Y006290D01*
X010696Y006290D02*
X011778Y006290D01*
X011286Y006318D02*
X011267Y006298D01*
X010704Y006298D01*
X011286Y006318D02*
X011286Y009145D01*
X009908Y010523D01*
X009908Y012688D01*
X010204Y012393D02*
X010105Y012294D01*
X010105Y010720D01*
X011680Y009145D01*
X008924Y008751D02*
X008924Y007176D01*
X008924Y008751D02*
X005578Y012097D01*
M02*
