G75*
G70*
%OFA0B0*%
%FSLAX24Y24*%
%IPPOS*%
%LPD*%
%AMOC8*
5,1,8,0,0,1.08239X$1,22.5*
%
%ADD10C,0.0000*%
%ADD11C,0.0335*%
%ADD12R,0.0630X0.0460*%
%ADD13R,0.0472X0.0472*%
%ADD14R,0.0787X0.0984*%
%ADD15R,0.0787X0.1299*%
%ADD16R,0.0197X0.1220*%
%ADD17R,0.0709X0.0433*%
%ADD18R,0.0945X0.0299*%
%ADD19R,0.0217X0.0472*%
%ADD20R,0.0394X0.0433*%
%ADD21R,0.0433X0.0394*%
%ADD22C,0.0660*%
%ADD23R,0.0315X0.0551*%
%ADD24R,0.0787X0.0315*%
%ADD25C,0.0250*%
%ADD26C,0.0160*%
%ADD27C,0.0100*%
%ADD28C,0.0120*%
D10*
X002428Y001468D02*
X002428Y014853D01*
X002979Y014853D02*
X002981Y014903D01*
X002987Y014953D01*
X002997Y015002D01*
X003011Y015050D01*
X003028Y015097D01*
X003049Y015142D01*
X003074Y015186D01*
X003102Y015227D01*
X003134Y015266D01*
X003168Y015303D01*
X003205Y015337D01*
X003245Y015367D01*
X003287Y015394D01*
X003331Y015418D01*
X003377Y015439D01*
X003424Y015455D01*
X003472Y015468D01*
X003522Y015477D01*
X003571Y015482D01*
X003622Y015483D01*
X003672Y015480D01*
X003721Y015473D01*
X003770Y015462D01*
X003818Y015447D01*
X003864Y015429D01*
X003909Y015407D01*
X003952Y015381D01*
X003993Y015352D01*
X004032Y015320D01*
X004068Y015285D01*
X004100Y015247D01*
X004130Y015207D01*
X004157Y015164D01*
X004180Y015120D01*
X004199Y015074D01*
X004215Y015026D01*
X004227Y014977D01*
X004235Y014928D01*
X004239Y014878D01*
X004239Y014828D01*
X004235Y014778D01*
X004227Y014729D01*
X004215Y014680D01*
X004199Y014632D01*
X004180Y014586D01*
X004157Y014542D01*
X004130Y014499D01*
X004100Y014459D01*
X004068Y014421D01*
X004032Y014386D01*
X003993Y014354D01*
X003952Y014325D01*
X003909Y014299D01*
X003864Y014277D01*
X003818Y014259D01*
X003770Y014244D01*
X003721Y014233D01*
X003672Y014226D01*
X003622Y014223D01*
X003571Y014224D01*
X003522Y014229D01*
X003472Y014238D01*
X003424Y014251D01*
X003377Y014267D01*
X003331Y014288D01*
X003287Y014312D01*
X003245Y014339D01*
X003205Y014369D01*
X003168Y014403D01*
X003134Y014440D01*
X003102Y014479D01*
X003074Y014520D01*
X003049Y014564D01*
X003028Y014609D01*
X003011Y014656D01*
X002997Y014704D01*
X002987Y014753D01*
X002981Y014803D01*
X002979Y014853D01*
X002428Y014853D02*
X002430Y014919D01*
X002435Y014985D01*
X002445Y015051D01*
X002458Y015116D01*
X002474Y015180D01*
X002494Y015243D01*
X002518Y015305D01*
X002545Y015365D01*
X002575Y015424D01*
X002609Y015481D01*
X002646Y015536D01*
X002686Y015589D01*
X002728Y015640D01*
X002774Y015688D01*
X002822Y015734D01*
X002873Y015776D01*
X002926Y015816D01*
X002981Y015853D01*
X003038Y015887D01*
X003097Y015917D01*
X003157Y015944D01*
X003219Y015968D01*
X003282Y015988D01*
X003346Y016004D01*
X003411Y016017D01*
X003477Y016027D01*
X003543Y016032D01*
X003609Y016034D01*
X011089Y016034D01*
X011155Y016032D01*
X011221Y016027D01*
X011287Y016017D01*
X011352Y016004D01*
X011416Y015988D01*
X011479Y015968D01*
X011541Y015944D01*
X011601Y015917D01*
X011660Y015887D01*
X011717Y015853D01*
X011772Y015816D01*
X011825Y015776D01*
X011876Y015734D01*
X011924Y015688D01*
X011970Y015640D01*
X012012Y015589D01*
X012052Y015536D01*
X012089Y015481D01*
X012123Y015424D01*
X012153Y015365D01*
X012180Y015305D01*
X012204Y015243D01*
X012224Y015180D01*
X012240Y015116D01*
X012253Y015051D01*
X012263Y014985D01*
X012268Y014919D01*
X012270Y014853D01*
X012271Y014853D02*
X012271Y001468D01*
X010459Y001468D02*
X010461Y001518D01*
X010467Y001568D01*
X010477Y001617D01*
X010491Y001665D01*
X010508Y001712D01*
X010529Y001757D01*
X010554Y001801D01*
X010582Y001842D01*
X010614Y001881D01*
X010648Y001918D01*
X010685Y001952D01*
X010725Y001982D01*
X010767Y002009D01*
X010811Y002033D01*
X010857Y002054D01*
X010904Y002070D01*
X010952Y002083D01*
X011002Y002092D01*
X011051Y002097D01*
X011102Y002098D01*
X011152Y002095D01*
X011201Y002088D01*
X011250Y002077D01*
X011298Y002062D01*
X011344Y002044D01*
X011389Y002022D01*
X011432Y001996D01*
X011473Y001967D01*
X011512Y001935D01*
X011548Y001900D01*
X011580Y001862D01*
X011610Y001822D01*
X011637Y001779D01*
X011660Y001735D01*
X011679Y001689D01*
X011695Y001641D01*
X011707Y001592D01*
X011715Y001543D01*
X011719Y001493D01*
X011719Y001443D01*
X011715Y001393D01*
X011707Y001344D01*
X011695Y001295D01*
X011679Y001247D01*
X011660Y001201D01*
X011637Y001157D01*
X011610Y001114D01*
X011580Y001074D01*
X011548Y001036D01*
X011512Y001001D01*
X011473Y000969D01*
X011432Y000940D01*
X011389Y000914D01*
X011344Y000892D01*
X011298Y000874D01*
X011250Y000859D01*
X011201Y000848D01*
X011152Y000841D01*
X011102Y000838D01*
X011051Y000839D01*
X011002Y000844D01*
X010952Y000853D01*
X010904Y000866D01*
X010857Y000882D01*
X010811Y000903D01*
X010767Y000927D01*
X010725Y000954D01*
X010685Y000984D01*
X010648Y001018D01*
X010614Y001055D01*
X010582Y001094D01*
X010554Y001135D01*
X010529Y001179D01*
X010508Y001224D01*
X010491Y001271D01*
X010477Y001319D01*
X010467Y001368D01*
X010461Y001418D01*
X010459Y001468D01*
X011089Y000287D02*
X011155Y000289D01*
X011221Y000294D01*
X011287Y000304D01*
X011352Y000317D01*
X011416Y000333D01*
X011479Y000353D01*
X011541Y000377D01*
X011601Y000404D01*
X011660Y000434D01*
X011717Y000468D01*
X011772Y000505D01*
X011825Y000545D01*
X011876Y000587D01*
X011924Y000633D01*
X011970Y000681D01*
X012012Y000732D01*
X012052Y000785D01*
X012089Y000840D01*
X012123Y000897D01*
X012153Y000956D01*
X012180Y001016D01*
X012204Y001078D01*
X012224Y001141D01*
X012240Y001205D01*
X012253Y001270D01*
X012263Y001336D01*
X012268Y001402D01*
X012270Y001468D01*
X011089Y000286D02*
X003609Y000286D01*
X002979Y001468D02*
X002981Y001518D01*
X002987Y001568D01*
X002997Y001617D01*
X003011Y001665D01*
X003028Y001712D01*
X003049Y001757D01*
X003074Y001801D01*
X003102Y001842D01*
X003134Y001881D01*
X003168Y001918D01*
X003205Y001952D01*
X003245Y001982D01*
X003287Y002009D01*
X003331Y002033D01*
X003377Y002054D01*
X003424Y002070D01*
X003472Y002083D01*
X003522Y002092D01*
X003571Y002097D01*
X003622Y002098D01*
X003672Y002095D01*
X003721Y002088D01*
X003770Y002077D01*
X003818Y002062D01*
X003864Y002044D01*
X003909Y002022D01*
X003952Y001996D01*
X003993Y001967D01*
X004032Y001935D01*
X004068Y001900D01*
X004100Y001862D01*
X004130Y001822D01*
X004157Y001779D01*
X004180Y001735D01*
X004199Y001689D01*
X004215Y001641D01*
X004227Y001592D01*
X004235Y001543D01*
X004239Y001493D01*
X004239Y001443D01*
X004235Y001393D01*
X004227Y001344D01*
X004215Y001295D01*
X004199Y001247D01*
X004180Y001201D01*
X004157Y001157D01*
X004130Y001114D01*
X004100Y001074D01*
X004068Y001036D01*
X004032Y001001D01*
X003993Y000969D01*
X003952Y000940D01*
X003909Y000914D01*
X003864Y000892D01*
X003818Y000874D01*
X003770Y000859D01*
X003721Y000848D01*
X003672Y000841D01*
X003622Y000838D01*
X003571Y000839D01*
X003522Y000844D01*
X003472Y000853D01*
X003424Y000866D01*
X003377Y000882D01*
X003331Y000903D01*
X003287Y000927D01*
X003245Y000954D01*
X003205Y000984D01*
X003168Y001018D01*
X003134Y001055D01*
X003102Y001094D01*
X003074Y001135D01*
X003049Y001179D01*
X003028Y001224D01*
X003011Y001271D01*
X002997Y001319D01*
X002987Y001368D01*
X002981Y001418D01*
X002979Y001468D01*
X002428Y001468D02*
X002430Y001402D01*
X002435Y001336D01*
X002445Y001270D01*
X002458Y001205D01*
X002474Y001141D01*
X002494Y001078D01*
X002518Y001016D01*
X002545Y000956D01*
X002575Y000897D01*
X002609Y000840D01*
X002646Y000785D01*
X002686Y000732D01*
X002728Y000681D01*
X002774Y000633D01*
X002822Y000587D01*
X002873Y000545D01*
X002926Y000505D01*
X002981Y000468D01*
X003038Y000434D01*
X003097Y000404D01*
X003157Y000377D01*
X003219Y000353D01*
X003282Y000333D01*
X003346Y000317D01*
X003411Y000304D01*
X003477Y000294D01*
X003543Y000289D01*
X003609Y000287D01*
X006306Y002452D02*
X006308Y002478D01*
X006314Y002504D01*
X006324Y002529D01*
X006337Y002552D01*
X006353Y002572D01*
X006373Y002590D01*
X006395Y002605D01*
X006418Y002617D01*
X006444Y002625D01*
X006470Y002629D01*
X006496Y002629D01*
X006522Y002625D01*
X006548Y002617D01*
X006572Y002605D01*
X006593Y002590D01*
X006613Y002572D01*
X006629Y002552D01*
X006642Y002529D01*
X006652Y002504D01*
X006658Y002478D01*
X006660Y002452D01*
X006658Y002426D01*
X006652Y002400D01*
X006642Y002375D01*
X006629Y002352D01*
X006613Y002332D01*
X006593Y002314D01*
X006571Y002299D01*
X006548Y002287D01*
X006522Y002279D01*
X006496Y002275D01*
X006470Y002275D01*
X006444Y002279D01*
X006418Y002287D01*
X006394Y002299D01*
X006373Y002314D01*
X006353Y002332D01*
X006337Y002352D01*
X006324Y002375D01*
X006314Y002400D01*
X006308Y002426D01*
X006306Y002452D01*
X008038Y002452D02*
X008040Y002478D01*
X008046Y002504D01*
X008056Y002529D01*
X008069Y002552D01*
X008085Y002572D01*
X008105Y002590D01*
X008127Y002605D01*
X008150Y002617D01*
X008176Y002625D01*
X008202Y002629D01*
X008228Y002629D01*
X008254Y002625D01*
X008280Y002617D01*
X008304Y002605D01*
X008325Y002590D01*
X008345Y002572D01*
X008361Y002552D01*
X008374Y002529D01*
X008384Y002504D01*
X008390Y002478D01*
X008392Y002452D01*
X008390Y002426D01*
X008384Y002400D01*
X008374Y002375D01*
X008361Y002352D01*
X008345Y002332D01*
X008325Y002314D01*
X008303Y002299D01*
X008280Y002287D01*
X008254Y002279D01*
X008228Y002275D01*
X008202Y002275D01*
X008176Y002279D01*
X008150Y002287D01*
X008126Y002299D01*
X008105Y002314D01*
X008085Y002332D01*
X008069Y002352D01*
X008056Y002375D01*
X008046Y002400D01*
X008040Y002426D01*
X008038Y002452D01*
D11*
X007979Y009351D02*
X007979Y009351D01*
X007979Y008505D01*
X007979Y008505D01*
X007979Y009351D01*
X007979Y008839D02*
X007979Y008839D01*
X007979Y009173D02*
X007979Y009173D01*
X007487Y009351D02*
X007487Y009351D01*
X007487Y008505D01*
X007487Y008505D01*
X007487Y009351D01*
X007487Y008839D02*
X007487Y008839D01*
X007487Y009173D02*
X007487Y009173D01*
X006995Y009351D02*
X006995Y009351D01*
X006995Y008505D01*
X006995Y008505D01*
X006995Y009351D01*
X006995Y008839D02*
X006995Y008839D01*
X006995Y009173D02*
X006995Y009173D01*
X006768Y009794D02*
X006768Y009794D01*
X005922Y009794D01*
X005922Y009794D01*
X006768Y009794D01*
X006768Y010286D02*
X006768Y010286D01*
X005922Y010286D01*
X005922Y010286D01*
X006768Y010286D01*
X006768Y010779D02*
X006768Y010779D01*
X005922Y010779D01*
X005922Y010779D01*
X006768Y010779D01*
X006768Y011271D02*
X006768Y011271D01*
X005922Y011271D01*
X005922Y011271D01*
X006768Y011271D01*
X006768Y011763D02*
X006768Y011763D01*
X005922Y011763D01*
X005922Y011763D01*
X006768Y011763D01*
X006768Y012255D02*
X006768Y012255D01*
X005922Y012255D01*
X005922Y012255D01*
X006768Y012255D01*
X006768Y012747D02*
X006768Y012747D01*
X005922Y012747D01*
X005922Y012747D01*
X006768Y012747D01*
X006768Y013239D02*
X006768Y013239D01*
X005922Y013239D01*
X005922Y013239D01*
X006768Y013239D01*
X006768Y013731D02*
X006768Y013731D01*
X005922Y013731D01*
X005922Y013731D01*
X006768Y013731D01*
X006768Y014223D02*
X006768Y014223D01*
X005922Y014223D01*
X005922Y014223D01*
X006768Y014223D01*
X006768Y014716D02*
X006768Y014716D01*
X005922Y014716D01*
X005922Y014716D01*
X006768Y014716D01*
X006768Y015208D02*
X006768Y015208D01*
X005922Y015208D01*
X005922Y015208D01*
X006768Y015208D01*
X006768Y015700D02*
X006768Y015700D01*
X005922Y015700D01*
X005922Y015700D01*
X006768Y015700D01*
X011512Y013731D02*
X011512Y013731D01*
X010666Y013731D01*
X010666Y013731D01*
X011512Y013731D01*
X011512Y013239D02*
X011512Y013239D01*
X010666Y013239D01*
X010666Y013239D01*
X011512Y013239D01*
X011512Y012747D02*
X011512Y012747D01*
X010666Y012747D01*
X010666Y012747D01*
X011512Y012747D01*
X011512Y012255D02*
X011512Y012255D01*
X010666Y012255D01*
X010666Y012255D01*
X011512Y012255D01*
X011512Y011763D02*
X011512Y011763D01*
X010666Y011763D01*
X010666Y011763D01*
X011512Y011763D01*
X011512Y011271D02*
X011512Y011271D01*
X010666Y011271D01*
X010666Y011271D01*
X011512Y011271D01*
X011512Y010779D02*
X011512Y010779D01*
X010666Y010779D01*
X010666Y010779D01*
X011512Y010779D01*
X011512Y010286D02*
X011512Y010286D01*
X010666Y010286D01*
X010666Y010286D01*
X011512Y010286D01*
X011512Y009794D02*
X011512Y009794D01*
X010666Y009794D01*
X010666Y009794D01*
X011512Y009794D01*
X010440Y009351D02*
X010440Y009351D01*
X010440Y008505D01*
X010440Y008505D01*
X010440Y009351D01*
X010440Y008839D02*
X010440Y008839D01*
X010440Y009173D02*
X010440Y009173D01*
X009948Y009351D02*
X009948Y009351D01*
X009948Y008505D01*
X009948Y008505D01*
X009948Y009351D01*
X009948Y008839D02*
X009948Y008839D01*
X009948Y009173D02*
X009948Y009173D01*
X009456Y009351D02*
X009456Y009351D01*
X009456Y008505D01*
X009456Y008505D01*
X009456Y009351D01*
X009456Y008839D02*
X009456Y008839D01*
X009456Y009173D02*
X009456Y009173D01*
X008964Y009351D02*
X008964Y009351D01*
X008964Y008505D01*
X008964Y008505D01*
X008964Y009351D01*
X008964Y008839D02*
X008964Y008839D01*
X008964Y009173D02*
X008964Y009173D01*
X008471Y009351D02*
X008471Y009351D01*
X008471Y008505D01*
X008471Y008505D01*
X008471Y009351D01*
X008471Y008839D02*
X008471Y008839D01*
X008471Y009173D02*
X008471Y009173D01*
D12*
X011483Y008264D03*
X011483Y007664D03*
X011483Y003933D03*
X011483Y003333D03*
X004790Y009140D03*
X004790Y009740D03*
X003215Y003933D03*
X003215Y003333D03*
D13*
X004593Y003220D03*
X004593Y004046D03*
X010105Y004046D03*
X010105Y003220D03*
D14*
X009101Y001271D03*
X005597Y001271D03*
D15*
X005597Y003594D03*
X009101Y003594D03*
D16*
X007979Y003633D03*
X007664Y003633D03*
X007349Y003633D03*
X007034Y003633D03*
X006719Y003633D03*
D17*
X005538Y006448D03*
X005538Y007905D03*
X007979Y007905D03*
X007979Y006448D03*
D18*
X009731Y006298D03*
X009731Y005798D03*
X009731Y005298D03*
X009731Y004798D03*
X011267Y004798D03*
X011267Y005298D03*
X011267Y005798D03*
X011267Y006298D03*
X011267Y006798D03*
X009731Y006798D03*
D19*
X004574Y005916D03*
X003826Y005916D03*
X003826Y004893D03*
X004200Y004893D03*
X004574Y004893D03*
D20*
X005184Y005070D03*
X005775Y005070D03*
X005775Y005739D03*
X005184Y005739D03*
X003215Y005739D03*
X003215Y005070D03*
X005381Y011172D03*
X005381Y011842D03*
X005381Y015011D03*
X005381Y015680D03*
D21*
X009869Y007964D03*
X010538Y007964D03*
X008530Y005739D03*
X007940Y005739D03*
X007940Y005070D03*
X008530Y005070D03*
X007349Y005070D03*
X007349Y005739D03*
X006365Y005739D03*
X006365Y005070D03*
X004003Y003968D03*
X004003Y003298D03*
X010696Y003298D03*
X010696Y003968D03*
D22*
X004003Y010704D03*
X004003Y011704D03*
X004003Y012704D03*
X003019Y012704D03*
X003019Y011704D03*
X003019Y010704D03*
D23*
X002664Y009597D03*
X003570Y009597D03*
X003570Y006723D03*
X002664Y006723D03*
D24*
X003904Y007275D03*
X003904Y007865D03*
X003904Y009046D03*
D25*
X004200Y008554D03*
X003019Y008948D03*
X003019Y007176D03*
X004889Y006389D03*
X005578Y007373D03*
X006168Y006389D03*
X007349Y007964D03*
X007940Y007373D03*
X007546Y007078D03*
X008924Y007176D03*
X010696Y007176D03*
X011778Y006290D03*
X010893Y008948D03*
X011680Y009145D03*
X011975Y009735D03*
X011975Y010129D03*
X011975Y010523D03*
X011975Y010916D03*
X011975Y011310D03*
X011975Y011704D03*
X011975Y012097D03*
X011975Y012491D03*
X011975Y012885D03*
X011975Y013279D03*
X011975Y013672D03*
X010204Y012393D03*
X009908Y012688D03*
X009712Y013279D03*
X010105Y013279D03*
X010105Y013672D03*
X009712Y013672D03*
X009318Y013672D03*
X009318Y013279D03*
X008924Y013279D03*
X008924Y013672D03*
X008530Y013672D03*
X008530Y014066D03*
X008530Y014460D03*
X008137Y014460D03*
X008137Y014066D03*
X008137Y013672D03*
X008137Y013279D03*
X008530Y013279D03*
X008530Y014853D03*
X008530Y015247D03*
X008530Y015641D03*
X008137Y015641D03*
X008137Y015247D03*
X008137Y014853D03*
X007743Y015641D03*
X007349Y015641D03*
X005381Y014164D03*
X005381Y013672D03*
X004790Y015247D03*
X004790Y015641D03*
X004397Y015641D03*
X003215Y013672D03*
X002822Y013672D03*
X002822Y014066D03*
X005184Y010720D03*
X006168Y009342D03*
X006562Y009046D03*
X007152Y009735D03*
X007152Y011310D03*
X009121Y009735D03*
X008334Y003633D03*
X009121Y002649D03*
X009121Y002058D03*
X009908Y001074D03*
X009908Y000680D03*
X010302Y000680D03*
X011483Y002649D03*
X011877Y002649D03*
X011877Y002255D03*
X005578Y002058D03*
X005578Y002649D03*
X004790Y001074D03*
X004790Y000680D03*
X004397Y000680D03*
X003215Y002649D03*
X002822Y002649D03*
X002822Y002255D03*
X004200Y004420D03*
X003215Y004617D03*
D26*
X003197Y004673D02*
X003197Y005051D01*
X003234Y005051D01*
X003234Y004673D01*
X003436Y004673D01*
X003482Y004686D01*
X003523Y004709D01*
X003556Y004743D01*
X003577Y004779D01*
X003577Y004599D01*
X003659Y004516D01*
X003977Y004516D01*
X003981Y004512D01*
X004022Y004489D01*
X004068Y004476D01*
X004200Y004476D01*
X004332Y004476D01*
X004377Y004489D01*
X004419Y004512D01*
X004423Y004516D01*
X004580Y004516D01*
X004634Y004463D01*
X004632Y004463D01*
X004632Y004084D01*
X005010Y004084D01*
X005010Y004306D01*
X004997Y004352D01*
X004974Y004393D01*
X004970Y004397D01*
X005110Y004397D01*
X005093Y004387D01*
X005060Y004354D01*
X005036Y004313D01*
X005024Y004267D01*
X005024Y003674D01*
X005517Y003674D01*
X005517Y003514D01*
X005024Y003514D01*
X005024Y002920D01*
X005036Y002874D01*
X005060Y002833D01*
X005093Y002800D01*
X005134Y002776D01*
X005180Y002764D01*
X005517Y002764D01*
X005517Y003514D01*
X005677Y003514D01*
X005677Y003674D01*
X006171Y003674D01*
X006171Y004267D01*
X006159Y004313D01*
X006135Y004354D01*
X006102Y004387D01*
X006061Y004411D01*
X006015Y004423D01*
X005695Y004423D01*
X005798Y004526D01*
X005985Y004713D01*
X006029Y004713D01*
X006070Y004754D01*
X006091Y004733D01*
X006145Y004733D01*
X006145Y004723D01*
X006499Y004369D01*
X006499Y004320D01*
X006481Y004301D01*
X006481Y002965D01*
X006563Y002883D01*
X006876Y002883D01*
X006877Y002884D01*
X006878Y002883D01*
X007191Y002883D01*
X007192Y002884D01*
X007193Y002883D01*
X007506Y002883D01*
X007507Y002884D01*
X007508Y002883D01*
X007766Y002883D01*
X007770Y002879D01*
X007811Y002855D01*
X007857Y002843D01*
X007979Y002843D01*
X007979Y003633D01*
X007979Y004423D01*
X007857Y004423D01*
X007811Y004411D01*
X007770Y004387D01*
X007766Y004383D01*
X007581Y004383D01*
X007931Y004733D01*
X008214Y004733D01*
X008235Y004754D01*
X008256Y004733D01*
X008805Y004733D01*
X008887Y004815D01*
X008887Y005173D01*
X008952Y005108D01*
X009119Y005108D01*
X009119Y005091D01*
X009161Y005048D01*
X009119Y005006D01*
X009119Y004591D01*
X009201Y004509D01*
X010262Y004509D01*
X010331Y004578D01*
X010377Y004578D01*
X010506Y004707D01*
X010614Y004815D01*
X010614Y004798D01*
X010614Y004625D01*
X010626Y004579D01*
X010650Y004538D01*
X010684Y004505D01*
X010725Y004481D01*
X010771Y004469D01*
X011267Y004469D01*
X011763Y004469D01*
X011809Y004481D01*
X011850Y004505D01*
X011883Y004538D01*
X011884Y004539D01*
X011884Y004302D01*
X011870Y004289D01*
X011856Y004303D01*
X011110Y004303D01*
X011041Y004234D01*
X010970Y004304D01*
X010521Y004304D01*
X010521Y004306D01*
X010509Y004352D01*
X010486Y004393D01*
X010452Y004427D01*
X010411Y004450D01*
X010365Y004463D01*
X010143Y004463D01*
X010143Y004084D01*
X010067Y004084D01*
X010067Y004008D01*
X010143Y004008D01*
X010143Y003630D01*
X010365Y003630D01*
X010410Y003642D01*
X010419Y003633D01*
X010382Y003596D01*
X009811Y003596D01*
X009729Y003514D01*
X009729Y002925D01*
X009811Y002843D01*
X010399Y002843D01*
X010481Y002925D01*
X010481Y002961D01*
X010970Y002961D01*
X011041Y003032D01*
X011110Y002963D01*
X011856Y002963D01*
X011938Y003045D01*
X011938Y003621D01*
X011926Y003633D01*
X011938Y003645D01*
X011938Y003819D01*
X012091Y003972D01*
X012091Y001468D01*
X012078Y001311D01*
X011981Y001013D01*
X011797Y000760D01*
X011544Y000576D01*
X011246Y000479D01*
X011089Y000466D01*
X003609Y000466D01*
X003453Y000479D01*
X003155Y000576D01*
X002901Y000760D01*
X002717Y001013D01*
X002620Y001311D01*
X002608Y001468D01*
X002608Y003761D01*
X002636Y003733D01*
X002760Y003733D01*
X002760Y003645D01*
X002772Y003633D01*
X002760Y003621D01*
X002760Y003045D01*
X002842Y002963D01*
X003588Y002963D01*
X003658Y003032D01*
X003728Y002961D01*
X004217Y002961D01*
X004217Y002925D01*
X004299Y002843D01*
X004888Y002843D01*
X004970Y002925D01*
X004970Y003514D01*
X004888Y003596D01*
X004317Y003596D01*
X004280Y003633D01*
X004289Y003642D01*
X004334Y003630D01*
X004555Y003630D01*
X004555Y004008D01*
X004632Y004008D01*
X004632Y004084D01*
X004555Y004084D01*
X004555Y004463D01*
X004334Y004463D01*
X004288Y004450D01*
X004247Y004427D01*
X004213Y004393D01*
X004189Y004352D01*
X004177Y004306D01*
X004177Y004304D01*
X003728Y004304D01*
X003658Y004234D01*
X003588Y004303D01*
X002842Y004303D01*
X002825Y004285D01*
X002825Y005519D01*
X002846Y005539D01*
X002879Y005539D01*
X002879Y005465D01*
X002911Y005432D01*
X002908Y005430D01*
X002875Y005397D01*
X002851Y005356D01*
X002839Y005310D01*
X002839Y005088D01*
X003197Y005088D01*
X003197Y005051D01*
X002839Y005051D01*
X002839Y004830D01*
X002851Y004784D01*
X002875Y004743D01*
X002908Y004709D01*
X002949Y004686D01*
X002995Y004673D01*
X003197Y004673D01*
X003197Y004724D02*
X003234Y004724D01*
X003234Y004883D02*
X003197Y004883D01*
X003197Y005041D02*
X003234Y005041D01*
X002893Y004724D02*
X002825Y004724D01*
X002825Y004566D02*
X003610Y004566D01*
X003577Y004724D02*
X003538Y004724D01*
X003826Y004893D02*
X003826Y005227D01*
X004003Y005405D01*
X004397Y005405D01*
X004574Y005227D01*
X004574Y004893D01*
X004574Y004834D01*
X004790Y004617D01*
X005578Y004617D01*
X005775Y004814D01*
X005775Y005070D01*
X005775Y005109D01*
X006365Y005700D01*
X006365Y005739D01*
X006106Y006076D02*
X006082Y006100D01*
X006041Y006123D01*
X006039Y006124D01*
X006060Y006162D01*
X006073Y006208D01*
X006073Y006420D01*
X005567Y006420D01*
X005567Y006476D01*
X006073Y006476D01*
X006073Y006688D01*
X006060Y006734D01*
X006037Y006775D01*
X006003Y006808D01*
X005962Y006832D01*
X005916Y006844D01*
X005567Y006844D01*
X005567Y006476D01*
X005510Y006476D01*
X005510Y006420D01*
X005004Y006420D01*
X005004Y006208D01*
X005016Y006162D01*
X005031Y006136D01*
X004963Y006136D01*
X004918Y006123D01*
X004877Y006100D01*
X004843Y006066D01*
X004822Y006030D01*
X004822Y006211D01*
X004740Y006293D01*
X004407Y006293D01*
X004325Y006211D01*
X004325Y005625D01*
X004074Y005625D01*
X004074Y005952D01*
X004094Y005972D01*
X004223Y006101D01*
X004223Y006977D01*
X004356Y006977D01*
X004438Y007059D01*
X004438Y007490D01*
X004358Y007570D01*
X004434Y007645D01*
X004586Y007645D01*
X004881Y007940D01*
X005010Y008069D01*
X005010Y008770D01*
X005163Y008770D01*
X005227Y008833D01*
X005302Y008758D01*
X005799Y008261D01*
X005126Y008261D01*
X005044Y008179D01*
X005044Y007630D01*
X005126Y007548D01*
X005348Y007548D01*
X005348Y007512D01*
X005313Y007426D01*
X005313Y007320D01*
X005353Y007223D01*
X005428Y007148D01*
X005525Y007108D01*
X005630Y007108D01*
X005728Y007148D01*
X005802Y007223D01*
X005843Y007320D01*
X005843Y007426D01*
X005802Y007523D01*
X005777Y007548D01*
X005951Y007548D01*
X006033Y007630D01*
X006033Y008027D01*
X006766Y007294D01*
X006766Y005326D01*
X006877Y005215D01*
X006993Y005215D01*
X006993Y004815D01*
X007037Y004771D01*
X006878Y004612D01*
X006698Y004792D01*
X006722Y004815D01*
X006722Y005325D01*
X006642Y005405D01*
X006722Y005484D01*
X006722Y005994D01*
X006640Y006076D01*
X006106Y006076D01*
X006054Y006151D02*
X006766Y006151D01*
X006766Y006309D02*
X006073Y006309D01*
X006073Y006626D02*
X006766Y006626D01*
X006766Y006468D02*
X005567Y006468D01*
X005538Y006448D02*
X005775Y006212D01*
X005775Y005739D01*
X005756Y005721D02*
X005202Y005721D01*
X005202Y005758D01*
X005561Y005758D01*
X005756Y005758D01*
X005756Y005721D01*
X005510Y006468D02*
X004223Y006468D01*
X004223Y006626D02*
X005004Y006626D01*
X005004Y006688D02*
X005004Y006476D01*
X005510Y006476D01*
X005510Y006844D01*
X005160Y006844D01*
X005115Y006832D01*
X005073Y006808D01*
X005040Y006775D01*
X005016Y006734D01*
X005004Y006688D01*
X005050Y006785D02*
X004223Y006785D01*
X004223Y006943D02*
X006766Y006943D01*
X006766Y006785D02*
X006027Y006785D01*
X005567Y006785D02*
X005510Y006785D01*
X005510Y006626D02*
X005567Y006626D01*
X005337Y007260D02*
X004438Y007260D01*
X004438Y007102D02*
X006766Y007102D01*
X006766Y007260D02*
X005818Y007260D01*
X005843Y007419D02*
X006641Y007419D01*
X006483Y007577D02*
X005980Y007577D01*
X006033Y007736D02*
X006324Y007736D01*
X006166Y007894D02*
X006033Y007894D01*
X005690Y008370D02*
X005010Y008370D01*
X005010Y008528D02*
X005532Y008528D01*
X005373Y008687D02*
X005010Y008687D01*
X004570Y008687D02*
X003081Y008687D01*
X003071Y008683D02*
X003169Y008723D01*
X003243Y008798D01*
X003255Y008826D01*
X003375Y008826D01*
X003453Y008749D01*
X004356Y008749D01*
X004397Y008790D01*
X004417Y008770D01*
X004570Y008770D01*
X004570Y008252D01*
X004419Y008100D01*
X004356Y008163D01*
X003453Y008163D01*
X003371Y008081D01*
X003371Y007650D01*
X003451Y007570D01*
X003371Y007490D01*
X003371Y007139D01*
X003354Y007139D01*
X003272Y007057D01*
X003272Y006390D01*
X003354Y006308D01*
X003783Y006308D01*
X003783Y006293D01*
X003659Y006293D01*
X003577Y006211D01*
X003577Y005979D01*
X003557Y005959D01*
X003552Y005959D01*
X003552Y006014D01*
X003470Y006096D01*
X002961Y006096D01*
X002879Y006014D01*
X002879Y005939D01*
X002680Y005939D01*
X002608Y005867D01*
X002608Y006308D01*
X002880Y006308D01*
X002962Y006390D01*
X002962Y007057D01*
X002880Y007139D01*
X002608Y007139D01*
X002608Y009182D01*
X002880Y009182D01*
X002962Y009264D01*
X002962Y009931D01*
X002880Y010013D01*
X002608Y010013D01*
X002608Y010401D01*
X002630Y010372D01*
X002686Y010315D01*
X002751Y010268D01*
X002823Y010231D01*
X002899Y010206D01*
X002978Y010194D01*
X003000Y010194D01*
X003000Y010685D01*
X003037Y010685D01*
X003037Y010194D01*
X003059Y010194D01*
X003138Y010206D01*
X003214Y010231D01*
X003286Y010268D01*
X003351Y010315D01*
X003408Y010372D01*
X003455Y010436D01*
X003491Y010508D01*
X003511Y010568D01*
X003530Y010508D01*
X003567Y010436D01*
X003614Y010372D01*
X003671Y010315D01*
X003736Y010268D01*
X003807Y010231D01*
X003883Y010206D01*
X003963Y010194D01*
X003984Y010194D01*
X003984Y010685D01*
X003037Y010685D01*
X003037Y010722D01*
X003529Y010722D01*
X003984Y010722D01*
X003984Y010685D01*
X004021Y010685D01*
X004021Y010194D01*
X004043Y010194D01*
X004122Y010206D01*
X004199Y010231D01*
X004270Y010268D01*
X004335Y010315D01*
X004392Y010372D01*
X004439Y010436D01*
X004476Y010508D01*
X004500Y010584D01*
X004513Y010664D01*
X004513Y010685D01*
X004021Y010685D01*
X004021Y010722D01*
X003984Y010722D01*
X003984Y011214D01*
X003963Y011214D01*
X003883Y011201D01*
X003807Y011176D01*
X003736Y011140D01*
X003671Y011093D01*
X003614Y011036D01*
X003567Y010971D01*
X003530Y010900D01*
X003511Y010840D01*
X003491Y010900D01*
X003455Y010971D01*
X003408Y011036D01*
X003351Y011093D01*
X003286Y011140D01*
X003214Y011176D01*
X003138Y011201D01*
X003059Y011214D01*
X003037Y011214D01*
X003037Y010722D01*
X003000Y010722D01*
X003000Y011214D01*
X002978Y011214D01*
X002899Y011201D01*
X002823Y011176D01*
X002751Y011140D01*
X002686Y011093D01*
X002630Y011036D01*
X002608Y011006D01*
X002608Y011467D01*
X002620Y011438D01*
X002752Y011305D01*
X002925Y011234D01*
X003112Y011234D01*
X003285Y011305D01*
X003417Y011438D01*
X003489Y011610D01*
X003489Y011797D01*
X003417Y011970D01*
X003285Y012102D01*
X003112Y012174D01*
X002925Y012174D01*
X002752Y012102D01*
X002620Y011970D01*
X002608Y011941D01*
X002608Y012467D01*
X002620Y012438D01*
X002752Y012305D01*
X002925Y012234D01*
X003112Y012234D01*
X003285Y012305D01*
X003417Y012438D01*
X003489Y012610D01*
X003489Y012797D01*
X003417Y012970D01*
X003285Y013102D01*
X003112Y013174D01*
X002925Y013174D01*
X002752Y013102D01*
X002620Y012970D01*
X002608Y012941D01*
X002608Y014853D01*
X002620Y015010D01*
X002717Y015308D01*
X002901Y015561D01*
X003155Y015745D01*
X003453Y015842D01*
X003609Y015854D01*
X005004Y015854D01*
X005004Y015699D01*
X005362Y015699D01*
X005362Y015662D01*
X005004Y015662D01*
X005004Y015440D01*
X005016Y015394D01*
X005040Y015353D01*
X005073Y015320D01*
X005076Y015318D01*
X005044Y015285D01*
X005044Y014736D01*
X005126Y014654D01*
X005426Y014654D01*
X005585Y014496D01*
X005708Y014496D01*
X005734Y014470D01*
X005678Y014413D01*
X005555Y014413D01*
X005516Y014429D01*
X005480Y014413D01*
X005472Y014413D01*
X005434Y014429D01*
X005328Y014429D01*
X005231Y014389D01*
X005156Y014315D01*
X005116Y014217D01*
X005116Y014112D01*
X005156Y014014D01*
X005231Y013940D01*
X005282Y013918D01*
X005231Y013897D01*
X005156Y013822D01*
X005116Y013725D01*
X005116Y013620D01*
X005156Y013522D01*
X005231Y013448D01*
X005328Y013407D01*
X005434Y013407D01*
X005531Y013448D01*
X005605Y013522D01*
X005613Y013541D01*
X005678Y013541D01*
X005734Y013485D01*
X005662Y013413D01*
X005615Y013300D01*
X005615Y013178D01*
X005662Y013065D01*
X005734Y012993D01*
X005678Y012937D01*
X004415Y012937D01*
X004401Y012970D01*
X004269Y013102D01*
X004096Y013174D01*
X003909Y013174D01*
X003737Y013102D01*
X003604Y012970D01*
X003533Y012797D01*
X003533Y012610D01*
X003604Y012438D01*
X003737Y012305D01*
X003909Y012234D01*
X004096Y012234D01*
X004269Y012305D01*
X004401Y012438D01*
X004451Y012557D01*
X005678Y012557D01*
X005734Y012501D01*
X005678Y012445D01*
X004475Y012445D01*
X004173Y012142D01*
X004096Y012174D01*
X003909Y012174D01*
X003737Y012102D01*
X003604Y011970D01*
X003533Y011797D01*
X003533Y011610D01*
X003604Y011438D01*
X003737Y011305D01*
X003909Y011234D01*
X004096Y011234D01*
X004269Y011305D01*
X004401Y011438D01*
X004473Y011610D01*
X004473Y011797D01*
X004441Y011874D01*
X004633Y012065D01*
X005044Y012065D01*
X005044Y012062D01*
X004837Y012062D01*
X004708Y011933D01*
X004699Y011924D01*
X004570Y011795D01*
X004570Y010110D01*
X004417Y010110D01*
X004335Y010028D01*
X004335Y009452D01*
X004347Y009440D01*
X004335Y009428D01*
X004335Y009344D01*
X003867Y009344D01*
X003867Y009931D01*
X003785Y010013D01*
X003354Y010013D01*
X003272Y009931D01*
X003272Y009266D01*
X003026Y009266D01*
X002973Y009213D01*
X002966Y009213D01*
X002869Y009173D01*
X002794Y009098D01*
X002754Y009001D01*
X002754Y008895D01*
X002794Y008798D01*
X002869Y008723D01*
X002966Y008683D01*
X003071Y008683D01*
X002956Y008687D02*
X002608Y008687D01*
X002608Y008845D02*
X002774Y008845D01*
X002755Y009004D02*
X002608Y009004D01*
X002608Y009162D02*
X002858Y009162D01*
X002962Y009321D02*
X003272Y009321D01*
X003272Y009479D02*
X002962Y009479D01*
X002962Y009638D02*
X003272Y009638D01*
X003272Y009796D02*
X002962Y009796D01*
X002938Y009955D02*
X003296Y009955D01*
X003292Y010272D02*
X003730Y010272D01*
X003571Y010430D02*
X003450Y010430D01*
X003037Y010430D02*
X003000Y010430D01*
X003000Y010272D02*
X003037Y010272D01*
X003037Y010589D02*
X003000Y010589D01*
X003000Y010747D02*
X003037Y010747D01*
X003037Y010906D02*
X003000Y010906D01*
X003000Y011064D02*
X003037Y011064D01*
X003379Y011064D02*
X003642Y011064D01*
X003534Y010906D02*
X003488Y010906D01*
X003361Y011381D02*
X003661Y011381D01*
X003562Y011540D02*
X003460Y011540D01*
X003489Y011698D02*
X003533Y011698D01*
X003558Y011857D02*
X003464Y011857D01*
X003372Y012015D02*
X003650Y012015D01*
X003710Y012332D02*
X003312Y012332D01*
X003439Y012491D02*
X003582Y012491D01*
X003533Y012649D02*
X003489Y012649D01*
X003484Y012808D02*
X003537Y012808D01*
X003603Y012966D02*
X003419Y012966D01*
X003230Y013125D02*
X003792Y013125D01*
X004214Y013125D02*
X005637Y013125D01*
X005615Y013283D02*
X002608Y013283D01*
X002608Y013125D02*
X002807Y013125D01*
X002619Y012966D02*
X002608Y012966D01*
X002608Y013442D02*
X005244Y013442D01*
X005124Y013600D02*
X002608Y013600D01*
X002608Y013759D02*
X005130Y013759D01*
X005280Y013917D02*
X002608Y013917D01*
X002608Y014076D02*
X003370Y014076D01*
X003448Y014043D02*
X003150Y014167D01*
X002923Y014395D01*
X002799Y014692D01*
X002799Y015014D01*
X002923Y015312D01*
X003150Y015540D01*
X003448Y015663D01*
X003770Y015663D01*
X004068Y015540D01*
X004296Y015312D01*
X004419Y015014D01*
X004419Y014692D01*
X004296Y014395D01*
X004068Y014167D01*
X003770Y014043D01*
X003448Y014043D01*
X003849Y014076D02*
X005131Y014076D01*
X005123Y014234D02*
X004136Y014234D01*
X004294Y014393D02*
X005240Y014393D01*
X005529Y014551D02*
X004361Y014551D01*
X004419Y014710D02*
X005070Y014710D01*
X005044Y014868D02*
X004419Y014868D01*
X004414Y015027D02*
X005044Y015027D01*
X005044Y015185D02*
X004348Y015185D01*
X004264Y015344D02*
X005049Y015344D01*
X005004Y015502D02*
X004105Y015502D01*
X003776Y015661D02*
X005004Y015661D01*
X005004Y015819D02*
X003383Y015819D01*
X003442Y015661D02*
X003039Y015661D01*
X003113Y015502D02*
X002859Y015502D01*
X002954Y015344D02*
X002743Y015344D01*
X002677Y015185D02*
X002870Y015185D01*
X002804Y015027D02*
X002626Y015027D01*
X002609Y014868D02*
X002799Y014868D01*
X002799Y014710D02*
X002608Y014710D01*
X002608Y014551D02*
X002858Y014551D01*
X002924Y014393D02*
X002608Y014393D01*
X002608Y014234D02*
X003083Y014234D01*
X004403Y012966D02*
X005707Y012966D01*
X005690Y013442D02*
X005517Y013442D01*
X005724Y012491D02*
X004423Y012491D01*
X004363Y012332D02*
X004296Y012332D01*
X004204Y012174D02*
X002608Y012174D01*
X002608Y012332D02*
X002725Y012332D01*
X002666Y012015D02*
X002608Y012015D01*
X002608Y011381D02*
X002676Y011381D01*
X002608Y011223D02*
X004570Y011223D01*
X004570Y011381D02*
X004345Y011381D01*
X004444Y011540D02*
X004570Y011540D01*
X004570Y011698D02*
X004473Y011698D01*
X004448Y011857D02*
X004632Y011857D01*
X004699Y011924D02*
X004699Y011924D01*
X004791Y012015D02*
X004583Y012015D01*
X004790Y011704D02*
X004790Y009740D01*
X005010Y010110D02*
X005010Y010909D01*
X005016Y010886D01*
X005040Y010845D01*
X005073Y010812D01*
X005115Y010788D01*
X005160Y010776D01*
X005362Y010776D01*
X005362Y011154D01*
X005399Y011154D01*
X005399Y010810D01*
X005191Y010601D01*
X005191Y010082D01*
X005163Y010110D01*
X005010Y010110D01*
X005010Y010113D02*
X005191Y010113D01*
X005191Y010272D02*
X005010Y010272D01*
X005010Y010430D02*
X005191Y010430D01*
X005191Y010589D02*
X005010Y010589D01*
X005010Y010747D02*
X005337Y010747D01*
X005362Y010906D02*
X005399Y010906D01*
X005399Y011064D02*
X005362Y011064D01*
X005381Y011172D02*
X005479Y011271D01*
X006345Y011271D01*
X006349Y011267D02*
X006349Y011274D01*
X007116Y011274D01*
X007116Y011305D01*
X007103Y011372D01*
X007076Y011435D01*
X007038Y011492D01*
X006990Y011540D01*
X006987Y011543D01*
X007790Y011543D01*
X009728Y009605D01*
X009728Y009566D01*
X009702Y009540D01*
X009630Y009612D01*
X009517Y009659D01*
X009395Y009659D01*
X009282Y009612D01*
X009210Y009540D01*
X009138Y009612D01*
X009025Y009659D01*
X008902Y009659D01*
X008789Y009612D01*
X008717Y009540D01*
X008645Y009612D01*
X008533Y009659D01*
X008410Y009659D01*
X008297Y009612D01*
X008225Y009540D01*
X008153Y009612D01*
X008040Y009659D01*
X007918Y009659D01*
X007805Y009612D01*
X007733Y009540D01*
X007661Y009612D01*
X007548Y009659D01*
X007426Y009659D01*
X007313Y009612D01*
X007241Y009540D01*
X007169Y009612D01*
X007056Y009659D01*
X007045Y009659D01*
X007076Y009733D01*
X007076Y009855D01*
X007029Y009968D01*
X006957Y010040D01*
X007029Y010112D01*
X007076Y010225D01*
X007076Y010348D01*
X007029Y010461D01*
X006957Y010533D01*
X007029Y010604D01*
X007076Y010717D01*
X007076Y010840D01*
X007029Y010953D01*
X006985Y010997D01*
X006990Y011001D01*
X007038Y011049D01*
X007076Y011106D01*
X007103Y011169D01*
X007116Y011236D01*
X007116Y011267D01*
X006349Y011267D01*
X006345Y011763D02*
X005263Y011763D01*
X005381Y011842D01*
X004928Y011842D01*
X004790Y011704D01*
X004570Y011064D02*
X004363Y011064D01*
X004335Y011093D02*
X004270Y011140D01*
X004199Y011176D01*
X004122Y011201D01*
X004043Y011214D01*
X004021Y011214D01*
X004021Y010722D01*
X004513Y010722D01*
X004513Y010744D01*
X004500Y010823D01*
X004476Y010900D01*
X004439Y010971D01*
X004392Y011036D01*
X004335Y011093D01*
X004472Y010906D02*
X004570Y010906D01*
X004570Y010747D02*
X004512Y010747D01*
X004501Y010589D02*
X004570Y010589D01*
X004570Y010430D02*
X004435Y010430D01*
X004570Y010272D02*
X004276Y010272D01*
X004335Y009955D02*
X003843Y009955D01*
X003867Y009796D02*
X004335Y009796D01*
X004335Y009638D02*
X003867Y009638D01*
X003867Y009479D02*
X004335Y009479D01*
X003904Y009046D02*
X003117Y009046D01*
X003019Y008948D01*
X002608Y008528D02*
X004570Y008528D01*
X004570Y008370D02*
X002608Y008370D01*
X002608Y008211D02*
X004530Y008211D01*
X004790Y008160D02*
X004495Y007865D01*
X003904Y007865D01*
X004366Y007577D02*
X005097Y007577D01*
X005044Y007736D02*
X004677Y007736D01*
X004835Y007894D02*
X005044Y007894D01*
X005044Y008053D02*
X004994Y008053D01*
X005010Y008211D02*
X005076Y008211D01*
X004790Y008160D02*
X004790Y009140D01*
X004570Y010113D02*
X002608Y010113D01*
X002608Y010272D02*
X002745Y010272D01*
X002658Y011064D02*
X002608Y011064D01*
X003984Y011064D02*
X004021Y011064D01*
X004021Y010906D02*
X003984Y010906D01*
X003984Y010747D02*
X004021Y010747D01*
X004021Y010589D02*
X003984Y010589D01*
X003984Y010430D02*
X004021Y010430D01*
X004021Y010272D02*
X003984Y010272D01*
X005010Y010906D02*
X005011Y010906D01*
X005768Y009526D02*
X005861Y009487D01*
X005942Y009487D01*
X005903Y009394D01*
X005903Y009289D01*
X005944Y009191D01*
X006018Y009117D01*
X006116Y009077D01*
X006221Y009077D01*
X006301Y009110D01*
X006297Y009099D01*
X006297Y008994D01*
X006337Y008896D01*
X006412Y008822D01*
X006509Y008781D01*
X006558Y008781D01*
X006601Y008738D01*
X006688Y008738D01*
X006688Y008444D01*
X006734Y008331D01*
X006821Y008244D01*
X006934Y008198D01*
X007056Y008198D01*
X007169Y008244D01*
X007241Y008316D01*
X007313Y008244D01*
X007426Y008198D01*
X007503Y008198D01*
X007485Y008179D01*
X007485Y007630D01*
X007567Y007548D01*
X007740Y007548D01*
X007715Y007523D01*
X007675Y007426D01*
X007675Y007320D01*
X007715Y007223D01*
X007790Y007148D01*
X007887Y007108D01*
X007993Y007108D01*
X008090Y007148D01*
X008165Y007223D01*
X008205Y007320D01*
X008205Y007426D01*
X008165Y007523D01*
X008140Y007548D01*
X008392Y007548D01*
X008474Y007630D01*
X008474Y008179D01*
X008455Y008198D01*
X008533Y008198D01*
X008645Y008244D01*
X008717Y008316D01*
X008774Y008260D01*
X008774Y007885D01*
X008452Y007563D01*
X008340Y007452D01*
X008340Y006844D01*
X008008Y006844D01*
X008008Y006476D01*
X007951Y006476D01*
X007951Y006420D01*
X007445Y006420D01*
X007445Y006208D01*
X007457Y006162D01*
X007465Y006148D01*
X007342Y006271D01*
X007342Y007649D01*
X005768Y009223D01*
X005768Y009526D01*
X005768Y009479D02*
X005939Y009479D01*
X005903Y009321D02*
X005768Y009321D01*
X005829Y009162D02*
X005973Y009162D01*
X005987Y009004D02*
X006297Y009004D01*
X006388Y008845D02*
X006146Y008845D01*
X006304Y008687D02*
X006688Y008687D01*
X006688Y008528D02*
X006463Y008528D01*
X006621Y008370D02*
X006718Y008370D01*
X006780Y008211D02*
X006900Y008211D01*
X006938Y008053D02*
X007485Y008053D01*
X007485Y007894D02*
X007097Y007894D01*
X007255Y007736D02*
X007485Y007736D01*
X007538Y007577D02*
X007342Y007577D01*
X007342Y007419D02*
X007675Y007419D01*
X007700Y007260D02*
X007342Y007260D01*
X007342Y007102D02*
X008340Y007102D01*
X008340Y007260D02*
X008180Y007260D01*
X008205Y007419D02*
X008340Y007419D01*
X008421Y007577D02*
X008466Y007577D01*
X008474Y007736D02*
X008625Y007736D01*
X008774Y007894D02*
X008474Y007894D01*
X008474Y008053D02*
X008774Y008053D01*
X008774Y008211D02*
X008566Y008211D01*
X008340Y006943D02*
X007342Y006943D01*
X007342Y006785D02*
X007491Y006785D01*
X007481Y006775D02*
X007457Y006734D01*
X007445Y006688D01*
X007445Y006476D01*
X007951Y006476D01*
X007951Y006844D01*
X007601Y006844D01*
X007555Y006832D01*
X007514Y006808D01*
X007481Y006775D01*
X007445Y006626D02*
X007342Y006626D01*
X007342Y006468D02*
X007951Y006468D01*
X007951Y006626D02*
X008008Y006626D01*
X008008Y006785D02*
X007951Y006785D01*
X007445Y006309D02*
X007342Y006309D01*
X007462Y006151D02*
X007463Y006151D01*
X006766Y005992D02*
X006722Y005992D01*
X006722Y005834D02*
X006766Y005834D01*
X006766Y005675D02*
X006722Y005675D01*
X006722Y005517D02*
X006766Y005517D01*
X006766Y005358D02*
X006688Y005358D01*
X006722Y005200D02*
X006993Y005200D01*
X006993Y005041D02*
X006722Y005041D01*
X006722Y004883D02*
X006993Y004883D01*
X006991Y004724D02*
X006766Y004724D01*
X006719Y004460D02*
X006365Y004814D01*
X006365Y005070D01*
X006145Y004724D02*
X006040Y004724D01*
X005838Y004566D02*
X006302Y004566D01*
X006461Y004407D02*
X006066Y004407D01*
X006171Y004249D02*
X006481Y004249D01*
X006481Y004090D02*
X006171Y004090D01*
X006171Y003932D02*
X006481Y003932D01*
X006481Y003773D02*
X006171Y003773D01*
X006171Y003514D02*
X005677Y003514D01*
X005677Y002764D01*
X006015Y002764D01*
X006061Y002776D01*
X006102Y002800D01*
X006135Y002833D01*
X006159Y002874D01*
X006171Y002920D01*
X006171Y003514D01*
X006171Y003456D02*
X006481Y003456D01*
X006481Y003298D02*
X006171Y003298D01*
X006171Y003139D02*
X006481Y003139D01*
X006481Y002981D02*
X006171Y002981D01*
X006124Y002822D02*
X008575Y002822D01*
X008564Y002833D02*
X008597Y002800D01*
X008638Y002776D01*
X008684Y002764D01*
X009021Y002764D01*
X009021Y003514D01*
X008528Y003514D01*
X008528Y002920D01*
X008540Y002874D01*
X008564Y002833D01*
X008528Y002981D02*
X008253Y002981D01*
X008258Y002999D02*
X008245Y002953D01*
X008222Y002912D01*
X008188Y002879D01*
X008147Y002855D01*
X008101Y002843D01*
X007979Y002843D01*
X007979Y003633D01*
X007979Y003633D01*
X007979Y003633D01*
X007979Y004423D01*
X008101Y004423D01*
X008147Y004411D01*
X008188Y004387D01*
X008222Y004354D01*
X008245Y004313D01*
X008258Y004267D01*
X008258Y003633D01*
X007979Y003633D01*
X007979Y003633D01*
X008258Y003633D01*
X008258Y002999D01*
X008258Y003139D02*
X008528Y003139D01*
X008528Y003298D02*
X008258Y003298D01*
X008258Y003456D02*
X008528Y003456D01*
X008528Y003674D02*
X008528Y004267D01*
X008540Y004313D01*
X008564Y004354D01*
X008597Y004387D01*
X008638Y004411D01*
X008684Y004423D01*
X009021Y004423D01*
X009021Y003674D01*
X009181Y003674D01*
X009181Y004423D01*
X009519Y004423D01*
X009564Y004411D01*
X009606Y004387D01*
X009639Y004354D01*
X009663Y004313D01*
X009675Y004267D01*
X009675Y003674D01*
X009181Y003674D01*
X009181Y003514D01*
X009675Y003514D01*
X009675Y002920D01*
X009663Y002874D01*
X009639Y002833D01*
X009606Y002800D01*
X009564Y002776D01*
X009519Y002764D01*
X009181Y002764D01*
X009181Y003514D01*
X009021Y003514D01*
X009021Y003674D01*
X008528Y003674D01*
X008528Y003773D02*
X008258Y003773D01*
X008258Y003615D02*
X009021Y003615D01*
X009021Y003773D02*
X009181Y003773D01*
X009181Y003615D02*
X010401Y003615D01*
X010143Y003773D02*
X010067Y003773D01*
X010067Y003630D02*
X010067Y004008D01*
X009689Y004008D01*
X009689Y003786D01*
X009701Y003741D01*
X009725Y003700D01*
X009759Y003666D01*
X009800Y003642D01*
X009845Y003630D01*
X010067Y003630D01*
X010067Y003932D02*
X010143Y003932D01*
X010143Y004090D02*
X010067Y004090D01*
X010067Y004084D02*
X010067Y004463D01*
X009845Y004463D01*
X009800Y004450D01*
X009759Y004427D01*
X009725Y004393D01*
X009701Y004352D01*
X009689Y004306D01*
X009689Y004084D01*
X010067Y004084D01*
X010067Y004249D02*
X010143Y004249D01*
X010143Y004407D02*
X010067Y004407D01*
X010319Y004566D02*
X010634Y004566D01*
X010614Y004724D02*
X010524Y004724D01*
X010614Y004798D02*
X011267Y004798D01*
X011267Y004469D01*
X011267Y004798D01*
X011267Y004798D01*
X011267Y004798D01*
X010614Y004798D01*
X010401Y004912D02*
X010401Y007570D01*
X010893Y007570D01*
X010991Y007668D01*
X010991Y008160D01*
X011094Y008264D01*
X011483Y008264D01*
X011110Y008634D02*
X011028Y008552D01*
X011028Y008484D01*
X011003Y008484D01*
X010900Y008380D01*
X010839Y008320D01*
X010824Y008328D01*
X010779Y008340D01*
X010748Y008340D01*
X010774Y008404D01*
X010787Y008471D01*
X010787Y008925D01*
X010444Y008925D01*
X010444Y008932D01*
X010787Y008932D01*
X010787Y009386D01*
X010774Y009453D01*
X010760Y009487D01*
X011574Y009487D01*
X011687Y009534D01*
X011773Y009620D01*
X011820Y009733D01*
X011820Y009855D01*
X011773Y009968D01*
X011701Y010040D01*
X011773Y010112D01*
X011820Y010225D01*
X011820Y010348D01*
X011773Y010461D01*
X011701Y010533D01*
X011773Y010604D01*
X011820Y010717D01*
X011820Y010840D01*
X011773Y010953D01*
X011701Y011025D01*
X011773Y011097D01*
X011820Y011210D01*
X011820Y011332D01*
X011773Y011445D01*
X011701Y011517D01*
X011773Y011589D01*
X011820Y011702D01*
X011820Y011824D01*
X011773Y011937D01*
X011701Y012009D01*
X011773Y012081D01*
X011820Y012194D01*
X011820Y012316D01*
X011773Y012429D01*
X011701Y012501D01*
X011773Y012573D01*
X011820Y012686D01*
X011820Y012808D01*
X012091Y012808D01*
X012091Y012966D02*
X011728Y012966D01*
X011701Y012993D02*
X011773Y013065D01*
X011820Y013178D01*
X011820Y013300D01*
X011773Y013413D01*
X011729Y013458D01*
X011734Y013462D01*
X011783Y013510D01*
X011821Y013567D01*
X011847Y013630D01*
X011860Y013697D01*
X011860Y013728D01*
X011093Y013728D01*
X011093Y013735D01*
X011860Y013735D01*
X011860Y013766D01*
X011855Y013789D01*
X012091Y013789D01*
X012091Y009003D01*
X011945Y009148D01*
X011945Y009197D01*
X011905Y009295D01*
X011830Y009369D01*
X011733Y009410D01*
X011627Y009410D01*
X011530Y009369D01*
X011455Y009295D01*
X011415Y009197D01*
X011415Y009092D01*
X011455Y008995D01*
X011530Y008920D01*
X011627Y008880D01*
X011676Y008880D01*
X011884Y008672D01*
X011884Y008606D01*
X011856Y008634D01*
X011110Y008634D01*
X011028Y008528D02*
X010787Y008528D01*
X010787Y008687D02*
X011869Y008687D01*
X011711Y008845D02*
X010787Y008845D01*
X010787Y009004D02*
X011452Y009004D01*
X011415Y009162D02*
X010787Y009162D01*
X010787Y009321D02*
X011482Y009321D01*
X011781Y009638D02*
X012091Y009638D01*
X012091Y009796D02*
X011820Y009796D01*
X011779Y009955D02*
X012091Y009955D01*
X012091Y010113D02*
X011774Y010113D01*
X011820Y010272D02*
X012091Y010272D01*
X012091Y010430D02*
X011786Y010430D01*
X011758Y010589D02*
X012091Y010589D01*
X012091Y010747D02*
X011820Y010747D01*
X011793Y010906D02*
X012091Y010906D01*
X012091Y011064D02*
X011741Y011064D01*
X011820Y011223D02*
X012091Y011223D01*
X012091Y011381D02*
X011799Y011381D01*
X011724Y011540D02*
X012091Y011540D01*
X012091Y011698D02*
X011819Y011698D01*
X011806Y011857D02*
X012091Y011857D01*
X012091Y012015D02*
X011708Y012015D01*
X011812Y012174D02*
X012091Y012174D01*
X012091Y012332D02*
X011813Y012332D01*
X011711Y012491D02*
X012091Y012491D01*
X012091Y012649D02*
X011805Y012649D01*
X011820Y012808D02*
X011773Y012921D01*
X011701Y012993D01*
X011798Y013125D02*
X012091Y013125D01*
X012091Y013283D02*
X011820Y013283D01*
X011745Y013442D02*
X012091Y013442D01*
X012091Y013600D02*
X011834Y013600D01*
X011860Y013759D02*
X012091Y013759D01*
X011086Y013735D02*
X011086Y013728D01*
X010319Y013728D01*
X010319Y013697D01*
X010332Y013630D01*
X010358Y013567D01*
X010396Y013510D01*
X010445Y013462D01*
X010450Y013458D01*
X010422Y013429D01*
X010381Y013429D01*
X009905Y012953D01*
X009856Y012953D01*
X009758Y012913D01*
X009684Y012838D01*
X009643Y012741D01*
X009643Y012635D01*
X009684Y012538D01*
X009758Y012463D01*
X009856Y012423D01*
X009939Y012423D01*
X009939Y012340D01*
X009979Y012243D01*
X010054Y012168D01*
X010151Y012128D01*
X010256Y012128D01*
X010354Y012168D01*
X010365Y012179D01*
X010406Y012081D01*
X010478Y012009D01*
X010406Y011937D01*
X010359Y011824D01*
X010359Y011702D01*
X010406Y011589D01*
X010478Y011517D01*
X010406Y011445D01*
X010359Y011332D01*
X010359Y011210D01*
X010406Y011097D01*
X010478Y011025D01*
X010406Y010953D01*
X010359Y010840D01*
X010359Y010717D01*
X010406Y010604D01*
X010478Y010533D01*
X010406Y010461D01*
X010359Y010348D01*
X010359Y010225D01*
X010406Y010112D01*
X010478Y010040D01*
X010406Y009968D01*
X010359Y009855D01*
X010359Y009733D01*
X010376Y009693D01*
X010339Y009685D01*
X010275Y009659D01*
X010218Y009621D01*
X010170Y009573D01*
X010168Y009569D01*
X010168Y009787D01*
X010039Y009916D01*
X007972Y011983D01*
X007766Y011983D01*
X007766Y014551D01*
X007637Y014680D01*
X007381Y014936D01*
X006983Y014936D01*
X006957Y014962D01*
X007029Y015034D01*
X007076Y015147D01*
X007076Y015269D01*
X007029Y015382D01*
X006985Y015426D01*
X006990Y015430D01*
X007038Y015478D01*
X007076Y015535D01*
X007103Y015599D01*
X007116Y015666D01*
X007116Y015696D01*
X006349Y015696D01*
X006349Y015704D01*
X007116Y015704D01*
X007116Y015734D01*
X007103Y015801D01*
X007081Y015854D01*
X008647Y015854D01*
X008647Y013836D01*
X008694Y013789D01*
X010324Y013789D01*
X010319Y013766D01*
X010319Y013735D01*
X011086Y013735D01*
X010434Y013442D02*
X007766Y013442D01*
X007766Y013600D02*
X010345Y013600D01*
X010319Y013759D02*
X007766Y013759D01*
X007766Y013917D02*
X008647Y013917D01*
X008647Y014076D02*
X007766Y014076D01*
X007766Y014234D02*
X008647Y014234D01*
X008647Y014393D02*
X007766Y014393D01*
X007766Y014551D02*
X008647Y014551D01*
X008647Y014710D02*
X007607Y014710D01*
X007449Y014868D02*
X008647Y014868D01*
X008647Y015027D02*
X007023Y015027D01*
X007076Y015185D02*
X008647Y015185D01*
X008647Y015344D02*
X007045Y015344D01*
X007054Y015502D02*
X008647Y015502D01*
X008647Y015661D02*
X007115Y015661D01*
X007095Y015819D02*
X008647Y015819D01*
X007290Y014716D02*
X007546Y014460D01*
X007546Y011763D01*
X007881Y011763D01*
X009948Y009696D01*
X009948Y008928D01*
X009948Y007983D01*
X009869Y007964D01*
X009869Y007708D01*
X010007Y007570D01*
X010401Y007570D01*
X010520Y007945D02*
X010226Y007945D01*
X010226Y007982D01*
X010520Y007982D01*
X010520Y007945D01*
X010538Y007964D02*
X010499Y007964D01*
X010440Y008023D01*
X010440Y008928D01*
X010763Y009479D02*
X012091Y009479D01*
X012091Y009321D02*
X011879Y009321D01*
X011945Y009162D02*
X012091Y009162D01*
X012090Y009004D02*
X012091Y009004D01*
X011483Y007664D02*
X011483Y006783D01*
X011282Y006783D01*
X011267Y006798D01*
X010889Y008370D02*
X010760Y008370D01*
X010244Y009638D02*
X010168Y009638D01*
X010158Y009796D02*
X010359Y009796D01*
X010400Y009955D02*
X010000Y009955D01*
X009841Y010113D02*
X010405Y010113D01*
X010359Y010272D02*
X009683Y010272D01*
X009524Y010430D02*
X010393Y010430D01*
X010421Y010589D02*
X009366Y010589D01*
X009207Y010747D02*
X010359Y010747D01*
X010386Y010906D02*
X009049Y010906D01*
X008890Y011064D02*
X010438Y011064D01*
X010359Y011223D02*
X008732Y011223D01*
X008573Y011381D02*
X010380Y011381D01*
X010455Y011540D02*
X008415Y011540D01*
X008256Y011698D02*
X010360Y011698D01*
X010373Y011857D02*
X008098Y011857D01*
X007766Y012015D02*
X010471Y012015D01*
X010367Y012174D02*
X010360Y012174D01*
X010048Y012174D02*
X007766Y012174D01*
X007766Y012332D02*
X009942Y012332D01*
X009731Y012491D02*
X007766Y012491D01*
X007766Y012649D02*
X009643Y012649D01*
X009671Y012808D02*
X007766Y012808D01*
X007766Y012966D02*
X009918Y012966D01*
X010077Y013125D02*
X007766Y013125D01*
X007766Y013283D02*
X010235Y013283D01*
X008427Y010906D02*
X007049Y010906D01*
X007049Y011064D02*
X008268Y011064D01*
X008110Y011223D02*
X007113Y011223D01*
X007099Y011381D02*
X007951Y011381D01*
X007793Y011540D02*
X006991Y011540D01*
X007546Y011763D02*
X006345Y011763D01*
X007076Y010747D02*
X008585Y010747D01*
X008744Y010589D02*
X007014Y010589D01*
X007042Y010430D02*
X008902Y010430D01*
X009061Y010272D02*
X007076Y010272D01*
X007030Y010113D02*
X009219Y010113D01*
X009378Y009955D02*
X007035Y009955D01*
X007076Y009796D02*
X009536Y009796D01*
X009567Y009638D02*
X009695Y009638D01*
X009344Y009638D02*
X009075Y009638D01*
X008852Y009638D02*
X008583Y009638D01*
X008360Y009638D02*
X008091Y009638D01*
X007868Y009638D02*
X007598Y009638D01*
X007376Y009638D02*
X007106Y009638D01*
X007090Y008211D02*
X007393Y008211D01*
X005313Y007419D02*
X004438Y007419D01*
X003904Y007275D02*
X003826Y007255D01*
X003826Y007157D01*
X004003Y006979D01*
X004003Y006192D01*
X003826Y006015D01*
X003826Y005916D01*
X003649Y005739D01*
X003215Y005739D01*
X002879Y005517D02*
X002825Y005517D01*
X002825Y005358D02*
X002852Y005358D01*
X002839Y005200D02*
X002825Y005200D01*
X002825Y005041D02*
X002839Y005041D01*
X002825Y004883D02*
X002839Y004883D01*
X002825Y004407D02*
X004228Y004407D01*
X004200Y004476D02*
X004200Y004893D01*
X004200Y004893D01*
X004200Y004476D01*
X004200Y004566D02*
X004200Y004566D01*
X004200Y004724D02*
X004200Y004724D01*
X004200Y004883D02*
X004200Y004883D01*
X004555Y004407D02*
X004632Y004407D01*
X004632Y004249D02*
X004555Y004249D01*
X004555Y004090D02*
X004632Y004090D01*
X004632Y004008D02*
X005010Y004008D01*
X005010Y003786D01*
X004997Y003741D01*
X004974Y003700D01*
X004940Y003666D01*
X004899Y003642D01*
X004853Y003630D01*
X004632Y003630D01*
X004632Y004008D01*
X004632Y003932D02*
X004555Y003932D01*
X004555Y003773D02*
X004632Y003773D01*
X004298Y003615D02*
X005517Y003615D01*
X005517Y003456D02*
X005677Y003456D01*
X005677Y003298D02*
X005517Y003298D01*
X005517Y003139D02*
X005677Y003139D01*
X005677Y002981D02*
X005517Y002981D01*
X005517Y002822D02*
X005677Y002822D01*
X006180Y002654D02*
X006126Y002523D01*
X006126Y002381D01*
X006180Y002249D01*
X006281Y002149D01*
X006412Y002095D01*
X006554Y002095D01*
X006686Y002149D01*
X006786Y002249D01*
X006840Y002381D01*
X006840Y002523D01*
X006786Y002654D01*
X006686Y002755D01*
X006554Y002809D01*
X006412Y002809D01*
X006281Y002755D01*
X006180Y002654D01*
X006190Y002664D02*
X002608Y002664D01*
X002608Y002822D02*
X005071Y002822D01*
X005024Y002981D02*
X004970Y002981D01*
X004970Y003139D02*
X005024Y003139D01*
X005024Y003298D02*
X004970Y003298D01*
X004970Y003456D02*
X005024Y003456D01*
X005006Y003773D02*
X005024Y003773D01*
X005010Y003932D02*
X005024Y003932D01*
X005010Y004090D02*
X005024Y004090D01*
X005010Y004249D02*
X005024Y004249D01*
X005125Y005070D02*
X005184Y005070D01*
X005125Y005070D02*
X004574Y005621D01*
X004574Y005916D01*
X004325Y005992D02*
X004115Y005992D01*
X004074Y005834D02*
X004325Y005834D01*
X004325Y005675D02*
X004074Y005675D01*
X004223Y006151D02*
X004325Y006151D01*
X004223Y006309D02*
X005004Y006309D01*
X005023Y006151D02*
X004822Y006151D01*
X003577Y006151D02*
X002608Y006151D01*
X002608Y005992D02*
X002879Y005992D01*
X002881Y006309D02*
X003353Y006309D01*
X003272Y006468D02*
X002962Y006468D01*
X002962Y006626D02*
X003272Y006626D01*
X003272Y006785D02*
X002962Y006785D01*
X002962Y006943D02*
X003272Y006943D01*
X003317Y007102D02*
X002917Y007102D01*
X002608Y007260D02*
X003371Y007260D01*
X003371Y007419D02*
X002608Y007419D01*
X002608Y007577D02*
X003443Y007577D01*
X003371Y007736D02*
X002608Y007736D01*
X002608Y007894D02*
X003371Y007894D01*
X003371Y008053D02*
X002608Y008053D01*
X003552Y005992D02*
X003577Y005992D01*
X003642Y004249D02*
X003673Y004249D01*
X002760Y003615D02*
X002608Y003615D01*
X002608Y003456D02*
X002760Y003456D01*
X002760Y003298D02*
X002608Y003298D01*
X002608Y003139D02*
X002760Y003139D01*
X002824Y002981D02*
X002608Y002981D01*
X002608Y002505D02*
X006126Y002505D01*
X006140Y002347D02*
X002608Y002347D01*
X002608Y002188D02*
X003233Y002188D01*
X003150Y002154D02*
X002923Y001926D01*
X002799Y001629D01*
X002799Y001306D01*
X002923Y001009D01*
X003150Y000781D01*
X003448Y000658D01*
X003770Y000658D01*
X004068Y000781D01*
X004296Y001009D01*
X004419Y001306D01*
X004419Y001629D01*
X004296Y001926D01*
X004068Y002154D01*
X003770Y002277D01*
X003448Y002277D01*
X003150Y002154D01*
X003026Y002030D02*
X002608Y002030D01*
X002608Y001871D02*
X002900Y001871D01*
X002834Y001713D02*
X002608Y001713D01*
X002608Y001554D02*
X002799Y001554D01*
X002799Y001396D02*
X002614Y001396D01*
X002644Y001237D02*
X002828Y001237D01*
X002893Y001079D02*
X002696Y001079D01*
X002784Y000920D02*
X003011Y000920D01*
X002900Y000762D02*
X003196Y000762D01*
X003116Y000603D02*
X005162Y000603D01*
X005180Y000599D02*
X005517Y000599D01*
X005517Y001191D01*
X005024Y001191D01*
X005024Y000755D01*
X005036Y000709D01*
X005060Y000668D01*
X005093Y000635D01*
X005134Y000611D01*
X005180Y000599D01*
X005024Y000762D02*
X004022Y000762D01*
X004207Y000920D02*
X005024Y000920D01*
X005024Y001079D02*
X004325Y001079D01*
X004391Y001237D02*
X005517Y001237D01*
X005517Y001191D02*
X005517Y001351D01*
X005024Y001351D01*
X005024Y001787D01*
X005036Y001832D01*
X005060Y001873D01*
X005093Y001907D01*
X005134Y001931D01*
X005180Y001943D01*
X005517Y001943D01*
X005517Y001351D01*
X005677Y001351D01*
X005677Y001943D01*
X006015Y001943D01*
X006061Y001931D01*
X006102Y001907D01*
X006135Y001873D01*
X006159Y001832D01*
X006171Y001787D01*
X006171Y001351D01*
X005677Y001351D01*
X005677Y001191D01*
X005677Y000599D01*
X006015Y000599D01*
X006061Y000611D01*
X006102Y000635D01*
X006135Y000668D01*
X006159Y000709D01*
X006171Y000755D01*
X006171Y001191D01*
X005677Y001191D01*
X005517Y001191D01*
X005517Y001079D02*
X005677Y001079D01*
X005677Y001237D02*
X009021Y001237D01*
X009021Y001191D02*
X008528Y001191D01*
X008528Y000755D01*
X008540Y000709D01*
X008564Y000668D01*
X008597Y000635D01*
X008638Y000611D01*
X008684Y000599D01*
X009021Y000599D01*
X009021Y001191D01*
X009021Y001351D01*
X009021Y001943D01*
X008684Y001943D01*
X008638Y001931D01*
X008597Y001907D01*
X008564Y001873D01*
X008540Y001832D01*
X008528Y001787D01*
X008528Y001351D01*
X009021Y001351D01*
X009181Y001351D01*
X009181Y001943D01*
X009519Y001943D01*
X009564Y001931D01*
X009606Y001907D01*
X009639Y001873D01*
X009663Y001832D01*
X009675Y001787D01*
X009675Y001351D01*
X009181Y001351D01*
X009181Y001191D01*
X009675Y001191D01*
X009675Y000755D01*
X009663Y000709D01*
X009639Y000668D01*
X009606Y000635D01*
X009564Y000611D01*
X009519Y000599D01*
X009181Y000599D01*
X009181Y001191D01*
X009021Y001191D01*
X009021Y001079D02*
X009181Y001079D01*
X009181Y001237D02*
X010308Y001237D01*
X010280Y001306D02*
X010403Y001009D01*
X010631Y000781D01*
X010928Y000658D01*
X011251Y000658D01*
X011548Y000781D01*
X011776Y001009D01*
X011899Y001306D01*
X011899Y001629D01*
X011776Y001926D01*
X011548Y002154D01*
X011251Y002277D01*
X010928Y002277D01*
X010631Y002154D01*
X010403Y001926D01*
X010280Y001629D01*
X010280Y001306D01*
X010280Y001396D02*
X009675Y001396D01*
X009675Y001554D02*
X010280Y001554D01*
X010314Y001713D02*
X009675Y001713D01*
X009640Y001871D02*
X010380Y001871D01*
X010506Y002030D02*
X004192Y002030D01*
X004319Y001871D02*
X005059Y001871D01*
X005024Y001713D02*
X004384Y001713D01*
X004419Y001554D02*
X005024Y001554D01*
X005024Y001396D02*
X004419Y001396D01*
X003985Y002188D02*
X006241Y002188D01*
X006136Y001871D02*
X008562Y001871D01*
X008528Y001713D02*
X006171Y001713D01*
X006171Y001554D02*
X008528Y001554D01*
X008528Y001396D02*
X006171Y001396D01*
X006171Y001079D02*
X008528Y001079D01*
X008528Y000920D02*
X006171Y000920D01*
X006171Y000762D02*
X008528Y000762D01*
X008666Y000603D02*
X006033Y000603D01*
X005677Y000603D02*
X005517Y000603D01*
X005517Y000762D02*
X005677Y000762D01*
X005677Y000920D02*
X005517Y000920D01*
X005517Y001396D02*
X005677Y001396D01*
X005677Y001554D02*
X005517Y001554D01*
X005517Y001713D02*
X005677Y001713D01*
X005677Y001871D02*
X005517Y001871D01*
X006725Y002188D02*
X007974Y002188D01*
X008013Y002149D02*
X008144Y002095D01*
X008287Y002095D01*
X008418Y002149D01*
X008518Y002249D01*
X008573Y002381D01*
X008573Y002523D01*
X008518Y002654D01*
X008418Y002755D01*
X008287Y002809D01*
X008144Y002809D01*
X008013Y002755D01*
X007913Y002654D01*
X007858Y002523D01*
X007858Y002381D01*
X007913Y002249D01*
X008013Y002149D01*
X007872Y002347D02*
X006826Y002347D01*
X006840Y002505D02*
X007858Y002505D01*
X007923Y002664D02*
X006776Y002664D01*
X006719Y003633D02*
X006719Y004460D01*
X006481Y003615D02*
X005677Y003615D01*
X007605Y004407D02*
X007805Y004407D01*
X007764Y004566D02*
X009143Y004566D01*
X009119Y004724D02*
X007922Y004724D01*
X007979Y004407D02*
X007979Y004407D01*
X007979Y004249D02*
X007979Y004249D01*
X007979Y004090D02*
X007979Y004090D01*
X007979Y003932D02*
X007979Y003932D01*
X007979Y003773D02*
X007979Y003773D01*
X007979Y003615D02*
X007979Y003615D01*
X007979Y003456D02*
X007979Y003456D01*
X007979Y003298D02*
X007979Y003298D01*
X007979Y003139D02*
X007979Y003139D01*
X007979Y002981D02*
X007979Y002981D01*
X008508Y002664D02*
X012091Y002664D01*
X012091Y002822D02*
X009628Y002822D01*
X009675Y002981D02*
X009729Y002981D01*
X009729Y003139D02*
X009675Y003139D01*
X009675Y003298D02*
X009729Y003298D01*
X009729Y003456D02*
X009675Y003456D01*
X009675Y003773D02*
X009692Y003773D01*
X009675Y003932D02*
X009689Y003932D01*
X009675Y004090D02*
X009689Y004090D01*
X009675Y004249D02*
X009689Y004249D01*
X009739Y004407D02*
X009570Y004407D01*
X009731Y004798D02*
X010286Y004798D01*
X010401Y004912D01*
X010471Y004407D02*
X011884Y004407D01*
X012051Y003932D02*
X012091Y003932D01*
X012091Y003773D02*
X011938Y003773D01*
X011938Y003615D02*
X012091Y003615D01*
X012091Y003456D02*
X011938Y003456D01*
X011938Y003298D02*
X012091Y003298D01*
X012091Y003139D02*
X011938Y003139D01*
X011874Y002981D02*
X012091Y002981D01*
X012091Y002505D02*
X008573Y002505D01*
X008559Y002347D02*
X012091Y002347D01*
X012091Y002188D02*
X011466Y002188D01*
X011672Y002030D02*
X012091Y002030D01*
X012091Y001871D02*
X011799Y001871D01*
X011865Y001713D02*
X012091Y001713D01*
X012091Y001554D02*
X011899Y001554D01*
X011899Y001396D02*
X012085Y001396D01*
X012054Y001237D02*
X011871Y001237D01*
X011805Y001079D02*
X012003Y001079D01*
X011914Y000920D02*
X011688Y000920D01*
X011799Y000762D02*
X011502Y000762D01*
X011582Y000603D02*
X009537Y000603D01*
X009675Y000762D02*
X010677Y000762D01*
X010491Y000920D02*
X009675Y000920D01*
X009675Y001079D02*
X010374Y001079D01*
X010713Y002188D02*
X008457Y002188D01*
X009021Y001871D02*
X009181Y001871D01*
X009181Y001713D02*
X009021Y001713D01*
X009021Y001554D02*
X009181Y001554D01*
X009181Y001396D02*
X009021Y001396D01*
X009021Y000920D02*
X009181Y000920D01*
X009181Y000762D02*
X009021Y000762D01*
X009021Y000603D02*
X009181Y000603D01*
X009181Y002822D02*
X009021Y002822D01*
X009021Y002981D02*
X009181Y002981D01*
X009181Y003139D02*
X009021Y003139D01*
X009021Y003298D02*
X009181Y003298D01*
X009181Y003456D02*
X009021Y003456D01*
X009021Y003932D02*
X009181Y003932D01*
X009181Y004090D02*
X009021Y004090D01*
X009021Y004249D02*
X009181Y004249D01*
X009181Y004407D02*
X009021Y004407D01*
X008632Y004407D02*
X008153Y004407D01*
X008258Y004249D02*
X008528Y004249D01*
X008528Y004090D02*
X008258Y004090D01*
X008258Y003932D02*
X008528Y003932D01*
X008887Y004883D02*
X009119Y004883D01*
X009154Y005041D02*
X008887Y005041D01*
X011026Y004249D02*
X011056Y004249D01*
X011267Y004566D02*
X011267Y004566D01*
X011267Y004724D02*
X011267Y004724D01*
X011092Y002981D02*
X010990Y002981D01*
X003709Y002981D02*
X003607Y002981D01*
X005676Y014716D02*
X005381Y015011D01*
X005676Y014716D02*
X006345Y014716D01*
X006345Y015208D01*
X006342Y015696D02*
X005575Y015696D01*
X005575Y015666D01*
X005576Y015662D01*
X005399Y015662D01*
X005399Y015699D01*
X005758Y015699D01*
X005758Y015704D01*
X006342Y015704D01*
X006342Y015696D01*
X006345Y014716D02*
X007290Y014716D01*
D27*
X006345Y014223D02*
X005519Y014223D01*
X005381Y014164D01*
X005519Y013731D02*
X005381Y013672D01*
X005519Y013731D02*
X006345Y013731D01*
X006345Y012747D02*
X004156Y012747D01*
X004003Y012704D01*
X004554Y012255D02*
X004003Y011704D01*
X004554Y012255D02*
X006345Y012255D01*
X006345Y010779D02*
X005637Y010779D01*
X005381Y010523D01*
X005381Y008948D01*
X006956Y007373D01*
X006956Y005405D01*
X007743Y005405D01*
X007940Y005601D01*
X007940Y005739D01*
X008530Y005739D02*
X008530Y007373D01*
X008964Y007806D01*
X008964Y008928D01*
X007979Y007905D02*
X007940Y007865D01*
X007940Y007373D01*
X007152Y007570D02*
X007152Y006192D01*
X007349Y005995D01*
X007349Y005739D01*
X007349Y005070D02*
X007349Y004814D01*
X007034Y004499D01*
X007034Y003633D01*
X007349Y003633D02*
X007349Y004420D01*
X007940Y005011D01*
X007940Y005070D01*
X008530Y005070D01*
X008924Y005405D02*
X008924Y007176D01*
X008924Y005405D02*
X009030Y005298D01*
X009731Y005298D01*
X010597Y005405D02*
X010597Y007078D01*
X010696Y007176D01*
X011267Y006298D02*
X011869Y006298D01*
X011778Y006290D01*
X011267Y005298D02*
X010704Y005298D01*
X010597Y005405D01*
X011483Y003933D02*
X011680Y003830D01*
X012074Y004223D01*
X012074Y008751D01*
X011680Y009145D01*
X010204Y012393D02*
X010558Y012747D01*
X011089Y012747D01*
X011089Y013239D02*
X010460Y013239D01*
X009908Y012688D01*
X011089Y013239D02*
X011621Y013239D01*
X007152Y007570D02*
X005578Y009145D01*
X005578Y010129D01*
X005735Y010286D01*
X006345Y010286D01*
X006345Y009794D02*
X006345Y009519D01*
X006168Y009342D01*
X006562Y009046D02*
X006680Y008928D01*
X006995Y008928D01*
X005538Y007905D02*
X005538Y007412D01*
X005578Y007373D01*
D28*
X003215Y005739D02*
X002763Y005739D01*
X002625Y005601D01*
X002625Y004027D01*
X002719Y003933D01*
X003215Y003933D01*
X003215Y003333D02*
X003408Y003333D01*
X004003Y003928D01*
X004003Y003968D01*
X004003Y003298D02*
X004515Y003298D01*
X004593Y003220D01*
X010105Y003220D02*
X010184Y003298D01*
X010696Y003298D01*
X011291Y003333D02*
X010696Y003928D01*
X010696Y003968D01*
X011291Y003333D02*
X011483Y003333D01*
M02*
