G75*
G70*
%OFA0B0*%
%FSLAX24Y24*%
%IPPOS*%
%LPD*%
%AMOC8*
5,1,8,0,0,1.08239X$1,22.5*
%
%ADD10C,0.0040*%
%ADD11C,0.0000*%
%ADD12C,0.0050*%
%ADD13C,0.0030*%
%ADD14C,0.0060*%
%ADD15R,0.0079X0.0079*%
%ADD16C,0.0020*%
D10*
X002524Y003009D02*
X002524Y003109D01*
X002558Y003142D01*
X002625Y003142D01*
X002658Y003109D01*
X002658Y003009D01*
X002725Y003009D02*
X002524Y003009D01*
X002524Y003230D02*
X002725Y003230D01*
X002658Y003297D01*
X002725Y003363D01*
X002524Y003363D01*
X002524Y003451D02*
X002524Y003551D01*
X002558Y003584D01*
X002625Y003584D01*
X002658Y003551D01*
X002658Y003451D01*
X002658Y003518D02*
X002725Y003584D01*
X002725Y003451D02*
X002524Y003451D01*
X002524Y003893D02*
X002725Y003893D01*
X002725Y004026D01*
X002725Y004114D02*
X002524Y004114D01*
X002524Y004247D01*
X002524Y004335D02*
X002524Y004435D01*
X002558Y004468D01*
X002691Y004468D01*
X002725Y004435D01*
X002725Y004335D01*
X002524Y004335D01*
X002625Y004180D02*
X002625Y004114D01*
X002725Y004114D02*
X002725Y004247D01*
X005835Y002839D02*
X005835Y001841D01*
X006184Y001736D02*
X006266Y001736D01*
X006368Y000796D01*
X006573Y000796D01*
X006675Y001736D01*
X006757Y001736D01*
X006654Y000653D01*
X006655Y000653D02*
X006651Y000634D01*
X006645Y000615D01*
X006635Y000598D01*
X006623Y000582D01*
X006608Y000569D01*
X006591Y000558D01*
X006573Y000551D01*
X006348Y000551D02*
X006330Y000558D01*
X006313Y000569D01*
X006298Y000582D01*
X006286Y000598D01*
X006276Y000615D01*
X006270Y000634D01*
X006266Y000653D01*
X006184Y001736D01*
X006348Y000552D02*
X006385Y000543D01*
X006422Y000537D01*
X006460Y000535D01*
X006498Y000537D01*
X006535Y000543D01*
X006572Y000552D01*
X006859Y000653D02*
X006941Y002247D01*
X006940Y002248D02*
X006943Y002266D01*
X006950Y002283D01*
X006959Y002298D01*
X006972Y002311D01*
X006987Y002320D01*
X007004Y002327D01*
X007022Y002330D01*
X007022Y002329D02*
X007676Y002329D01*
X007677Y002330D02*
X007695Y002327D01*
X007712Y002320D01*
X007727Y002311D01*
X007740Y002298D01*
X007749Y002283D01*
X007756Y002266D01*
X007759Y002248D01*
X007758Y002247D02*
X007840Y000653D01*
X007838Y000637D01*
X007834Y000622D01*
X007826Y000607D01*
X007816Y000595D01*
X007804Y000585D01*
X007789Y000577D01*
X007774Y000573D01*
X007758Y000571D01*
X007742Y000573D01*
X007727Y000577D01*
X007712Y000585D01*
X007700Y000595D01*
X007690Y000607D01*
X007682Y000622D01*
X007678Y000637D01*
X007676Y000653D01*
X007595Y002002D01*
X007104Y002002D01*
X007022Y000653D01*
X007023Y000653D02*
X007021Y000637D01*
X007017Y000622D01*
X007009Y000607D01*
X006999Y000595D01*
X006987Y000585D01*
X006972Y000577D01*
X006957Y000573D01*
X006941Y000571D01*
X006941Y000571D01*
X006925Y000573D01*
X006910Y000577D01*
X006895Y000585D01*
X006883Y000595D01*
X006873Y000607D01*
X006865Y000622D01*
X006861Y000637D01*
X006859Y000653D01*
X005837Y000714D02*
X005837Y000122D01*
X008862Y000122D01*
X008862Y000122D01*
X008862Y000714D01*
X008432Y000653D02*
X008514Y001736D01*
X008432Y001736D01*
X008330Y000796D01*
X008126Y000796D01*
X008024Y001736D01*
X007942Y001736D01*
X008044Y000653D01*
X008048Y000634D01*
X008054Y000615D01*
X008064Y000598D01*
X008076Y000582D01*
X008091Y000569D01*
X008108Y000558D01*
X008126Y000551D01*
X008351Y000551D02*
X008369Y000558D01*
X008386Y000569D01*
X008401Y000582D01*
X008413Y000598D01*
X008423Y000615D01*
X008429Y000634D01*
X008433Y000653D01*
X008350Y000552D02*
X008313Y000543D01*
X008276Y000537D01*
X008238Y000535D01*
X008200Y000537D01*
X008163Y000543D01*
X008126Y000552D01*
X008864Y000120D02*
X005835Y000120D01*
X006041Y003164D02*
X006326Y003164D01*
X006326Y003609D01*
X006041Y003609D01*
X008412Y003616D02*
X008412Y003164D01*
X008658Y003164D01*
X008864Y002879D02*
X008864Y001821D01*
X008661Y003616D02*
X008412Y003616D01*
X011973Y003488D02*
X012007Y003521D01*
X012073Y003521D01*
X012107Y003488D01*
X012107Y003388D01*
X012173Y003388D02*
X011973Y003388D01*
X011973Y003488D01*
X012107Y003455D02*
X012173Y003521D01*
X012140Y003300D02*
X012107Y003300D01*
X012073Y003267D01*
X012073Y003200D01*
X012040Y003167D01*
X012007Y003167D01*
X011973Y003200D01*
X011973Y003267D01*
X012007Y003300D01*
X012140Y003300D02*
X012173Y003267D01*
X012173Y003200D01*
X012140Y003167D01*
X012140Y003079D02*
X011973Y003079D01*
X011973Y002946D02*
X012140Y002946D01*
X012173Y002979D01*
X012173Y003046D01*
X012140Y003079D01*
X012173Y003830D02*
X011973Y003830D01*
X012173Y003830D02*
X012173Y003963D01*
X012173Y004051D02*
X012173Y004184D01*
X012173Y004272D02*
X012173Y004372D01*
X012140Y004405D01*
X012007Y004405D01*
X011973Y004372D01*
X011973Y004272D01*
X012173Y004272D01*
X012073Y004117D02*
X012073Y004051D01*
X011973Y004051D02*
X012173Y004051D01*
X011973Y004051D02*
X011973Y004184D01*
X011973Y007308D02*
X011973Y007408D01*
X012007Y007441D01*
X012073Y007441D01*
X012107Y007408D01*
X012107Y007308D01*
X012173Y007308D02*
X011973Y007308D01*
X011973Y007529D02*
X011973Y007629D01*
X012007Y007662D01*
X012073Y007662D01*
X012107Y007629D01*
X012107Y007529D01*
X012173Y007529D02*
X011973Y007529D01*
X012107Y007596D02*
X012173Y007662D01*
X012140Y007750D02*
X012007Y007750D01*
X011973Y007783D01*
X011973Y007850D01*
X012007Y007883D01*
X012073Y007883D02*
X012073Y007817D01*
X012073Y007883D02*
X012140Y007883D01*
X012173Y007850D01*
X012173Y007783D01*
X012140Y007750D01*
X012107Y008192D02*
X011973Y008192D01*
X011973Y008325D02*
X012107Y008325D01*
X012173Y008259D01*
X012107Y008192D01*
X012173Y008413D02*
X011973Y008413D01*
X011973Y008513D01*
X012007Y008546D01*
X012140Y008546D01*
X012173Y008513D01*
X012173Y008413D01*
X012173Y008634D02*
X012173Y008734D01*
X012140Y008767D01*
X012007Y008767D01*
X011973Y008734D01*
X011973Y008634D01*
X012173Y008634D01*
X005558Y008903D02*
X005558Y008970D01*
X005524Y009003D01*
X005524Y009090D02*
X005558Y009124D01*
X005558Y009191D01*
X005524Y009224D01*
X005358Y009224D01*
X005358Y009311D02*
X005358Y009412D01*
X005391Y009445D01*
X005458Y009445D01*
X005491Y009412D01*
X005491Y009311D01*
X005558Y009311D02*
X005358Y009311D01*
X005491Y009378D02*
X005558Y009445D01*
X005524Y009090D02*
X005358Y009090D01*
X005391Y009003D02*
X005358Y008970D01*
X005358Y008903D01*
X005391Y008869D01*
X005524Y008869D01*
X005558Y008903D01*
X004540Y010346D02*
X004407Y010346D01*
X004373Y010379D01*
X004373Y010446D01*
X004407Y010479D01*
X004473Y010479D02*
X004473Y010413D01*
X004473Y010479D02*
X004540Y010479D01*
X004573Y010446D01*
X004573Y010379D01*
X004540Y010346D01*
X004573Y010567D02*
X004373Y010567D01*
X004573Y010700D01*
X004373Y010700D01*
X004373Y010788D02*
X004373Y010888D01*
X004407Y010921D01*
X004540Y010921D01*
X004573Y010888D01*
X004573Y010788D01*
X004373Y010788D01*
X004373Y011451D02*
X004373Y011584D01*
X004373Y011517D02*
X004573Y011517D01*
X004573Y011672D02*
X004373Y011805D01*
X004373Y011672D02*
X004573Y011805D01*
X004573Y012556D02*
X004373Y012556D01*
X004373Y012656D01*
X004407Y012689D01*
X004473Y012689D01*
X004507Y012656D01*
X004507Y012556D01*
X004507Y012622D02*
X004573Y012689D01*
X004573Y012777D02*
X004373Y012910D01*
X004373Y012777D02*
X004573Y012910D01*
X003589Y012910D02*
X003389Y012777D01*
X003389Y012689D02*
X003389Y012556D01*
X003389Y012622D02*
X003589Y012622D01*
X003589Y012777D02*
X003389Y012910D01*
X003389Y011805D02*
X003589Y011672D01*
X003589Y011584D02*
X003522Y011517D01*
X003522Y011551D02*
X003522Y011451D01*
X003589Y011451D02*
X003389Y011451D01*
X003389Y011551D01*
X003422Y011584D01*
X003489Y011584D01*
X003522Y011551D01*
X003389Y011672D02*
X003589Y011805D01*
X003556Y010921D02*
X003422Y010921D01*
X003389Y010888D01*
X003389Y010788D01*
X003589Y010788D01*
X003589Y010888D01*
X003556Y010921D01*
X003589Y010700D02*
X003389Y010700D01*
X003389Y010567D02*
X003589Y010700D01*
X003589Y010567D02*
X003389Y010567D01*
X003422Y010479D02*
X003389Y010446D01*
X003389Y010379D01*
X003422Y010346D01*
X003556Y010346D01*
X003589Y010379D01*
X003589Y010446D01*
X003556Y010479D01*
X003489Y010479D01*
X003489Y010413D01*
D11*
X002428Y014853D02*
X002428Y001468D01*
X002979Y001468D02*
X002981Y001518D01*
X002987Y001568D01*
X002997Y001617D01*
X003011Y001665D01*
X003028Y001712D01*
X003049Y001757D01*
X003074Y001801D01*
X003102Y001842D01*
X003134Y001881D01*
X003168Y001918D01*
X003205Y001952D01*
X003245Y001982D01*
X003287Y002009D01*
X003331Y002033D01*
X003377Y002054D01*
X003424Y002070D01*
X003472Y002083D01*
X003522Y002092D01*
X003571Y002097D01*
X003622Y002098D01*
X003672Y002095D01*
X003721Y002088D01*
X003770Y002077D01*
X003818Y002062D01*
X003864Y002044D01*
X003909Y002022D01*
X003952Y001996D01*
X003993Y001967D01*
X004032Y001935D01*
X004068Y001900D01*
X004100Y001862D01*
X004130Y001822D01*
X004157Y001779D01*
X004180Y001735D01*
X004199Y001689D01*
X004215Y001641D01*
X004227Y001592D01*
X004235Y001543D01*
X004239Y001493D01*
X004239Y001443D01*
X004235Y001393D01*
X004227Y001344D01*
X004215Y001295D01*
X004199Y001247D01*
X004180Y001201D01*
X004157Y001157D01*
X004130Y001114D01*
X004100Y001074D01*
X004068Y001036D01*
X004032Y001001D01*
X003993Y000969D01*
X003952Y000940D01*
X003909Y000914D01*
X003864Y000892D01*
X003818Y000874D01*
X003770Y000859D01*
X003721Y000848D01*
X003672Y000841D01*
X003622Y000838D01*
X003571Y000839D01*
X003522Y000844D01*
X003472Y000853D01*
X003424Y000866D01*
X003377Y000882D01*
X003331Y000903D01*
X003287Y000927D01*
X003245Y000954D01*
X003205Y000984D01*
X003168Y001018D01*
X003134Y001055D01*
X003102Y001094D01*
X003074Y001135D01*
X003049Y001179D01*
X003028Y001224D01*
X003011Y001271D01*
X002997Y001319D01*
X002987Y001368D01*
X002981Y001418D01*
X002979Y001468D01*
X002428Y001468D02*
X002430Y001402D01*
X002435Y001336D01*
X002445Y001270D01*
X002458Y001205D01*
X002474Y001141D01*
X002494Y001078D01*
X002518Y001016D01*
X002545Y000956D01*
X002575Y000897D01*
X002609Y000840D01*
X002646Y000785D01*
X002686Y000732D01*
X002728Y000681D01*
X002774Y000633D01*
X002822Y000587D01*
X002873Y000545D01*
X002926Y000505D01*
X002981Y000468D01*
X003038Y000434D01*
X003097Y000404D01*
X003157Y000377D01*
X003219Y000353D01*
X003282Y000333D01*
X003346Y000317D01*
X003411Y000304D01*
X003477Y000294D01*
X003543Y000289D01*
X003609Y000287D01*
X003609Y000286D02*
X011089Y000286D01*
X010459Y001468D02*
X010461Y001518D01*
X010467Y001568D01*
X010477Y001617D01*
X010491Y001665D01*
X010508Y001712D01*
X010529Y001757D01*
X010554Y001801D01*
X010582Y001842D01*
X010614Y001881D01*
X010648Y001918D01*
X010685Y001952D01*
X010725Y001982D01*
X010767Y002009D01*
X010811Y002033D01*
X010857Y002054D01*
X010904Y002070D01*
X010952Y002083D01*
X011002Y002092D01*
X011051Y002097D01*
X011102Y002098D01*
X011152Y002095D01*
X011201Y002088D01*
X011250Y002077D01*
X011298Y002062D01*
X011344Y002044D01*
X011389Y002022D01*
X011432Y001996D01*
X011473Y001967D01*
X011512Y001935D01*
X011548Y001900D01*
X011580Y001862D01*
X011610Y001822D01*
X011637Y001779D01*
X011660Y001735D01*
X011679Y001689D01*
X011695Y001641D01*
X011707Y001592D01*
X011715Y001543D01*
X011719Y001493D01*
X011719Y001443D01*
X011715Y001393D01*
X011707Y001344D01*
X011695Y001295D01*
X011679Y001247D01*
X011660Y001201D01*
X011637Y001157D01*
X011610Y001114D01*
X011580Y001074D01*
X011548Y001036D01*
X011512Y001001D01*
X011473Y000969D01*
X011432Y000940D01*
X011389Y000914D01*
X011344Y000892D01*
X011298Y000874D01*
X011250Y000859D01*
X011201Y000848D01*
X011152Y000841D01*
X011102Y000838D01*
X011051Y000839D01*
X011002Y000844D01*
X010952Y000853D01*
X010904Y000866D01*
X010857Y000882D01*
X010811Y000903D01*
X010767Y000927D01*
X010725Y000954D01*
X010685Y000984D01*
X010648Y001018D01*
X010614Y001055D01*
X010582Y001094D01*
X010554Y001135D01*
X010529Y001179D01*
X010508Y001224D01*
X010491Y001271D01*
X010477Y001319D01*
X010467Y001368D01*
X010461Y001418D01*
X010459Y001468D01*
X011089Y000287D02*
X011155Y000289D01*
X011221Y000294D01*
X011287Y000304D01*
X011352Y000317D01*
X011416Y000333D01*
X011479Y000353D01*
X011541Y000377D01*
X011601Y000404D01*
X011660Y000434D01*
X011717Y000468D01*
X011772Y000505D01*
X011825Y000545D01*
X011876Y000587D01*
X011924Y000633D01*
X011970Y000681D01*
X012012Y000732D01*
X012052Y000785D01*
X012089Y000840D01*
X012123Y000897D01*
X012153Y000956D01*
X012180Y001016D01*
X012204Y001078D01*
X012224Y001141D01*
X012240Y001205D01*
X012253Y001270D01*
X012263Y001336D01*
X012268Y001402D01*
X012270Y001468D01*
X012271Y001468D02*
X012271Y014853D01*
X012270Y014853D02*
X012268Y014919D01*
X012263Y014985D01*
X012253Y015051D01*
X012240Y015116D01*
X012224Y015180D01*
X012204Y015243D01*
X012180Y015305D01*
X012153Y015365D01*
X012123Y015424D01*
X012089Y015481D01*
X012052Y015536D01*
X012012Y015589D01*
X011970Y015640D01*
X011924Y015688D01*
X011876Y015734D01*
X011825Y015776D01*
X011772Y015816D01*
X011717Y015853D01*
X011660Y015887D01*
X011601Y015917D01*
X011541Y015944D01*
X011479Y015968D01*
X011416Y015988D01*
X011352Y016004D01*
X011287Y016017D01*
X011221Y016027D01*
X011155Y016032D01*
X011089Y016034D01*
X003609Y016034D01*
X002979Y014853D02*
X002981Y014903D01*
X002987Y014953D01*
X002997Y015002D01*
X003011Y015050D01*
X003028Y015097D01*
X003049Y015142D01*
X003074Y015186D01*
X003102Y015227D01*
X003134Y015266D01*
X003168Y015303D01*
X003205Y015337D01*
X003245Y015367D01*
X003287Y015394D01*
X003331Y015418D01*
X003377Y015439D01*
X003424Y015455D01*
X003472Y015468D01*
X003522Y015477D01*
X003571Y015482D01*
X003622Y015483D01*
X003672Y015480D01*
X003721Y015473D01*
X003770Y015462D01*
X003818Y015447D01*
X003864Y015429D01*
X003909Y015407D01*
X003952Y015381D01*
X003993Y015352D01*
X004032Y015320D01*
X004068Y015285D01*
X004100Y015247D01*
X004130Y015207D01*
X004157Y015164D01*
X004180Y015120D01*
X004199Y015074D01*
X004215Y015026D01*
X004227Y014977D01*
X004235Y014928D01*
X004239Y014878D01*
X004239Y014828D01*
X004235Y014778D01*
X004227Y014729D01*
X004215Y014680D01*
X004199Y014632D01*
X004180Y014586D01*
X004157Y014542D01*
X004130Y014499D01*
X004100Y014459D01*
X004068Y014421D01*
X004032Y014386D01*
X003993Y014354D01*
X003952Y014325D01*
X003909Y014299D01*
X003864Y014277D01*
X003818Y014259D01*
X003770Y014244D01*
X003721Y014233D01*
X003672Y014226D01*
X003622Y014223D01*
X003571Y014224D01*
X003522Y014229D01*
X003472Y014238D01*
X003424Y014251D01*
X003377Y014267D01*
X003331Y014288D01*
X003287Y014312D01*
X003245Y014339D01*
X003205Y014369D01*
X003168Y014403D01*
X003134Y014440D01*
X003102Y014479D01*
X003074Y014520D01*
X003049Y014564D01*
X003028Y014609D01*
X003011Y014656D01*
X002997Y014704D01*
X002987Y014753D01*
X002981Y014803D01*
X002979Y014853D01*
X002428Y014853D02*
X002430Y014919D01*
X002435Y014985D01*
X002445Y015051D01*
X002458Y015116D01*
X002474Y015180D01*
X002494Y015243D01*
X002518Y015305D01*
X002545Y015365D01*
X002575Y015424D01*
X002609Y015481D01*
X002646Y015536D01*
X002686Y015589D01*
X002728Y015640D01*
X002774Y015688D01*
X002822Y015734D01*
X002873Y015776D01*
X002926Y015816D01*
X002981Y015853D01*
X003038Y015887D01*
X003097Y015917D01*
X003157Y015944D01*
X003219Y015968D01*
X003282Y015988D01*
X003346Y016004D01*
X003411Y016017D01*
X003477Y016027D01*
X003543Y016032D01*
X003609Y016034D01*
X006306Y002452D02*
X006308Y002478D01*
X006314Y002504D01*
X006324Y002529D01*
X006337Y002552D01*
X006353Y002572D01*
X006373Y002590D01*
X006395Y002605D01*
X006418Y002617D01*
X006444Y002625D01*
X006470Y002629D01*
X006496Y002629D01*
X006522Y002625D01*
X006548Y002617D01*
X006572Y002605D01*
X006593Y002590D01*
X006613Y002572D01*
X006629Y002552D01*
X006642Y002529D01*
X006652Y002504D01*
X006658Y002478D01*
X006660Y002452D01*
X006658Y002426D01*
X006652Y002400D01*
X006642Y002375D01*
X006629Y002352D01*
X006613Y002332D01*
X006593Y002314D01*
X006571Y002299D01*
X006548Y002287D01*
X006522Y002279D01*
X006496Y002275D01*
X006470Y002275D01*
X006444Y002279D01*
X006418Y002287D01*
X006394Y002299D01*
X006373Y002314D01*
X006353Y002332D01*
X006337Y002352D01*
X006324Y002375D01*
X006314Y002400D01*
X006308Y002426D01*
X006306Y002452D01*
X008038Y002452D02*
X008040Y002478D01*
X008046Y002504D01*
X008056Y002529D01*
X008069Y002552D01*
X008085Y002572D01*
X008105Y002590D01*
X008127Y002605D01*
X008150Y002617D01*
X008176Y002625D01*
X008202Y002629D01*
X008228Y002629D01*
X008254Y002625D01*
X008280Y002617D01*
X008304Y002605D01*
X008325Y002590D01*
X008345Y002572D01*
X008361Y002552D01*
X008374Y002529D01*
X008384Y002504D01*
X008390Y002478D01*
X008392Y002452D01*
X008390Y002426D01*
X008384Y002400D01*
X008374Y002375D01*
X008361Y002352D01*
X008345Y002332D01*
X008325Y002314D01*
X008303Y002299D01*
X008280Y002287D01*
X008254Y002279D01*
X008228Y002275D01*
X008202Y002275D01*
X008176Y002279D01*
X008150Y002287D01*
X008126Y002299D01*
X008105Y002314D01*
X008085Y002332D01*
X008069Y002352D01*
X008056Y002375D01*
X008046Y002400D01*
X008040Y002426D01*
X008038Y002452D01*
D12*
X007349Y006153D02*
X006168Y006153D01*
X005971Y006349D01*
X005735Y006743D02*
X005735Y007609D01*
X005971Y008003D02*
X006168Y008200D01*
X007349Y008200D01*
X007546Y008003D01*
X007782Y007609D02*
X007782Y006743D01*
X007546Y006349D02*
X007349Y006153D01*
X006345Y008928D02*
X011089Y008928D01*
X011089Y016054D01*
X006345Y016054D01*
X006345Y008928D01*
X003708Y008751D02*
X003708Y008160D01*
X003314Y006783D02*
X002920Y006783D01*
X002527Y007176D02*
X002527Y009145D01*
X002920Y009538D02*
X003314Y009538D01*
D13*
X005240Y008618D02*
X005240Y008328D01*
X005240Y008425D02*
X005385Y008425D01*
X005434Y008473D01*
X005434Y008570D01*
X005385Y008618D01*
X005240Y008618D01*
X005337Y008425D02*
X005434Y008328D01*
X005535Y008376D02*
X005583Y008328D01*
X005680Y008328D01*
X005728Y008376D01*
X005728Y008425D01*
X005680Y008473D01*
X005583Y008473D01*
X005535Y008521D01*
X005535Y008570D01*
X005583Y008618D01*
X005680Y008618D01*
X005728Y008570D01*
X005830Y008618D02*
X006023Y008618D01*
X005926Y008618D02*
X005926Y008328D01*
X007030Y009652D02*
X007223Y009652D01*
X007126Y009652D02*
X007126Y009942D01*
X007030Y009845D01*
X007324Y009894D02*
X007373Y009942D01*
X007469Y009942D01*
X007518Y009894D01*
X007518Y009845D01*
X007469Y009797D01*
X007518Y009749D01*
X007518Y009700D01*
X007469Y009652D01*
X007373Y009652D01*
X007324Y009700D01*
X007421Y009797D02*
X007469Y009797D01*
X009042Y008093D02*
X008994Y008044D01*
X008994Y007851D01*
X009042Y007802D01*
X009139Y007802D01*
X009187Y007851D01*
X009288Y007851D02*
X009288Y007947D01*
X009433Y007947D01*
X009482Y007899D01*
X009482Y007851D01*
X009433Y007802D01*
X009337Y007802D01*
X009288Y007851D01*
X009288Y007947D02*
X009385Y008044D01*
X009482Y008093D01*
X009187Y008044D02*
X009139Y008093D01*
X009042Y008093D01*
X009414Y007407D02*
X009511Y007407D01*
X009462Y007407D02*
X009462Y007165D01*
X009414Y007116D01*
X009365Y007116D01*
X009317Y007165D01*
X009612Y007213D02*
X009757Y007213D01*
X009805Y007262D01*
X009805Y007358D01*
X009757Y007407D01*
X009612Y007407D01*
X009612Y007116D01*
X009906Y007165D02*
X009955Y007116D01*
X010052Y007116D01*
X010100Y007165D01*
X010100Y007213D01*
X010052Y007262D01*
X010003Y007262D01*
X010052Y007262D02*
X010100Y007310D01*
X010100Y007358D01*
X010052Y007407D01*
X009955Y007407D01*
X009906Y007358D01*
X009923Y009652D02*
X010117Y009845D01*
X010117Y009894D01*
X010069Y009942D01*
X009972Y009942D01*
X009923Y009894D01*
X009923Y009652D02*
X010117Y009652D01*
X010218Y009652D02*
X010412Y009845D01*
X010412Y009894D01*
X010363Y009942D01*
X010266Y009942D01*
X010218Y009894D01*
X010218Y009652D02*
X010412Y009652D01*
X010363Y013589D02*
X010266Y013589D01*
X010218Y013637D01*
X010412Y013831D01*
X010412Y013637D01*
X010363Y013589D01*
X010218Y013637D02*
X010218Y013831D01*
X010266Y013879D01*
X010363Y013879D01*
X010412Y013831D01*
X010117Y013831D02*
X010117Y013782D01*
X010069Y013734D01*
X010117Y013686D01*
X010117Y013637D01*
X010069Y013589D01*
X009972Y013589D01*
X009923Y013637D01*
X010020Y013734D02*
X010069Y013734D01*
X010117Y013831D02*
X010069Y013879D01*
X009972Y013879D01*
X009923Y013831D01*
X007223Y015577D02*
X007030Y015577D01*
X007126Y015577D02*
X007126Y015867D01*
X007030Y015771D01*
X005542Y014575D02*
X005252Y014575D01*
X005397Y014430D01*
X005397Y014624D01*
X005300Y014329D02*
X005252Y014281D01*
X005252Y014184D01*
X005300Y014135D01*
X005494Y014135D01*
X005542Y014184D01*
X005542Y014281D01*
X005494Y014329D01*
X005494Y010785D02*
X005542Y010737D01*
X005542Y010640D01*
X005494Y010591D01*
X005397Y010591D02*
X005349Y010688D01*
X005349Y010737D01*
X005397Y010785D01*
X005494Y010785D01*
X005252Y010785D02*
X005252Y010591D01*
X005397Y010591D01*
X005300Y010490D02*
X005252Y010442D01*
X005252Y010345D01*
X005300Y010297D01*
X005494Y010297D01*
X005542Y010345D01*
X005542Y010442D01*
X005494Y010490D01*
X004321Y006732D02*
X004321Y006539D01*
X004321Y006635D02*
X004030Y006635D01*
X004127Y006539D01*
X004079Y006437D02*
X004030Y006389D01*
X004030Y006292D01*
X004079Y006244D01*
X004272Y006244D01*
X004321Y006292D01*
X004321Y006389D01*
X004272Y006437D01*
X004321Y006144D02*
X004321Y006048D01*
X004321Y006096D02*
X004030Y006096D01*
X004030Y006048D02*
X004030Y006144D01*
X003344Y006104D02*
X003296Y006055D01*
X003102Y006055D01*
X003054Y006104D01*
X003054Y006201D01*
X003102Y006249D01*
X003102Y006350D02*
X003054Y006398D01*
X003054Y006495D01*
X003102Y006544D01*
X003151Y006544D01*
X003199Y006495D01*
X003247Y006544D01*
X003296Y006544D01*
X003344Y006495D01*
X003344Y006398D01*
X003296Y006350D01*
X003296Y006249D02*
X003344Y006201D01*
X003344Y006104D01*
X003199Y006447D02*
X003199Y006495D01*
X005055Y004733D02*
X005055Y004636D01*
X005103Y004588D01*
X005103Y004486D02*
X005055Y004438D01*
X005055Y004341D01*
X005103Y004293D01*
X005297Y004293D01*
X005345Y004341D01*
X005345Y004438D01*
X005297Y004486D01*
X005345Y004588D02*
X005152Y004781D01*
X005103Y004781D01*
X005055Y004733D01*
X005345Y004781D02*
X005345Y004588D01*
X005646Y004684D02*
X005936Y004684D01*
X005936Y004588D02*
X005936Y004781D01*
X005742Y004588D02*
X005646Y004684D01*
X005694Y004486D02*
X005646Y004438D01*
X005646Y004341D01*
X005694Y004293D01*
X005887Y004293D01*
X005936Y004341D01*
X005936Y004438D01*
X005887Y004486D01*
X006236Y004438D02*
X006236Y004293D01*
X006526Y004293D01*
X006526Y004438D01*
X006478Y004486D01*
X006430Y004486D01*
X006381Y004438D01*
X006381Y004293D01*
X006381Y004438D02*
X006333Y004486D01*
X006285Y004486D01*
X006236Y004438D01*
X006333Y004588D02*
X006236Y004684D01*
X006526Y004684D01*
X006526Y004588D02*
X006526Y004781D01*
X006236Y004192D02*
X006236Y003998D01*
X006526Y003998D01*
X006381Y003998D02*
X006381Y004095D01*
X007220Y004293D02*
X007220Y004438D01*
X007269Y004486D01*
X007366Y004486D01*
X007414Y004438D01*
X007414Y004293D01*
X007414Y004390D02*
X007511Y004486D01*
X007511Y004588D02*
X007511Y004781D01*
X007511Y004684D02*
X007220Y004684D01*
X007317Y004588D01*
X007220Y004293D02*
X007511Y004293D01*
X007811Y004293D02*
X007811Y004438D01*
X007859Y004486D01*
X007956Y004486D01*
X008004Y004438D01*
X008004Y004293D01*
X008004Y004390D02*
X008101Y004486D01*
X008101Y004588D02*
X007908Y004781D01*
X007859Y004781D01*
X007811Y004733D01*
X007811Y004636D01*
X007859Y004588D01*
X008101Y004588D02*
X008101Y004781D01*
X008401Y004781D02*
X008401Y004588D01*
X008547Y004588D01*
X008498Y004684D01*
X008498Y004733D01*
X008547Y004781D01*
X008643Y004781D01*
X008692Y004733D01*
X008692Y004636D01*
X008643Y004588D01*
X008692Y004486D02*
X008595Y004390D01*
X008595Y004438D02*
X008595Y004293D01*
X008692Y004293D02*
X008401Y004293D01*
X008401Y004438D01*
X008450Y004486D01*
X008547Y004486D01*
X008595Y004438D01*
X008101Y004293D02*
X007811Y004293D01*
X009928Y002766D02*
X009928Y002621D01*
X010218Y002621D01*
X010121Y002621D02*
X010121Y002766D01*
X010073Y002814D01*
X009976Y002814D01*
X009928Y002766D01*
X010121Y002717D02*
X010218Y002814D01*
X010170Y002519D02*
X010218Y002471D01*
X010218Y002374D01*
X010170Y002326D01*
X010170Y002225D02*
X009928Y002225D01*
X009976Y002326D02*
X010025Y002326D01*
X010073Y002374D01*
X010073Y002471D01*
X010121Y002519D01*
X010170Y002519D01*
X010170Y002225D02*
X010218Y002176D01*
X010218Y002080D01*
X010170Y002031D01*
X009928Y002031D01*
X009976Y002326D02*
X009928Y002374D01*
X009928Y002471D01*
X009976Y002519D01*
X010567Y002521D02*
X010567Y002666D01*
X010615Y002715D01*
X010712Y002715D01*
X010760Y002666D01*
X010760Y002521D01*
X010760Y002618D02*
X010857Y002715D01*
X010712Y002816D02*
X010712Y003009D01*
X010857Y002961D02*
X010567Y002961D01*
X010712Y002816D01*
X010857Y002521D02*
X010567Y002521D01*
X004805Y002568D02*
X004514Y002568D01*
X004514Y002669D02*
X004514Y002814D01*
X004563Y002863D01*
X004660Y002863D01*
X004708Y002814D01*
X004708Y002669D01*
X004805Y002669D02*
X004514Y002669D01*
X004708Y002766D02*
X004805Y002863D01*
X004805Y002568D02*
X004708Y002471D01*
X004805Y002374D01*
X004514Y002374D01*
X004563Y002273D02*
X004660Y002273D01*
X004708Y002225D01*
X004708Y002080D01*
X004805Y002080D02*
X004514Y002080D01*
X004514Y002225D01*
X004563Y002273D01*
X004164Y002521D02*
X003874Y002521D01*
X003874Y002666D01*
X003922Y002715D01*
X004019Y002715D01*
X004067Y002666D01*
X004067Y002521D01*
X004067Y002618D02*
X004164Y002715D01*
X004116Y002816D02*
X004164Y002864D01*
X004164Y002961D01*
X004116Y003009D01*
X004067Y003009D01*
X004019Y002961D01*
X004019Y002913D01*
X004019Y002961D02*
X003971Y003009D01*
X003922Y003009D01*
X003874Y002961D01*
X003874Y002864D01*
X003922Y002816D01*
D14*
X003615Y003083D02*
X003615Y004183D01*
X003613Y004200D01*
X003609Y004217D01*
X003602Y004233D01*
X003592Y004247D01*
X003579Y004260D01*
X003565Y004270D01*
X003549Y004277D01*
X003532Y004281D01*
X003515Y004283D01*
X002915Y004283D01*
X002898Y004281D01*
X002881Y004277D01*
X002865Y004270D01*
X002851Y004260D01*
X002838Y004247D01*
X002828Y004233D01*
X002821Y004217D01*
X002817Y004200D01*
X002815Y004183D01*
X002815Y003083D01*
X002817Y003066D01*
X002821Y003049D01*
X002828Y003033D01*
X002838Y003019D01*
X002851Y003006D01*
X002865Y002996D01*
X002881Y002989D01*
X002898Y002985D01*
X002915Y002983D01*
X003515Y002983D01*
X003532Y002985D01*
X003549Y002989D01*
X003565Y002996D01*
X003579Y003006D01*
X003592Y003019D01*
X003602Y003033D01*
X003609Y003049D01*
X003613Y003066D01*
X003615Y003083D01*
X003677Y005086D02*
X003640Y005086D01*
X003640Y005724D01*
X003677Y005724D01*
X003994Y005724D02*
X004405Y005724D01*
X004722Y005724D02*
X004760Y005724D01*
X004760Y005086D01*
X004722Y005086D01*
X004405Y005086D02*
X004368Y005086D01*
X004031Y005086D02*
X003994Y005086D01*
X004490Y008790D02*
X005090Y008790D01*
X005107Y008792D01*
X005124Y008796D01*
X005140Y008803D01*
X005154Y008813D01*
X005167Y008826D01*
X005177Y008840D01*
X005184Y008856D01*
X005188Y008873D01*
X005190Y008890D01*
X005190Y009990D01*
X005188Y010007D01*
X005184Y010024D01*
X005177Y010040D01*
X005167Y010054D01*
X005154Y010067D01*
X005140Y010077D01*
X005124Y010084D01*
X005107Y010088D01*
X005090Y010090D01*
X004490Y010090D01*
X004473Y010088D01*
X004456Y010084D01*
X004440Y010077D01*
X004426Y010067D01*
X004413Y010054D01*
X004403Y010040D01*
X004396Y010024D01*
X004392Y010007D01*
X004390Y009990D01*
X004390Y008890D01*
X004392Y008873D01*
X004396Y008856D01*
X004403Y008840D01*
X004413Y008826D01*
X004426Y008813D01*
X004440Y008803D01*
X004456Y008796D01*
X004473Y008792D01*
X004490Y008790D01*
X003997Y013452D02*
X003823Y013452D01*
X003780Y013495D01*
X003780Y013582D01*
X003823Y013625D01*
X003997Y013452D01*
X004040Y013495D01*
X004040Y013582D01*
X003997Y013625D01*
X003823Y013625D01*
X003056Y013625D02*
X003056Y013452D01*
X003056Y013539D02*
X002796Y013539D01*
X002883Y013452D01*
X011083Y008514D02*
X011083Y007414D01*
X011085Y007397D01*
X011089Y007380D01*
X011096Y007364D01*
X011106Y007350D01*
X011119Y007337D01*
X011133Y007327D01*
X011149Y007320D01*
X011166Y007316D01*
X011183Y007314D01*
X011783Y007314D01*
X011800Y007316D01*
X011817Y007320D01*
X011833Y007327D01*
X011847Y007337D01*
X011860Y007350D01*
X011870Y007364D01*
X011877Y007380D01*
X011881Y007397D01*
X011883Y007414D01*
X011883Y008514D01*
X011881Y008531D01*
X011877Y008548D01*
X011870Y008564D01*
X011860Y008578D01*
X011847Y008591D01*
X011833Y008601D01*
X011817Y008608D01*
X011800Y008612D01*
X011783Y008614D01*
X011183Y008614D01*
X011166Y008612D01*
X011149Y008608D01*
X011133Y008601D01*
X011119Y008591D01*
X011106Y008578D01*
X011096Y008564D01*
X011089Y008548D01*
X011085Y008531D01*
X011083Y008514D01*
X011183Y004283D02*
X011783Y004283D01*
X011800Y004281D01*
X011817Y004277D01*
X011833Y004270D01*
X011847Y004260D01*
X011860Y004247D01*
X011870Y004233D01*
X011877Y004217D01*
X011881Y004200D01*
X011883Y004183D01*
X011883Y003083D01*
X011881Y003066D01*
X011877Y003049D01*
X011870Y003033D01*
X011860Y003019D01*
X011847Y003006D01*
X011833Y002996D01*
X011817Y002989D01*
X011800Y002985D01*
X011783Y002983D01*
X011183Y002983D01*
X011166Y002985D01*
X011149Y002989D01*
X011133Y002996D01*
X011119Y003006D01*
X011106Y003019D01*
X011096Y003033D01*
X011089Y003049D01*
X011085Y003066D01*
X011083Y003083D01*
X011083Y004183D01*
X011085Y004200D01*
X011089Y004217D01*
X011096Y004233D01*
X011106Y004247D01*
X011119Y004260D01*
X011133Y004270D01*
X011149Y004277D01*
X011166Y004281D01*
X011183Y004283D01*
D15*
X010105Y003672D03*
X004593Y003672D03*
D16*
X011209Y004402D02*
X011489Y004402D01*
X011489Y004495D02*
X011489Y004308D01*
X011302Y004308D02*
X011209Y004402D01*
M02*
